<svg width="161" height="50" viewBox="0 0 161 50" fill="none" xmlns="http://www.w3.org/2000/svg">
<mask id="mask0_2684_89138" style="mask-type:luminance" maskUnits="userSpaceOnUse" x="0" y="10" width="161" height="30">
<path d="M160.742 10.4015H0.742188V39.5986H160.742V10.4015Z" fill="white"/>
</mask>
<g mask="url(#mask0_2684_89138)">
<path d="M2.5349 32.1942C4.84656 36.3285 8.88017 38.9212 13.2441 39.5986C13.0789 35.0672 9.37553 30.5125 3.76151 28.5271C2.81796 28.2001 1.87443 27.9431 0.930894 27.7796C1.23754 29.2979 1.75648 30.7694 2.5349 32.1942ZM15.5321 28.4804C15.3435 32.5679 16.6407 36.3519 18.9524 39.3884C20.2261 39.0847 21.4764 38.6176 22.6794 37.9636C29.8502 34.0395 32.445 25.1168 28.4821 18.0161C27.633 16.4745 26.5479 15.1664 25.2741 14.0686C19.778 16.5913 15.8387 22.0336 15.5321 28.4804ZM8.33764 12.2467C3.85586 14.6993 1.16678 19.1139 0.742188 23.8322C1.89802 23.9957 3.07744 24.0424 4.30403 23.9256C11.7108 23.295 17.4191 17.5723 18.1033 10.6351C17.2541 10.4949 16.3812 10.4015 15.5085 10.4015C13.0789 10.4015 10.6257 10.9854 8.33764 12.2467Z" fill="url(#paint0_linear_2684_89138)"/>
<path d="M83.5624 12.5262H79.293V37.0051H83.5624V12.5262Z" fill="black"/>
<path d="M96.4659 19.2302C94.343 19.2302 92.2908 20.0244 90.9933 22.1499V19.6039H87.1484V37.0054H91.2764V27.8024C91.2764 27.0784 91.3472 26.401 91.4652 25.8871C91.937 24.0185 93.2815 22.9207 95.2629 22.9207C97.2443 22.9207 98.4945 23.9484 98.8719 25.9805C98.9662 26.4711 99.0134 27.1718 99.0134 27.8024V37.0287H103.118V26.7046C103.118 25.5601 103 24.509 102.74 23.6214C101.844 20.655 99.4617 19.2302 96.4659 19.2302Z" fill="black"/>
<path d="M120.1 23.9248C121.751 22.6635 122.459 21.1919 122.459 19.1131C122.459 15.9832 120.502 13.6474 117.53 12.8533C116.751 12.643 115.501 12.5262 114.038 12.5262H106.23V37.0051H114.982C116.68 37.0051 117.835 36.8416 118.945 36.4445C121.869 35.4167 123.898 33.1744 123.898 29.8576C123.921 27.1014 122.577 25.1394 120.1 23.9248ZM110.476 16.3803H114.274C115.147 16.3803 116.067 16.497 116.657 16.7773C117.694 17.2445 118.237 18.1321 118.237 19.4401C118.237 20.7481 117.647 21.6824 116.586 22.1496C116.067 22.3832 115.288 22.5 114.416 22.5H110.476V16.3803ZM116.892 33.0109C116.444 33.1043 115.713 33.1511 115.218 33.1511H110.476V26.2605H115.571C116.02 26.2605 116.539 26.3073 116.916 26.3773C118.92 26.8211 119.676 28.3861 119.676 29.6941C119.676 31.4459 118.568 32.6372 116.892 33.0109Z" fill="black"/>
<path d="M156.308 19.6042L151.921 32.0306L147.463 19.6042H143.004L149.963 37.0058H153.785L160.743 19.6042H156.308Z" fill="black"/>
<path d="M134.326 19.2302C129.325 19.2302 125.434 23.2243 125.434 28.4097C125.434 33.2214 129.255 37.3557 134.491 37.3557C138.312 37.3557 141.284 35.1835 142.794 31.6565H138.596C137.652 33.0579 136.378 33.8054 134.562 33.8054C131.825 33.8054 130.056 32.217 129.514 29.7645H143.219C143.313 29.1805 143.361 28.69 143.337 28.1061C143.289 23.4579 139.681 19.2302 134.326 19.2302ZM129.514 26.9382C129.82 24.4389 131.849 22.7805 134.349 22.7805C136.968 22.7805 138.95 24.4857 139.255 26.9382H129.514Z" fill="black"/>
<path d="M72.9213 23.9487C74.6904 22.664 75.3273 20.7253 75.3273 19.0903C75.3273 15.9604 73.3695 13.6246 70.3974 12.8304C69.6189 12.6202 68.3688 12.5034 66.9063 12.5034H59.0985V22.8275C56.9285 23.1545 54.8055 23.6684 52.8005 24.3224L47.9413 12.5268H44.0256L33.9297 37.0056H38.0341C41.5959 33.2918 45.8419 30.6056 50.2528 28.8304L53.3429 37.0056H58.0134L54.0977 27.5224C55.7726 27.0553 57.4473 26.7049 59.0985 26.4713V37.0056H61.2215H68.6754C73.9356 37.0056 76.7662 33.9458 76.7662 29.8582C76.7898 27.3823 75.5396 25.2801 72.9213 23.9487ZM40.4166 31.4465L45.9126 17.3618L49.0971 25.8173C45.7947 27.3122 42.8461 29.2275 40.4166 31.4465ZM63.3445 16.3808H66.977C67.8026 16.3808 68.5102 16.4742 68.9821 16.6377C70.3738 17.0815 71.105 18.1093 71.105 19.7677C71.105 21.3093 70.3266 22.3137 69.0764 22.7808C67.897 22.594 66.576 22.4772 65.1136 22.4772C64.5711 22.4772 63.9577 22.4772 63.3445 22.5005V16.3808ZM68.4396 33.1516H63.3445V26.121C63.9813 26.0976 64.6183 26.0742 65.2315 26.0742C69.8548 26.1443 72.5439 27.4757 72.5439 29.8348C72.5675 32.0071 70.6332 33.1516 68.4396 33.1516Z" fill="black"/>
</g>
<defs>
<linearGradient id="paint0_linear_2684_89138" x1="0.742188" y1="25.0001" x2="30.3548" y2="25.0001" gradientUnits="userSpaceOnUse">
<stop stop-color="#D3A238"/>
<stop offset="0.06" stop-color="#D7AA31"/>
<stop offset="0.26" stop-color="#E4C11C"/>
<stop offset="0.47" stop-color="#EDD20E"/>
<stop offset="0.71" stop-color="#F3DC05"/>
<stop offset="1" stop-color="#F5E003"/>
</linearGradient>
</defs>
</svg>
