<svg width="93" height="107" viewBox="0 0 93 107" fill="none" xmlns="http://www.w3.org/2000/svg">
<g clip-path="url(#clip0_6383_96481)">
<path d="M0.523438 83.3696L46.5234 106.036L92.5234 83.3696V0.0356445H0.523438V83.3696Z" fill="white"/>
<path d="M0.523438 83.3696L46.5234 106.036L92.5234 83.3696V0.0356445H0.523438V83.3696Z" fill="white"/>
<path d="M11.2181 12.8227C10.9715 12.8227 10.7415 12.7927 10.5281 12.7327C10.3148 12.6727 10.1248 12.5894 9.95813 12.4827C9.78479 12.3694 9.64479 12.246 9.53813 12.1127C9.42479 11.9794 9.35479 11.836 9.32812 11.6827L10.2581 11.4027C10.3181 11.5627 10.4281 11.6994 10.5881 11.8127C10.7415 11.926 10.9348 11.986 11.1681 11.9927C11.4148 11.9994 11.6148 11.946 11.7681 11.8327C11.9281 11.7194 12.0081 11.576 12.0081 11.4027C12.0081 11.2494 11.9448 11.1194 11.8181 11.0127C11.6981 10.906 11.5281 10.826 11.3081 10.7727L10.6781 10.6027C10.4381 10.5427 10.2281 10.4494 10.0481 10.3227C9.86146 10.2027 9.71812 10.0494 9.61812 9.86269C9.51812 9.68269 9.46812 9.47269 9.46812 9.23269C9.46812 8.76602 9.61813 8.40268 9.91813 8.14268C10.2248 7.88935 10.6581 7.76269 11.2181 7.76269C11.5315 7.76269 11.8081 7.80602 12.0481 7.89268C12.2815 7.98602 12.4781 8.11602 12.6381 8.28269C12.7915 8.44935 12.9115 8.64935 12.9981 8.88269L12.0681 9.16269C12.0148 9.00269 11.9115 8.86935 11.7581 8.76269C11.6115 8.64935 11.4215 8.59269 11.1881 8.59269C10.9548 8.59269 10.7748 8.64602 10.6481 8.75269C10.5148 8.85935 10.4481 9.01269 10.4481 9.21269C10.4481 9.36602 10.4981 9.48602 10.5981 9.57269C10.7048 9.65935 10.8481 9.72602 11.0281 9.77269L11.6781 9.93268C12.0981 10.0394 12.4248 10.226 12.6581 10.4927C12.8915 10.7594 13.0081 11.056 13.0081 11.3827C13.0081 11.6694 12.9381 11.9194 12.7981 12.1327C12.6581 12.3527 12.4548 12.5227 12.1881 12.6427C11.9215 12.7627 11.5981 12.8227 11.2181 12.8227ZM16.4381 12.8427C16.0381 12.8427 15.6881 12.7627 15.3881 12.6027C15.0881 12.4427 14.8581 12.2194 14.6981 11.9327C14.5381 11.646 14.4581 11.306 14.4581 10.9127V7.84269H15.4181V10.9127C15.4181 11.126 15.4615 11.3094 15.5481 11.4627C15.6281 11.6227 15.7481 11.7427 15.9081 11.8227C16.0615 11.9094 16.2448 11.9527 16.4581 11.9527C16.6648 11.9527 16.8481 11.9094 17.0081 11.8227C17.1615 11.7427 17.2815 11.6227 17.3681 11.4627C17.4548 11.3094 17.4981 11.126 17.4981 10.9127V7.84269H18.4581V10.9127C18.4581 11.306 18.3748 11.646 18.2081 11.9327C18.0415 12.2194 17.8081 12.4427 17.5081 12.6027C17.2081 12.7627 16.8515 12.8427 16.4381 12.8427ZM20.1481 12.7427V7.84269H21.1981L22.6281 9.95269L24.0481 7.84269H25.0881V12.7427H24.1381V9.34269L22.6281 11.5627L21.1081 9.35268V12.7427H20.1481ZM26.8481 12.7427V7.84269H27.8981L29.3181 9.95269L30.7481 7.84269H31.7881V12.7427H30.8381V9.34269L29.3181 11.5627L27.8081 9.35268V12.7427H26.8481ZM33.5481 12.7427V7.84269H36.6481V8.71269L34.5081 8.72268V9.83269H36.3581V10.6827H34.5081V11.8727H36.6781V12.7427H33.5481ZM38.3781 12.7427V7.84269H40.1981C40.5381 7.84269 40.8415 7.90935 41.1081 8.04269C41.3748 8.18269 41.5848 8.36935 41.7381 8.60268C41.8848 8.83602 41.9581 9.10935 41.9581 9.42269C41.9581 9.72935 41.8815 10.0027 41.7281 10.2427C41.5681 10.4827 41.3548 10.6694 41.0881 10.8027C40.8148 10.936 40.5048 11.0027 40.1581 11.0027H39.3381V12.7427H38.3781ZM41.0681 12.7427L39.9381 10.7727L40.6681 10.2527L42.1581 12.7427H41.0681ZM39.3381 10.1327H40.1981C40.3448 10.1327 40.4748 10.1027 40.5881 10.0427C40.7015 9.98269 40.7915 9.89935 40.8581 9.79269C40.9315 9.68602 40.9681 9.56269 40.9681 9.42269C40.9681 9.21602 40.8915 9.04602 40.7381 8.91269C40.5848 8.78602 40.3881 8.72268 40.1481 8.72268H39.3381V10.1327ZM45.7781 12.7427V12.0327C45.7781 11.8994 45.8215 11.7527 45.9081 11.5927C45.9881 11.426 46.1048 11.2627 46.2581 11.1027C46.4048 10.936 46.5781 10.7827 46.7781 10.6427L47.5281 10.1127C47.6281 10.0394 47.7248 9.95935 47.8181 9.87269C47.9048 9.78602 47.9781 9.68935 48.0381 9.58269C48.0981 9.47602 48.1281 9.37602 48.1281 9.28269C48.1281 9.15602 48.0981 9.04602 48.0381 8.95269C47.9781 8.85269 47.8915 8.77602 47.7781 8.72268C47.6715 8.66268 47.5348 8.63269 47.3681 8.63269C47.2281 8.63269 47.1048 8.66268 46.9981 8.72268C46.8848 8.77602 46.7948 8.84935 46.7281 8.94269C46.6548 9.03602 46.6048 9.13602 46.5781 9.24269L45.5881 9.07269C45.6348 8.83935 45.7348 8.62269 45.8881 8.42269C46.0481 8.22269 46.2515 8.05935 46.4981 7.93268C46.7448 7.81268 47.0281 7.75269 47.3481 7.75269C47.7148 7.75269 48.0281 7.81935 48.2881 7.95269C48.5481 8.07935 48.7481 8.25602 48.8881 8.48269C49.0348 8.70935 49.1081 8.97269 49.1081 9.27269C49.1081 9.57269 49.0248 9.84269 48.8581 10.0827C48.6915 10.316 48.4648 10.536 48.1781 10.7427L47.5081 11.2227C47.3748 11.316 47.2581 11.4194 47.1581 11.5327C47.0581 11.646 46.9848 11.7694 46.9381 11.9027H49.1681V12.7427H45.7781ZM52.4481 12.8227C52.0481 12.8227 51.6981 12.716 51.3981 12.5027C51.0915 12.2827 50.8515 11.9827 50.6781 11.6027C50.5048 11.2227 50.4181 10.786 50.4181 10.2927C50.4181 9.79935 50.5048 9.36269 50.6781 8.98269C50.8515 8.60269 51.0881 8.30269 51.3881 8.08269C51.6881 7.86935 52.0381 7.76269 52.4381 7.76269C52.8315 7.76269 53.1815 7.86935 53.4881 8.08269C53.7948 8.30269 54.0348 8.60269 54.2081 8.98269C54.3815 9.36269 54.4681 9.79935 54.4681 10.2927C54.4681 10.786 54.3815 11.2227 54.2081 11.6027C54.0348 11.9827 53.7981 12.2827 53.4981 12.5027C53.1915 12.716 52.8415 12.8227 52.4481 12.8227ZM52.4481 11.9627C52.6548 11.9627 52.8415 11.8894 53.0081 11.7427C53.1748 11.6027 53.3048 11.406 53.3981 11.1527C53.4915 10.906 53.5381 10.6194 53.5381 10.2927C53.5381 9.96602 53.4915 9.67602 53.3981 9.42269C53.3048 9.16935 53.1748 8.97269 53.0081 8.83269C52.8415 8.69269 52.6515 8.62269 52.4381 8.62269C52.2248 8.62269 52.0381 8.69269 51.8781 8.83269C51.7115 8.97269 51.5848 9.16935 51.4981 9.42269C51.4048 9.67602 51.3581 9.96602 51.3581 10.2927C51.3581 10.6194 51.4048 10.906 51.4981 11.1527C51.5848 11.406 51.7115 11.6027 51.8781 11.7427C52.0448 11.8894 52.2348 11.9627 52.4481 11.9627ZM55.7681 12.7427V12.0327C55.7681 11.8994 55.8115 11.7527 55.8981 11.5927C55.9781 11.426 56.0948 11.2627 56.2481 11.1027C56.3948 10.936 56.5681 10.7827 56.7681 10.6427L57.5081 10.1127C57.6148 10.0394 57.7115 9.95935 57.7981 9.87269C57.8915 9.78602 57.9681 9.68935 58.0281 9.58269C58.0881 9.47602 58.1181 9.37602 58.1181 9.28269C58.1181 9.15602 58.0881 9.04602 58.0281 8.95269C57.9681 8.85269 57.8815 8.77602 57.7681 8.72268C57.6615 8.66268 57.5248 8.63269 57.3581 8.63269C57.2181 8.63269 57.0948 8.66268 56.9881 8.72268C56.8748 8.77602 56.7848 8.84935 56.7181 8.94269C56.6448 9.03602 56.5948 9.13602 56.5681 9.24269L55.5781 9.07269C55.6248 8.83935 55.7248 8.62269 55.8781 8.42269C56.0315 8.22269 56.2348 8.05935 56.4881 7.93268C56.7348 7.81268 57.0181 7.75269 57.3381 7.75269C57.7048 7.75269 58.0181 7.81935 58.2781 7.95269C58.5381 8.07935 58.7381 8.25602 58.8781 8.48269C59.0248 8.70935 59.0981 8.97269 59.0981 9.27269C59.0981 9.57269 59.0148 9.84269 58.8481 10.0827C58.6815 10.316 58.4548 10.536 58.1681 10.7427L57.4981 11.2227C57.3648 11.316 57.2481 11.4194 57.1481 11.5327C57.0481 11.646 56.9748 11.7694 56.9281 11.9027H59.1581V12.7427H55.7681ZM62.2181 12.8227C61.9915 12.8227 61.7615 12.786 61.5281 12.7127C61.2948 12.6394 61.0815 12.5294 60.8881 12.3827C60.7015 12.2294 60.5648 12.0427 60.4781 11.8227L61.3481 11.5627C61.4481 11.716 61.5715 11.826 61.7181 11.8927C61.8581 11.966 62.0048 12.0027 62.1581 12.0027C62.4048 12.0027 62.6015 11.9294 62.7481 11.7827C62.9015 11.636 62.9781 11.4394 62.9781 11.1927C62.9781 10.9594 62.9048 10.766 62.7581 10.6127C62.6115 10.4594 62.4181 10.3827 62.1781 10.3827C62.0315 10.3827 61.8981 10.416 61.7781 10.4827C61.6581 10.5494 61.5648 10.626 61.4981 10.7127L60.6381 10.5227L60.9281 7.84269H63.6981V8.71269H61.7481L61.6081 9.88269C61.7348 9.81602 61.8748 9.75935 62.0281 9.71269C62.1815 9.67269 62.3481 9.65269 62.5281 9.65269C62.7948 9.65269 63.0348 9.71935 63.2481 9.85268C63.4681 9.97935 63.6448 10.1527 63.7781 10.3727C63.9048 10.5927 63.9681 10.8494 63.9681 11.1427C63.9681 11.476 63.8915 11.7694 63.7381 12.0227C63.5915 12.276 63.3881 12.4727 63.1281 12.6127C62.8681 12.7527 62.5648 12.8227 62.2181 12.8227Z" fill="black"/>
<path d="M31.5486 45.4927V34.2927H35.4686C36.2353 34.2927 36.9119 34.4094 37.4986 34.6427C38.0853 34.8761 38.5453 35.2327 38.8786 35.7127C39.2053 36.1927 39.3686 36.8027 39.3686 37.5427C39.3686 37.9361 39.2653 38.3061 39.0586 38.6527C38.8519 38.9994 38.5686 39.3127 38.2086 39.5927C38.7153 39.8594 39.1053 40.2061 39.3786 40.6327C39.6519 41.0661 39.7886 41.5994 39.7886 42.2327C39.7886 42.9327 39.6286 43.5261 39.3086 44.0127C38.9886 44.4994 38.5453 44.8661 37.9786 45.1127C37.4119 45.3661 36.7519 45.4927 35.9986 45.4927H31.5486ZM34.0586 43.2227H35.7086C36.1486 43.2227 36.4953 43.1061 36.7486 42.8727C37.0019 42.6461 37.1286 42.3527 37.1286 41.9927C37.1286 41.6061 36.9953 41.3027 36.7286 41.0827C36.4619 40.8627 36.0953 40.7527 35.6286 40.7527H34.0586V43.2227ZM34.0586 38.6927H35.3886C35.7953 38.6927 36.1219 38.5894 36.3686 38.3827C36.6086 38.1761 36.7286 37.8861 36.7286 37.5127C36.7286 37.1261 36.5986 36.8294 36.3386 36.6227C36.0786 36.4161 35.7286 36.3127 35.2886 36.3127H34.0586V38.6927ZM44.9286 45.6827C44.0953 45.6827 43.3586 45.5061 42.7186 45.1527C42.0786 44.7927 41.5753 44.2994 41.2086 43.6727C40.8486 43.0394 40.6686 42.3127 40.6686 41.4927C40.6686 40.6594 40.8519 39.9294 41.2186 39.3027C41.5853 38.6694 42.0886 38.1794 42.7286 37.8327C43.3686 37.4794 44.1119 37.3027 44.9586 37.3027C45.7119 37.3027 46.3953 37.4827 47.0086 37.8427C47.6153 38.2094 48.0953 38.7494 48.4486 39.4627C48.8086 40.1761 48.9886 41.0661 48.9886 42.1327H42.9686L43.2486 41.8327C43.2486 42.1927 43.3219 42.5127 43.4686 42.7927C43.6153 43.0661 43.8219 43.2761 44.0886 43.4227C44.3553 43.5627 44.6553 43.6327 44.9886 43.6327C45.3819 43.6327 45.7153 43.5461 45.9886 43.3727C46.2619 43.1994 46.4519 42.9794 46.5586 42.7127L48.7686 43.4627C48.5553 43.9627 48.2519 44.3794 47.8586 44.7127C47.4719 45.0394 47.0286 45.2827 46.5286 45.4427C46.0219 45.6027 45.4886 45.6827 44.9286 45.6827ZM43.3086 40.7927L43.0486 40.4727H46.6386L46.4086 40.7927C46.4086 40.3927 46.3286 40.0761 46.1686 39.8427C46.0086 39.6094 45.8119 39.4427 45.5786 39.3427C45.3453 39.2427 45.1119 39.1927 44.8786 39.1927C44.6453 39.1927 44.4086 39.2427 44.1686 39.3427C43.9286 39.4427 43.7253 39.6094 43.5586 39.8427C43.3919 40.0761 43.3086 40.3927 43.3086 40.7927ZM53.0486 45.6827C52.5286 45.6827 52.0419 45.6061 51.5886 45.4527C51.1353 45.2994 50.7419 45.0794 50.4086 44.7927C50.0819 44.5127 49.8386 44.1694 49.6786 43.7627L51.7286 42.9027C51.8619 43.1761 52.0519 43.3794 52.2986 43.5127C52.5453 43.6461 52.7953 43.7127 53.0486 43.7127C53.3153 43.7127 53.5253 43.6694 53.6786 43.5827C53.8253 43.4894 53.8986 43.3627 53.8986 43.2027C53.8986 43.0361 53.8219 42.9027 53.6686 42.8027C53.5153 42.7094 53.2953 42.6261 53.0086 42.5527L52.3186 42.3727C51.5719 42.1794 50.9986 41.8627 50.5986 41.4227C50.1986 40.9761 49.9986 40.4594 49.9986 39.8727C49.9986 39.0527 50.2819 38.4194 50.8486 37.9727C51.4086 37.5261 52.1919 37.3027 53.1986 37.3027C53.7653 37.3027 54.2619 37.3761 54.6886 37.5227C55.1219 37.6761 55.4853 37.8861 55.7786 38.1527C56.0719 38.4261 56.2819 38.7461 56.4086 39.1127L54.4286 39.9227C54.3553 39.7094 54.2019 39.5461 53.9686 39.4327C53.7419 39.3261 53.4886 39.2727 53.2086 39.2727C52.9753 39.2727 52.7953 39.3227 52.6686 39.4227C52.5419 39.5227 52.4786 39.6594 52.4786 39.8327C52.4786 39.9594 52.5553 40.0661 52.7086 40.1527C52.8619 40.2461 53.0886 40.3294 53.3886 40.4027L54.2386 40.6127C54.7386 40.7394 55.1586 40.9327 55.4986 41.1927C55.8386 41.4594 56.0953 41.7661 56.2686 42.1127C56.4419 42.4594 56.5286 42.8294 56.5286 43.2227C56.5286 43.7227 56.3819 44.1561 56.0886 44.5227C55.7953 44.8894 55.3853 45.1761 54.8586 45.3827C54.3386 45.5827 53.7353 45.6827 53.0486 45.6827ZM61.1486 45.6827C60.2019 45.6827 59.4953 45.4561 59.0286 45.0027C58.5619 44.5494 58.3286 43.9027 58.3286 43.0627V34.9927H60.8286V42.4327C60.8286 42.7527 60.8886 42.9894 61.0086 43.1427C61.1219 43.2894 61.3019 43.3627 61.5486 43.3627C61.6419 43.3627 61.7553 43.3394 61.8886 43.2927C62.0153 43.2461 62.1319 43.1861 62.2386 43.1127L63.0986 44.9327C62.8453 45.1461 62.5386 45.3261 62.1786 45.4727C61.8253 45.6127 61.4819 45.6827 61.1486 45.6827ZM57.0886 39.5927V37.4927H62.6486V39.5927H57.0886ZM21.6786 61.6827C21.1319 61.6827 20.6119 61.6127 20.1186 61.4727C19.6186 61.3261 19.1686 61.1261 18.7686 60.8727C18.3686 60.6261 18.0419 60.3461 17.7886 60.0327C17.5353 59.7127 17.3753 59.3727 17.3086 59.0127L19.8486 58.2927C19.9686 58.5994 20.1753 58.8694 20.4686 59.1027C20.7619 59.3294 21.1319 59.4494 21.5786 59.4627C22.0186 59.4694 22.3853 59.3661 22.6786 59.1527C22.9719 58.9394 23.1186 58.6627 23.1186 58.3227C23.1186 58.0561 23.0153 57.8227 22.8086 57.6227C22.5953 57.4161 22.2986 57.2594 21.9186 57.1527L20.3286 56.7527C19.7753 56.6194 19.2953 56.4027 18.8886 56.1027C18.4753 55.8027 18.1553 55.4361 17.9286 55.0027C17.6953 54.5694 17.5786 54.0761 17.5786 53.5227C17.5786 52.4494 17.9353 51.6094 18.6486 51.0027C19.3686 50.4027 20.3786 50.1027 21.6786 50.1027C22.3919 50.1027 23.0153 50.1994 23.5486 50.3927C24.0819 50.5927 24.5386 50.8861 24.9186 51.2727C25.2986 51.6527 25.5986 52.1327 25.8186 52.7127L23.2886 53.4627C23.2086 53.1761 23.0253 52.9127 22.7386 52.6727C22.4586 52.4394 22.0953 52.3227 21.6486 52.3227C21.1953 52.3227 20.8453 52.4261 20.5986 52.6327C20.3453 52.8327 20.2186 53.1261 20.2186 53.5127C20.2186 53.7794 20.3219 53.9994 20.5286 54.1727C20.7286 54.3461 21.0053 54.4761 21.3586 54.5627L22.9386 54.9627C23.8453 55.1894 24.5519 55.6094 25.0586 56.2227C25.5653 56.8361 25.8186 57.5327 25.8186 58.3127C25.8186 59.0127 25.6553 59.6127 25.3286 60.1127C25.0086 60.6194 24.5386 61.0061 23.9186 61.2727C23.2986 61.5461 22.5519 61.6827 21.6786 61.6827ZM32.3986 61.4927L32.2486 60.0227V53.4927H34.7486V61.4927H32.3986ZM27.0986 57.5927V53.4927H29.5986V57.5927H27.0986ZM29.5986 57.5927C29.5986 58.0061 29.6453 58.3394 29.7386 58.5927C29.8386 58.8527 29.9786 59.0394 30.1586 59.1527C30.3386 59.2727 30.5519 59.3394 30.7986 59.3527C31.2786 59.3527 31.6419 59.2161 31.8886 58.9427C32.1286 58.6694 32.2486 58.2594 32.2486 57.7127H33.0086C33.0086 58.5594 32.8786 59.2794 32.6186 59.8727C32.3653 60.4594 32.0153 60.9094 31.5686 61.2227C31.1286 61.5294 30.6153 61.6827 30.0286 61.6827C29.3886 61.6827 28.8486 61.5527 28.4086 61.2927C27.9753 61.0327 27.6486 60.6361 27.4286 60.1027C27.2086 59.5694 27.0986 58.8861 27.0986 58.0527V57.5927H29.5986ZM36.4586 64.6927V53.4927H38.8086L38.9586 54.9627V64.6927H36.4586ZM41.2286 61.6827C40.5686 61.6827 40.0153 61.5161 39.5686 61.1827C39.1153 60.8427 38.7786 60.3594 38.5586 59.7327C38.3319 59.1061 38.2186 58.3594 38.2186 57.4927C38.2186 56.6194 38.3319 55.8694 38.5586 55.2427C38.7786 54.6227 39.1153 54.1427 39.5686 53.8027C40.0153 53.4694 40.5686 53.3027 41.2286 53.3027C41.9753 53.3027 42.6219 53.4694 43.1686 53.8027C43.7086 54.1427 44.1219 54.6227 44.4086 55.2427C44.7019 55.8694 44.8486 56.6194 44.8486 57.4927C44.8486 58.3594 44.7019 59.1061 44.4086 59.7327C44.1219 60.3594 43.7086 60.8427 43.1686 61.1827C42.6219 61.5161 41.9753 61.6827 41.2286 61.6827ZM40.5886 59.3827C40.9086 59.3827 41.1919 59.3027 41.4386 59.1427C41.6853 58.9827 41.8819 58.7594 42.0286 58.4727C42.1753 58.1927 42.2486 57.8661 42.2486 57.4927C42.2486 57.1194 42.1819 56.7927 42.0486 56.5127C41.9086 56.2261 41.7119 56.0027 41.4586 55.8427C41.2119 55.6827 40.9286 55.6027 40.6086 55.6027C40.2886 55.6027 40.0019 55.6827 39.7486 55.8427C39.4953 56.0027 39.3019 56.2261 39.1686 56.5127C39.0286 56.8061 38.9586 57.1327 38.9586 57.4927C38.9586 57.8661 39.0286 58.1927 39.1686 58.4727C39.3019 58.7594 39.4919 58.9827 39.7386 59.1427C39.9853 59.3027 40.2686 59.3827 40.5886 59.3827ZM46.1386 64.6927V53.4927H48.4886L48.6386 54.9627V64.6927H46.1386ZM50.9086 61.6827C50.2486 61.6827 49.6953 61.5161 49.2486 61.1827C48.7953 60.8427 48.4586 60.3594 48.2386 59.7327C48.0119 59.1061 47.8986 58.3594 47.8986 57.4927C47.8986 56.6194 48.0119 55.8694 48.2386 55.2427C48.4586 54.6227 48.7953 54.1427 49.2486 53.8027C49.6953 53.4694 50.2486 53.3027 50.9086 53.3027C51.6553 53.3027 52.3019 53.4694 52.8486 53.8027C53.3886 54.1427 53.8019 54.6227 54.0886 55.2427C54.3819 55.8694 54.5286 56.6194 54.5286 57.4927C54.5286 58.3594 54.3819 59.1061 54.0886 59.7327C53.8019 60.3594 53.3886 60.8427 52.8486 61.1827C52.3019 61.5161 51.6553 61.6827 50.9086 61.6827ZM50.2686 59.3827C50.5886 59.3827 50.8719 59.3027 51.1186 59.1427C51.3653 58.9827 51.5619 58.7594 51.7086 58.4727C51.8553 58.1927 51.9286 57.8661 51.9286 57.4927C51.9286 57.1194 51.8619 56.7927 51.7286 56.5127C51.5886 56.2261 51.3919 56.0027 51.1386 55.8427C50.8919 55.6827 50.6086 55.6027 50.2886 55.6027C49.9686 55.6027 49.6819 55.6827 49.4286 55.8427C49.1753 56.0027 48.9819 56.2261 48.8486 56.5127C48.7086 56.8061 48.6386 57.1327 48.6386 57.4927C48.6386 57.8661 48.7086 58.1927 48.8486 58.4727C48.9819 58.7594 49.1719 58.9827 49.4186 59.1427C49.6653 59.3027 49.9486 59.3827 50.2686 59.3827ZM59.6086 61.6827C58.7686 61.6827 58.0286 61.5061 57.3886 61.1527C56.7486 60.7927 56.2453 60.2994 55.8786 59.6727C55.5119 59.0394 55.3286 58.3127 55.3286 57.4927C55.3286 56.6727 55.5053 55.9461 55.8586 55.3127C56.2186 54.6861 56.7219 54.1927 57.3686 53.8327C58.0086 53.4794 58.7419 53.3027 59.5686 53.3027C60.4086 53.3027 61.1519 53.4794 61.7986 53.8327C62.4453 54.1927 62.9453 54.6861 63.2986 55.3127C63.6586 55.9461 63.8386 56.6727 63.8386 57.4927C63.8386 58.3127 63.6586 59.0394 63.2986 59.6727C62.9453 60.2994 62.4486 60.7927 61.8086 61.1527C61.1686 61.5061 60.4353 61.6827 59.6086 61.6827ZM59.6086 59.3827C59.9286 59.3827 60.2153 59.3027 60.4686 59.1427C60.7219 58.9827 60.9186 58.7594 61.0586 58.4727C61.2053 58.1927 61.2786 57.8661 61.2786 57.4927C61.2786 57.1194 61.2053 56.7927 61.0586 56.5127C60.9186 56.2261 60.7186 56.0027 60.4586 55.8427C60.2053 55.6827 59.9119 55.6027 59.5786 55.6027C59.2519 55.6027 58.9586 55.6827 58.6986 55.8427C58.4453 56.0027 58.2453 56.2261 58.0986 56.5127C57.9586 56.7927 57.8886 57.1194 57.8886 57.4927C57.8886 57.8661 57.9586 58.1927 58.0986 58.4727C58.2453 58.7594 58.4486 58.9827 58.7086 59.1427C58.9686 59.3027 59.2686 59.3827 59.6086 59.3827ZM66.8886 57.3527C66.8886 56.4861 67.0619 55.7661 67.4086 55.1927C67.7553 54.6127 68.1953 54.1794 68.7286 53.8927C69.2553 53.6061 69.8053 53.4627 70.3786 53.4627V55.8927C69.8919 55.8927 69.4319 55.9461 68.9986 56.0527C68.5653 56.1594 68.2153 56.3227 67.9486 56.5427C67.6819 56.7627 67.5486 57.0427 67.5486 57.3827L66.8886 57.3527ZM65.0486 61.4927V53.4927H67.5486V61.4927H65.0486ZM74.8586 61.6827C73.9119 61.6827 73.2053 61.4561 72.7386 61.0027C72.2786 60.5494 72.0486 59.9027 72.0486 59.0627V50.9927H74.5386V58.4327C74.5386 58.7527 74.5986 58.9894 74.7186 59.1427C74.8319 59.2894 75.0119 59.3627 75.2586 59.3627C75.3586 59.3627 75.4719 59.3394 75.5986 59.2927C75.7253 59.2461 75.8419 59.1861 75.9486 59.1127L76.8086 60.9327C76.5553 61.1461 76.2486 61.3261 75.8886 61.4727C75.5353 61.6127 75.1919 61.6827 74.8586 61.6827ZM70.7986 55.5927V53.4927H76.3686V55.5927H70.7986Z" fill="black"/>
<path d="M28.3984 71.8726V68.0226H30.8284V68.7026H29.1484V69.5826H30.5984V70.2526H29.1484V71.1826H30.8584V71.8726H28.3984ZM32.1884 71.8726V68.0226H32.9684L34.8484 70.6026V68.0226H35.5984V71.8726H34.8484L32.9384 69.2326V71.8726H32.1884ZM37.7984 71.8726V68.7026H36.6484V68.0226H39.7084V68.7026H38.5584V71.8726H37.7984ZM40.7484 71.8726V68.0226H43.1884V68.7026H41.4984V69.5826H42.9584V70.2526H41.4984V71.1826H43.2084V71.8726H40.7484ZM44.5384 71.8726V68.0226H45.9684C46.2418 68.0226 46.4818 68.0726 46.6884 68.1726C46.8951 68.2793 47.0584 68.426 47.1784 68.6126C47.2984 68.7993 47.3584 69.016 47.3584 69.2626C47.3584 69.5026 47.2951 69.716 47.1684 69.9026C47.0484 70.096 46.8818 70.2426 46.6684 70.3426C46.4551 70.4493 46.2118 70.5026 45.9384 70.5026H45.2884V71.8726H44.5384ZM46.6584 71.8726L45.7684 70.3226L46.3384 69.9126L47.5084 71.8726H46.6584ZM45.2884 69.8126H45.9784C46.0918 69.8126 46.1918 69.7893 46.2784 69.7426C46.3718 69.696 46.4451 69.6293 46.4984 69.5426C46.5451 69.4626 46.5684 69.3693 46.5684 69.2626C46.5684 69.096 46.5118 68.9626 46.3984 68.8626C46.2784 68.756 46.1251 68.7026 45.9384 68.7026H45.2884V69.8126ZM48.6384 71.8726V68.0226H50.0684C50.3351 68.0226 50.5751 68.076 50.7884 68.1826C50.9951 68.2893 51.1584 68.4393 51.2784 68.6326C51.3918 68.826 51.4484 69.0493 51.4484 69.3026C51.4484 69.5493 51.3918 69.7693 51.2784 69.9626C51.1651 70.156 51.0118 70.3093 50.8184 70.4226C50.6184 70.536 50.3884 70.5926 50.1284 70.5926H49.3884V71.8726H48.6384ZM49.3884 69.9026H50.1084C50.2751 69.9026 50.4151 69.846 50.5284 69.7326C50.6351 69.6193 50.6884 69.476 50.6884 69.3026C50.6884 69.1226 50.6284 68.9793 50.5084 68.8726C50.3884 68.7593 50.2351 68.7026 50.0484 68.7026H49.3884V69.9026ZM52.4984 71.8726V68.0226H53.9284C54.2018 68.0226 54.4418 68.0726 54.6484 68.1726C54.8618 68.2793 55.0251 68.426 55.1384 68.6126C55.2584 68.7993 55.3184 69.016 55.3184 69.2626C55.3184 69.5026 55.2584 69.716 55.1384 69.9026C55.0118 70.096 54.8418 70.2426 54.6284 70.3426C54.4151 70.4493 54.1751 70.5026 53.9084 70.5026H53.2584V71.8726H52.4984ZM54.6184 71.8726L53.7284 70.3226L54.3084 69.9126L55.4684 71.8726H54.6184ZM53.2584 69.8126H53.9384C54.0518 69.8126 54.1518 69.7893 54.2384 69.7426C54.3318 69.696 54.4051 69.6293 54.4584 69.5426C54.5118 69.4626 54.5384 69.3693 54.5384 69.2626C54.5384 69.096 54.4784 68.9626 54.3584 68.8626C54.2384 68.756 54.0851 68.7026 53.8984 68.7026H53.2584V69.8126ZM56.5984 71.8726V68.0226H57.3484V71.8726H56.5984ZM60.0284 71.9326C59.8351 71.9326 59.6551 71.9093 59.4884 71.8626C59.3218 71.816 59.1718 71.7493 59.0384 71.6626C58.9051 71.576 58.7951 71.4793 58.7084 71.3726C58.6218 71.266 58.5651 71.1526 58.5384 71.0326L59.2784 70.8126C59.3251 70.9393 59.4084 71.0493 59.5284 71.1426C59.6484 71.2293 59.8018 71.276 59.9884 71.2826C60.1818 71.2826 60.3384 71.2393 60.4584 71.1526C60.5851 71.066 60.6484 70.9526 60.6484 70.8126C60.6484 70.6926 60.5984 70.5893 60.4984 70.5026C60.4051 70.4226 60.2718 70.3593 60.0984 70.3126L59.5984 70.1826C59.4118 70.136 59.2484 70.0626 59.1084 69.9626C58.9618 69.8693 58.8484 69.7493 58.7684 69.6026C58.6884 69.4626 58.6484 69.296 58.6484 69.1026C58.6484 68.7426 58.7684 68.4593 59.0084 68.2526C59.2484 68.0526 59.5884 67.9526 60.0284 67.9526C60.2751 67.9526 60.4918 67.9893 60.6784 68.0626C60.8651 68.1293 61.0184 68.2293 61.1384 68.3626C61.2651 68.496 61.3618 68.6526 61.4284 68.8326L60.6984 69.0526C60.6518 68.9326 60.5718 68.8293 60.4584 68.7426C60.3384 68.6493 60.1884 68.6026 60.0084 68.6026C59.8284 68.6026 59.6851 68.646 59.5784 68.7326C59.4718 68.8193 59.4184 68.9393 59.4184 69.0926C59.4184 69.2126 59.4618 69.306 59.5484 69.3726C59.6284 69.446 59.7384 69.4993 59.8784 69.5326L60.3884 69.6626C60.7218 69.7426 60.9784 69.886 61.1584 70.0926C61.3451 70.306 61.4384 70.5393 61.4384 70.7926C61.4384 71.0193 61.3818 71.2193 61.2684 71.3926C61.1618 71.566 61.0018 71.6993 60.7884 71.7926C60.5818 71.886 60.3284 71.9326 60.0284 71.9326ZM62.6284 71.8726V68.0226H65.0684V68.7026H63.3784V69.5826H64.8284V70.2526H63.3784V71.1826H65.0884V71.8726H62.6284Z" fill="black"/>
<path d="M71.5234 0.0356445H92.5234V21.0356H71.5234V0.0356445Z" fill="#FF492C"/>
<mask id="mask0_6383_96481" style="mask-type:luminance" maskUnits="userSpaceOnUse" x="71" y="0" width="22" height="22">
<path d="M71.5234 0.0356445H92.5234V21.0356H71.5234V0.0356445Z" fill="white"/>
</mask>
<g mask="url(#mask0_6383_96481)">
<path fill-rule="evenodd" clip-rule="evenodd" d="M86.5729 8.07761H84.7789C84.8279 7.79661 85.0009 7.63961 85.3529 7.46161L85.6839 7.29361C86.2749 6.99061 86.5899 6.64961 86.5899 6.09361C86.596 5.93269 86.562 5.77277 86.4909 5.62825C86.4199 5.48372 86.314 5.35911 86.1829 5.26561C85.9169 5.06561 85.5919 4.96761 85.2179 4.96761C84.9281 4.96454 84.6437 5.04546 84.3989 5.20061C84.164 5.3395 83.9754 5.54478 83.8569 5.79061L84.3769 6.30961C84.5779 5.90361 84.8709 5.70361 85.2559 5.70361C85.5809 5.70361 85.7819 5.87161 85.7819 6.10361C85.7819 6.29861 85.6839 6.46061 85.3099 6.64961L85.0989 6.75261C84.6379 6.98561 84.3179 7.25061 84.1339 7.55261C83.9489 7.85061 83.8569 8.23461 83.8569 8.69461V8.81861H86.5729V8.07861V8.07761ZM86.3279 9.67761H83.3619L81.8789 12.2476H84.8449L86.3279 14.8176L87.8119 12.2476L86.3279 9.67761Z" fill="white"/>
<path fill-rule="evenodd" clip-rule="evenodd" d="M82.1309 13.9647C81.2218 13.9639 80.3501 13.6026 79.7071 12.9599C79.0641 12.3173 78.7022 11.4458 78.7009 10.5367C78.7025 9.6278 79.0645 8.7566 79.7075 8.11417C80.3505 7.47174 81.222 7.11052 82.1309 7.10973L83.3049 4.65373C82.4345 4.47976 81.5364 4.50107 80.6752 4.71612C79.8141 4.93116 79.0114 5.33459 78.3249 5.89733C77.6385 6.46006 77.0855 7.16808 76.7058 7.97034C76.326 8.77261 76.129 9.64913 76.1289 10.5367C76.129 11.3247 76.2844 12.105 76.5861 12.833C76.8878 13.561 77.33 14.2224 77.8873 14.7794C78.4447 15.3365 79.1063 15.7783 79.8344 16.0797C80.5625 16.381 81.3429 16.536 82.1309 16.5357C83.4015 16.5378 84.6397 16.135 85.6659 15.3857L84.3659 13.1337C83.7449 13.6701 82.9515 13.9651 82.1309 13.9647Z" fill="white"/>
<path d="M72.0117 0.702637V20.5706" stroke="black" stroke-width="1.085"/>
</g>
<path d="M0.523438 83.5557V77.0557L46.5234 100.098L92.5234 77.0557V83.5557L46.5234 106.036L0.523438 83.5557Z" fill="#27D3BC"/>
<path d="M0.523438 77.6016V71.1016L46.5234 94.1436L92.5234 71.1016V77.6016L46.5234 100.082L0.523438 77.6016Z" fill="white"/>
<path d="M0.523438 71.6667V65.1667L46.5234 88.2097L92.5234 65.1667V71.6667L46.5234 94.1467L0.523438 71.6667Z" fill="white"/>
<path d="M92.0984 20.5706H1.14841M91.9804 83.0326L46.5234 105.431L1.06641 83.0326V0.578613H91.9804V83.0326Z" stroke="black" stroke-width="1.085"/>
</g>
<defs>
<clipPath id="clip0_6383_96481">
<rect width="92" height="106" fill="white" transform="translate(0.523438 0.0356445)"/>
</clipPath>
</defs>
</svg>
