<svg width="93" height="107" viewBox="0 0 93 107" fill="none" xmlns="http://www.w3.org/2000/svg">
<g clip-path="url(#clip0_6383_96482)">
<path d="M0.931641 83.7166L46.9316 106.383L92.9316 83.7166V0.382568H0.931641V83.7166Z" fill="white"/>
<path d="M0.931641 83.7166L46.9316 106.383L92.9316 83.7166V0.382568H0.931641V83.7166Z" fill="white"/>
<path d="M17.3965 13.0896V8.18961H20.5365V9.05961L18.3565 9.06961V10.2396H20.1765V11.1196H18.3565V13.0896H17.3965ZM25.3665 13.0896L23.4865 8.18961H24.4465L26.3865 13.0896H25.3665ZM21.4965 13.0896L23.4265 8.18961H24.3865L22.5065 13.0896H21.4965ZM22.4065 12.0096V11.1696H25.4765V12.0096H22.4065ZM27.6665 13.0896V8.18961H28.6265V12.2196H30.7865V13.0896H27.6665ZM32.1265 13.0896V8.18961H33.0865V12.2196H35.2465V13.0896H32.1265ZM38.7765 13.0896V12.3796C38.7765 12.2463 38.8198 12.0996 38.9065 11.9396C38.9865 11.7729 39.1032 11.6096 39.2565 11.4496C39.4032 11.2829 39.5765 11.1296 39.7765 10.9896L40.5265 10.4596C40.6265 10.3863 40.7231 10.3063 40.8165 10.2196C40.9031 10.1329 40.9765 10.0363 41.0365 9.92961C41.0965 9.82294 41.1265 9.72294 41.1265 9.62961C41.1265 9.50294 41.0965 9.39294 41.0365 9.29961C40.9765 9.19961 40.8898 9.12294 40.7765 9.06961C40.6698 9.00961 40.5332 8.97961 40.3665 8.97961C40.2265 8.97961 40.1031 9.00961 39.9965 9.06961C39.8831 9.12294 39.7932 9.19628 39.7265 9.28961C39.6532 9.38294 39.6032 9.48294 39.5765 9.58961L38.5865 9.41961C38.6331 9.18628 38.7332 8.96961 38.8865 8.76961C39.0465 8.56961 39.2498 8.40628 39.4965 8.27961C39.7431 8.15961 40.0265 8.09961 40.3465 8.09961C40.7132 8.09961 41.0265 8.16628 41.2865 8.29961C41.5465 8.42628 41.7465 8.60294 41.8865 8.82961C42.0332 9.05628 42.1065 9.31961 42.1065 9.61961C42.1065 9.91961 42.0232 10.1896 41.8565 10.4296C41.6898 10.6629 41.4631 10.8829 41.1765 11.0896L40.5065 11.5696C40.3732 11.6629 40.2565 11.7663 40.1565 11.8796C40.0565 11.9929 39.9832 12.1163 39.9365 12.2496H42.1665V13.0896H38.7765ZM45.4465 13.1696C45.0465 13.1696 44.6965 13.0629 44.3965 12.8496C44.0898 12.6296 43.8498 12.3296 43.6765 11.9496C43.5031 11.5696 43.4165 11.1329 43.4165 10.6396C43.4165 10.1463 43.5031 9.70961 43.6765 9.32961C43.8498 8.94961 44.0865 8.64961 44.3865 8.42961C44.6865 8.21628 45.0365 8.10961 45.4365 8.10961C45.8298 8.10961 46.1798 8.21628 46.4865 8.42961C46.7932 8.64961 47.0332 8.94961 47.2065 9.32961C47.3798 9.70961 47.4665 10.1463 47.4665 10.6396C47.4665 11.1329 47.3798 11.5696 47.2065 11.9496C47.0332 12.3296 46.7965 12.6296 46.4965 12.8496C46.1898 13.0629 45.8398 13.1696 45.4465 13.1696ZM45.4465 12.3096C45.6532 12.3096 45.8398 12.2363 46.0065 12.0896C46.1732 11.9496 46.3032 11.7529 46.3965 11.4996C46.4898 11.2529 46.5365 10.9663 46.5365 10.6396C46.5365 10.3129 46.4898 10.0229 46.3965 9.76961C46.3032 9.51628 46.1732 9.31961 46.0065 9.17961C45.8398 9.03961 45.6498 8.96961 45.4365 8.96961C45.2232 8.96961 45.0365 9.03961 44.8765 9.17961C44.7098 9.31961 44.5831 9.51628 44.4965 9.76961C44.4031 10.0229 44.3565 10.3129 44.3565 10.6396C44.3565 10.9663 44.4031 11.2529 44.4965 11.4996C44.5831 11.7529 44.7098 11.9496 44.8765 12.0896C45.0432 12.2363 45.2332 12.3096 45.4465 12.3096ZM48.7665 13.0896V12.3796C48.7665 12.2463 48.8098 12.0996 48.8965 11.9396C48.9765 11.7729 49.0931 11.6096 49.2465 11.4496C49.3931 11.2829 49.5665 11.1296 49.7665 10.9896L50.5065 10.4596C50.6132 10.3863 50.7132 10.3063 50.8065 10.2196C50.8932 10.1329 50.9665 10.0363 51.0265 9.92961C51.0865 9.82294 51.1165 9.72294 51.1165 9.62961C51.1165 9.50294 51.0865 9.39294 51.0265 9.29961C50.9665 9.19961 50.8798 9.12294 50.7665 9.06961C50.6598 9.00961 50.5232 8.97961 50.3565 8.97961C50.2165 8.97961 50.0932 9.00961 49.9865 9.06961C49.8732 9.12294 49.7832 9.19628 49.7165 9.28961C49.6432 9.38294 49.5931 9.48294 49.5665 9.58961L48.5765 9.41961C48.6232 9.18628 48.7232 8.96961 48.8765 8.76961C49.0298 8.56961 49.2332 8.40628 49.4865 8.27961C49.7332 8.15961 50.0165 8.09961 50.3365 8.09961C50.7031 8.09961 51.0165 8.16628 51.2765 8.29961C51.5365 8.42628 51.7365 8.60294 51.8765 8.82961C52.0232 9.05628 52.0965 9.31961 52.0965 9.61961C52.0965 9.91961 52.0132 10.1896 51.8465 10.4296C51.6798 10.6629 51.4532 10.8829 51.1665 11.0896L50.4965 11.5696C50.3631 11.6629 50.2465 11.7663 50.1465 11.8796C50.0465 11.9929 49.9731 12.1163 49.9265 12.2496H52.1565V13.0896H48.7665ZM55.2165 13.1696C54.9898 13.1696 54.7598 13.1329 54.5265 13.0596C54.2932 12.9863 54.0798 12.8763 53.8865 12.7296C53.6998 12.5763 53.5632 12.3896 53.4765 12.1696L54.3465 11.9096C54.4465 12.0629 54.5698 12.1729 54.7165 12.2396C54.8565 12.3129 55.0031 12.3496 55.1565 12.3496C55.4031 12.3496 55.5998 12.2763 55.7465 12.1296C55.8998 11.9829 55.9765 11.7863 55.9765 11.5396C55.9765 11.3063 55.9032 11.1129 55.7565 10.9596C55.6098 10.8063 55.4165 10.7296 55.1765 10.7296C55.0298 10.7296 54.8965 10.7629 54.7765 10.8296C54.6565 10.8963 54.5631 10.9729 54.4965 11.0596L53.6365 10.8696L53.9265 8.18961H56.6965V9.05961H54.7465L54.6065 10.2296C54.7332 10.1629 54.8732 10.1063 55.0265 10.0596C55.1798 10.0196 55.3465 9.99961 55.5265 9.99961C55.7932 9.99961 56.0331 10.0663 56.2465 10.1996C56.4665 10.3263 56.6432 10.4996 56.7765 10.7196C56.9032 10.9396 56.9665 11.1963 56.9665 11.4896C56.9665 11.8229 56.8898 12.1163 56.7365 12.3696C56.5898 12.6229 56.3865 12.8196 56.1265 12.9596C55.8665 13.0996 55.5632 13.1696 55.2165 13.1696Z" fill="black"/>
<path d="M31.9565 45.8396V34.6396H35.8765C36.6432 34.6396 37.3198 34.7563 37.9065 34.9897C38.4931 35.223 38.9532 35.5797 39.2865 36.0597C39.6132 36.5397 39.7765 37.1496 39.7765 37.8896C39.7765 38.283 39.6732 38.653 39.4665 38.9996C39.2598 39.3463 38.9765 39.6596 38.6165 39.9396C39.1232 40.2063 39.5132 40.553 39.7865 40.9796C40.0598 41.413 40.1965 41.9463 40.1965 42.5797C40.1965 43.2797 40.0365 43.873 39.7165 44.3596C39.3965 44.8463 38.9532 45.213 38.3865 45.4596C37.8198 45.713 37.1598 45.8396 36.4065 45.8396H31.9565ZM34.4665 43.5696H36.1165C36.5565 43.5696 36.9031 43.453 37.1565 43.2197C37.4098 42.993 37.5365 42.6996 37.5365 42.3396C37.5365 41.953 37.4032 41.6496 37.1365 41.4296C36.8698 41.2096 36.5032 41.0996 36.0365 41.0996H34.4665V43.5696ZM34.4665 39.0396H35.7965C36.2032 39.0396 36.5298 38.9363 36.7765 38.7296C37.0165 38.523 37.1365 38.233 37.1365 37.8596C37.1365 37.473 37.0065 37.1763 36.7465 36.9697C36.4865 36.763 36.1365 36.6596 35.6965 36.6596H34.4665V39.0396ZM45.3365 46.0296C44.5031 46.0296 43.7665 45.853 43.1265 45.4996C42.4865 45.1396 41.9832 44.6463 41.6165 44.0196C41.2565 43.3863 41.0765 42.6596 41.0765 41.8396C41.0765 41.0063 41.2598 40.2763 41.6265 39.6497C41.9932 39.0163 42.4965 38.5263 43.1365 38.1796C43.7765 37.8263 44.5198 37.6497 45.3665 37.6497C46.1198 37.6497 46.8032 37.8296 47.4165 38.1896C48.0232 38.5563 48.5032 39.0963 48.8565 39.8097C49.2165 40.523 49.3965 41.413 49.3965 42.4796H43.3765L43.6565 42.1796C43.6565 42.5396 43.7298 42.8596 43.8765 43.1396C44.0232 43.413 44.2298 43.623 44.4965 43.7696C44.7631 43.9096 45.0632 43.9796 45.3965 43.9796C45.7898 43.9796 46.1232 43.893 46.3965 43.7197C46.6698 43.5463 46.8598 43.3263 46.9665 43.0597L49.1765 43.8097C48.9631 44.3097 48.6598 44.7263 48.2665 45.0597C47.8798 45.3863 47.4365 45.6296 46.9365 45.7896C46.4298 45.9496 45.8965 46.0296 45.3365 46.0296ZM43.7165 41.1396L43.4565 40.8196H47.0465L46.8165 41.1396C46.8165 40.7396 46.7365 40.423 46.5765 40.1896C46.4165 39.9563 46.2198 39.7896 45.9865 39.6896C45.7532 39.5896 45.5198 39.5396 45.2865 39.5396C45.0532 39.5396 44.8165 39.5896 44.5765 39.6896C44.3365 39.7896 44.1332 39.9563 43.9665 40.1896C43.7998 40.423 43.7165 40.7396 43.7165 41.1396ZM53.4565 46.0296C52.9365 46.0296 52.4498 45.953 51.9965 45.7996C51.5431 45.6463 51.1498 45.4263 50.8165 45.1396C50.4898 44.8596 50.2465 44.5163 50.0865 44.1096L52.1365 43.2496C52.2698 43.523 52.4598 43.7263 52.7065 43.8596C52.9532 43.993 53.2032 44.0597 53.4565 44.0597C53.7232 44.0597 53.9331 44.0163 54.0865 43.9296C54.2331 43.8363 54.3065 43.7096 54.3065 43.5496C54.3065 43.383 54.2298 43.2497 54.0765 43.1497C53.9232 43.0563 53.7032 42.973 53.4165 42.8997L52.7265 42.7197C51.9798 42.5263 51.4065 42.2096 51.0065 41.7696C50.6065 41.323 50.4065 40.8063 50.4065 40.2197C50.4065 39.3997 50.6898 38.7663 51.2565 38.3196C51.8165 37.873 52.5998 37.6497 53.6065 37.6497C54.1732 37.6497 54.6698 37.723 55.0965 37.8696C55.5298 38.023 55.8932 38.233 56.1865 38.4996C56.4798 38.773 56.6898 39.093 56.8165 39.4596L54.8365 40.2696C54.7631 40.0563 54.6098 39.893 54.3765 39.7796C54.1498 39.673 53.8965 39.6196 53.6165 39.6196C53.3832 39.6196 53.2032 39.6696 53.0765 39.7696C52.9498 39.8696 52.8865 40.0063 52.8865 40.1796C52.8865 40.3063 52.9632 40.413 53.1165 40.4996C53.2698 40.593 53.4965 40.6763 53.7965 40.7496L54.6465 40.9596C55.1465 41.0863 55.5665 41.2796 55.9065 41.5396C56.2465 41.8063 56.5031 42.113 56.6765 42.4596C56.8498 42.8063 56.9365 43.1763 56.9365 43.5696C56.9365 44.0696 56.7898 44.503 56.4965 44.8696C56.2031 45.2363 55.7931 45.523 55.2665 45.7296C54.7465 45.9296 54.1432 46.0296 53.4565 46.0296ZM61.5565 46.0296C60.6098 46.0296 59.9032 45.803 59.4365 45.3496C58.9698 44.8963 58.7365 44.2496 58.7365 43.4096V35.3396H61.2365V42.7796C61.2365 43.0996 61.2965 43.3363 61.4165 43.4897C61.5298 43.6363 61.7098 43.7096 61.9565 43.7096C62.0498 43.7096 62.1632 43.6863 62.2965 43.6396C62.4232 43.593 62.5398 43.533 62.6465 43.4596L63.5065 45.2796C63.2532 45.493 62.9465 45.673 62.5865 45.8196C62.2331 45.9596 61.8898 46.0296 61.5565 46.0296ZM57.4965 39.9396V37.8396H63.0565V39.9396H57.4965ZM21.1465 61.8396V50.6396H25.5465C26.3598 50.6396 27.0798 50.7963 27.7065 51.1096C28.3398 51.423 28.8332 51.8597 29.1865 52.4197C29.5465 52.9797 29.7265 53.623 29.7265 54.3496C29.7265 55.0763 29.5432 55.723 29.1765 56.2896C28.8165 56.8563 28.3198 57.2963 27.6865 57.6096C27.0532 57.923 26.3232 58.0797 25.4965 58.0797H23.7265V61.8396H21.1465ZM27.2265 61.8396L24.6965 57.3896L26.6365 55.9697L30.1765 61.8396H27.2265ZM23.7265 55.7096H25.4665C25.7665 55.7096 26.0332 55.653 26.2665 55.5396C26.4998 55.4196 26.6832 55.2563 26.8165 55.0496C26.9498 54.843 27.0165 54.6096 27.0165 54.3496C27.0165 53.9563 26.8698 53.633 26.5765 53.3797C26.2832 53.1197 25.8965 52.9897 25.4165 52.9897H23.7265V55.7096ZM35.1765 62.0296C34.3498 62.0296 33.6165 61.853 32.9765 61.4996C32.3365 61.1396 31.8332 60.6463 31.4665 60.0196C31.1065 59.3863 30.9265 58.6596 30.9265 57.8396C30.9265 57.0063 31.1098 56.2763 31.4765 55.6497C31.8432 55.0163 32.3465 54.5263 32.9865 54.1796C33.6265 53.8263 34.3698 53.6497 35.2165 53.6497C35.9698 53.6497 36.6498 53.8296 37.2565 54.1896C37.8698 54.5563 38.3532 55.0963 38.7065 55.8097C39.0665 56.523 39.2465 57.413 39.2465 58.4796H33.2265L33.4965 58.1796C33.4965 58.5396 33.5732 58.8596 33.7265 59.1396C33.8732 59.413 34.0798 59.623 34.3465 59.7696C34.6132 59.9096 34.9131 59.9796 35.2465 59.9796C35.6398 59.9796 35.9731 59.893 36.2465 59.7197C36.5198 59.5463 36.7098 59.3263 36.8165 59.0597L39.0165 59.8097C38.8031 60.3097 38.5032 60.7263 38.1165 61.0597C37.7298 61.3863 37.2832 61.6296 36.7765 61.7896C36.2765 61.9496 35.7431 62.0296 35.1765 62.0296ZM33.5665 57.1396L33.3065 56.8196H36.8965L36.6665 57.1396C36.6665 56.7396 36.5865 56.423 36.4265 56.1896C36.2665 55.9563 36.0698 55.7896 35.8365 55.6896C35.6031 55.5896 35.3698 55.5396 35.1365 55.5396C34.8965 55.5396 34.6565 55.5896 34.4165 55.6896C34.1765 55.7896 33.9765 55.9563 33.8165 56.1896C33.6498 56.423 33.5665 56.7396 33.5665 57.1396ZM43.3065 62.0296C42.7865 62.0296 42.2998 61.953 41.8465 61.7996C41.3932 61.6463 40.9998 61.4263 40.6665 61.1396C40.3398 60.8596 40.0965 60.5163 39.9365 60.1096L41.9765 59.2496C42.1165 59.523 42.3098 59.7263 42.5565 59.8596C42.8032 59.993 43.0532 60.0597 43.3065 60.0597C43.5732 60.0597 43.7832 60.0163 43.9365 59.9296C44.0832 59.8363 44.1565 59.7096 44.1565 59.5496C44.1565 59.383 44.0798 59.2497 43.9265 59.1497C43.7731 59.0563 43.5498 58.973 43.2565 58.8997L42.5765 58.7197C41.8298 58.5263 41.2565 58.2096 40.8565 57.7696C40.4565 57.323 40.2565 56.8063 40.2565 56.2197C40.2565 55.3997 40.5365 54.7663 41.0965 54.3196C41.6632 53.873 42.4498 53.6497 43.4565 53.6497C44.0165 53.6497 44.5132 53.723 44.9465 53.8696C45.3798 54.023 45.7432 54.233 46.0365 54.4996C46.3298 54.773 46.5398 55.093 46.6665 55.4596L44.6865 56.2696C44.6132 56.0563 44.4598 55.893 44.2265 55.7796C43.9998 55.673 43.7465 55.6196 43.4665 55.6196C43.2332 55.6196 43.0531 55.6696 42.9265 55.7696C42.7998 55.8696 42.7365 56.0063 42.7365 56.1796C42.7365 56.3063 42.8132 56.413 42.9665 56.4996C43.1198 56.593 43.3465 56.6763 43.6465 56.7496L44.4965 56.9596C44.9965 57.0863 45.4165 57.2796 45.7565 57.5396C46.0965 57.8063 46.3532 58.113 46.5265 58.4596C46.6932 58.8063 46.7765 59.1763 46.7765 59.5696C46.7765 60.0696 46.6298 60.503 46.3365 60.8696C46.0431 61.2363 45.6365 61.523 45.1165 61.7296C44.5965 61.9296 43.9932 62.0296 43.3065 62.0296ZM53.1465 61.8396L53.0065 60.3696V53.8396H55.4965V61.8396H53.1465ZM47.8565 57.9396V53.8396H50.3465V57.9396H47.8565ZM50.3465 57.9396C50.3465 58.353 50.3965 58.6863 50.4965 58.9396C50.5898 59.1996 50.7265 59.3863 50.9065 59.4996C51.0865 59.6196 51.2998 59.6863 51.5465 59.6996C52.0265 59.6996 52.3898 59.563 52.6365 59.2896C52.8832 59.0163 53.0065 58.6063 53.0065 58.0597H53.7565C53.7565 58.9063 53.6298 59.6263 53.3765 60.2197C53.1165 60.8063 52.7665 61.2563 52.3265 61.5696C51.8798 61.8763 51.3632 62.0296 50.7765 62.0296C50.1365 62.0296 49.5998 61.8996 49.1665 61.6396C48.7265 61.3796 48.3965 60.983 48.1765 60.4496C47.9631 59.9163 47.8565 59.233 47.8565 58.3997V57.9396H50.3465ZM57.1365 61.8396V50.6396H59.6265V61.8396H57.1365ZM64.6965 62.0296C63.7498 62.0296 63.0432 61.803 62.5765 61.3496C62.1165 60.8963 61.8865 60.2496 61.8865 59.4096V51.3396H64.3765V58.7796C64.3765 59.0996 64.4365 59.3363 64.5565 59.4897C64.6765 59.6363 64.8565 59.7096 65.0965 59.7096C65.1965 59.7096 65.3098 59.6863 65.4365 59.6396C65.5632 59.593 65.6798 59.533 65.7865 59.4596L66.6565 61.2796C66.3965 61.493 66.0898 61.673 65.7365 61.8196C65.3765 61.9596 65.0298 62.0296 64.6965 62.0296ZM60.6365 55.9396V53.8396H66.2065V55.9396H60.6365ZM70.8965 62.0296C70.3698 62.0296 69.8798 61.953 69.4265 61.7996C68.9731 61.6463 68.5832 61.4263 68.2565 61.1396C67.9232 60.8596 67.6765 60.5163 67.5165 60.1096L69.5665 59.2496C69.7065 59.523 69.8965 59.7263 70.1365 59.8596C70.3831 59.993 70.6365 60.0597 70.8965 60.0597C71.1632 60.0597 71.3698 60.0163 71.5165 59.9296C71.6632 59.8363 71.7365 59.7096 71.7365 59.5496C71.7365 59.383 71.6598 59.2497 71.5065 59.1497C71.3532 59.0563 71.1331 58.973 70.8465 58.8997L70.1565 58.7197C69.4098 58.5263 68.8365 58.2096 68.4365 57.7696C68.0365 57.323 67.8365 56.8063 67.8365 56.2197C67.8365 55.3997 68.1198 54.7663 68.6865 54.3196C69.2532 53.873 70.0365 53.6497 71.0365 53.6497C71.6032 53.6497 72.1032 53.723 72.5365 53.8696C72.9632 54.023 73.3232 54.233 73.6165 54.4996C73.9098 54.773 74.1232 55.093 74.2565 55.4596L72.2665 56.2696C72.1932 56.0563 72.0431 55.893 71.8165 55.7796C71.5831 55.673 71.3298 55.6196 71.0565 55.6196C70.8165 55.6196 70.6332 55.6696 70.5065 55.7696C70.3798 55.8696 70.3165 56.0063 70.3165 56.1796C70.3165 56.3063 70.3932 56.413 70.5465 56.4996C70.6998 56.593 70.9265 56.6763 71.2265 56.7496L72.0765 56.9596C72.5765 57.0863 72.9965 57.2796 73.3365 57.5396C73.6832 57.8063 73.9398 58.113 74.1065 58.4596C74.2798 58.8063 74.3665 59.1763 74.3665 59.5696C74.3665 60.0696 74.2198 60.503 73.9265 60.8696C73.6331 61.2363 73.2232 61.523 72.6965 61.7296C72.1765 61.9296 71.5765 62.0296 70.8965 62.0296Z" fill="black"/>
<path d="M71.9316 0.382568H92.9316V21.3826H71.9316V0.382568Z" fill="#FF492C"/>
<mask id="mask0_6383_96482" style="mask-type:luminance" maskUnits="userSpaceOnUse" x="71" y="0" width="22" height="22">
<path d="M71.9316 0.382568H92.9316V21.3826H71.9316V0.382568Z" fill="white"/>
</mask>
<g mask="url(#mask0_6383_96482)">
<path fill-rule="evenodd" clip-rule="evenodd" d="M86.9811 8.42454H85.1871C85.2361 8.14354 85.4091 7.98654 85.7611 7.80854L86.0921 7.64054C86.6831 7.33754 86.9981 6.99654 86.9981 6.44054C87.0042 6.27961 86.9702 6.1197 86.8991 5.97517C86.8281 5.83064 86.7222 5.70603 86.5911 5.61254C86.3251 5.41254 86.0001 5.31454 85.6261 5.31454C85.3363 5.31146 85.0519 5.39239 84.8071 5.54754C84.5722 5.68642 84.3836 5.8917 84.2651 6.13754L84.7851 6.65654C84.9861 6.25054 85.2791 6.05054 85.6641 6.05054C85.9891 6.05054 86.1901 6.21854 86.1901 6.45054C86.1901 6.64554 86.0921 6.80754 85.7181 6.99654L85.5071 7.09954C85.0461 7.33254 84.7261 7.59754 84.5421 7.89954C84.3571 8.19754 84.2651 8.58154 84.2651 9.04154V9.16554H86.9811V8.42554V8.42454ZM86.7361 10.0245H83.7701L82.2871 12.5945H85.2531L86.7361 15.1645L88.2201 12.5945L86.7361 10.0245Z" fill="white"/>
<path fill-rule="evenodd" clip-rule="evenodd" d="M82.5391 14.3117C81.63 14.3109 80.7583 13.9495 80.1153 13.3069C79.4723 12.6642 79.1104 11.7928 79.1091 10.8837C79.1107 9.97472 79.4727 9.10352 80.1157 8.46109C80.7587 7.81866 81.6302 7.45745 82.5391 7.45665L83.7131 5.00065C82.8427 4.82668 81.9446 4.84799 81.0834 5.06304C80.2223 5.27809 79.4196 5.68152 78.7331 6.24425C78.0467 6.80699 77.4937 7.515 77.114 8.31727C76.7342 9.11953 76.5372 9.99605 76.5371 10.8837C76.5372 11.6717 76.6926 12.4519 76.9943 13.1799C77.296 13.9079 77.7382 14.5693 78.2955 15.1264C78.8529 15.6834 79.5145 16.1253 80.2426 16.4266C80.9707 16.7279 81.7511 16.8829 82.5391 16.8827C83.8097 16.8847 85.0479 16.4819 86.0741 15.7327L84.7741 13.4807C84.1531 14.017 83.3597 14.312 82.5391 14.3117Z" fill="white"/>
<path d="M72.4199 1.04956V20.9176" stroke="black" stroke-width="1.085"/>
</g>
<path d="M0.931641 83.9026V77.4026L46.9316 100.445L92.9316 77.4026V83.9026L46.9316 106.383L0.931641 83.9026Z" fill="#5746B2"/>
<path d="M0.931641 77.9485V71.4485L46.9316 94.4905L92.9316 71.4485V77.9485L46.9316 100.428L0.931641 77.9485Z" fill="white"/>
<path d="M0.931641 72.0137V65.5137L46.9316 88.5567L92.9316 65.5137V72.0137L46.9316 94.4937L0.931641 72.0137Z" fill="white"/>
<path d="M92.5066 20.9175H1.55661M92.3886 83.3795L46.9316 105.778L1.47461 83.3795V0.925537H92.3886V83.3795Z" stroke="black" stroke-width="1.085"/>
</g>
<defs>
<clipPath id="clip0_6383_96482">
<rect width="92" height="106" fill="white" transform="translate(0.931641 0.382568)"/>
</clipPath>
</defs>
</svg>
