<svg width="50" height="50" viewBox="0 0 50 50" fill="none" xmlns="http://www.w3.org/2000/svg">
<path d="M38.5984 0H11.3946C5.10155 0 0 5.10226 0 11.3962V38.6038C0 44.8977 5.10155 50 11.3946 50H38.5984C44.8915 50 49.993 44.8977 49.993 38.6038V11.3962C49.993 5.10226 44.8915 0 38.5984 0Z" fill="url(#paint0_linear_5812_1303)"/>
<path d="M38.5984 0H11.3946C5.10155 0 0 5.10226 0 11.3962V38.6038C0 44.8977 5.10155 50 11.3946 50H38.5984C44.8915 50 49.993 44.8977 49.993 38.6038V11.3962C49.993 5.10226 44.8915 0 38.5984 0Z" fill="url(#paint1_linear_5812_1303)"/>
<path d="M46.918 30.8537C46.8987 30.8189 46.8728 30.7884 46.8417 30.7637C46.8106 30.739 46.775 30.7207 46.7368 30.7097C46.6986 30.6988 46.6586 30.6955 46.6193 30.7C46.5798 30.7046 46.5417 30.7168 46.5069 30.7361C46.1894 30.912 45.1322 31.2653 44.7982 31.3853C43.545 31.5901 42.0107 31.544 41.2547 29.7135C41.0269 29.1623 40.8015 28.6655 40.4121 28.1457C39.9711 27.5577 38.5303 26.8531 37.1841 28.1197C36.8616 28.4237 36.5814 28.7697 36.3513 29.1486C36.2596 29.2931 36.1754 29.4387 36.0956 29.5842C36.0907 29.5646 36.0858 29.5455 36.0803 29.5264C35.9613 29.1167 35.5806 27.6013 33.9982 27.3553C33.7807 27.3377 32.8999 27.2382 31.6815 28.5748C31.2732 29.0297 30.902 29.5165 30.5714 30.0306C30.5131 29.7591 30.4431 29.5121 30.3755 29.4038C29.3402 27.8115 27.7725 29.0829 27.097 29.5577C25.5837 30.6215 24.8821 32.0512 23.9616 28.8027C23.8417 28.3427 23.7461 27.8767 23.675 27.4067C24.5946 25.8452 26.4675 21.0939 25.3897 17.9087C25.3196 17.7073 24.9459 16.6788 24.0469 16.745C23.9175 16.7578 22.8937 16.6504 22.3322 19.5118C21.808 22.2782 21.9236 25.8438 22.051 27.0256C22.0653 27.148 22.0917 27.3901 22.1397 27.7066C21.2525 29.223 20.089 30.9467 19.3791 31.0271C18.4576 31.1315 18.7143 30.2828 18.1543 28.3969C18.0564 28.152 17.7468 26.9864 16.3491 27.0442C15.6631 27.0726 14.9421 27.2505 13.9539 28.3313C12.3495 30.0859 8.69041 32.7258 6.07335 31.0668C5.78872 30.8463 4.37486 29.6905 4.89759 26.2269C5.05652 25.2734 5.33878 24.3447 5.73728 23.4639C6.12141 22.6044 6.60375 21.7921 7.17465 21.0435C9.86323 17.7416 12.1923 17.356 12.6517 17.3756C13.8299 17.3756 14.1362 18.9014 14.1352 18.8871C14.1399 18.952 14.1575 19.0153 14.187 19.0732C14.2165 19.1312 14.2573 19.1827 14.3071 19.2246C14.3568 19.2666 14.4144 19.2981 14.4765 19.3174C14.5386 19.3367 14.6039 19.3435 14.6686 19.3371C14.7334 19.3308 14.7962 19.3117 14.8534 19.2807C14.9106 19.2498 14.961 19.2077 15.0017 19.1568C15.0423 19.1061 15.0725 19.0477 15.0902 18.9852C15.108 18.9227 15.1131 18.8571 15.1052 18.7926C15.0984 18.4635 15.031 18.1384 14.9063 17.8337C14.7216 17.2335 14.1901 16.6754 13.8809 16.4701C12.4039 15.4412 9.06861 16.2702 5.83918 19.9979C5.16512 20.8411 4.59807 21.7646 4.15098 22.7471C3.68459 23.7658 3.35513 24.8418 3.17117 25.9471C2.2962 32.0879 6.03416 33.0644 6.67152 33.184C9.94749 33.5661 12.3602 31.7831 13.5007 30.6896C13.9118 32.7391 15.9616 32.7641 16.86 31.8385C17.0893 31.5946 17.2771 31.3147 17.4161 31.01C17.9486 32.9473 19.6559 32.2878 19.8567 32.2016C20.8086 31.8454 21.8037 30.5205 22.5071 29.4088C22.9539 30.9326 23.8171 32.5651 25.475 32.3902C26.4738 32.3662 28.9787 29.7042 29.2104 30.0516C29.4417 30.3388 29.5044 30.8664 29.4878 31.6538C29.471 32.4412 30.0977 32.4808 30.3813 32.4025C30.8188 32.2815 31.0941 31.4191 31.5522 30.6695C31.8325 30.1985 32.1621 29.7587 32.5354 29.3573C32.7152 29.1643 33.5285 28.323 34.1031 28.6087C34.6778 28.8943 34.7356 29.4813 34.7752 29.8061C34.8149 30.1309 34.8198 30.4774 34.8336 30.8547C34.8169 32.1589 35.4293 32.3432 35.6022 32.3912C37.02 32.7738 37.1077 30.1094 38.1496 29.1202C38.2476 29.0192 39.156 28.0814 39.6748 29.6101C40.4243 32.376 42.7303 33.4094 45.8348 31.8718C46.4104 31.5867 46.5236 31.4749 46.8381 31.2412C46.8957 31.1969 46.9354 31.1335 46.9501 31.0623C46.9648 30.9912 46.9533 30.9171 46.918 30.8537ZM16.5489 30.2927C15.9297 31.5666 14.5653 31.4901 14.5844 30.1006C14.6045 28.6797 16.3765 27.783 16.8522 28.7737C16.89 28.8586 16.9204 28.9464 16.9433 29.0364C16.8605 29.298 16.8277 29.7199 16.5489 30.2927ZM24.1738 18.3119C24.4344 18.7955 24.9963 21.823 23.4634 25.1333C23.4595 25.0279 23.4556 24.9226 23.4526 24.8168C23.4399 19.4388 24.1238 18.2183 24.1738 18.3119Z" fill="white"/>
<defs>
<linearGradient id="paint0_linear_5812_1303" x1="24.9968" y1="50" x2="24.9968" y2="0" gradientUnits="userSpaceOnUse">
<stop stop-color="#3478DD"/>
<stop offset="1" stop-color="#3BBEEC"/>
</linearGradient>
<linearGradient id="paint1_linear_5812_1303" x1="-0.0847513" y1="72.2339" x2="27.5517" y2="20.2022" gradientUnits="userSpaceOnUse">
<stop stop-color="#793BEB"/>
<stop offset="1" stop-color="#793BEB" stop-opacity="0"/>
</linearGradient>
</defs>
</svg>
