<svg width="160" height="50" viewBox="0 0 160 50" fill="none" xmlns="http://www.w3.org/2000/svg">
<path d="M0 34.087L5.72816 29.627C8.77148 33.664 12.0049 35.5248 15.6039 35.5248C19.1837 35.5248 22.3257 33.686 25.2318 29.6807L31.0418 34.0332C26.8485 39.8088 21.6376 42.8604 15.6039 42.8604C9.58944 42.8604 4.328 39.8284 0 34.087Z" fill="url(#paint0_linear_2684_89121)"/>
<path d="M15.5844 14.7027L5.38871 23.6326L0.675781 18.0771L15.6061 5.00012L30.4184 18.0868L25.6839 23.6228L15.5844 14.7027Z" fill="url(#paint1_linear_2684_89121)"/>
<path fill-rule="evenodd" clip-rule="evenodd" d="M72.374 13.9602C72.374 15.8919 73.7598 17.3003 75.6604 17.3003V17.3028C77.4984 17.3028 78.9177 15.8919 78.9177 13.9602C78.9177 12.092 77.4984 10.6836 75.6604 10.6836C73.8248 10.6836 72.374 12.092 72.374 13.9602ZM70.284 11.994V36.9938H64.6112V11.994H70.284ZM53.0084 37.3548C49.5277 37.3545 46.6268 36.2077 44.2742 33.9144C41.9214 31.589 40.7617 28.6083 40.7617 24.9698C40.7617 21.302 41.9526 18.2871 44.3055 15.9274C46.692 13.536 49.5934 12.3574 53.0433 12.3574C57.2991 12.3574 61.069 14.2231 63.263 17.1403L59.4234 21.236C57.5854 19.2358 55.5862 18.221 53.4282 18.221C51.5901 18.221 50.0745 18.8421 48.8163 20.121C47.5917 21.3998 46.9807 23.0063 46.9807 24.938C46.9807 26.8062 47.5917 28.3784 48.8163 29.6573C50.0745 30.9019 51.5901 31.523 53.3945 31.523C55.7474 31.523 57.8116 30.474 59.5197 28.4102L63.5181 32.3103C62.421 33.7848 60.939 34.9976 59.101 35.9463C57.2634 36.8974 55.2333 37.3546 53.0084 37.3548ZM78.5301 18.9063V36.9935H72.8235V18.9063H78.5301ZM82.6208 34.7319C84.3914 36.5022 86.6481 37.3874 89.4532 37.3874C93.2255 37.3874 96.4156 35.5192 97.9649 32.5043L93.4179 29.7534C92.7732 31.1619 91.2576 32.0788 89.6144 32.0788C87.3241 32.0788 85.616 30.3085 85.616 27.9171C85.596 26.8317 86.002 25.7829 86.7443 25.0024C87.519 24.215 88.4861 23.8214 89.6794 23.8214C91.3225 23.8214 92.5808 24.6087 93.4829 26.1492L98.0274 23.7235C96.5142 20.2831 93.2568 18.4492 89.5495 18.4492C86.713 18.4492 84.4251 19.332 82.6521 21.1023C80.8791 22.8726 80.0081 25.132 80.0081 27.9171C80.0081 30.7022 80.8791 32.964 82.6208 34.7319ZM117.751 36.9938H110.979L105.722 29.8171L104.885 30.6045V36.9938H99.2149V11.994H104.887V24.1491L110.238 18.9066H117.17L109.531 26.1811L117.751 36.9938ZM118.132 12.7793V27.5899C118.132 34.7324 123.032 37.4197 127.964 37.4197C132.927 37.4197 137.797 34.7324 137.797 27.5899V12.7793H131.703V27.4921C131.703 30.1452 130.155 31.5218 127.964 31.5218C125.739 31.5218 124.192 30.2112 124.192 27.4921V12.7793H118.132ZM151.264 18.4492C153.813 18.4492 155.877 19.3662 157.519 21.2001C159.162 23.0022 159.968 25.264 159.968 27.9171C159.968 30.5726 159.131 32.832 157.489 34.7001C155.843 36.534 153.781 37.4534 151.298 37.4534C149.331 37.4534 147.622 36.7981 146.236 35.4874V44.432H140.53V18.9065H146.141V20.579C147.526 19.1681 149.234 18.4492 151.264 18.4492ZM150.169 23.8221C152.492 23.8221 154.165 25.6242 154.165 27.9838H154.168C154.182 29.0787 153.777 30.1362 153.037 30.9327C152.296 31.7519 151.329 32.1455 150.169 32.1455C149.008 32.1455 148.041 31.7519 147.268 30.9327C146.525 30.1136 146.141 29.1306 146.141 27.9838C146.141 25.6242 147.848 23.8221 150.169 23.8221Z" fill="black"/>
<defs>
<linearGradient id="paint0_linear_2684_89121" x1="0" y1="45.2438" x2="31.0418" y2="45.2438" gradientUnits="userSpaceOnUse">
<stop stop-color="#7612FA"/>
<stop offset="1" stop-color="#40DDFF"/>
</linearGradient>
<linearGradient id="paint1_linear_2684_89121" x1="0.675781" y1="26.9883" x2="30.4184" y2="26.9883" gradientUnits="userSpaceOnUse">
<stop stop-color="#FA12E3"/>
<stop offset="1" stop-color="#FFD700"/>
</linearGradient>
</defs>
</svg>
