<svg xmlns="http://www.w3.org/2000/svg" width="121" height="120" fill="none"><rect width="15" height="15" x="19.5" y="90" fill="url(#a)" rx="4" transform="rotate(-45 19.5 90)"/><rect width="15" height="15" x="23.188" y="29.627" fill="url(#b)" rx="4" transform="rotate(-45 23.188 29.627)"/><rect width="15" height="15" x="90.814" y="81.627" fill="url(#c)" rx="4" transform="rotate(-135 90.814 81.627)"/><path stroke="#CAB2AA" stroke-linejoin="round" stroke-width="2" d="M30.5 49.096h19.991L40.496 39 30.5 49.096Z"/><path stroke="#CAB2AA" stroke-linejoin="round" stroke-width="2" d="M60.483 39h-19.99l9.995 10.096L60.483 39Z"/><path stroke="#CAB2AA" stroke-linejoin="round" stroke-width="2" d="M50.482 49.096H70.5L60.478 39l-9.996 10.096ZM80.518 39H60.5l10.022 10.096L80.518 39Z"/><path stroke="#CAB2AA" stroke-linejoin="round" stroke-width="2" d="M70.518 49.096h19.99L80.514 39l-9.995 10.096ZM50.491 49.097 60.487 89 30.5 49.097h19.991Z"/><path stroke="#CAB2AA" stroke-linejoin="round" stroke-width="2" d="M50.486 49.097h20.018L60.482 89l-9.996-39.903ZM70.526 49.097 60.504 89l30.013-39.903H70.526Z"/><defs><linearGradient id="a" x1="27" x2="27" y1="90" y2="105" gradientUnits="userSpaceOnUse"><stop stop-color="#FF5900"/><stop offset="1" stop-color="#FF3F00"/></linearGradient><linearGradient id="b" x1="30.688" x2="30.688" y1="29.627" y2="44.627" gradientUnits="userSpaceOnUse"><stop stop-color="#FF5900"/><stop offset="1" stop-color="#FF3F00"/></linearGradient><linearGradient id="c" x1="98.314" x2="98.314" y1="81.627" y2="96.627" gradientUnits="userSpaceOnUse"><stop stop-color="#FF5900"/><stop offset="1" stop-color="#FF3F00"/></linearGradient></defs></svg>