<svg width="126" height="25" viewBox="0 0 126 25" fill="none" xmlns="http://www.w3.org/2000/svg">
<path d="M9.13752 6.10801C9.0381 5.89888 8.82721 5.76562 8.59565 5.76562C8.36408 5.76562 8.15319 5.89888 8.05376 6.10801L6.2583 9.88463L2.44278 10.4385C2.21197 10.472 2.02148 10.6363 1.95436 10.8596C1.88724 11.083 1.95564 11.325 2.12975 11.4802L4.93751 13.9828L4.00824 18.4433C3.95997 18.675 4.05242 18.9134 4.24427 19.052C4.43612 19.1906 4.69152 19.2035 4.89633 19.0848L8.59564 16.9423L12.2949 19.0848C12.4997 19.2034 12.7551 19.1906 12.947 19.052C13.1388 18.9134 13.2313 18.6749 13.183 18.4432L12.2537 13.9828L15.0615 11.4802C15.2356 11.325 15.304 11.083 15.2369 10.8596C15.1698 10.6363 14.9793 10.472 14.7485 10.4385L10.933 9.88463L9.13752 6.10801Z" fill="#FF6728"/>
<path d="M27.1375 6.10801C27.0381 5.89888 26.8272 5.76562 26.5956 5.76562C26.3641 5.76562 26.1532 5.89888 26.0538 6.10801L24.2583 9.88463L20.4428 10.4385C20.212 10.472 20.0215 10.6363 19.9544 10.8596C19.8872 11.083 19.9556 11.325 20.1298 11.4802L22.9375 13.9828L22.0082 18.4433C21.96 18.675 22.0524 18.9134 22.2443 19.052C22.4361 19.1906 22.6915 19.2035 22.8963 19.0848L26.5956 16.9423L30.2949 19.0848C30.4997 19.2034 30.7551 19.1906 30.947 19.052C31.1388 18.9134 31.2313 18.6749 31.183 18.4432L30.2537 13.9828L33.0615 11.4802C33.2356 11.325 33.304 11.083 33.2369 10.8596C33.1698 10.6363 32.9793 10.472 32.7485 10.4385L28.933 9.88463L27.1375 6.10801Z" fill="#FF6728"/>
<path d="M45.1375 6.10801C45.0381 5.89888 44.8272 5.76562 44.5956 5.76562C44.3641 5.76562 44.1532 5.89888 44.0538 6.10801L42.2583 9.88463L38.4428 10.4385C38.212 10.472 38.0215 10.6363 37.9544 10.8596C37.8872 11.083 37.9556 11.325 38.1298 11.4802L40.9375 13.9828L40.0082 18.4433C39.96 18.675 40.0524 18.9134 40.2443 19.052C40.4361 19.1906 40.6915 19.2035 40.8963 19.0848L44.5956 16.9423L48.2949 19.0848C48.4997 19.2034 48.7551 19.1906 48.947 19.052C49.1388 18.9134 49.2313 18.6749 49.183 18.4432L48.2537 13.9828L51.0615 11.4802C51.2356 11.325 51.304 11.083 51.2369 10.8596C51.1698 10.6363 50.9793 10.472 50.7485 10.4385L46.933 9.88463L45.1375 6.10801Z" fill="#FF6728"/>
<path d="M63.1375 6.10801C63.0381 5.89888 62.8272 5.76562 62.5956 5.76562C62.3641 5.76562 62.1532 5.89888 62.0538 6.10801L60.2583 9.88463L56.4428 10.4385C56.212 10.472 56.0215 10.6363 55.9544 10.8596C55.8872 11.083 55.9556 11.325 56.1298 11.4802L58.9375 13.9828L58.0082 18.4433C57.96 18.675 58.0524 18.9134 58.2443 19.052C58.4361 19.1906 58.6915 19.2035 58.8963 19.0848L62.5956 16.9423L66.2949 19.0848C66.4997 19.2034 66.7551 19.1906 66.947 19.052C67.1388 18.9134 67.2313 18.6749 67.183 18.4432L66.2537 13.9828L69.0615 11.4802C69.2356 11.325 69.304 11.083 69.2369 10.8596C69.1698 10.6363 68.9793 10.472 68.7485 10.4385L64.933 9.88463L63.1375 6.10801Z" fill="#FF6728"/>
<path d="M81.1375 6.10801C81.0381 5.89888 80.8272 5.76562 80.5956 5.76562C80.3641 5.76562 80.1532 5.89888 80.0538 6.10801L78.2583 9.88463L74.4428 10.4385C74.212 10.472 74.0215 10.6363 73.9544 10.8596C73.8872 11.083 73.9556 11.325 74.1298 11.4802L76.9375 13.9828L76.0082 18.4433C75.96 18.675 76.0524 18.9134 76.2443 19.052C76.4361 19.1906 76.6915 19.2035 76.8963 19.0848L80.5956 16.9423L84.2949 19.0848C84.4997 19.2034 84.7551 19.1906 84.947 19.052C85.1388 18.9134 85.2313 18.6749 85.183 18.4432L84.2537 13.9828L87.0615 11.4802C87.2356 11.325 87.304 11.083 87.2369 10.8596C87.1698 10.6363 86.9793 10.472 86.7485 10.4385L82.933 9.88463L81.1375 6.10801Z" fill="#FF6728"/>
<path d="M91.2804 14.766L93.6324 8.2H95.0604L92.5404 15.242L91.6864 14.584H99.2044V15.662H91.2804V14.766ZM96.6704 11.798L97.0624 10.706H98.1404V18H96.6704V11.798ZM101.387 16.292V17.832L100.813 19.68L100.099 19.554L100.365 18H100.001V16.292H101.387ZM106.694 18.112C105.378 18.112 104.37 17.8833 103.67 17.426C102.979 16.9687 102.634 16.306 102.634 15.438V15.214C102.634 14.6353 102.793 14.1453 103.11 13.744C103.437 13.3427 103.903 13.0347 104.51 12.82C105.117 12.6053 105.845 12.498 106.694 12.498C107.543 12.498 108.267 12.6053 108.864 12.82C109.471 13.0347 109.933 13.3427 110.25 13.744C110.577 14.1453 110.74 14.6353 110.74 15.214V15.438C110.74 16.306 110.395 16.9687 109.704 17.426C109.023 17.8833 108.019 18.112 106.694 18.112ZM106.694 17.006C107.553 17.006 108.178 16.8707 108.57 16.6C108.971 16.32 109.172 15.9 109.172 15.34V15.116C109.172 14.5467 108.967 14.1127 108.556 13.814C108.145 13.506 107.525 13.352 106.694 13.352C105.873 13.352 105.252 13.5013 104.832 13.8C104.412 14.0987 104.202 14.5373 104.202 15.116V15.34C104.202 15.9 104.407 16.32 104.818 16.6C105.229 16.8707 105.854 17.006 106.694 17.006ZM106.694 13.226C105.873 13.226 105.173 13.1327 104.594 12.946C104.015 12.75 103.577 12.4653 103.278 12.092C102.979 11.7187 102.83 11.266 102.83 10.734V10.524C102.83 9.74933 103.171 9.152 103.852 8.732C104.533 8.30267 105.481 8.088 106.694 8.088C107.917 8.088 108.864 8.30267 109.536 8.732C110.208 9.152 110.544 9.74933 110.544 10.524V10.734C110.544 11.266 110.395 11.7187 110.096 12.092C109.797 12.4653 109.363 12.75 108.794 12.946C108.225 13.1327 107.525 13.226 106.694 13.226ZM106.694 12.4C107.497 12.4 108.085 12.274 108.458 12.022C108.831 11.7607 109.018 11.3687 109.018 10.846V10.65C109.018 10.1833 108.822 9.824 108.43 9.572C108.038 9.32 107.459 9.194 106.694 9.194C105.929 9.194 105.345 9.32467 104.944 9.586C104.552 9.838 104.356 10.1927 104.356 10.65V10.846C104.356 11.3593 104.543 11.7467 104.916 12.008C105.299 12.2693 105.891 12.4 106.694 12.4ZM115.894 7.472L113.178 18.728H112.142L114.858 7.472H115.894ZM121.014 18.112C119.894 18.112 119.012 17.874 118.368 17.398C117.733 16.922 117.322 16.2173 117.136 15.284L118.564 15.144C118.694 15.7787 118.956 16.2547 119.348 16.572C119.749 16.8893 120.304 17.048 121.014 17.048C121.592 17.048 122.059 16.9827 122.414 16.852C122.778 16.7213 123.044 16.5347 123.212 16.292C123.38 16.04 123.464 15.732 123.464 15.368V15.032C123.464 14.444 123.244 14.0007 122.806 13.702C122.376 13.4033 121.742 13.254 120.902 13.254H117.43L118.424 12.246H120.902C121.462 12.246 121.961 12.2927 122.4 12.386C122.838 12.47 123.216 12.596 123.534 12.764C123.851 12.9227 124.112 13.1187 124.318 13.352C124.523 13.576 124.672 13.8327 124.766 14.122C124.868 14.402 124.92 14.7053 124.92 15.032V15.368C124.92 16.264 124.584 16.9453 123.912 17.412C123.249 17.8787 122.283 18.112 121.014 18.112ZM117.794 8.2H124.486L124.36 9.32H118.578L119.152 8.466L118.83 12.848L117.43 13.254L117.794 8.2Z" fill="#FF6728"/>
</svg>
