<svg xmlns="http://www.w3.org/2000/svg" width="225" height="74" fill="none"><path fill="#FF4C46" d="M54.996 49.422v-20h4.42v8.705h14.731v-8.705h4.42v20h-4.42v-7.545H59.415v7.545h-4.42Zm36.138.532c-2.946 0-5.312-.76-7.098-2.277-1.786-1.518-2.679-3.527-2.679-6.027s.893-4.509 2.679-6.026c1.786-1.518 4.152-2.277 7.098-2.277 2.947 0 5.313.759 7.143 2.276 1.786 1.518 2.679 3.527 2.679 6.027s-.893 4.51-2.679 6.027c-1.83 1.518-4.196 2.277-7.143 2.277Zm0-3.438c1.697 0 3.08-.446 4.107-1.339 1.027-.893 1.563-2.054 1.563-3.527 0-1.473-.536-2.678-1.563-3.571-1.026-.893-2.41-1.34-4.107-1.34-1.696 0-3.035.447-4.107 1.34-1.027.893-1.563 2.098-1.563 3.527 0 1.473.536 2.633 1.563 3.526 1.027.938 2.41 1.384 4.107 1.384Zm21.535 3.438c-2.946 0-5.312-.76-7.098-2.277-1.786-1.518-2.678-3.527-2.678-6.027s.892-4.509 2.678-6.026c1.786-1.518 4.152-2.277 7.098-2.277 2.947 0 5.313.759 7.143 2.276 1.786 1.518 2.679 3.527 2.679 6.027s-.893 4.51-2.679 6.027c-1.786 1.518-4.152 2.277-7.143 2.277Zm0-3.438c1.697 0 3.081-.446 4.107-1.339 1.027-.893 1.563-2.054 1.563-3.527 0-1.473-.536-2.678-1.563-3.571-1.026-.893-2.41-1.34-4.107-1.34-1.696 0-3.035.447-4.107 1.34-1.027.893-1.562 2.098-1.562 3.527 0 1.473.535 2.633 1.562 3.526 1.072.938 2.456 1.384 4.107 1.384Zm18.006 3.221c-1.964 0-3.08-.893-3.661-1.74-.58-.804-1.026-1.876-1.026-4.197v-6.786h-2.233V33.8h2.857v-4.375h3.795V33.8h4.509v3.214h-4.509v5.848c-.045 1.741.268 2.366.67 2.813.759.759 3.035.223 3.839-.268V48.8c-.937.67-2.634.937-4.241.937Zm15.557.217c-2.768 0-5.581-.402-8.393-1.206v-3.571c2.366.893 4.911 1.34 7.634 1.34 1.964 0 3.393-.135 4.241-.358.848-.268 1.295-.714 1.295-1.34 0-.624-.492-1.026-1.429-1.25a17.465 17.465 0 0 0-3.482-.446c-1.384-.044-2.723-.178-4.107-.357-1.384-.178-2.5-.625-3.482-1.294-.938-.67-1.429-1.652-1.429-2.902 0-1.697.804-2.991 2.455-3.884 1.652-.893 3.884-1.295 6.697-1.295 2.232 0 4.821.313 7.812.893v3.438c-2.544-.536-5-.804-7.321-.804-3.527 0-5.313.536-5.313 1.607 0 .536.491.938 1.429 1.161.937.223 2.098.357 3.482.446 1.339.09 2.723.224 4.063.402 1.383.179 2.544.67 3.482 1.34.937.714 1.428 1.696 1.428 2.946 0 1.74-.803 3.036-2.455 3.884-1.473.803-3.705 1.25-6.607 1.25Zm30.401-16.129v15.624h-4.866l.625-6.428h-.268c-.714 4.643-3.303 6.92-7.678 6.92-2.233-.045-3.884-.76-4.956-2.188-1.027-1.429-1.562-3.795-1.562-7.143v-6.785h4.419v6.25c0 2.365.313 4.017.982 5.044.67.982 1.742 1.518 3.259 1.518 1.697 0 3.036-.759 4.018-2.322.982-1.562 1.518-3.57 1.518-6.16v-4.33h4.509Zm6.057-1.496c-.848 0-1.517-.223-2.008-.625-.491-.447-.715-1.072-.715-1.875 0-.848.224-1.473.715-1.875.491-.402 1.16-.625 2.008-.625.893 0 1.563.223 2.054.625.491.402.714 1.027.714 1.875 0 1.652-.937 2.5-2.768 2.5Zm-2.187 17.098V33.802h4.42v15.625h-4.42Zm29.461.527c-2.812 0-5.089-.76-6.83-2.277-1.696-1.518-2.589-3.527-2.589-6.027s.848-4.509 2.589-6.026c1.697-1.518 3.973-2.277 6.83-2.277 2.813 0 5.045.67 6.786 1.964 1.697 1.295 2.589 3.036 2.634 5.134v2.544h-14.553c.267 1.25.892 2.188 1.964 2.768 1.071.58 2.634.849 4.732.849 2.768 0 4.018-.447 5.357-.938.223-.09 1.652-.714 1.83-.803v3.57c-1.562.626-2.946 1.028-4.107 1.206-1.205.179-2.723.313-4.643.313Zm-5.267-9.152 10.446-.268c-.045-1.384-.491-2.366-1.339-2.946-.848-.58-2.098-.893-3.84-.893-1.651 0-2.901.312-3.749.937-.849.67-1.384 1.741-1.518 3.17Zm-9.847 8.935c-1.964 0-3.08-.893-3.66-1.74-.581-.804-1.027-1.876-1.027-4.197v-6.786h-2.232V33.8h2.857v-4.375h3.794V33.8h4.509v3.214h-4.509v5.848c-.044 1.741.268 2.366.67 2.813.759.759 3.036.223 3.839-.268V48.8c-.937.67-2.678.937-4.241.937Zm28.852-12.303c-.402.402-.893.625-1.473.625-.581 0-1.072-.223-1.474-.625-.401-.402-.625-.893-.625-1.473 0-.58.224-1.072.625-1.474.402-.401.893-.625 1.474-.625.58 0 1.071.224 1.473.625.402.402.625.893.625 1.474 0 .535-.179 1.026-.625 1.473Zm-2.768-2.813a1.789 1.789 0 0 0-.536 1.295c0 .49.179.937.536 1.295.357.357.759.535 1.295.535.491 0 .937-.178 1.294-.535.357-.358.536-.804.536-1.295a1.79 1.79 0 0 0-.536-1.295 1.787 1.787 0 0 0-1.294-.535c-.491 0-.938.178-1.295.535Zm1.25.134c.268 0 .491.045.625.09.223.089.357.312.357.58 0 .223-.089.357-.223.446a2.06 2.06 0 0 1-.313.134c.179.045.313.09.402.223.089.134.134.224.134.358v.535h-.402v-.357c0-.268-.089-.446-.223-.536a.957.957 0 0 0-.446-.089h-.313v.893h-.402V34.71h.804v.044Zm.446.357a1.19 1.19 0 0 0-.491-.089h-.357v.848h.357c.179 0 .313 0 .402-.044.179-.045.223-.179.223-.358 0-.178-.044-.312-.134-.357Z"/><path fill="#FF4C46" fill-rule="evenodd" d="M9.021 27.792c3.701-4.17 8.768-6.966 13.316-6.936 4.548.03 8.633 1.852 13.131 7.204 3.947 4.704 6.346 11.506 7.491 15.428a7.803 7.803 0 0 1-1.188 6.788c-2.575 3.53-8.064 8.326-18.837 8.247-11.758-.08-17.832-5.934-20.752-9.527a5.554 5.554 0 0 1-.875-5.483c1.652-4.356 5.031-12.706 7.714-15.721Zm16.893 21.985c-.954-.823-2.545-2.533-3.31-3.37-.014-.024-.026-.058.001-.082.012-.05.071-.076.117-.054a7.379 7.379 0 0 0 6.287.501.11.11 0 0 1 .107.027c.034.03.03.09-.01.122l-2.57 2.816a.436.436 0 0 1-.622.04Zm-.722-8.63-2.615 3.032a.319.319 0 0 0 .03.454c.005.002.01.005.014.009a.038.038 0 0 0 .013.009c.597.43 2.041 1.367 3.459 1.383a7.208 7.208 0 0 0 3.093-.784.33.33 0 0 0 .14-.431c-.014-.025-.028-.05-.045-.064l-3.191-3.63a.605.605 0 0 0-.857-.02c-.017.027-.03.034-.041.042Zm13.287-5.511c-2.025-4.467-5.644-8.496-12.309-3.852-8.99-6.675-14.21-4.457-17.778 2.34-2.416 4.506-1.142 11.034 4.661 12.627 5.633 1.54 9.556-4.065 11.431-6.743.167-.239.317-.454.452-.639a1.06 1.06 0 0 1 .178-.172.783.783 0 0 1 1.098.174c2.489 3.452 5.853 7.136 9.498 6.43 4.756-.914 4.238-6.95 2.769-10.165Z" clip-rule="evenodd"/><path fill="#FF4C46" d="M33.943 35.847a2.586 2.586 0 0 1-.767 3.563 2.576 2.576 0 0 1-3.563-.767 2.59 2.59 0 0 1 .743-3.548 2.49 2.49 0 0 1 3.475.579c.036.06.085.115.112.173Zm-9.003-4.069a2.26 2.26 0 0 0 2.559.18L43.7 22.517a.456.456 0 0 0 .155-.615.455.455 0 0 0-.402-.216L25.91 23.142 5.906 15.537a.539.539 0 0 0-.684.325.544.544 0 0 0 .162.591l19.554 15.326Zm-7.144 2.64c-1.34.46-2.011 1.878-1.61 3.204.46 1.341 1.878 2.011 3.204 1.61 1.341-.46 1.997-1.902 1.61-3.204.003-.01-.002-.032-.024-.069a2.425 2.425 0 0 0-2.985-1.616c-.048-.013-.122.031-.195.075Z"/></svg>