<svg width="1440" height="1024" viewBox="0 0 1440 1024" fill="none" xmlns="http://www.w3.org/2000/svg">
<g clip-path="url(#clip0_1270_34577)">
<rect width="1440" height="1024" fill="#F9F5F3"/>
<rect width="48" height="48" rx="8" transform="matrix(-1 0 0 1 1248 0)" stroke="#EADDD5"/>
<rect width="48" height="48" rx="8" transform="matrix(-1 0 0 1 1248 48)" stroke="#EADDD5"/>
<rect width="48" height="48" rx="8" transform="matrix(-1 0 0 1 1248 96)" stroke="#EADDD5"/>
<rect width="48" height="48" rx="8" transform="matrix(-1 0 0 1 1248 144)" stroke="#EADDD5"/>
<rect width="48" height="48" rx="8" transform="matrix(-1 0 0 1 1248 192)" stroke="#EADDD5"/>
<rect width="48" height="48" rx="8" transform="matrix(-1 0 0 1 1248 240)" stroke="#EADDD5"/>
<rect width="48" height="48" rx="8" transform="matrix(-1 0 0 1 1248 288)" stroke="#EADDD5"/>
<rect width="48" height="48" rx="8" transform="matrix(-1 0 0 1 1248 336)" stroke="#EADDD5"/>
<rect width="48" height="48" rx="8" transform="matrix(-1 0 0 1 1248 384)" stroke="#EADDD5"/>
<rect width="48" height="48" rx="8" transform="matrix(-1 0 0 1 1248 432)" stroke="#EADDD5"/>
<rect width="48" height="48" rx="8" transform="matrix(-1 0 0 1 1248 480)" stroke="#EADDD5"/>
<rect width="48" height="48" rx="8" transform="matrix(-1 0 0 1 1248 528)" stroke="#EADDD5"/>
<rect width="48" height="48" rx="8" transform="matrix(-1 0 0 1 1248 576)" stroke="#EADDD5"/>
<rect width="48" height="48" rx="8" transform="matrix(-1 0 0 1 1248 624)" stroke="#EADDD5"/>
<rect width="48" height="48" rx="8" transform="matrix(-1 0 0 1 1248 672)" stroke="#EADDD5"/>
<rect width="48" height="48" rx="8" transform="matrix(-1 0 0 1 1248 720)" stroke="#EADDD5"/>
<rect width="48" height="48" rx="8" transform="matrix(-1 0 0 1 1248 960)" stroke="#EADDD5"/>
<rect width="48" height="48" rx="8" transform="matrix(-1 0 0 1 1200 0)" stroke="#EADDD5"/>
<rect width="48" height="48" rx="8" transform="matrix(-1 0 0 1 1200 48)" stroke="#EADDD5"/>
<rect width="48" height="48" rx="8" transform="matrix(-1 0 0 1 1200 96)" stroke="#EADDD5"/>
<rect width="48" height="48" rx="8" transform="matrix(-1 0 0 1 1200 144)" stroke="#EADDD5"/>
<rect width="48" height="48" rx="8" transform="matrix(-1 0 0 1 1200 192)" stroke="#EADDD5"/>
<rect width="48" height="48" rx="8" transform="matrix(-1 0 0 1 1200 240)" stroke="#EADDD5"/>
<rect width="48" height="48" rx="8" transform="matrix(-1 0 0 1 1200 288)" stroke="#EADDD5"/>
<rect width="48" height="48" rx="8" transform="matrix(-1 0 0 1 1200 384)" stroke="#EADDD5"/>
<rect width="48" height="48" rx="8" transform="matrix(-1 0 0 1 1200 480)" stroke="#EADDD5"/>
<rect width="48" height="48" rx="8" transform="matrix(-1 0 0 1 1200 528)" stroke="#EADDD5"/>
<rect width="48" height="48" rx="8" transform="matrix(-1 0 0 1 1200 576)" stroke="#EADDD5"/>
<rect width="48" height="48" rx="8" transform="matrix(-1 0 0 1 1200 624)" stroke="#EADDD5"/>
<rect width="48" height="48" rx="8" transform="matrix(-1 0 0 1 1200 672)" stroke="#EADDD5"/>
<rect width="48" height="48" rx="8" transform="matrix(-1 0 0 1 1200 720)" stroke="#EADDD5"/>
<rect width="48" height="48" rx="8" transform="matrix(-1 0 0 1 1200 768)" stroke="#EADDD5"/>
<rect width="48" height="48" rx="8" transform="matrix(-1 0 0 1 1152 0)" stroke="#EADDD5"/>
<rect width="48" height="48" rx="8" transform="matrix(-1 0 0 1 1152 48)" stroke="#EADDD5"/>
<rect width="48" height="48" rx="8" transform="matrix(-1 0 0 1 1152 96)" stroke="#EADDD5"/>
<rect width="48" height="48" rx="8" transform="matrix(-1 0 0 1 1152 144)" stroke="#EADDD5"/>
<rect width="48" height="48" rx="8" transform="matrix(-1 0 0 1 1152 192)" stroke="#EADDD5"/>
<rect width="48" height="48" rx="8" transform="matrix(-1 0 0 1 1152 240)" stroke="#EADDD5"/>
<rect width="48" height="48" rx="8" transform="matrix(-1 0 0 1 1152 288)" stroke="#EADDD5"/>
<rect width="48" height="48" rx="8" transform="matrix(-1 0 0 1 1152 384)" stroke="#EADDD5"/>
<rect width="48" height="48" rx="8" transform="matrix(-1 0 0 1 1152 432)" stroke="#EADDD5"/>
<rect width="48" height="48" rx="8" transform="matrix(-1 0 0 1 1152 528)" stroke="#EADDD5"/>
<rect width="48" height="48" rx="8" transform="matrix(-1 0 0 1 1152 576)" stroke="#EADDD5"/>
<rect width="48" height="48" rx="8" transform="matrix(-1 0 0 1 1152 624)" stroke="#EADDD5"/>
<rect width="48" height="48" rx="8" transform="matrix(-1 0 0 1 1152 672)" stroke="#EADDD5"/>
<rect width="48" height="48" rx="8" transform="matrix(-1 0 0 1 1152 720)" stroke="#EADDD5"/>
<rect width="48" height="48" rx="8" transform="matrix(-1 0 0 1 1152 816)" stroke="#EADDD5"/>
<rect width="48" height="48" rx="8" transform="matrix(-1 0 0 1 1152 960)" stroke="#EADDD5"/>
<rect width="48" height="48" rx="8" transform="matrix(-1 0 0 1 1104 0)" stroke="#EADDD5"/>
<rect width="48" height="48" rx="8" transform="matrix(-1 0 0 1 1104 48)" stroke="#EADDD5"/>
<rect width="48" height="48" rx="8" transform="matrix(-1 0 0 1 1104 96)" stroke="#EADDD5"/>
<rect width="48" height="48" rx="8" transform="matrix(-1 0 0 1 1104 144)" stroke="#EADDD5"/>
<rect width="48" height="48" rx="8" transform="matrix(-1 0 0 1 1104 192)" stroke="#EADDD5"/>
<rect width="48" height="48" rx="8" transform="matrix(-1 0 0 1 1104 240)" stroke="#EADDD5"/>
<rect width="48" height="48" rx="8" transform="matrix(-1 0 0 1 1104 288)" stroke="#EADDD5"/>
<rect width="48" height="48" rx="8" transform="matrix(-1 0 0 1 1104 336)" stroke="#EADDD5"/>
<rect width="48" height="48" rx="8" transform="matrix(-1 0 0 1 1104 432)" stroke="#EADDD5"/>
<rect width="48" height="48" rx="8" transform="matrix(-1 0 0 1 1104 480)" stroke="#EADDD5"/>
<rect width="48" height="48" rx="8" transform="matrix(-1 0 0 1 1104 528)" stroke="#EADDD5"/>
<rect width="48" height="48" rx="8" transform="matrix(-1 0 0 1 1104 576)" stroke="#EADDD5"/>
<rect width="48" height="48" rx="8" transform="matrix(-1 0 0 1 1104 624)" stroke="#EADDD5"/>
<rect width="48" height="48" rx="8" transform="matrix(-1 0 0 1 1104 672)" stroke="#EADDD5"/>
<rect width="48" height="48" rx="8" transform="matrix(-1 0 0 1 1104 720)" stroke="#EADDD5"/>
<rect width="48" height="48" rx="8" transform="matrix(-1 0 0 1 1104 768)" stroke="#EADDD5"/>
<rect width="48" height="48" rx="8" transform="matrix(-1 0 0 1 1056 0)" stroke="#EADDD5"/>
<rect width="48" height="48" rx="8" transform="matrix(-1 0 0 1 1056 48)" stroke="#EADDD5"/>
<rect width="48" height="48" rx="8" transform="matrix(-1 0 0 1 1056 96)" stroke="#EADDD5"/>
<rect width="48" height="48" rx="8" transform="matrix(-1 0 0 1 1056 144)" stroke="#EADDD5"/>
<rect width="48" height="48" rx="8" transform="matrix(-1 0 0 1 1056 192)" stroke="#EADDD5"/>
<rect width="48" height="48" rx="8" transform="matrix(-1 0 0 1 1056 240)" stroke="#EADDD5"/>
<rect width="48" height="48" rx="8" transform="matrix(-1 0 0 1 1056 288)" stroke="#EADDD5"/>
<rect width="48" height="48" rx="8" transform="matrix(-1 0 0 1 1056 336)" stroke="#EADDD5"/>
<rect width="48" height="48" rx="8" transform="matrix(-1 0 0 1 1056 384)" stroke="#EADDD5"/>
<rect width="48" height="48" rx="8" transform="matrix(-1 0 0 1 1056 432)" stroke="#EADDD5"/>
<rect width="48" height="48" rx="8" transform="matrix(-1 0 0 1 1056 480)" stroke="#EADDD5"/>
<rect width="48" height="48" rx="8" transform="matrix(-1 0 0 1 1056 528)" stroke="#EADDD5"/>
<rect width="48" height="48" rx="8" transform="matrix(-1 0 0 1 1056 576)" stroke="#EADDD5"/>
<rect width="48" height="48" rx="8" transform="matrix(-1 0 0 1 1056 624)" stroke="#EADDD5"/>
<rect width="48" height="48" rx="8" transform="matrix(-1 0 0 1 1056 720)" stroke="#EADDD5"/>
<rect width="48" height="48" rx="8" transform="matrix(-1 0 0 1 1056 768)" stroke="#EADDD5"/>
<rect width="48" height="48" rx="8" transform="matrix(-1 0 0 1 1008 720)" stroke="#EADDD5"/>
<rect width="48" height="48" rx="8" transform="matrix(-1 0 0 1 1056 816)" stroke="#EADDD5"/>
<rect width="48" height="48" rx="8" transform="matrix(-1 0 0 1 1056 960)" stroke="#EADDD5"/>
<rect width="48" height="48" rx="8" transform="matrix(-1 0 0 1 1008 0)" stroke="#EADDD5"/>
<rect width="48" height="48" rx="8" transform="matrix(-1 0 0 1 1008 48)" stroke="#EADDD5"/>
<rect width="48" height="48" rx="8" transform="matrix(-1 0 0 1 1008 96)" stroke="#EADDD5"/>
<rect width="48" height="48" rx="8" transform="matrix(-1 0 0 1 1008 144)" stroke="#EADDD5"/>
<rect width="48" height="48" rx="8" transform="matrix(-1 0 0 1 1008 240)" stroke="#EADDD5"/>
<rect width="48" height="48" rx="8" transform="matrix(-1 0 0 1 1008 288)" stroke="#EADDD5"/>
<rect width="48" height="48" rx="8" transform="matrix(-1 0 0 1 1008 336)" stroke="#EADDD5"/>
<rect width="48" height="48" rx="8" transform="matrix(-1 0 0 1 1008 576)" stroke="#EADDD5"/>
<rect width="48" height="48" rx="8" transform="matrix(-1 0 0 1 1008 672)" stroke="#EADDD5"/>
<rect width="48" height="48" rx="8" transform="matrix(-1 0 0 1 960 0)" stroke="#EADDD5"/>
<rect width="48" height="48" rx="8" transform="matrix(-1 0 0 1 960 48)" stroke="#EADDD5"/>
<rect width="48" height="48" rx="8" transform="matrix(-1 0 0 1 960 96)" stroke="#EADDD5"/>
<rect width="48" height="48" rx="8" transform="matrix(-1 0 0 1 960 144)" stroke="#EADDD5"/>
<rect width="48" height="48" rx="8" transform="matrix(-1 0 0 1 960 192)" stroke="#EADDD5"/>
<rect width="48" height="48" rx="8" transform="matrix(-1 0 0 1 960 240)" stroke="#EADDD5"/>
<rect width="48" height="48" rx="8" transform="matrix(-1 0 0 1 960 288)" stroke="#EADDD5"/>
<rect width="48" height="48" rx="8" transform="matrix(-1 0 0 1 960 384)" stroke="#EADDD5"/>
<rect width="48" height="48" rx="8" transform="matrix(-1 0 0 1 960 480)" stroke="#EADDD5"/>
<rect width="48" height="48" rx="8" transform="matrix(-1 0 0 1 960 576)" stroke="#EADDD5"/>
<rect width="48" height="48" rx="8" transform="matrix(-1 0 0 1 960 624)" stroke="#EADDD5"/>
<rect width="48" height="48" rx="8" transform="matrix(-1 0 0 1 960 672)" stroke="#EADDD5"/>
<rect width="48" height="48" rx="8" transform="matrix(-1 0 0 1 960 960)" stroke="#EADDD5"/>
<rect width="48" height="48" rx="8" transform="matrix(-1 0 0 1 912 0)" stroke="#EADDD5"/>
<rect width="48" height="48" rx="8" transform="matrix(-1 0 0 1 912 48)" stroke="#EADDD5"/>
<rect width="48" height="48" rx="8" transform="matrix(-1 0 0 1 912 96)" stroke="#EADDD5"/>
<rect width="48" height="48" rx="8" transform="matrix(-1 0 0 1 912 192)" stroke="#EADDD5"/>
<rect width="48" height="48" rx="8" transform="matrix(-1 0 0 1 912 240)" stroke="#EADDD5"/>
<rect width="48" height="48" rx="8" transform="matrix(-1 0 0 1 912 336)" stroke="#EADDD5"/>
<rect width="48" height="48" rx="8" transform="matrix(-1 0 0 1 912 720)" stroke="#EADDD5"/>
<rect width="48" height="48" rx="8" transform="matrix(-1 0 0 1 1440 0)" stroke="#EADDD5"/>
<rect width="48" height="48" rx="8" transform="matrix(-1 0 0 1 1440 48)" stroke="#EADDD5"/>
<rect width="48" height="48" rx="8" transform="matrix(-1 0 0 1 1440 96)" stroke="#EADDD5"/>
<rect width="48" height="48" rx="8" transform="matrix(-1 0 0 1 1440 144)" stroke="#EADDD5"/>
<rect width="48" height="48" rx="8" transform="matrix(-1 0 0 1 1440 192)" stroke="#EADDD5"/>
<rect width="48" height="48" rx="8" transform="matrix(-1 0 0 1 1440 240)" stroke="#EADDD5"/>
<rect width="48" height="48" rx="8" transform="matrix(-1 0 0 1 1440 288)" stroke="#EADDD5"/>
<rect width="48" height="48" rx="8" transform="matrix(-1 0 0 1 1440 336)" stroke="#EADDD5"/>
<rect width="48" height="48" rx="8" transform="matrix(-1 0 0 1 1440 384)" stroke="#EADDD5"/>
<rect width="48" height="48" rx="8" transform="matrix(-1 0 0 1 1440 432)" stroke="#EADDD5"/>
<rect width="48" height="48" rx="8" transform="matrix(-1 0 0 1 1440 480)" stroke="#EADDD5"/>
<rect width="48" height="48" rx="8" transform="matrix(-1 0 0 1 1440 528)" stroke="#EADDD5"/>
<rect width="48" height="48" rx="8" transform="matrix(-1 0 0 1 1440 576)" stroke="#EADDD5"/>
<rect width="48" height="48" rx="8" transform="matrix(-1 0 0 1 1440 624)" stroke="#EADDD5"/>
<rect width="48" height="48" rx="8" transform="matrix(-1 0 0 1 1440 672)" stroke="#EADDD5"/>
<rect width="48" height="48" rx="8" transform="matrix(-1 0 0 1 1440 720)" stroke="#EADDD5"/>
<rect width="48" height="48" rx="8" transform="matrix(-1 0 0 1 1440 768)" stroke="#EADDD5"/>
<rect width="48" height="48" rx="8" transform="matrix(-1 0 0 1 1440 816)" stroke="#EADDD5"/>
<rect width="48" height="48" rx="8" transform="matrix(-1 0 0 1 1440 960)" stroke="#EADDD5"/>
<rect width="48" height="48" rx="8" transform="matrix(-1 0 0 1 1392 0)" stroke="#EADDD5"/>
<rect width="48" height="48" rx="8" transform="matrix(-1 0 0 1 1392 48)" stroke="#EADDD5"/>
<rect width="48" height="48" rx="8" transform="matrix(-1 0 0 1 1392 96)" stroke="#EADDD5"/>
<rect width="48" height="48" rx="8" transform="matrix(-1 0 0 1 1392 144)" stroke="#EADDD5"/>
<rect width="48" height="48" rx="8" transform="matrix(-1 0 0 1 1392 192)" stroke="#EADDD5"/>
<rect width="48" height="48" rx="8" transform="matrix(-1 0 0 1 1392 240)" stroke="#EADDD5"/>
<rect width="48" height="48" rx="8" transform="matrix(-1 0 0 1 1392 288)" stroke="#EADDD5"/>
<rect width="48" height="48" rx="8" transform="matrix(-1 0 0 1 1392 384)" stroke="#EADDD5"/>
<rect width="48" height="48" rx="8" transform="matrix(-1 0 0 1 1392 480)" stroke="#EADDD5"/>
<rect width="48" height="48" rx="8" transform="matrix(-1 0 0 1 1392 528)" stroke="#EADDD5"/>
<rect width="48" height="48" rx="8" transform="matrix(-1 0 0 1 1392 576)" stroke="#EADDD5"/>
<rect width="48" height="48" rx="8" transform="matrix(-1 0 0 1 1392 624)" stroke="#EADDD5"/>
<rect width="48" height="48" rx="8" transform="matrix(-1 0 0 1 1392 672)" stroke="#EADDD5"/>
<rect width="48" height="48" rx="8" transform="matrix(-1 0 0 1 1392 720)" stroke="#EADDD5"/>
<rect width="48" height="48" rx="8" transform="matrix(-1 0 0 1 1392 768)" stroke="#EADDD5"/>
<rect width="48" height="48" rx="8" transform="matrix(-1 0 0 1 1392 816)" stroke="#EADDD5"/>
<rect width="48" height="48" rx="8" transform="matrix(-1 0 0 1 1344 0)" stroke="#EADDD5"/>
<rect width="48" height="48" rx="8" transform="matrix(-1 0 0 1 1344 48)" stroke="#EADDD5"/>
<rect width="48" height="48" rx="8" transform="matrix(-1 0 0 1 1344 96)" stroke="#EADDD5"/>
<rect width="48" height="48" rx="8" transform="matrix(-1 0 0 1 1344 144)" stroke="#EADDD5"/>
<rect width="48" height="48" rx="8" transform="matrix(-1 0 0 1 1344 192)" stroke="#EADDD5"/>
<rect width="48" height="48" rx="8" transform="matrix(-1 0 0 1 1344 240)" stroke="#EADDD5"/>
<rect width="48" height="48" rx="8" transform="matrix(-1 0 0 1 1344 288)" stroke="#EADDD5"/>
<rect width="48" height="48" rx="8" transform="matrix(-1 0 0 1 1344 384)" stroke="#EADDD5"/>
<rect width="48" height="48" rx="8" transform="matrix(-1 0 0 1 1344 432)" stroke="#EADDD5"/>
<rect width="48" height="48" rx="8" transform="matrix(-1 0 0 1 1344 528)" stroke="#EADDD5"/>
<rect width="48" height="48" rx="8" transform="matrix(-1 0 0 1 1344 576)" stroke="#EADDD5"/>
<rect width="48" height="48" rx="8" transform="matrix(-1 0 0 1 1344 624)" stroke="#EADDD5"/>
<rect width="48" height="48" rx="8" transform="matrix(-1 0 0 1 1344 672)" stroke="#EADDD5"/>
<rect width="48" height="48" rx="8" transform="matrix(-1 0 0 1 1344 720)" stroke="#EADDD5"/>
<rect width="48" height="48" rx="8" transform="matrix(-1 0 0 1 1344 768)" stroke="#EADDD5"/>
<rect width="48" height="48" rx="8" transform="matrix(-1 0 0 1 1344 816)" stroke="#EADDD5"/>
<rect width="48" height="48" rx="8" transform="matrix(-1 0 0 1 1344 960)" stroke="#EADDD5"/>
<rect width="48" height="48" rx="8" transform="matrix(-1 0 0 1 1296 0)" stroke="#EADDD5"/>
<rect width="48" height="48" rx="8" transform="matrix(-1 0 0 1 1296 48)" stroke="#EADDD5"/>
<rect width="48" height="48" rx="8" transform="matrix(-1 0 0 1 1296 96)" stroke="#EADDD5"/>
<rect width="48" height="48" rx="8" transform="matrix(-1 0 0 1 1296 144)" stroke="#EADDD5"/>
<rect width="48" height="48" rx="8" transform="matrix(-1 0 0 1 1296 192)" stroke="#EADDD5"/>
<rect width="48" height="48" rx="8" transform="matrix(-1 0 0 1 1296 240)" stroke="#EADDD5"/>
<rect width="48" height="48" rx="8" transform="matrix(-1 0 0 1 1296 288)" stroke="#EADDD5"/>
<rect width="48" height="48" rx="8" transform="matrix(-1 0 0 1 1296 336)" stroke="#EADDD5"/>
<rect width="48" height="48" rx="8" transform="matrix(-1 0 0 1 1296 432)" stroke="#EADDD5"/>
<rect width="48" height="48" rx="8" transform="matrix(-1 0 0 1 1296 480)" stroke="#EADDD5"/>
<rect width="48" height="48" rx="8" transform="matrix(-1 0 0 1 1296 528)" stroke="#EADDD5"/>
<rect width="48" height="48" rx="8" transform="matrix(-1 0 0 1 1296 576)" stroke="#EADDD5"/>
<rect width="48" height="48" rx="8" transform="matrix(-1 0 0 1 1296 624)" stroke="#EADDD5"/>
<rect width="48" height="48" rx="8" transform="matrix(-1 0 0 1 1296 672)" stroke="#EADDD5"/>
<rect width="48" height="48" rx="8" transform="matrix(-1 0 0 1 1296 720)" stroke="#EADDD5"/>
</g>
<defs>
<clipPath id="clip0_1270_34577">
<rect width="1440" height="1024" fill="white"/>
</clipPath>
</defs>
</svg>
