<svg width="240" height="50" viewBox="0 0 240 50" fill="none" xmlns="http://www.w3.org/2000/svg">
<g clip-path="url(#clip0_6795_71505)">
<path d="M36.5069 29.2634C36.4857 29.2756 36.4616 29.2821 36.4371 29.2821C36.4126 29.2821 36.3885 29.2756 36.3673 29.2634L18.5601 28.2028L0.752837 29.2634C0.731622 29.2756 0.707556 29.2821 0.683059 29.2821C0.658562 29.2821 0.634496 29.2756 0.613281 29.2634C0.678407 29.4588 0.743533 29.6588 0.808659 29.8635C0.808659 29.7658 0.808659 29.71 0.976125 29.71H36.1301C36.2557 29.71 36.3255 29.71 36.2975 29.8635C36.372 29.6588 36.4417 29.4588 36.5069 29.2634Z" fill="white"/>
<path d="M36.9961 24.8535C36.3402 24.8535 24.3245 24.2953 18.5748 24.3092C12.8251 24.3232 0.809421 24.9093 0.153512 24.8535C0.120852 24.8557 0.0883394 24.8474 0.0607224 24.8298C0.0331053 24.8123 0.0118287 24.7863 0 24.7558C0 24.8535 0 24.9372 0 25.0349C0 25.1326 0 25.2163 0 25.314C0.0118287 25.2835 0.0331053 25.2576 0.0607224 25.24C0.0883394 25.2224 0.120852 25.2141 0.153512 25.2163C0.809421 25.2163 12.8251 25.7745 18.5748 25.7606C24.3245 25.7466 36.3402 25.1605 36.9961 25.2163C37.0287 25.2141 37.0612 25.2224 37.0889 25.24C37.1165 25.2576 37.1378 25.2835 37.1496 25.314C37.1496 25.2163 37.1496 25.1326 37.1496 25.0349C37.1496 24.9372 37.1496 24.8535 37.1496 24.7558C37.1378 24.7863 37.1165 24.8123 37.0889 24.8298C37.0612 24.8474 37.0287 24.8557 36.9961 24.8535Z" fill="white"/>
<path d="M36.828 27.0583C36.2837 27.0583 24.4495 26.1931 18.5742 26.221C12.6989 26.2489 0.864643 27.0304 0.320378 27.0583C0.278263 27.0635 0.235652 27.0538 0.199955 27.0309C0.164258 27.0079 0.137735 26.9732 0.125 26.9327C0.125 27.1374 0.157564 27.3374 0.22269 27.5328C0.22269 27.4491 0.292467 27.4072 0.404111 27.4072C0.515756 27.4072 14.6946 27.798 18.5463 27.798C22.398 27.798 36.5908 27.4072 36.6885 27.4072C36.7861 27.4072 36.8699 27.4072 36.8699 27.5328C36.8699 27.3281 36.9024 27.1281 36.9676 26.9327C36.958 26.9644 36.9399 26.9928 36.9153 27.015C36.8907 27.0371 36.8605 27.0521 36.828 27.0583Z" fill="white"/>
<path d="M0.640625 20.8064C0.66184 20.7941 0.685906 20.7877 0.710403 20.7877C0.7349 20.7877 0.758966 20.7941 0.780181 20.8064L18.5874 21.867L36.3947 20.8064C36.4159 20.7941 36.4399 20.7877 36.4644 20.7877C36.4889 20.7877 36.513 20.7941 36.5342 20.8064C36.4691 20.611 36.404 20.411 36.3388 20.2063C36.3388 20.304 36.3388 20.3598 36.1714 20.3598H1.07325C0.947647 20.3598 0.87787 20.3598 0.905781 20.2063C0.794136 20.4017 0.705751 20.6017 0.640625 20.8064Z" fill="white"/>
<path d="M0.320378 22.9973C0.864643 22.9973 12.6989 23.8626 18.5742 23.8347C24.4495 23.8068 36.2837 23.0252 36.828 22.9973C36.8701 22.9921 36.9127 23.0018 36.9484 23.0248C36.9841 23.0477 37.0106 23.0825 37.0234 23.1229C37.0234 22.9183 36.9908 22.7182 36.9257 22.5228C36.9257 22.6066 36.8559 22.6484 36.7443 22.6484C36.6326 22.6484 22.4538 22.2577 18.6021 22.2577C14.7504 22.2577 0.543667 22.5787 0.404111 22.5787C0.264556 22.5787 0.22269 22.5787 0.22269 22.4531C0.22269 22.6577 0.190126 22.8578 0.125 23.0532C0.148276 23.0254 0.179322 23.0053 0.214141 22.9953C0.24896 22.9854 0.285959 22.9861 0.320378 22.9973Z" fill="white"/>
<path d="M1.07458 20.3598H36.1308C36.2704 20.3598 36.3402 20.29 36.2983 20.1644C33.9259 13.6611 26.8923 9 18.5748 9C10.2573 9 3.22373 13.7309 0.851287 20.1644C0.809421 20.29 0.879198 20.3598 1.07458 20.3598ZM0.209334 24.8535C0.865243 24.8535 12.8809 24.2952 18.6306 24.3092C24.3803 24.3232 36.396 24.9093 37.0519 24.8535C37.1496 24.8535 37.2054 24.8535 37.2054 24.7279C37.1925 24.2049 37.1506 23.6831 37.0798 23.1648C37.0782 23.1397 37.0713 23.1151 37.0597 23.0927C37.048 23.0704 37.0318 23.0507 37.0121 23.0349C36.9924 23.0192 36.9696 23.0077 36.9452 23.0012C36.9209 22.9948 36.8954 22.9934 36.8705 22.9974C36.3262 22.9974 24.4919 23.8626 18.6167 23.8347C12.7414 23.8068 0.907109 23.0253 0.362844 22.9974C0.337925 22.9934 0.312459 22.9948 0.288074 23.0012C0.263688 23.0077 0.240919 23.0192 0.22122 23.0349C0.20152 23.0507 0.185324 23.0704 0.173665 23.0927C0.162007 23.1151 0.155143 23.1397 0.153512 23.1648C0.0828172 23.6831 0.0408862 24.2049 0.0279117 24.7279C0.0279117 24.7279 0.0558229 24.8395 0.153512 24.8535H0.209334ZM0.404711 22.5787C0.544266 22.5787 14.6952 22.188 18.5469 22.188C22.3986 22.188 36.5914 22.5787 36.6891 22.5787C36.7867 22.5787 36.8844 22.5787 36.8705 22.4112C36.7686 21.8547 36.6335 21.3048 36.4658 20.7645C36.4625 20.7478 36.4559 20.7319 36.4463 20.7179C36.4367 20.7038 36.4243 20.6919 36.41 20.6827C36.3956 20.6736 36.3795 20.6675 36.3627 20.6647C36.3459 20.662 36.3288 20.6627 36.3123 20.6668L18.505 21.7274L0.78151 20.7366C0.750228 20.7324 0.7185 20.7401 0.69264 20.7582C0.66678 20.7763 0.648683 20.8034 0.641954 20.8343C0.474413 21.3747 0.33927 21.9246 0.237244 22.481C0.209333 22.5787 0.279112 22.5787 0.404711 22.5787ZM0.865243 29.8356C3.23768 36.3389 10.2713 41 18.5887 41C26.9062 41 33.9398 36.2691 36.3123 29.8356C36.3123 29.71 36.3123 29.6402 36.1448 29.6402H1.07458C0.879198 29.696 0.809421 29.7658 0.851287 29.8914L0.865243 29.8356ZM0 25.3698C0.0130315 25.8927 0.0549622 26.4145 0.1256 26.9328C0.127232 26.958 0.134097 26.9826 0.145755 27.0049C0.157413 27.0273 0.173609 27.047 0.193308 27.0628C0.213008 27.0785 0.235778 27.09 0.260163 27.0965C0.284549 27.1029 0.310015 27.1042 0.334933 27.1003C0.879199 27.1003 12.7135 26.2351 18.5887 26.263C24.464 26.2909 36.2983 27.0724 36.8426 27.1003C36.8675 27.1042 36.893 27.1029 36.9173 27.0965C36.9417 27.09 36.9645 27.0785 36.9842 27.0628C37.0039 27.047 37.0201 27.0273 37.0317 27.0049C37.0434 26.9826 37.0503 26.958 37.0519 26.9328C37.1181 26.4143 37.1554 25.8925 37.1635 25.3698C37.1635 25.3698 37.1635 25.2582 37.01 25.2442C36.3541 25.2442 24.3384 25.8024 18.5887 25.7885C12.8391 25.7745 0.823377 25.1884 0.167467 25.2442C0.0558232 25.2163 0 25.2582 0 25.3698ZM0.223289 27.6306C0.325218 28.1871 0.460363 28.737 0.627999 29.2774C0.634729 29.3082 0.652824 29.3354 0.678684 29.3535C0.704544 29.3716 0.736272 29.3793 0.767554 29.3751L18.5748 28.3144L36.382 29.3751C36.3985 29.3792 36.4157 29.3799 36.4325 29.3771C36.4493 29.3744 36.4654 29.3683 36.4797 29.3591C36.4941 29.35 36.5064 29.338 36.516 29.324C36.5256 29.3099 36.5323 29.2941 36.5355 29.2774C36.7032 28.737 36.8384 28.1871 36.9403 27.6306C36.9403 27.519 36.9403 27.4631 36.7588 27.4631C36.5774 27.4631 22.4684 27.8539 18.6167 27.8539C14.7649 27.8539 0.572176 27.4631 0.474488 27.4631C0.376799 27.4631 0.209334 27.4771 0.223289 27.5887V27.6306Z" fill="url(#paint0_radial_6795_71505)"/>
<path d="M70.3339 16.5917C68.1512 16.6357 66.0743 17.5404 64.5556 19.1088C63.037 20.6771 62.1995 22.782 62.2257 24.965C62.1804 26.059 62.3566 27.1509 62.744 28.175C63.1314 29.1992 63.7218 30.1344 64.4799 30.9245C65.2379 31.7146 66.1479 32.3433 67.1551 32.7728C68.1623 33.2023 69.2459 33.4237 70.3409 33.4237C71.4358 33.4237 72.5195 33.2023 73.5267 32.7728C74.5339 32.3433 75.4438 31.7146 76.2019 30.9245C76.9599 30.1344 77.5503 29.1992 77.9377 28.175C78.3251 27.1509 78.5014 26.059 78.456 24.965C78.4822 22.7796 77.6428 20.6727 76.1211 19.1039C74.5995 17.5352 72.519 16.6321 70.3339 16.5917ZM70.3339 30.9938C68.422 30.9938 65.4355 29.5982 65.4355 25.0208C65.4355 20.4434 68.422 19.006 70.3339 19.006C72.2458 19.006 75.2323 20.4015 75.2323 25.0208C75.2323 29.6401 72.2458 30.9519 70.3478 30.9519L70.3339 30.9938Z" fill="black"/>
<path d="M195.24 16.5917C193.057 16.6357 190.981 17.5404 189.462 19.1088C187.943 20.6771 187.106 22.782 187.132 24.965C187.087 26.059 187.263 27.1509 187.65 28.175C188.038 29.1992 188.628 30.1344 189.386 30.9245C190.144 31.7146 191.054 32.3433 192.061 32.7728C193.069 33.2023 194.152 33.4237 195.247 33.4237C196.342 33.4237 197.426 33.2023 198.433 32.7728C199.44 32.3433 200.35 31.7146 201.108 30.9245C201.866 30.1344 202.457 29.1992 202.844 28.175C203.231 27.1509 203.408 26.059 203.362 24.965C203.388 22.7796 202.549 20.6727 201.027 19.1039C199.506 17.5352 197.425 16.6321 195.24 16.5917ZM195.24 30.9938C193.328 30.9938 190.342 29.5982 190.342 25.0208C190.342 20.4434 193.328 19.006 195.24 19.006C197.152 19.006 200.139 20.4015 200.139 25.0208C200.139 29.6401 197.152 30.9519 195.254 30.9519L195.24 30.9938Z" fill="black"/>
<path d="M49.8766 16.9825H46.8203V33.0733H49.8766V16.9825Z" fill="black"/>
<path d="M102.193 16.9825H99.1367V33.0733H102.193V16.9825Z" fill="black"/>
<path d="M115.505 19.2015H116.789L116.901 16.9965C116.301 16.9621 115.7 16.9621 115.1 16.9965C108.876 16.9965 104.871 20.3039 104.871 25.0767C104.871 29.8495 108.876 33.157 115.1 33.157C115.703 33.1408 116.304 33.0895 116.901 33.0035L116.761 30.8543H115.505C111.319 30.8543 108.304 28.8168 108.304 25.0488C108.304 21.2808 111.165 19.2015 115.505 19.2015Z" fill="black"/>
<path d="M92.635 26.5838C90.2856 22.6626 87.0317 19.3608 83.1452 16.9545H80.9961V33.0731H83.8849C83.8849 33.0731 83.7732 20.6666 83.7732 20.6387C87.9637 23.8156 91.1278 28.1542 92.8722 33.115H95.4261V16.9963H92.5234C92.5234 16.9963 92.635 26.5698 92.635 26.5838Z" fill="black"/>
<path d="M181.781 26.5838C179.428 22.661 176.169 19.3591 172.277 16.9545H170.156V33.0731H173.045C173.045 33.0731 172.933 20.6666 172.933 20.6387C177.125 23.8145 180.289 28.1534 182.032 33.115H184.586V16.9963H181.67C181.67 16.9963 181.781 26.5698 181.781 26.5838Z" fill="black"/>
<path d="M166.443 16.9825H163.387V33.0733H166.443V16.9825Z" fill="black"/>
<path d="M117.781 33.0733H120.67C120.67 33.0733 125.01 22.8579 125.178 22.5787C125.373 22.9276 130.523 33.1431 130.523 33.1431H133.97L125.275 16.536L117.781 33.0733Z" fill="black"/>
<path d="M230.641 16.536L223.203 33.0873H226.106C226.106 33.0873 230.446 22.8718 230.6 22.5229C230.795 22.8718 235.945 33.0873 235.945 33.0873H239.392L230.641 16.536Z" fill="black"/>
<path d="M55.0784 23.5276L61.3723 16.9965H57.7299L51.0312 23.9742C54.4236 26.1378 57.0652 29.2961 58.5951 33.0174H61.791C60.5378 29.2616 58.2025 25.96 55.0784 23.5276Z" fill="black"/>
<path d="M208.957 16.9825H205.887V33.0733H215.209V30.7706H208.957V16.9825Z" fill="black"/>
<path d="M225.047 16.9825H213.812V19.2852H217.901V33.0733H220.958V19.2852H225.047V16.9825Z" fill="black"/>
<path d="M151.498 24.5184C151.205 25.0767 150.786 26.3606 150.521 27.1142C150.256 26.3745 149.837 25.0906 149.544 24.5324C148.18 21.6487 146.479 18.9365 144.478 16.4521C143.697 17.8477 140.64 30.4077 139.984 33.0732H143.055L145.371 22.3693C147.087 25.3129 148.49 28.428 149.558 31.6637H151.498C152.571 28.4481 153.974 25.3521 155.684 22.4251L158.015 33.0732H161.085C160.443 30.3798 157.373 17.8896 156.591 16.4521C154.579 18.9288 152.869 21.6367 151.498 24.5184Z" fill="black"/>
</g>
<defs>
<radialGradient id="paint0_radial_6795_71505" cx="0" cy="0" r="1" gradientUnits="userSpaceOnUse" gradientTransform="translate(18.5748 19.3963) scale(21.8962 20.3635)">
<stop stop-color="#9BC4F0"/>
<stop offset="0.59" stop-color="#0075D2"/>
<stop offset="1" stop-color="#014880"/>
</radialGradient>
<clipPath id="clip0_6795_71505">
<rect width="239.395" height="32" fill="white" transform="translate(0 9)"/>
</clipPath>
</defs>
</svg>
