<svg width="92" height="107" viewBox="0 0 92 107" fill="none" xmlns="http://www.w3.org/2000/svg">
<g clip-path="url(#clip0_6383_96479)">
<path d="M0 83.7771L46 106.443L92 83.7771V0.443115H0V83.7771Z" fill="white"/>
<path d="M0 83.7771L46 106.443L92 83.7771V0.443115H0V83.7771Z" fill="white"/>
<path d="M16.4648 13.1502V8.25016H19.6048V9.12016L17.4248 9.13016V10.3002H19.2448V11.1802H17.4248V13.1502H16.4648ZM24.4348 13.1502L22.5548 8.25016H23.5148L25.4548 13.1502H24.4348ZM20.5648 13.1502L22.4948 8.25016H23.4548L21.5748 13.1502H20.5648ZM21.4748 12.0702V11.2302H24.5448V12.0702H21.4748ZM26.7348 13.1502V8.25016H27.6948V12.2802H29.8548V13.1502H26.7348ZM31.1948 13.1502V8.25016H32.1548V12.2802H34.3148V13.1502H31.1948ZM37.8448 13.1502V12.4402C37.8448 12.3068 37.8882 12.1602 37.9748 12.0002C38.0548 11.8335 38.1715 11.6702 38.3248 11.5102C38.4715 11.3435 38.6448 11.1902 38.8448 11.0502L39.5948 10.5202C39.6948 10.4468 39.7915 10.3668 39.8848 10.2802C39.9715 10.1935 40.0448 10.0968 40.1048 9.99016C40.1648 9.88349 40.1948 9.78349 40.1948 9.69016C40.1948 9.56349 40.1648 9.45349 40.1048 9.36016C40.0448 9.26016 39.9582 9.18349 39.8448 9.13016C39.7382 9.07016 39.6015 9.04016 39.4348 9.04016C39.2948 9.04016 39.1715 9.07016 39.0648 9.13016C38.9515 9.18349 38.8615 9.25682 38.7948 9.35016C38.7215 9.44349 38.6715 9.54349 38.6448 9.65016L37.6548 9.48016C37.7015 9.24682 37.8015 9.03016 37.9548 8.83016C38.1148 8.63016 38.3182 8.46682 38.5648 8.34016C38.8115 8.22016 39.0948 8.16016 39.4148 8.16016C39.7815 8.16016 40.0948 8.22682 40.3548 8.36016C40.6148 8.48682 40.8148 8.66349 40.9548 8.89016C41.1015 9.11682 41.1748 9.38016 41.1748 9.68016C41.1748 9.98016 41.0915 10.2502 40.9248 10.4902C40.7582 10.7235 40.5315 10.9435 40.2448 11.1502L39.5748 11.6302C39.4415 11.7235 39.3248 11.8268 39.2248 11.9402C39.1248 12.0535 39.0515 12.1768 39.0048 12.3102H41.2348V13.1502H37.8448ZM44.5148 13.2302C44.1148 13.2302 43.7648 13.1235 43.4648 12.9102C43.1582 12.6902 42.9182 12.3902 42.7448 12.0102C42.5715 11.6302 42.4848 11.1935 42.4848 10.7002C42.4848 10.2068 42.5715 9.77016 42.7448 9.39016C42.9182 9.01016 43.1548 8.71016 43.4548 8.49016C43.7548 8.27682 44.1048 8.17016 44.5048 8.17016C44.8982 8.17016 45.2482 8.27682 45.5548 8.49016C45.8615 8.71016 46.1015 9.01016 46.2748 9.39016C46.4482 9.77016 46.5348 10.2068 46.5348 10.7002C46.5348 11.1935 46.4482 11.6302 46.2748 12.0102C46.1015 12.3902 45.8648 12.6902 45.5648 12.9102C45.2582 13.1235 44.9082 13.2302 44.5148 13.2302ZM44.5148 12.3702C44.7215 12.3702 44.9082 12.2968 45.0748 12.1502C45.2415 12.0102 45.3715 11.8135 45.4648 11.5602C45.5582 11.3135 45.6048 11.0268 45.6048 10.7002C45.6048 10.3735 45.5582 10.0835 45.4648 9.83016C45.3715 9.57682 45.2415 9.38016 45.0748 9.24016C44.9082 9.10016 44.7182 9.03016 44.5048 9.03016C44.2915 9.03016 44.1048 9.10016 43.9448 9.24016C43.7782 9.38016 43.6515 9.57682 43.5648 9.83016C43.4715 10.0835 43.4248 10.3735 43.4248 10.7002C43.4248 11.0268 43.4715 11.3135 43.5648 11.5602C43.6515 11.8135 43.7782 12.0102 43.9448 12.1502C44.1115 12.2968 44.3015 12.3702 44.5148 12.3702ZM47.8348 13.1502V12.4402C47.8348 12.3068 47.8782 12.1602 47.9648 12.0002C48.0448 11.8335 48.1615 11.6702 48.3148 11.5102C48.4615 11.3435 48.6348 11.1902 48.8348 11.0502L49.5748 10.5202C49.6815 10.4468 49.7815 10.3668 49.8748 10.2802C49.9615 10.1935 50.0348 10.0968 50.0948 9.99016C50.1548 9.88349 50.1848 9.78349 50.1848 9.69016C50.1848 9.56349 50.1548 9.45349 50.0948 9.36016C50.0348 9.26016 49.9482 9.18349 49.8348 9.13016C49.7282 9.07016 49.5915 9.04016 49.4248 9.04016C49.2848 9.04016 49.1615 9.07016 49.0548 9.13016C48.9415 9.18349 48.8515 9.25682 48.7848 9.35016C48.7115 9.44349 48.6615 9.54349 48.6348 9.65016L47.6448 9.48016C47.6915 9.24682 47.7915 9.03016 47.9448 8.83016C48.0982 8.63016 48.3015 8.46682 48.5548 8.34016C48.8015 8.22016 49.0848 8.16016 49.4048 8.16016C49.7715 8.16016 50.0848 8.22682 50.3448 8.36016C50.6048 8.48682 50.8048 8.66349 50.9448 8.89016C51.0915 9.11682 51.1648 9.38016 51.1648 9.68016C51.1648 9.98016 51.0815 10.2502 50.9148 10.4902C50.7482 10.7235 50.5215 10.9435 50.2348 11.1502L49.5648 11.6302C49.4315 11.7235 49.3148 11.8268 49.2148 11.9402C49.1148 12.0535 49.0415 12.1768 48.9948 12.3102H51.2248V13.1502H47.8348ZM54.2848 13.2302C54.0582 13.2302 53.8282 13.1935 53.5948 13.1202C53.3615 13.0468 53.1482 12.9368 52.9548 12.7902C52.7682 12.6368 52.6315 12.4502 52.5448 12.2302L53.4148 11.9702C53.5148 12.1235 53.6382 12.2335 53.7848 12.3002C53.9248 12.3735 54.0715 12.4102 54.2248 12.4102C54.4715 12.4102 54.6682 12.3368 54.8148 12.1902C54.9682 12.0435 55.0448 11.8468 55.0448 11.6002C55.0448 11.3668 54.9715 11.1735 54.8248 11.0202C54.6782 10.8668 54.4848 10.7902 54.2448 10.7902C54.0982 10.7902 53.9648 10.8235 53.8448 10.8902C53.7248 10.9568 53.6315 11.0335 53.5648 11.1202L52.7048 10.9302L52.9948 8.25016H55.7648V9.12016H53.8148L53.6748 10.2902C53.8015 10.2235 53.9415 10.1668 54.0948 10.1202C54.2482 10.0802 54.4148 10.0602 54.5948 10.0602C54.8615 10.0602 55.1015 10.1268 55.3148 10.2602C55.5348 10.3868 55.7115 10.5602 55.8448 10.7802C55.9715 11.0002 56.0348 11.2568 56.0348 11.5502C56.0348 11.8835 55.9582 12.1768 55.8048 12.4302C55.6582 12.6835 55.4548 12.8802 55.1948 13.0202C54.9348 13.1602 54.6315 13.2302 54.2848 13.2302Z" fill="black"/>
<path d="M13.7055 46.65V37.55H16.8855C17.5122 37.55 18.0655 37.6467 18.5455 37.84C19.0189 38.0267 19.3889 38.3167 19.6555 38.71C19.9289 39.0967 20.0655 39.59 20.0655 40.19C20.0655 40.51 19.9789 40.81 19.8055 41.09C19.6389 41.3767 19.4089 41.63 19.1155 41.85C19.5289 42.07 19.8455 42.3534 20.0655 42.7C20.2855 43.0534 20.3955 43.4867 20.3955 44C20.3955 44.5734 20.2655 45.0567 20.0055 45.45C19.7455 45.8434 19.3889 46.14 18.9355 46.34C18.4755 46.5467 17.9355 46.65 17.3155 46.65H13.7055ZM15.7455 44.8H17.0855C17.4389 44.8 17.7189 44.7067 17.9255 44.52C18.1389 44.34 18.2455 44.1 18.2455 43.8C18.2455 43.4934 18.1355 43.25 17.9155 43.07C17.7022 42.89 17.4022 42.8 17.0155 42.8H15.7455V44.8ZM15.7455 41.13H16.8255C17.1522 41.13 17.4155 41.0434 17.6155 40.87C17.8155 40.7034 17.9155 40.4667 17.9155 40.16C17.9155 39.8534 17.8089 39.6134 17.5955 39.44C17.3822 39.2734 17.0989 39.19 16.7455 39.19H15.7455V41.13ZM24.5755 46.81C23.8955 46.81 23.2955 46.6634 22.7755 46.37C22.2555 46.0834 21.8489 45.6834 21.5555 45.17C21.2622 44.6567 21.1155 44.0667 21.1155 43.4C21.1155 42.7267 21.2655 42.1334 21.5655 41.62C21.8655 41.1067 22.2755 40.7067 22.7955 40.42C23.3155 40.1334 23.9155 39.99 24.5955 39.99C25.2155 39.99 25.7722 40.14 26.2655 40.44C26.7589 40.7334 27.1489 41.17 27.4355 41.75C27.7289 42.33 27.8755 43.0534 27.8755 43.92H22.9855L23.2055 43.67C23.2055 43.97 23.2655 44.23 23.3855 44.45C23.5122 44.6767 23.6822 44.85 23.8955 44.97C24.1155 45.0834 24.3589 45.14 24.6255 45.14C24.9455 45.14 25.2155 45.07 25.4355 44.93C25.6555 44.7834 25.8089 44.6034 25.8955 44.39L27.6955 45C27.5222 45.4067 27.2755 45.7434 26.9555 46.01C26.6422 46.2834 26.2822 46.4834 25.8755 46.61C25.4689 46.7434 25.0355 46.81 24.5755 46.81ZM23.2555 42.83L23.0555 42.57H25.9655L25.7855 42.83C25.7855 42.51 25.7189 42.2534 25.5855 42.06C25.4589 41.8734 25.2989 41.7367 25.1055 41.65C24.9122 41.57 24.7222 41.53 24.5355 41.53C24.3422 41.53 24.1489 41.57 23.9555 41.65C23.7622 41.7367 23.5989 41.8734 23.4655 42.06C23.3255 42.2534 23.2555 42.51 23.2555 42.83ZM31.1755 46.81C30.7489 46.81 30.3522 46.7467 29.9855 46.62C29.6189 46.4934 29.3022 46.3134 29.0355 46.08C28.7622 45.8534 28.5622 45.5767 28.4355 45.25L30.0955 44.54C30.2089 44.7667 30.3655 44.9334 30.5655 45.04C30.7655 45.1534 30.9689 45.21 31.1755 45.21C31.3955 45.21 31.5655 45.1734 31.6855 45.1C31.8055 45.0267 31.8655 44.9234 31.8655 44.79C31.8655 44.65 31.8022 44.5434 31.6755 44.47C31.5489 44.39 31.3689 44.32 31.1355 44.26L30.5755 44.12C29.9689 43.96 29.5055 43.7 29.1855 43.34C28.8589 42.98 28.6955 42.5634 28.6955 42.09C28.6955 41.4234 28.9255 40.9067 29.3855 40.54C29.8455 40.1734 30.4822 39.99 31.2955 39.99C31.7555 39.99 32.1589 40.0534 32.5055 40.18C32.8589 40.3 33.1555 40.47 33.3955 40.69C33.6355 40.91 33.8055 41.1667 33.9055 41.46L32.2955 42.13C32.2355 41.9567 32.1122 41.8234 31.9255 41.73C31.7389 41.6367 31.5322 41.59 31.3055 41.59C31.1189 41.59 30.9722 41.6334 30.8655 41.72C30.7589 41.8 30.7055 41.91 30.7055 42.05C30.7055 42.15 30.7689 42.2367 30.8955 42.31C31.0222 42.39 31.2055 42.46 31.4455 42.52L32.1355 42.69C32.5422 42.79 32.8855 42.9467 33.1655 43.16C33.4455 43.3734 33.6522 43.62 33.7855 43.9C33.9255 44.18 33.9955 44.48 33.9955 44.8C33.9955 45.2134 33.8789 45.5667 33.6455 45.86C33.4055 46.16 33.0722 46.3934 32.6455 46.56C32.2189 46.7267 31.7289 46.81 31.1755 46.81ZM37.7555 46.81C36.9822 46.81 36.4089 46.6234 36.0355 46.25C35.6555 45.8834 35.4655 45.3567 35.4655 44.67V38.12H37.4955V44.17C37.4955 44.43 37.5422 44.62 37.6355 44.74C37.7355 44.86 37.8822 44.92 38.0755 44.92C38.1555 44.92 38.2489 44.9 38.3555 44.86C38.4555 44.82 38.5489 44.77 38.6355 44.71L39.3455 46.2C39.1322 46.3734 38.8822 46.5167 38.5955 46.63C38.3022 46.75 38.0222 46.81 37.7555 46.81ZM34.4555 41.85V40.15H38.9755V41.85H34.4555ZM43.6055 46.65V37.55H45.9055L48.3255 41.14L50.7555 37.55H53.0555V46.65H50.9655V40.8L48.3355 44.65L45.6955 40.8V46.65H43.6055ZM57.7255 46.81C57.0455 46.81 56.4455 46.6634 55.9255 46.37C55.4055 46.0834 54.9989 45.6834 54.7055 45.17C54.4122 44.6567 54.2655 44.0667 54.2655 43.4C54.2655 42.7267 54.4155 42.1334 54.7155 41.62C55.0155 41.1067 55.4255 40.7067 55.9455 40.42C56.4655 40.1334 57.0655 39.99 57.7455 39.99C58.3655 39.99 58.9222 40.14 59.4155 40.44C59.9089 40.7334 60.2989 41.17 60.5855 41.75C60.8789 42.33 61.0255 43.0534 61.0255 43.92H56.1355L56.3555 43.67C56.3555 43.97 56.4189 44.23 56.5455 44.45C56.6655 44.6767 56.8322 44.85 57.0455 44.97C57.2655 45.0834 57.5089 45.14 57.7755 45.14C58.0955 45.14 58.3655 45.07 58.5855 44.93C58.8055 44.7834 58.9589 44.6034 59.0455 44.39L60.8455 45C60.6722 45.4067 60.4255 45.7434 60.1055 46.01C59.7922 46.2834 59.4322 46.4834 59.0255 46.61C58.6189 46.7434 58.1855 46.81 57.7255 46.81ZM56.4055 42.83L56.2055 42.57H59.1155L58.9355 42.83C58.9355 42.51 58.8689 42.2534 58.7355 42.06C58.6089 41.8734 58.4489 41.7367 58.2555 41.65C58.0689 41.57 57.8789 41.53 57.6855 41.53C57.4922 41.53 57.2989 41.57 57.1055 41.65C56.9122 41.7367 56.7489 41.8734 56.6155 42.06C56.4755 42.2534 56.4055 42.51 56.4055 42.83ZM65.0055 46.81C64.3255 46.81 63.7255 46.6634 63.2055 46.37C62.6855 46.0834 62.2789 45.6834 61.9855 45.17C61.6922 44.6567 61.5455 44.0667 61.5455 43.4C61.5455 42.7267 61.6955 42.1334 61.9955 41.62C62.2955 41.1067 62.7055 40.7067 63.2255 40.42C63.7455 40.1334 64.3455 39.99 65.0255 39.99C65.6455 39.99 66.2022 40.14 66.6955 40.44C67.1889 40.7334 67.5789 41.17 67.8655 41.75C68.1589 42.33 68.3055 43.0534 68.3055 43.92H63.4155L63.6355 43.67C63.6355 43.97 63.6989 44.23 63.8255 44.45C63.9455 44.6767 64.1122 44.85 64.3255 44.97C64.5455 45.0834 64.7889 45.14 65.0555 45.14C65.3755 45.14 65.6455 45.07 65.8655 44.93C66.0855 44.7834 66.2389 44.6034 66.3255 44.39L68.1255 45C67.9522 45.4067 67.7055 45.7434 67.3855 46.01C67.0722 46.2834 66.7122 46.4834 66.3055 46.61C65.8989 46.7434 65.4655 46.81 65.0055 46.81ZM63.6855 42.83L63.4855 42.57H66.3955L66.2155 42.83C66.2155 42.51 66.1489 42.2534 66.0155 42.06C65.8889 41.8734 65.7289 41.7367 65.5355 41.65C65.3489 41.57 65.1589 41.53 64.9655 41.53C64.7722 41.53 64.5789 41.57 64.3855 41.65C64.1922 41.7367 64.0289 41.8734 63.8955 42.06C63.7555 42.2534 63.6855 42.51 63.6855 42.83ZM71.9555 46.81C71.1889 46.81 70.6155 46.6234 70.2355 46.25C69.8622 45.8834 69.6755 45.3567 69.6755 44.67V38.12H71.6955V44.17C71.6955 44.43 71.7455 44.62 71.8455 44.74C71.9389 44.86 72.0855 44.92 72.2855 44.92C72.3655 44.92 72.4555 44.9 72.5555 44.86C72.6622 44.82 72.7589 44.77 72.8455 44.71L73.5455 46.2C73.3389 46.3734 73.0889 46.5167 72.7955 46.63C72.5089 46.75 72.2289 46.81 71.9555 46.81ZM68.6555 41.85V40.15H73.1755V41.85H68.6555ZM76.9855 46.81C76.5655 46.81 76.1689 46.7467 75.7955 46.62C75.4289 46.4934 75.1122 46.3134 74.8455 46.08C74.5789 45.8534 74.3789 45.5767 74.2455 45.25L75.9155 44.54C76.0222 44.7667 76.1755 44.9334 76.3755 45.04C76.5755 45.1534 76.7789 45.21 76.9855 45.21C77.2055 45.21 77.3755 45.1734 77.4955 45.1C77.6155 45.0267 77.6755 44.9234 77.6755 44.79C77.6755 44.65 77.6122 44.5434 77.4855 44.47C77.3655 44.39 77.1889 44.32 76.9555 44.26L76.3955 44.12C75.7889 43.96 75.3222 43.7 74.9955 43.34C74.6689 42.98 74.5055 42.5634 74.5055 42.09C74.5055 41.4234 74.7355 40.9067 75.1955 40.54C75.6555 40.1734 76.2922 39.99 77.1055 39.99C77.5655 39.99 77.9722 40.0534 78.3255 40.18C78.6722 40.3 78.9655 40.47 79.2055 40.69C79.4455 40.91 79.6155 41.1667 79.7155 41.46L78.1055 42.13C78.0455 41.9567 77.9222 41.8234 77.7355 41.73C77.5489 41.6367 77.3422 41.59 77.1155 41.59C76.9289 41.59 76.7822 41.6334 76.6755 41.72C76.5755 41.8 76.5255 41.91 76.5255 42.05C76.5255 42.15 76.5855 42.2367 76.7055 42.31C76.8322 42.39 77.0189 42.46 77.2655 42.52L77.9555 42.69C78.3622 42.79 78.7022 42.9467 78.9755 43.16C79.2555 43.3734 79.4655 43.62 79.6055 43.9C79.7455 44.18 79.8155 44.48 79.8155 44.8C79.8155 45.2134 79.6955 45.5667 79.4555 45.86C79.2155 46.16 78.8822 46.3934 78.4555 46.56C78.0355 46.7267 77.5455 46.81 76.9855 46.81ZM4.93555 59.65V50.55H8.50555C9.16555 50.55 9.75221 50.6767 10.2655 50.93C10.7722 51.19 11.1722 51.5467 11.4655 52C11.7522 52.4534 11.8955 52.9767 11.8955 53.57C11.8955 54.1567 11.7489 54.68 11.4555 55.14C11.1622 55.6 10.7589 55.9567 10.2455 56.21C9.72555 56.47 9.13221 56.6 8.46555 56.6H7.02555V59.65H4.93555ZM9.87555 59.65L7.81555 56.04L9.38555 54.88L12.2655 59.65H9.87555ZM7.02555 54.67H8.44555C8.68555 54.67 8.90221 54.6234 9.09555 54.53C9.28221 54.4367 9.42888 54.3034 9.53555 54.13C9.64888 53.9634 9.70555 53.7767 9.70555 53.57C9.70555 53.25 9.58555 52.9834 9.34555 52.77C9.10555 52.5634 8.79221 52.46 8.40555 52.46H7.02555V54.67ZM16.3355 59.81C15.6555 59.81 15.0555 59.6634 14.5355 59.37C14.0155 59.0834 13.6089 58.6834 13.3155 58.17C13.0222 57.6567 12.8755 57.0667 12.8755 56.4C12.8755 55.7267 13.0255 55.1334 13.3255 54.62C13.6189 54.1067 14.0255 53.7067 14.5455 53.42C15.0655 53.1334 15.6689 52.99 16.3555 52.99C16.9689 52.99 17.5255 53.14 18.0255 53.44C18.5189 53.7334 18.9089 54.17 19.1955 54.75C19.4889 55.33 19.6355 56.0534 19.6355 56.92H14.7455L14.9655 56.67C14.9655 56.97 15.0255 57.23 15.1455 57.45C15.2655 57.6767 15.4355 57.85 15.6555 57.97C15.8689 58.0834 16.1122 58.14 16.3855 58.14C16.7055 58.14 16.9755 58.07 17.1955 57.93C17.4155 57.7834 17.5689 57.6034 17.6555 57.39L19.4555 58C19.2822 58.4067 19.0355 58.7434 18.7155 59.01C18.4022 59.2834 18.0422 59.4834 17.6355 59.61C17.2289 59.7434 16.7955 59.81 16.3355 59.81ZM15.0155 55.83L14.8155 55.57H17.7255L17.5355 55.83C17.5355 55.51 17.4722 55.2534 17.3455 55.06C17.2122 54.8734 17.0522 54.7367 16.8655 54.65C16.6722 54.57 16.4822 54.53 16.2955 54.53C16.1022 54.53 15.9089 54.57 15.7155 54.65C15.5222 54.7367 15.3555 54.8734 15.2155 55.06C15.0822 55.2534 15.0155 55.51 15.0155 55.83ZM24.9355 62.25V54.36L25.0555 53.15H26.9655V62.25H24.9355ZM23.0955 59.81C22.4889 59.81 21.9655 59.6734 21.5255 59.4C21.0855 59.1267 20.7489 58.7334 20.5155 58.22C20.2755 57.7067 20.1555 57.1 20.1555 56.4C20.1555 55.6867 20.2755 55.0767 20.5155 54.57C20.7489 54.0634 21.0855 53.6734 21.5255 53.4C21.9655 53.1267 22.4889 52.99 23.0955 52.99C23.6289 52.99 24.0789 53.1267 24.4455 53.4C24.8189 53.6734 25.0955 54.0634 25.2755 54.57C25.4555 55.0767 25.5455 55.6867 25.5455 56.4C25.5455 57.1 25.4555 57.7067 25.2755 58.22C25.0955 58.7334 24.8189 59.1267 24.4455 59.4C24.0789 59.6734 23.6289 59.81 23.0955 59.81ZM23.6255 57.93C23.8789 57.93 24.1055 57.8667 24.3055 57.74C24.4989 57.6067 24.6522 57.4267 24.7655 57.2C24.8789 56.9734 24.9355 56.7067 24.9355 56.4C24.9355 56.1 24.8789 55.8334 24.7655 55.6C24.6522 55.3734 24.4955 55.1934 24.2955 55.06C24.1022 54.9334 23.8755 54.87 23.6155 54.87C23.3555 54.87 23.1255 54.9334 22.9255 55.06C22.7255 55.1934 22.5655 55.3734 22.4455 55.6C22.3322 55.8334 22.2689 56.1 22.2555 56.4C22.2689 56.7067 22.3322 56.9734 22.4455 57.2C22.5655 57.4267 22.7255 57.6067 22.9255 57.74C23.1322 57.8667 23.3655 57.93 23.6255 57.93ZM32.4755 59.65L32.3655 58.45L32.3555 53.15H34.3855V59.65H32.4755ZM28.1755 56.48V53.15H30.2055V56.48H28.1755ZM30.2055 56.48C30.2055 56.82 30.2422 57.0934 30.3155 57.3C30.3955 57.5067 30.5089 57.6567 30.6555 57.75C30.8022 57.85 30.9755 57.9034 31.1755 57.91C31.5689 57.91 31.8655 57.8 32.0655 57.58C32.2655 57.36 32.3655 57.0267 32.3655 56.58H32.9755C32.9755 57.2667 32.8689 57.85 32.6555 58.33C32.4489 58.81 32.1655 59.1767 31.8055 59.43C31.4455 59.6834 31.0289 59.81 30.5555 59.81C30.0355 59.81 29.5989 59.7034 29.2455 59.49C28.8855 59.2767 28.6189 58.9534 28.4455 58.52C28.2655 58.0867 28.1755 57.5334 28.1755 56.86V56.48H30.2055ZM35.8355 59.65V53.15H37.8555V59.65H35.8355ZM36.8455 52.32C36.5389 52.32 36.2722 52.2034 36.0455 51.97C35.8189 51.7434 35.7055 51.4767 35.7055 51.17C35.7055 50.85 35.8189 50.58 36.0455 50.36C36.2722 50.14 36.5389 50.03 36.8455 50.03C37.1589 50.03 37.4289 50.14 37.6555 50.36C37.8755 50.58 37.9855 50.85 37.9855 51.17C37.9855 51.4767 37.8755 51.7434 37.6555 51.97C37.4289 52.2034 37.1589 52.32 36.8455 52.32ZM40.7955 56.28C40.7955 55.58 40.9355 54.9967 41.2155 54.53C41.5022 54.0634 41.8589 53.7134 42.2855 53.48C42.7122 53.24 43.1622 53.12 43.6355 53.12V55.1C43.2355 55.1 42.8589 55.1434 42.5055 55.23C42.1522 55.3167 41.8689 55.45 41.6555 55.63C41.4355 55.8034 41.3255 56.03 41.3255 56.31L40.7955 56.28ZM39.3055 59.65V53.15H41.3255V59.65H39.3055ZM47.5955 59.81C46.9222 59.81 46.3255 59.6634 45.8055 59.37C45.2855 59.0834 44.8789 58.6834 44.5855 58.17C44.2855 57.6567 44.1355 57.0667 44.1355 56.4C44.1355 55.7267 44.2855 55.1334 44.5855 54.62C44.8855 54.1067 45.2955 53.7067 45.8155 53.42C46.3355 53.1334 46.9389 52.99 47.6255 52.99C48.2389 52.99 48.7922 53.14 49.2855 53.44C49.7789 53.7334 50.1722 54.17 50.4655 54.75C50.7522 55.33 50.8955 56.0534 50.8955 56.92H46.0155L46.2355 56.67C46.2355 56.97 46.2955 57.23 46.4155 57.45C46.5355 57.6767 46.7055 57.85 46.9255 57.97C47.1389 58.0834 47.3789 58.14 47.6455 58.14C47.9655 58.14 48.2389 58.07 48.4655 57.93C48.6855 57.7834 48.8389 57.6034 48.9255 57.39L50.7155 58C50.5422 58.4067 50.2989 58.7434 49.9855 59.01C49.6655 59.2834 49.3022 59.4834 48.8955 59.61C48.4889 59.7434 48.0555 59.81 47.5955 59.81ZM46.2855 55.83L46.0755 55.57H48.9855L48.8055 55.83C48.8055 55.51 48.7422 55.2534 48.6155 55.06C48.4822 54.8734 48.3189 54.7367 48.1255 54.65C47.9389 54.57 47.7489 54.53 47.5555 54.53C47.3689 54.53 47.1755 54.57 46.9755 54.65C46.7822 54.7367 46.6189 54.8734 46.4855 55.06C46.3522 55.2534 46.2855 55.51 46.2855 55.83ZM51.7555 59.65V53.15H53.6655L53.7455 53.97C53.9522 53.65 54.2089 53.4067 54.5155 53.24C54.8289 53.0734 55.1689 52.99 55.5355 52.99C56.0755 52.99 56.5222 53.1034 56.8755 53.33C57.2222 53.55 57.4789 53.8834 57.6455 54.33C57.8455 53.8967 58.1189 53.5667 58.4655 53.34C58.8122 53.1067 59.2022 52.99 59.6355 52.99C60.4155 52.99 61.0022 53.23 61.3955 53.71C61.7889 54.1834 61.9822 54.9234 61.9755 55.93V59.65H59.9455V56.32C59.9455 55.9734 59.9089 55.7 59.8355 55.5C59.7622 55.2934 59.6555 55.1434 59.5155 55.05C59.3755 54.9567 59.2122 54.9034 59.0255 54.89C58.6522 54.8834 58.3689 54.99 58.1755 55.21C57.9755 55.43 57.8755 55.7667 57.8755 56.22V59.65H55.8555V56.32C55.8555 55.9734 55.8189 55.7 55.7455 55.5C55.6722 55.2934 55.5655 55.1434 55.4255 55.05C55.2855 54.9567 55.1189 54.9034 54.9255 54.89C54.5522 54.8834 54.2689 54.99 54.0755 55.21C53.8822 55.43 53.7855 55.7667 53.7855 56.22V59.65H51.7555ZM66.3255 59.81C65.6522 59.81 65.0555 59.6634 64.5355 59.37C64.0155 59.0834 63.6089 58.6834 63.3155 58.17C63.0222 57.6567 62.8755 57.0667 62.8755 56.4C62.8755 55.7267 63.0222 55.1334 63.3155 54.62C63.6155 54.1067 64.0255 53.7067 64.5455 53.42C65.0655 53.1334 65.6689 52.99 66.3555 52.99C66.9689 52.99 67.5222 53.14 68.0155 53.44C68.5155 53.7334 68.9089 54.17 69.1955 54.75C69.4889 55.33 69.6355 56.0534 69.6355 56.92H64.7455L64.9655 56.67C64.9655 56.97 65.0255 57.23 65.1455 57.45C65.2655 57.6767 65.4355 57.85 65.6555 57.97C65.8689 58.0834 66.1122 58.14 66.3855 58.14C66.7055 58.14 66.9755 58.07 67.1955 57.93C67.4155 57.7834 67.5689 57.6034 67.6555 57.39L69.4455 58C69.2722 58.4067 69.0289 58.7434 68.7155 59.01C68.4022 59.2834 68.0389 59.4834 67.6255 59.61C67.2189 59.7434 66.7855 59.81 66.3255 59.81ZM65.0155 55.83L64.8055 55.57H67.7255L67.5355 55.83C67.5355 55.51 67.4722 55.2534 67.3455 55.06C67.2122 54.8734 67.0522 54.7367 66.8655 54.65C66.6722 54.57 66.4822 54.53 66.2955 54.53C66.1022 54.53 65.9089 54.57 65.7155 54.65C65.5155 54.7367 65.3489 54.8734 65.2155 55.06C65.0822 55.2534 65.0155 55.51 65.0155 55.83ZM70.4855 59.65V53.15H72.4055L72.5155 54.35V59.65H70.4855ZM74.6755 59.65V56.32H76.7055V59.65H74.6755ZM74.6755 56.32C74.6755 55.9734 74.6355 55.7 74.5555 55.5C74.4822 55.2934 74.3722 55.1434 74.2255 55.05C74.0855 54.9567 73.9122 54.9034 73.7055 54.89C73.3122 54.8834 73.0155 54.99 72.8155 55.21C72.6155 55.43 72.5155 55.7667 72.5155 56.22H71.9055C71.9055 55.5334 72.0089 54.95 72.2155 54.47C72.4289 53.99 72.7122 53.6234 73.0655 53.37C73.4255 53.1167 73.8455 52.99 74.3255 52.99C74.8455 52.99 75.2822 53.0967 75.6355 53.31C75.9955 53.5234 76.2622 53.8467 76.4355 54.28C76.6155 54.7134 76.7055 55.27 76.7055 55.95V56.32H74.6755ZM80.7355 59.81C79.9622 59.81 79.3889 59.6234 79.0155 59.25C78.6355 58.8834 78.4455 58.3567 78.4455 57.67V51.12H80.4755V57.17C80.4755 57.43 80.5222 57.62 80.6155 57.74C80.7089 57.86 80.8555 57.92 81.0555 57.92C81.1355 57.92 81.2289 57.9 81.3355 57.86C81.4355 57.82 81.5289 57.77 81.6155 57.71L82.3155 59.2C82.1089 59.3734 81.8622 59.5167 81.5755 59.63C81.2822 59.75 81.0022 59.81 80.7355 59.81ZM77.4355 54.85V53.15H81.9555V54.85H77.4355ZM85.7655 59.81C85.3389 59.81 84.9422 59.7467 84.5755 59.62C84.2089 59.4934 83.8889 59.3134 83.6155 59.08C83.3489 58.8534 83.1522 58.5767 83.0255 58.25L84.6855 57.54C84.7989 57.7667 84.9555 57.9334 85.1555 58.04C85.3555 58.1534 85.5589 58.21 85.7655 58.21C85.9789 58.21 86.1489 58.1734 86.2755 58.1C86.3955 58.0267 86.4555 57.9234 86.4555 57.79C86.4555 57.65 86.3922 57.5434 86.2655 57.47C86.1389 57.39 85.9589 57.32 85.7255 57.26L85.1655 57.12C84.5589 56.96 84.0922 56.7 83.7655 56.34C83.4455 55.98 83.2855 55.5634 83.2855 55.09C83.2855 54.4234 83.5155 53.9067 83.9755 53.54C84.4289 53.1734 85.0655 52.99 85.8855 52.99C86.3455 52.99 86.7489 53.0534 87.0955 53.18C87.4489 53.3 87.7455 53.47 87.9855 53.69C88.2189 53.91 88.3889 54.1667 88.4955 54.46L86.8855 55.13C86.8255 54.9567 86.7022 54.8234 86.5155 54.73C86.3289 54.6367 86.1222 54.59 85.8955 54.59C85.7022 54.59 85.5555 54.6334 85.4555 54.72C85.3489 54.8 85.2955 54.91 85.2955 55.05C85.2955 55.15 85.3589 55.2367 85.4855 55.31C85.6122 55.39 85.7955 55.46 86.0355 55.52L86.7255 55.69C87.1322 55.79 87.4755 55.9467 87.7555 56.16C88.0289 56.3734 88.2355 56.62 88.3755 56.9C88.5155 57.18 88.5855 57.48 88.5855 57.8C88.5855 58.2134 88.4655 58.5667 88.2255 58.86C87.9922 59.16 87.6622 59.3934 87.2355 59.56C86.8089 59.7267 86.3189 59.81 85.7655 59.81Z" fill="black"/>
<path d="M26.7852 72.2802V68.4302H27.6052L28.7252 70.0902L29.8452 68.4302H30.6652V72.2802H29.9152V69.6002L28.7252 71.3502L27.5352 69.6102V72.2802H26.7852ZM32.0452 72.2802V68.4302H32.8052V72.2802H32.0452ZM34.1852 72.2802V68.4302H35.4152C35.8085 68.4302 36.1585 68.5102 36.4652 68.6702C36.7652 68.8368 37.0018 69.0635 37.1752 69.3502C37.3418 69.6368 37.4252 69.9702 37.4252 70.3502C37.4252 70.7235 37.3418 71.0568 37.1752 71.3502C37.0018 71.6368 36.7652 71.8635 36.4652 72.0302C36.1585 72.1968 35.8085 72.2802 35.4152 72.2802H34.1852ZM34.9352 71.5702H35.4152C35.5952 71.5702 35.7585 71.5402 35.9052 71.4802C36.0585 71.4135 36.1918 71.3268 36.3052 71.2202C36.4118 71.1068 36.4985 70.9768 36.5652 70.8302C36.6252 70.6835 36.6552 70.5235 36.6552 70.3502C36.6552 70.1768 36.6252 70.0168 36.5652 69.8702C36.4985 69.7235 36.4118 69.5935 36.3052 69.4802C36.1918 69.3735 36.0585 69.2868 35.9052 69.2202C35.7585 69.1602 35.5952 69.1302 35.4152 69.1302H34.9352V71.5702ZM38.4652 70.9502V70.3302H40.1152V70.9502H38.4652ZM41.3852 72.2802V68.4302H42.1952L43.3252 70.0902L44.4452 68.4302H45.2552V72.2802H44.5052V69.6002L43.3252 71.3502L42.1352 69.6102V72.2802H41.3852ZM49.3152 72.2802L47.8352 68.4302H48.5952L50.1052 72.2802H49.3152ZM46.2652 72.2802L47.7852 68.4302H48.5452L47.0652 72.2802H46.2652ZM46.9852 71.4302V70.7602H49.3952V71.4302H46.9852ZM51.1252 72.2802V68.4302H52.5552C52.8218 68.4302 53.0618 68.4802 53.2752 68.5802C53.4818 68.6868 53.6452 68.8335 53.7652 69.0202C53.8785 69.2068 53.9352 69.4235 53.9352 69.6702C53.9352 69.9102 53.8752 70.1235 53.7552 70.3102C53.6285 70.5035 53.4585 70.6502 53.2452 70.7502C53.0385 70.8568 52.7985 70.9102 52.5252 70.9102H51.8752V72.2802H51.1252ZM53.2352 72.2802L52.3452 70.7302L52.9252 70.3202L54.0952 72.2802H53.2352ZM51.8752 70.2202H52.5552C52.6685 70.2202 52.7718 70.1968 52.8652 70.1502C52.9518 70.1035 53.0218 70.0368 53.0752 69.9502C53.1285 69.8702 53.1552 69.7768 53.1552 69.6702C53.1552 69.5035 53.0952 69.3702 52.9752 69.2702C52.8552 69.1635 52.7018 69.1102 52.5152 69.1102H51.8752V70.2202ZM55.6652 71.3002L55.5852 70.3602L57.3852 68.4302H58.3552L55.6652 71.3002ZM55.2152 72.2802V68.4302H55.9652V72.2802H55.2152ZM57.4852 72.2802L55.9552 70.3202L56.4952 69.8702L58.4152 72.2802H57.4852ZM59.4352 72.2802V68.4302H61.8652V69.1102H60.1852V69.9902H61.6352V70.6602H60.1852V71.5902H61.8852V72.2802H59.4352ZM64.0352 72.2802V69.1102H62.8752V68.4302H65.9352V69.1102H64.7852V72.2802H64.0352Z" fill="black"/>
<path d="M71 0.443115H92V21.4431H71V0.443115Z" fill="#FF492C"/>
<mask id="mask0_6383_96479" style="mask-type:luminance" maskUnits="userSpaceOnUse" x="71" y="0" width="21" height="22">
<path d="M71 0.443115H92V21.4431H71V0.443115Z" fill="white"/>
</mask>
<g mask="url(#mask0_6383_96479)">
<path fill-rule="evenodd" clip-rule="evenodd" d="M86.0495 8.48508H84.2555C84.3045 8.20408 84.4775 8.04708 84.8295 7.86908L85.1605 7.70108C85.7515 7.39808 86.0665 7.05708 86.0665 6.50108C86.0725 6.34016 86.0385 6.18024 85.9675 6.03572C85.8964 5.89119 85.7906 5.76658 85.6595 5.67308C85.3935 5.47308 85.0685 5.37508 84.6945 5.37508C84.4047 5.37201 84.1202 5.45294 83.8755 5.60808C83.6406 5.74697 83.452 5.95225 83.3335 6.19808L83.8535 6.71708C84.0545 6.31108 84.3475 6.11108 84.7325 6.11108C85.0575 6.11108 85.2585 6.27908 85.2585 6.51108C85.2585 6.70608 85.1605 6.86808 84.7865 7.05708L84.5755 7.16008C84.1145 7.39308 83.7945 7.65809 83.6105 7.96009C83.4255 8.25809 83.3335 8.64208 83.3335 9.10208V9.22608H86.0495V8.48609V8.48508ZM85.8045 10.0851H82.8385L81.3555 12.6551H84.3215L85.8045 15.2251L87.2885 12.6551L85.8045 10.0851Z" fill="white"/>
<path fill-rule="evenodd" clip-rule="evenodd" d="M81.6075 14.3722C80.6984 14.3714 79.8267 14.0101 79.1837 13.3674C78.5407 12.7248 78.1788 11.8533 78.1775 10.9442C78.1791 10.0353 78.541 9.16407 79.184 8.52164C79.827 7.87921 80.6985 7.51799 81.6075 7.5172L82.7815 5.0612C81.9111 4.88723 81.0129 4.90854 80.1518 5.12359C79.2906 5.33863 78.4879 5.74207 77.8015 6.3048C77.1151 6.86753 76.5621 7.57555 76.1823 8.37781C75.8026 9.18008 75.6056 10.0566 75.6055 10.9442C75.6056 11.7322 75.761 12.5125 76.0627 13.2405C76.3644 13.9684 76.8065 14.6298 77.3639 15.1869C77.9212 15.744 78.5829 16.1858 79.311 16.4871C80.0391 16.7885 80.8195 16.9435 81.6075 16.9432C82.8781 16.9453 84.1163 16.5425 85.1425 15.7932L83.8425 13.5412C83.2214 14.0776 82.4281 14.3726 81.6075 14.3722Z" fill="white"/>
<path d="M71.4883 1.11011V20.9781" stroke="black" stroke-width="1.085"/>
</g>
<path d="M0 83.9631V77.4631L46 100.505L92 77.4631V83.9631L46 106.443L0 83.9631Z" fill="#FFC800"/>
<path d="M0 78.009V71.509L46 94.551L92 71.509V78.009L46 100.489L0 78.009Z" fill="white"/>
<path d="M0 72.0742V65.5742L46 88.6172L92 65.5742V72.0742L46 94.5542L0 72.0742Z" fill="white"/>
<path d="M91.575 20.9781H0.624969M91.457 83.4401L46 105.838L0.542969 83.4401V0.986084H91.457V83.4401Z" stroke="black" stroke-width="1.085"/>
</g>
<defs>
<clipPath id="clip0_6383_96479">
<rect width="92" height="106" fill="white" transform="translate(0 0.443115)"/>
</clipPath>
</defs>
</svg>
