<svg width="93" height="107" viewBox="0 0 93 107" fill="none" xmlns="http://www.w3.org/2000/svg">
<g clip-path="url(#clip0_6383_96480)">
<path d="M0.115234 83.855L46.1152 106.521L92.1152 83.855V0.520996H0.115234V83.855Z" fill="white"/>
<path d="M0.115234 83.855L46.1152 106.521L92.1152 83.855V0.520996H0.115234V83.855Z" fill="white"/>
<path d="M12.9098 13.308C12.6631 13.308 12.4331 13.278 12.2198 13.218C11.9998 13.158 11.8064 13.0747 11.6398 12.968C11.4731 12.8547 11.3364 12.7314 11.2298 12.598C11.1164 12.4647 11.0431 12.3214 11.0098 12.168L11.9498 11.888C12.0098 12.048 12.1164 12.1847 12.2698 12.298C12.4231 12.4114 12.6164 12.4714 12.8498 12.478C13.0964 12.4847 13.2998 12.4314 13.4598 12.318C13.6131 12.2047 13.6898 12.0614 13.6898 11.888C13.6898 11.7347 13.6298 11.6047 13.5098 11.498C13.3831 11.3914 13.2131 11.3114 12.9998 11.258L12.3598 11.088C12.1264 11.028 11.9164 10.9347 11.7298 10.808C11.5498 10.688 11.4098 10.5347 11.3098 10.348C11.2031 10.168 11.1498 9.95804 11.1498 9.71804C11.1498 9.25137 11.3031 8.88804 11.6098 8.62804C11.9164 8.3747 12.3498 8.24804 12.9098 8.24804C13.2231 8.24804 13.4964 8.29137 13.7298 8.37804C13.9698 8.47137 14.1664 8.60137 14.3198 8.76804C14.4798 8.9347 14.6031 9.1347 14.6898 9.36804L13.7598 9.64804C13.6998 9.48804 13.5964 9.3547 13.4498 9.24804C13.2964 9.1347 13.1064 9.07804 12.8798 9.07804C12.6464 9.07804 12.4631 9.13137 12.3298 9.23804C12.1964 9.3447 12.1298 9.49804 12.1298 9.69804C12.1298 9.85137 12.1831 9.97137 12.2898 10.058C12.3964 10.1447 12.5398 10.2114 12.7198 10.258L13.3598 10.418C13.7798 10.5247 14.1064 10.7114 14.3398 10.978C14.5731 11.2447 14.6898 11.5414 14.6898 11.868C14.6898 12.1547 14.6198 12.4047 14.4798 12.618C14.3398 12.838 14.1398 13.008 13.8798 13.128C13.6131 13.248 13.2898 13.308 12.9098 13.308ZM16.2098 13.228V8.32804H18.0298C18.3764 8.32804 18.6831 8.39804 18.9498 8.53804C19.2164 8.67137 19.4231 8.86137 19.5698 9.10804C19.7231 9.3547 19.7998 9.63804 19.7998 9.95804C19.7998 10.278 19.7264 10.5614 19.5798 10.808C19.4331 11.0547 19.2364 11.248 18.9898 11.388C18.7364 11.5347 18.4431 11.608 18.1098 11.608H17.1698V13.228H16.2098ZM17.1698 10.718H18.0898C18.3031 10.718 18.4798 10.648 18.6198 10.508C18.7531 10.368 18.8198 10.1847 18.8198 9.95804C18.8198 9.73804 18.7464 9.5547 18.5998 9.40804C18.4464 9.2747 18.2498 9.20804 18.0098 9.20804H17.1698V10.718ZM21.1298 13.228V8.32804H22.9498C23.2964 8.32804 23.6031 8.3947 23.8698 8.52804C24.1364 8.66804 24.3431 8.8547 24.4898 9.08804C24.6431 9.32137 24.7198 9.5947 24.7198 9.90804C24.7198 10.2147 24.6398 10.488 24.4798 10.728C24.3264 10.968 24.1131 11.1547 23.8398 11.288C23.5731 11.4214 23.2664 11.488 22.9198 11.488H22.0898V13.228H21.1298ZM23.8298 13.228L22.6998 11.258L23.4298 10.738L24.9098 13.228H23.8298ZM22.0898 10.618H22.9598C23.1064 10.618 23.2364 10.588 23.3498 10.528C23.4631 10.468 23.5531 10.3847 23.6198 10.278C23.6864 10.1714 23.7198 10.048 23.7198 9.90804C23.7198 9.70137 23.6464 9.53137 23.4998 9.39804C23.3464 9.27137 23.1498 9.20804 22.9098 9.20804H22.0898V10.618ZM26.3498 13.228V8.32804H27.3098V13.228H26.3498ZM29.0698 13.228V8.32804H30.0698L32.4698 11.618V8.32804H33.4198V13.228H32.4698L30.0298 9.87804V13.228H29.0698ZM37.4598 13.308C36.9598 13.308 36.5164 13.2014 36.1298 12.988C35.7431 12.768 35.4431 12.468 35.2298 12.088C35.0098 11.708 34.8998 11.2714 34.8998 10.778C34.8998 10.2847 35.0098 9.84804 35.2298 9.46804C35.4431 9.08804 35.7431 8.78804 36.1298 8.56804C36.5164 8.3547 36.9598 8.24804 37.4598 8.24804C37.7598 8.24804 38.0331 8.29137 38.2798 8.37804C38.5331 8.4647 38.7564 8.58804 38.9498 8.74804C39.1431 8.90137 39.3064 9.07804 39.4398 9.27804L38.6598 9.76804C38.5798 9.64137 38.4731 9.53137 38.3398 9.43804C38.2131 9.33804 38.0731 9.26137 37.9198 9.20804C37.7664 9.14804 37.6131 9.11804 37.4598 9.11804C37.1531 9.11804 36.8798 9.18804 36.6398 9.32804C36.3998 9.4747 36.2131 9.67137 36.0798 9.91804C35.9464 10.1647 35.8798 10.4514 35.8798 10.778C35.8798 11.098 35.9464 11.3847 36.0798 11.638C36.2131 11.8914 36.3998 12.088 36.6398 12.228C36.8798 12.3747 37.1598 12.448 37.4798 12.448C37.7264 12.448 37.9464 12.398 38.1398 12.298C38.3331 12.198 38.4864 12.0614 38.5998 11.888C38.7131 11.708 38.7698 11.5014 38.7698 11.268L39.6798 11.128C39.6798 11.588 39.5831 11.9814 39.3898 12.308C39.2031 12.6347 38.9431 12.8847 38.6098 13.058C38.2764 13.2247 37.8931 13.308 37.4598 13.308ZM37.6198 11.348V10.608H39.6798V11.198L39.1598 11.348H37.6198ZM43.2798 13.228V12.518C43.2798 12.3847 43.3198 12.238 43.3998 12.078C43.4864 11.9114 43.6031 11.748 43.7498 11.588C43.9031 11.4214 44.0798 11.268 44.2798 11.128L45.0198 10.598C45.1198 10.5247 45.2164 10.4447 45.3098 10.358C45.4031 10.2714 45.4764 10.1747 45.5298 10.068C45.5898 9.96137 45.6198 9.86137 45.6198 9.76804C45.6198 9.64137 45.5898 9.53137 45.5298 9.43804C45.4764 9.33804 45.3931 9.26137 45.2798 9.20804C45.1664 9.14804 45.0264 9.11804 44.8598 9.11804C44.7198 9.11804 44.5964 9.14804 44.4898 9.20804C44.3831 9.26137 44.2931 9.3347 44.2198 9.42804C44.1531 9.52137 44.1031 9.62137 44.0698 9.72804L43.0898 9.55804C43.1364 9.3247 43.2364 9.10804 43.3898 8.90804C43.5431 8.70804 43.7431 8.5447 43.9898 8.41804C44.2431 8.29804 44.5264 8.23804 44.8398 8.23804C45.2064 8.23804 45.5198 8.3047 45.7798 8.43804C46.0398 8.5647 46.2431 8.74137 46.3898 8.96804C46.5298 9.1947 46.5998 9.45804 46.5998 9.75804C46.5998 10.058 46.5164 10.328 46.3498 10.568C46.1831 10.8014 45.9564 11.0214 45.6698 11.228L44.9998 11.708C44.8664 11.8014 44.7498 11.9047 44.6498 12.018C44.5564 12.1314 44.4831 12.2547 44.4298 12.388H46.6598V13.228H43.2798ZM49.9398 13.308C49.5398 13.308 49.1898 13.2014 48.8898 12.988C48.5831 12.768 48.3464 12.468 48.1798 12.088C48.0064 11.708 47.9198 11.2714 47.9198 10.778C47.9198 10.2847 48.0064 9.84804 48.1798 9.46804C48.3464 9.08804 48.5831 8.78804 48.8898 8.56804C49.1898 8.3547 49.5364 8.24804 49.9298 8.24804C50.3298 8.24804 50.6831 8.3547 50.9898 8.56804C51.2898 8.78804 51.5264 9.08804 51.6998 9.46804C51.8731 9.84804 51.9598 10.2847 51.9598 10.778C51.9598 11.2714 51.8731 11.708 51.6998 12.088C51.5264 12.468 51.2898 12.768 50.9898 12.988C50.6831 13.2014 50.3331 13.308 49.9398 13.308ZM49.9398 12.448C50.1464 12.448 50.3331 12.3747 50.4998 12.228C50.6664 12.088 50.7964 11.8914 50.8898 11.638C50.9831 11.3914 51.0298 11.1047 51.0298 10.778C51.0298 10.4514 50.9831 10.1614 50.8898 9.90804C50.7964 9.6547 50.6664 9.45804 50.4998 9.31804C50.3331 9.17804 50.1431 9.10804 49.9298 9.10804C49.7231 9.10804 49.5364 9.17804 49.3698 9.31804C49.2098 9.45804 49.0831 9.6547 48.9898 9.90804C48.8964 10.1614 48.8498 10.4514 48.8498 10.778C48.8498 11.1047 48.8964 11.3914 48.9898 11.638C49.0831 11.8914 49.2131 12.088 49.3798 12.228C49.5398 12.3747 49.7264 12.448 49.9398 12.448ZM53.2598 13.228V12.518C53.2598 12.3847 53.3031 12.238 53.3898 12.078C53.4764 11.9114 53.5931 11.748 53.7398 11.588C53.8864 11.4214 54.0631 11.268 54.2698 11.128L55.0098 10.598C55.1098 10.5247 55.2064 10.4447 55.2998 10.358C55.3864 10.2714 55.4598 10.1747 55.5198 10.068C55.5798 9.96137 55.6098 9.86137 55.6098 9.76804C55.6098 9.64137 55.5798 9.53137 55.5198 9.43804C55.4598 9.33804 55.3764 9.26137 55.2698 9.20804C55.1564 9.14804 55.0164 9.11804 54.8498 9.11804C54.7098 9.11804 54.5864 9.14804 54.4798 9.20804C54.3664 9.26137 54.2764 9.3347 54.2098 9.42804C54.1364 9.52137 54.0864 9.62137 54.0598 9.72804L53.0798 9.55804C53.1264 9.3247 53.2264 9.10804 53.3798 8.90804C53.5331 8.70804 53.7331 8.5447 53.9798 8.41804C54.2331 8.29804 54.5164 8.23804 54.8298 8.23804C55.1964 8.23804 55.5098 8.3047 55.7698 8.43804C56.0298 8.5647 56.2331 8.74137 56.3798 8.96804C56.5198 9.1947 56.5898 9.45804 56.5898 9.75804C56.5898 10.058 56.5064 10.328 56.3398 10.568C56.1731 10.8014 55.9464 11.0214 55.6598 11.228L54.9898 11.708C54.8564 11.8014 54.7398 11.9047 54.6398 12.018C54.5464 12.1314 54.4731 12.2547 54.4198 12.388H56.6498V13.228H53.2598ZM59.7098 13.308C59.4898 13.308 59.2598 13.2714 59.0198 13.198C58.7864 13.1247 58.5764 13.0147 58.3898 12.868C58.1964 12.7147 58.0564 12.528 57.9698 12.308L58.8398 12.048C58.9464 12.2014 59.0698 12.3114 59.2098 12.378C59.3498 12.4514 59.4998 12.488 59.6598 12.488C59.8998 12.488 60.0964 12.4147 60.2498 12.268C60.3964 12.1214 60.4698 11.9247 60.4698 11.678C60.4698 11.4447 60.3964 11.2514 60.2498 11.098C60.1031 10.9447 59.9098 10.868 59.6698 10.868C59.5231 10.868 59.3898 10.9014 59.2698 10.968C59.1498 11.0347 59.0564 11.1114 58.9898 11.198L58.1298 11.008L58.4198 8.32804H61.1998V9.19804H59.2398L59.0998 10.368C59.2264 10.3014 59.3664 10.2447 59.5198 10.198C59.6731 10.158 59.8398 10.138 60.0198 10.138C60.2864 10.138 60.5298 10.2047 60.7498 10.338C60.9698 10.4647 61.1431 10.638 61.2698 10.858C61.3964 11.078 61.4598 11.3347 61.4598 11.628C61.4598 11.9614 61.3864 12.2547 61.2398 12.508C61.0864 12.7614 60.8798 12.958 60.6198 13.098C60.3598 13.238 60.0564 13.308 59.7098 13.308Z" fill="black"/>
<path d="M13.2095 47.2281V39.5281H18.2295V41.1581H14.9795V42.5681H17.6995V44.1381H14.9795V45.5981H18.2795V47.2281H13.2095ZM22.7495 47.2281L22.6995 46.0381V44.4881C22.6995 44.1948 22.6761 43.9381 22.6295 43.7181C22.5761 43.4981 22.4828 43.3248 22.3495 43.1981C22.2161 43.0781 22.0195 43.0181 21.7595 43.0181C21.5528 43.0181 21.3728 43.0648 21.2195 43.1581C21.0661 43.2515 20.9328 43.3848 20.8195 43.5581L19.3295 43.0581C19.4495 42.7848 19.6195 42.5381 19.8395 42.3181C20.0528 42.0981 20.3195 41.9248 20.6395 41.7981C20.9528 41.6648 21.3195 41.5981 21.7395 41.5981C22.3061 41.5981 22.7895 41.7048 23.1895 41.9181C23.5828 42.1315 23.8795 42.4281 24.0795 42.8081C24.2795 43.1881 24.3795 43.6381 24.3795 44.1581L24.3495 47.2281H22.7495ZM21.2495 47.3581C20.5961 47.3581 20.0895 47.2115 19.7295 46.9181C19.3761 46.6248 19.1995 46.2115 19.1995 45.6781C19.1995 45.0981 19.3861 44.6648 19.7595 44.3781C20.1328 44.0915 20.6561 43.9481 21.3295 43.9481H22.8395V45.0481H21.9795C21.6128 45.0481 21.3495 45.1015 21.1895 45.2081C21.0228 45.3081 20.9395 45.4515 20.9395 45.6381C20.9395 45.7648 21.0028 45.8681 21.1295 45.9481C21.2495 46.0215 21.4161 46.0581 21.6295 46.0581C21.8428 46.0581 22.0295 46.0148 22.1895 45.9281C22.3495 45.8348 22.4761 45.7115 22.5695 45.5581C22.6561 45.4048 22.6995 45.2348 22.6995 45.0481H23.1295C23.1295 45.7815 22.9761 46.3515 22.6695 46.7581C22.3628 47.1581 21.8895 47.3581 21.2495 47.3581ZM27.4895 47.3581C27.1295 47.3581 26.7928 47.3048 26.4795 47.1981C26.1728 47.0915 25.9028 46.9415 25.6695 46.7481C25.4428 46.5548 25.2761 46.3181 25.1695 46.0381L26.5795 45.4481C26.6728 45.6348 26.8028 45.7748 26.9695 45.8681C27.1428 45.9615 27.3161 46.0081 27.4895 46.0081C27.6695 46.0081 27.8128 45.9781 27.9195 45.9181C28.0195 45.8515 28.0695 45.7648 28.0695 45.6581C28.0695 45.5381 28.0161 45.4448 27.9095 45.3781C27.8028 45.3115 27.6528 45.2548 27.4595 45.2081L26.9795 45.0881C26.4661 44.9548 26.0728 44.7348 25.7995 44.4281C25.5261 44.1215 25.3895 43.7681 25.3895 43.3681C25.3895 42.8015 25.5828 42.3648 25.9695 42.0581C26.3561 41.7515 26.8961 41.5981 27.5895 41.5981C27.9761 41.5981 28.3195 41.6481 28.6195 41.7481C28.9128 41.8548 29.1628 42.0015 29.3695 42.1881C29.5695 42.3748 29.7128 42.5915 29.7995 42.8381L28.4395 43.3981C28.3861 43.2515 28.2795 43.1415 28.1195 43.0681C27.9661 42.9881 27.7928 42.9481 27.5995 42.9481C27.4395 42.9481 27.3161 42.9848 27.2295 43.0581C27.1361 43.1248 27.0895 43.2181 27.0895 43.3381C27.0895 43.4248 27.1428 43.4981 27.2495 43.5581C27.3561 43.6248 27.5128 43.6815 27.7195 43.7281L28.2995 43.8781C28.6461 43.9648 28.9361 44.0981 29.1695 44.2781C29.4028 44.4581 29.5795 44.6648 29.6995 44.8981C29.8195 45.1381 29.8795 45.3948 29.8795 45.6681C29.8795 46.0148 29.7761 46.3115 29.5695 46.5581C29.3695 46.8115 29.0895 47.0081 28.7295 47.1481C28.3695 47.2881 27.9561 47.3581 27.4895 47.3581ZM30.7895 47.2281V41.7281H32.5095V47.2281H30.7895ZM31.6495 41.0281C31.3895 41.0281 31.1628 40.9281 30.9695 40.7281C30.7761 40.5348 30.6795 40.3115 30.6795 40.0581C30.6795 39.7848 30.7761 39.5548 30.9695 39.3681C31.1628 39.1815 31.3895 39.0881 31.6495 39.0881C31.9095 39.0881 32.1361 39.1815 32.3295 39.3681C32.5228 39.5548 32.6195 39.7848 32.6195 40.0581C32.6195 40.3115 32.5228 40.5348 32.3295 40.7281C32.1361 40.9281 31.9095 41.0281 31.6495 41.0281ZM36.3695 47.3581C35.7961 47.3581 35.2895 47.2348 34.8495 46.9881C34.4095 46.7481 34.0628 46.4115 33.8095 45.9781C33.5628 45.5448 33.4395 45.0448 33.4395 44.4781C33.4395 43.9048 33.5661 43.4015 33.8195 42.9681C34.0728 42.5348 34.4195 42.1981 34.8595 41.9581C35.2995 41.7181 35.8095 41.5981 36.3895 41.5981C36.9095 41.5981 37.3795 41.7215 37.7995 41.9681C38.2128 42.2215 38.5428 42.5915 38.7895 43.0781C39.0361 43.5715 39.1595 44.1848 39.1595 44.9181H35.0195L35.2095 44.7081C35.2095 44.9615 35.2628 45.1815 35.3695 45.3681C35.4695 45.5615 35.6095 45.7081 35.7895 45.8081C35.9761 45.9015 36.1828 45.9481 36.4095 45.9481C36.6828 45.9481 36.9128 45.8881 37.0995 45.7681C37.2861 45.6481 37.4161 45.4981 37.4895 45.3181L39.0095 45.8281C38.8628 46.1748 38.6561 46.4615 38.3895 46.6881C38.1161 46.9148 37.8095 47.0848 37.4695 47.1981C37.1228 47.3048 36.7561 47.3581 36.3695 47.3581ZM35.2595 43.9981L35.0795 43.7781H37.5395L37.3895 43.9981C37.3895 43.7248 37.3328 43.5081 37.2195 43.3481C37.1128 43.1881 36.9795 43.0715 36.8195 42.9981C36.6595 42.9315 36.4961 42.8981 36.3295 42.8981C36.1695 42.8981 36.0061 42.9315 35.8395 42.9981C35.6795 43.0715 35.5428 43.1881 35.4295 43.3481C35.3161 43.5081 35.2595 43.7248 35.2595 43.9981ZM41.9495 47.3581C41.5961 47.3581 41.2628 47.3048 40.9495 47.1981C40.6361 47.0915 40.3661 46.9415 40.1395 46.7481C39.9128 46.5548 39.7428 46.3181 39.6295 46.0381L41.0395 45.4481C41.1328 45.6348 41.2661 45.7748 41.4395 45.8681C41.6061 45.9615 41.7761 46.0081 41.9495 46.0081C42.1361 46.0081 42.2795 45.9781 42.3795 45.9181C42.4861 45.8515 42.5395 45.7648 42.5395 45.6581C42.5395 45.5381 42.4861 45.4448 42.3795 45.3781C42.2728 45.3115 42.1195 45.2548 41.9195 45.2081L41.4495 45.0881C40.9361 44.9548 40.5428 44.7348 40.2695 44.4281C39.9895 44.1215 39.8495 43.7681 39.8495 43.3681C39.8495 42.8015 40.0461 42.3648 40.4395 42.0581C40.8261 41.7515 41.3628 41.5981 42.0495 41.5981C42.4428 41.5981 42.7861 41.6481 43.0795 41.7481C43.3795 41.8548 43.6295 42.0015 43.8295 42.1881C44.0295 42.3748 44.1728 42.5915 44.2595 42.8381L42.8995 43.3981C42.8461 43.2515 42.7428 43.1415 42.5895 43.0681C42.4295 42.9881 42.2528 42.9481 42.0595 42.9481C41.8995 42.9481 41.7761 42.9848 41.6895 43.0581C41.6028 43.1248 41.5595 43.2181 41.5595 43.3381C41.5595 43.4248 41.6128 43.4981 41.7195 43.5581C41.8261 43.6248 41.9828 43.6815 42.1895 43.7281L42.7695 43.8781C43.1161 43.9648 43.4061 44.0981 43.6395 44.2781C43.8728 44.4581 44.0495 44.6648 44.1695 44.8981C44.2828 45.1381 44.3395 45.3948 44.3395 45.6681C44.3395 46.0148 44.2395 46.3115 44.0395 46.5581C43.8395 46.8115 43.5595 47.0081 43.1995 47.1481C42.8395 47.2881 42.4228 47.3581 41.9495 47.3581ZM47.5195 47.3581C46.8661 47.3581 46.3795 47.2015 46.0595 46.8881C45.7395 46.5815 45.5795 46.1381 45.5795 45.5581V40.0081H47.2995V45.1281C47.2995 45.3481 47.3395 45.5081 47.4195 45.6081C47.4995 45.7148 47.6261 45.7681 47.7995 45.7681C47.8595 45.7681 47.9361 45.7515 48.0295 45.7181C48.1161 45.6848 48.1961 45.6415 48.2695 45.5881L48.8595 46.8481C48.6861 46.9948 48.4761 47.1148 48.2295 47.2081C47.9828 47.3081 47.7461 47.3581 47.5195 47.3581ZM44.7295 43.1681V41.7281H48.5495V43.1681H44.7295ZM54.1395 47.2281V41.1581H51.8995V39.5281H58.1495V41.1581H55.8995V47.2281H54.1395ZM60.7895 47.3581C60.2095 47.3581 59.6995 47.2348 59.2595 46.9881C58.8195 46.7481 58.4728 46.4115 58.2195 45.9781C57.9661 45.5448 57.8395 45.0448 57.8395 44.4781C57.8395 43.9115 57.9628 43.4115 58.2095 42.9781C58.4561 42.5515 58.7995 42.2148 59.2395 41.9681C59.6861 41.7215 60.1895 41.5981 60.7495 41.5981C61.3295 41.5981 61.8428 41.7215 62.2895 41.9681C62.7295 42.2148 63.0728 42.5515 63.3195 42.9781C63.5661 43.4115 63.6895 43.9115 63.6895 44.4781C63.6895 45.0448 63.5661 45.5448 63.3195 45.9781C63.0728 46.4115 62.7295 46.7481 62.2895 46.9881C61.8495 47.2348 61.3495 47.3581 60.7895 47.3581ZM60.7895 45.7781C61.0095 45.7781 61.2061 45.7215 61.3795 45.6081C61.5461 45.5015 61.6795 45.3515 61.7795 45.1581C61.8795 44.9648 61.9295 44.7381 61.9295 44.4781C61.9295 44.2248 61.8795 43.9981 61.7795 43.7981C61.6795 43.6048 61.5428 43.4548 61.3695 43.3481C61.1961 43.2348 60.9928 43.1781 60.7595 43.1781C60.5328 43.1781 60.3328 43.2348 60.1595 43.3481C59.9861 43.4548 59.8495 43.6048 59.7495 43.7981C59.6495 43.9981 59.5995 44.2248 59.5995 44.4781C59.5995 44.7381 59.6495 44.9648 59.7495 45.1581C59.8495 45.3515 59.9895 45.5015 60.1695 45.6081C60.3428 45.7215 60.5495 45.7781 60.7895 45.7781ZM67.2895 47.2281V39.5281H69.8095C70.6228 39.5281 71.3428 39.6948 71.9695 40.0281C72.5961 40.3548 73.0861 40.8048 73.4395 41.3781C73.7861 41.9581 73.9594 42.6248 73.9594 43.3781C73.9594 44.1248 73.7861 44.7881 73.4395 45.3681C73.0861 45.9481 72.5961 46.4048 71.9695 46.7381C71.3428 47.0648 70.6228 47.2281 69.8095 47.2281H67.2895ZM69.0595 45.5581H69.8095C70.1428 45.5581 70.4528 45.5048 70.7395 45.3981C71.0261 45.2915 71.2761 45.1415 71.4895 44.9481C71.7028 44.7548 71.8661 44.5215 71.9795 44.2481C72.0995 43.9815 72.1595 43.6915 72.1595 43.3781C72.1595 43.0648 72.0995 42.7748 71.9795 42.5081C71.8661 42.2348 71.7028 42.0015 71.4895 41.8081C71.2761 41.6148 71.0261 41.4648 70.7395 41.3581C70.4528 41.2515 70.1428 41.1981 69.8095 41.1981H69.0595V45.5581ZM77.5195 47.3581C76.9395 47.3581 76.4295 47.2348 75.9895 46.9881C75.5495 46.7481 75.2028 46.4115 74.9495 45.9781C74.6961 45.5448 74.5695 45.0448 74.5695 44.4781C74.5695 43.9115 74.6928 43.4115 74.9395 42.9781C75.1861 42.5515 75.5295 42.2148 75.9695 41.9681C76.4161 41.7215 76.9195 41.5981 77.4795 41.5981C78.0595 41.5981 78.5728 41.7215 79.0195 41.9681C79.4595 42.2148 79.8028 42.5515 80.0495 42.9781C80.2961 43.4115 80.4194 43.9115 80.4194 44.4781C80.4194 45.0448 80.2961 45.5448 80.0495 45.9781C79.8028 46.4115 79.4595 46.7481 79.0195 46.9881C78.5795 47.2348 78.0795 47.3581 77.5195 47.3581ZM77.5195 45.7781C77.7395 45.7781 77.9361 45.7215 78.1095 45.6081C78.2761 45.5015 78.4095 45.3515 78.5095 45.1581C78.6095 44.9648 78.6595 44.7381 78.6595 44.4781C78.6595 44.2248 78.6095 43.9981 78.5095 43.7981C78.4095 43.6048 78.2728 43.4548 78.0994 43.3481C77.9261 43.2348 77.7261 43.1781 77.4995 43.1781C77.2661 43.1781 77.0628 43.2348 76.8895 43.3481C76.7161 43.4548 76.5795 43.6048 76.4795 43.7981C76.3795 43.9981 76.3295 44.2248 76.3295 44.4781C76.3295 44.7381 76.3795 44.9648 76.4795 45.1581C76.5795 45.3515 76.7195 45.5015 76.8995 45.6081C77.0795 45.7215 77.2861 45.7781 77.5195 45.7781ZM11.4395 58.2281V50.5281H14.1395C14.6661 50.5281 15.1295 50.6081 15.5295 50.7681C15.9361 50.9281 16.2528 51.1748 16.4795 51.5081C16.7061 51.8348 16.8195 52.2515 16.8195 52.7581C16.8195 53.0315 16.7461 53.2881 16.5995 53.5281C16.4595 53.7681 16.2661 53.9815 16.0195 54.1681C16.3661 54.3548 16.6328 54.5948 16.8195 54.8881C17.0128 55.1881 17.1095 55.5548 17.1095 55.9881C17.1095 56.4681 16.9995 56.8748 16.7795 57.2081C16.5595 57.5415 16.2528 57.7948 15.8595 57.9681C15.4728 58.1415 15.0195 58.2281 14.4995 58.2281H11.4395ZM13.1695 56.6681H14.2995C14.5995 56.6681 14.8395 56.5881 15.0195 56.4281C15.1928 56.2748 15.2795 56.0715 15.2795 55.8181C15.2795 55.5581 15.1861 55.3515 14.9995 55.1981C14.8195 55.0448 14.5695 54.9681 14.2495 54.9681H13.1695V56.6681ZM13.1695 53.5581H14.0795C14.3595 53.5581 14.5828 53.4848 14.7495 53.3381C14.9161 53.1981 14.9995 52.9981 14.9995 52.7381C14.9995 52.4781 14.9095 52.2748 14.7295 52.1281C14.5561 51.9881 14.3161 51.9181 14.0095 51.9181H13.1695V53.5581ZM21.5595 58.2281L21.4595 57.2181V52.7281H23.1795V58.2281H21.5595ZM17.9195 55.5481V52.7281H19.6395V55.5481H17.9195ZM19.6395 55.5481C19.6395 55.8348 19.6695 56.0648 19.7295 56.2381C19.7961 56.4115 19.8928 56.5381 20.0195 56.6181C20.1461 56.7048 20.2928 56.7515 20.4595 56.7581C20.7928 56.7581 21.0428 56.6648 21.2095 56.4781C21.3761 56.2915 21.4595 56.0081 21.4595 55.6281H21.9795C21.9795 56.2081 21.8895 56.7015 21.7095 57.1081C21.5361 57.5148 21.2961 57.8248 20.9895 58.0381C20.6895 58.2515 20.3361 58.3581 19.9295 58.3581C19.4895 58.3581 19.1195 58.2681 18.8195 58.0881C18.5195 57.9081 18.2928 57.6348 18.1395 57.2681C17.9928 56.9015 17.9195 56.4348 17.9195 55.8681V55.5481H19.6395ZM26.3695 58.3581C26.0095 58.3581 25.6728 58.3048 25.3595 58.1981C25.0461 58.0915 24.7761 57.9415 24.5495 57.7481C24.3228 57.5548 24.1561 57.3181 24.0495 57.0381L25.4495 56.4481C25.5495 56.6348 25.6828 56.7748 25.8495 56.8681C26.0161 56.9615 26.1895 57.0081 26.3695 57.0081C26.5495 57.0081 26.6928 56.9781 26.7995 56.9181C26.8995 56.8515 26.9495 56.7648 26.9495 56.6581C26.9495 56.5381 26.8961 56.4448 26.7895 56.3781C26.6828 56.3115 26.5295 56.2548 26.3295 56.2081L25.8595 56.0881C25.3461 55.9548 24.9528 55.7348 24.6795 55.4281C24.4061 55.1215 24.2695 54.7681 24.2695 54.3681C24.2695 53.8015 24.4628 53.3648 24.8495 53.0581C25.2361 52.7515 25.7761 52.5981 26.4695 52.5981C26.8561 52.5981 27.1961 52.6481 27.4895 52.7481C27.7895 52.8548 28.0395 53.0015 28.2395 53.1881C28.4461 53.3748 28.5928 53.5915 28.6795 53.8381L27.3095 54.3981C27.2628 54.2515 27.1595 54.1415 26.9995 54.0681C26.8395 53.9881 26.6661 53.9481 26.4795 53.9481C26.3195 53.9481 26.1928 53.9848 26.0995 54.0581C26.0128 54.1248 25.9695 54.2181 25.9695 54.3381C25.9695 54.4248 26.0228 54.4981 26.1295 54.5581C26.2361 54.6248 26.3928 54.6815 26.5995 54.7281L27.1795 54.8781C27.5261 54.9648 27.8161 55.0981 28.0495 55.2781C28.2828 55.4581 28.4595 55.6648 28.5795 55.8981C28.6928 56.1381 28.7495 56.3948 28.7495 56.6681C28.7495 57.0148 28.6495 57.3115 28.4495 57.5581C28.2495 57.8115 27.9695 58.0081 27.6095 58.1481C27.2495 58.2881 26.8361 58.3581 26.3695 58.3581ZM29.6695 58.2281V52.7281H31.3795V58.2281H29.6695ZM30.5295 52.0281C30.2695 52.0281 30.0428 51.9281 29.8495 51.7281C29.6561 51.5348 29.5595 51.3115 29.5595 51.0581C29.5595 50.7848 29.6561 50.5548 29.8495 50.3681C30.0428 50.1815 30.2695 50.0881 30.5295 50.0881C30.7895 50.0881 31.0161 50.1815 31.2095 50.3681C31.3961 50.5548 31.4895 50.7848 31.4895 51.0581C31.4895 51.3115 31.3961 51.5348 31.2095 51.7281C31.0161 51.9281 30.7895 52.0281 30.5295 52.0281ZM32.5995 58.2281V52.7281H34.2195L34.3195 53.7381V58.2281H32.5995ZM36.1495 58.2281V55.4081H37.8595V58.2281H36.1495ZM36.1495 55.4081C36.1495 55.1148 36.1161 54.8848 36.0495 54.7181C35.9828 54.5448 35.8895 54.4181 35.7695 54.3381C35.6495 54.2581 35.4995 54.2115 35.3195 54.1981C34.9928 54.1915 34.7428 54.2815 34.5695 54.4681C34.4028 54.6548 34.3195 54.9415 34.3195 55.3281H33.7995C33.7995 54.7481 33.8895 54.2548 34.0695 53.8481C34.2428 53.4415 34.4828 53.1315 34.7895 52.9181C35.0895 52.7048 35.4428 52.5981 35.8495 52.5981C36.2895 52.5981 36.6595 52.6881 36.9595 52.8681C37.2595 53.0481 37.4861 53.3215 37.6395 53.6881C37.7861 54.0548 37.8595 54.5248 37.8595 55.0981V55.4081H36.1495ZM41.5495 58.3581C40.9761 58.3581 40.4695 58.2348 40.0295 57.9881C39.5895 57.7481 39.2461 57.4115 38.9995 56.9781C38.7461 56.5448 38.6195 56.0448 38.6195 55.4781C38.6195 54.9048 38.7461 54.4015 38.9995 53.9681C39.2528 53.5348 39.5995 53.1981 40.0395 52.9581C40.4795 52.7181 40.9895 52.5981 41.5695 52.5981C42.0895 52.5981 42.5595 52.7215 42.9795 52.9681C43.3928 53.2215 43.7228 53.5915 43.9695 54.0781C44.2161 54.5715 44.3395 55.1848 44.3395 55.9181H40.2095L40.3895 55.7081C40.3895 55.9615 40.4428 56.1815 40.5495 56.3681C40.6495 56.5615 40.7928 56.7081 40.9795 56.8081C41.1595 56.9015 41.3628 56.9481 41.5895 56.9481C41.8628 56.9481 42.0928 56.8881 42.2795 56.7681C42.4661 56.6481 42.5961 56.4981 42.6695 56.3181L44.1895 56.8281C44.0428 57.1748 43.8361 57.4615 43.5695 57.6881C43.2961 57.9148 42.9895 58.0848 42.6495 58.1981C42.3028 58.3048 41.9361 58.3581 41.5495 58.3581ZM40.4395 54.9981L40.2595 54.7781H42.7195L42.5695 54.9981C42.5695 54.7248 42.5161 54.5081 42.4095 54.3481C42.2961 54.1881 42.1595 54.0715 41.9995 53.9981C41.8395 53.9315 41.6761 53.8981 41.5095 53.8981C41.3495 53.8981 41.1861 53.9315 41.0195 53.9981C40.8595 54.0715 40.7228 54.1881 40.6095 54.3481C40.4961 54.5081 40.4395 54.7248 40.4395 54.9981ZM47.1395 58.3581C46.7795 58.3581 46.4428 58.3048 46.1295 58.1981C45.8161 58.0915 45.5461 57.9415 45.3195 57.7481C45.0928 57.5548 44.9228 57.3181 44.8095 57.0381L46.2195 56.4481C46.3195 56.6348 46.4528 56.7748 46.6195 56.8681C46.7861 56.9615 46.9595 57.0081 47.1395 57.0081C47.3195 57.0081 47.4595 56.9781 47.5595 56.9181C47.6661 56.8515 47.7195 56.7648 47.7195 56.6581C47.7195 56.5381 47.6661 56.4448 47.5595 56.3781C47.4528 56.3115 47.2995 56.2548 47.0995 56.2081L46.6295 56.0881C46.1161 55.9548 45.7228 55.7348 45.4495 55.4281C45.1695 55.1215 45.0295 54.7681 45.0295 54.3681C45.0295 53.8015 45.2261 53.3648 45.6195 53.0581C46.0061 52.7515 46.5428 52.5981 47.2295 52.5981C47.6228 52.5981 47.9661 52.6481 48.2595 52.7481C48.5595 52.8548 48.8095 53.0015 49.0095 53.1881C49.2095 53.3748 49.3561 53.5915 49.4495 53.8381L48.0795 54.3981C48.0261 54.2515 47.9228 54.1415 47.7695 54.0681C47.6095 53.9881 47.4361 53.9481 47.2495 53.9481C47.0828 53.9481 46.9561 53.9848 46.8695 54.0581C46.7828 54.1248 46.7395 54.2181 46.7395 54.3381C46.7395 54.4248 46.7928 54.4981 46.8995 54.5581C47.0061 54.6248 47.1628 54.6815 47.3695 54.7281L47.9495 54.8781C48.2961 54.9648 48.5861 55.0981 48.8195 55.2781C49.0528 55.4581 49.2295 55.6648 49.3495 55.8981C49.4628 56.1381 49.5195 56.3948 49.5195 56.6681C49.5195 57.0148 49.4195 57.3115 49.2195 57.5581C49.0195 57.8115 48.7395 58.0081 48.3795 58.1481C48.0195 58.2881 47.6061 58.3581 47.1395 58.3581ZM52.3795 58.3581C52.0195 58.3581 51.6861 58.3048 51.3795 58.1981C51.0661 58.0915 50.7961 57.9415 50.5695 57.7481C50.3428 57.5548 50.1728 57.3181 50.0595 57.0381L51.4695 56.4481C51.5628 56.6348 51.6961 56.7748 51.8695 56.8681C52.0361 56.9615 52.2061 57.0081 52.3795 57.0081C52.5661 57.0081 52.7095 56.9781 52.8095 56.9181C52.9161 56.8515 52.9695 56.7648 52.9695 56.6581C52.9695 56.5381 52.9161 56.4448 52.8095 56.3781C52.7028 56.3115 52.5495 56.2548 52.3495 56.2081L51.8795 56.0881C51.3661 55.9548 50.9695 55.7348 50.6895 55.4281C50.4161 55.1215 50.2795 54.7681 50.2795 54.3681C50.2795 53.8015 50.4728 53.3648 50.8595 53.0581C51.2528 52.7515 51.7928 52.5981 52.4795 52.5981C52.8661 52.5981 53.2095 52.6481 53.5095 52.7481C53.8095 52.8548 54.0595 53.0015 54.2595 53.1881C54.4595 53.3748 54.6028 53.5915 54.6895 53.8381L53.3295 54.3981C53.2761 54.2515 53.1695 54.1415 53.0095 54.0681C52.8561 53.9881 52.6828 53.9481 52.4895 53.9481C52.3295 53.9481 52.2061 53.9848 52.1195 54.0581C52.0328 54.1248 51.9895 54.2181 51.9895 54.3381C51.9895 54.4248 52.0428 54.4981 52.1495 54.5581C52.2561 54.6248 52.4095 54.6815 52.6095 54.7281L53.1995 54.8781C53.5395 54.9648 53.8295 55.0981 54.0695 55.2781C54.3028 55.4581 54.4761 55.6648 54.5895 55.8981C54.7095 56.1381 54.7695 56.3948 54.7695 56.6681C54.7695 57.0148 54.6695 57.3115 54.4695 57.5581C54.2628 57.8115 53.9828 58.0081 53.6295 58.1481C53.2695 58.2881 52.8528 58.3581 52.3795 58.3581ZM64.5395 58.2281L66.6694 50.5281H68.4795L66.2195 58.2281H64.5395ZM59.9295 58.2281L57.6795 50.5281H59.4895L61.6095 58.2281H59.9295ZM60.1695 58.2281L62.1895 50.5281H63.7795L61.7695 58.2281H60.1695ZM64.3695 58.2281L62.3695 50.5281H63.9495L66.0595 58.2281H64.3695ZM69.2094 58.2281V52.7281H70.9295V58.2281H69.2094ZM70.0695 52.0281C69.8161 52.0281 69.5895 51.9281 69.3895 51.7281C69.1961 51.5348 69.0994 51.3115 69.0994 51.0581C69.0994 50.7848 69.1961 50.5548 69.3895 50.3681C69.5895 50.1815 69.8161 50.0881 70.0695 50.0881C70.3361 50.0881 70.5628 50.1815 70.7495 50.3681C70.9428 50.5548 71.0395 50.7848 71.0395 51.0581C71.0395 51.3115 70.9428 51.5348 70.7495 51.7281C70.5628 51.9281 70.3361 52.0281 70.0695 52.0281ZM74.5095 58.3581C73.8628 58.3581 73.3795 58.2015 73.0595 57.8881C72.7395 57.5815 72.5795 57.1381 72.5795 56.5581V51.0081H74.2895V56.1281C74.2895 56.3481 74.3328 56.5081 74.4194 56.6081C74.4994 56.7148 74.6228 56.7681 74.7895 56.7681C74.8561 56.7681 74.9328 56.7515 75.0195 56.7181C75.1061 56.6848 75.1861 56.6415 75.2595 56.5881L75.8595 57.8481C75.6795 57.9948 75.4661 58.1148 75.2195 58.2081C74.9795 58.3081 74.7428 58.3581 74.5095 58.3581ZM71.7195 54.1681V52.7281H75.5495V54.1681H71.7195ZM76.7295 58.2281V50.5281H78.4395V58.2281H76.7295ZM80.2695 58.2281V55.4081H81.9795V58.2281H80.2695ZM80.2695 55.4081C80.2695 55.1148 80.2361 54.8848 80.1694 54.7181C80.1028 54.5448 80.0061 54.4181 79.8795 54.3381C79.7595 54.2581 79.6128 54.2115 79.4395 54.1981C79.1128 54.1915 78.8628 54.2815 78.6895 54.4681C78.5228 54.6548 78.4395 54.9415 78.4395 55.3281H77.9194C77.9194 54.7481 78.0095 54.2548 78.1895 53.8481C78.3628 53.4415 78.6028 53.1315 78.9095 52.9181C79.2161 52.7048 79.5661 52.5981 79.9594 52.5981C80.4061 52.5981 80.7795 52.6881 81.0795 52.8681C81.3795 53.0481 81.6061 53.3215 81.7595 53.6881C81.9061 54.0548 81.9795 54.5248 81.9795 55.0981V55.4081H80.2695Z" fill="black"/>
<path d="M26.9004 72.3581V68.5081H27.7204L28.8404 70.1681L29.9604 68.5081H30.7804V72.3581H30.0304V69.6781L28.8404 71.4281L27.6504 69.6881V72.3581H26.9004ZM32.1604 72.3581V68.5081H32.9204V72.3581H32.1604ZM34.3004 72.3581V68.5081H35.5304C35.9237 68.5081 36.2737 68.5881 36.5804 68.7481C36.8804 68.9147 37.1171 69.1414 37.2904 69.4281C37.4571 69.7147 37.5404 70.0481 37.5404 70.4281C37.5404 70.8014 37.4571 71.1347 37.2904 71.4281C37.1171 71.7147 36.8804 71.9414 36.5804 72.1081C36.2737 72.2747 35.9237 72.3581 35.5304 72.3581H34.3004ZM35.0504 71.6481H35.5304C35.7104 71.6481 35.8737 71.6181 36.0204 71.5581C36.1737 71.4914 36.3071 71.4047 36.4204 71.2981C36.5271 71.1847 36.6137 71.0547 36.6804 70.9081C36.7404 70.7614 36.7704 70.6014 36.7704 70.4281C36.7704 70.2547 36.7404 70.0947 36.6804 69.9481C36.6137 69.8014 36.5271 69.6714 36.4204 69.5581C36.3071 69.4514 36.1737 69.3647 36.0204 69.2981C35.8737 69.2381 35.7104 69.2081 35.5304 69.2081H35.0504V71.6481ZM38.5804 71.0281V70.4081H40.2304V71.0281H38.5804ZM41.5004 72.3581V68.5081H42.3104L43.4404 70.1681L44.5604 68.5081H45.3704V72.3581H44.6204V69.6781L43.4404 71.4281L42.2504 69.6881V72.3581H41.5004ZM49.4304 72.3581L47.9504 68.5081H48.7104L50.2204 72.3581H49.4304ZM46.3804 72.3581L47.9004 68.5081H48.6604L47.1804 72.3581H46.3804ZM47.1004 71.5081V70.8381H49.5104V71.5081H47.1004ZM51.2404 72.3581V68.5081H52.6704C52.9371 68.5081 53.1771 68.5581 53.3904 68.6581C53.5971 68.7647 53.7604 68.9114 53.8804 69.0981C53.9937 69.2847 54.0504 69.5014 54.0504 69.7481C54.0504 69.9881 53.9904 70.2014 53.8704 70.3881C53.7437 70.5814 53.5737 70.7281 53.3604 70.8281C53.1537 70.9347 52.9137 70.9881 52.6404 70.9881H51.9904V72.3581H51.2404ZM53.3504 72.3581L52.4604 70.8081L53.0404 70.3981L54.2104 72.3581H53.3504ZM51.9904 70.2981H52.6704C52.7837 70.2981 52.8871 70.2747 52.9804 70.2281C53.0671 70.1814 53.1371 70.1147 53.1904 70.0281C53.2437 69.9481 53.2704 69.8547 53.2704 69.7481C53.2704 69.5814 53.2104 69.4481 53.0904 69.3481C52.9704 69.2414 52.8171 69.1881 52.6304 69.1881H51.9904V70.2981ZM55.7804 71.3781L55.7004 70.4381L57.5004 68.5081H58.4704L55.7804 71.3781ZM55.3304 72.3581V68.5081H56.0804V72.3581H55.3304ZM57.6004 72.3581L56.0704 70.3981L56.6104 69.9481L58.5304 72.3581H57.6004ZM59.5504 72.3581V68.5081H61.9804V69.1881H60.3004V70.0681H61.7504V70.7381H60.3004V71.6681H62.0004V72.3581H59.5504ZM64.1504 72.3581V69.1881H62.9904V68.5081H66.0504V69.1881H64.9004V72.3581H64.1504Z" fill="black"/>
<path d="M71.1152 0.520996H92.1152V21.521H71.1152V0.520996Z" fill="#FF492C"/>
<mask id="mask0_6383_96480" style="mask-type:luminance" maskUnits="userSpaceOnUse" x="71" y="0" width="22" height="22">
<path d="M71.1152 0.520996H92.1152V21.521H71.1152V0.520996Z" fill="white"/>
</mask>
<g mask="url(#mask0_6383_96480)">
<path fill-rule="evenodd" clip-rule="evenodd" d="M86.1647 8.56297H84.3707C84.4197 8.28197 84.5927 8.12497 84.9447 7.94697L85.2757 7.77897C85.8667 7.47597 86.1817 7.13497 86.1817 6.57897C86.1878 6.41804 86.1538 6.25812 86.0827 6.1136C86.0117 5.96907 85.9058 5.84446 85.7747 5.75097C85.5087 5.55097 85.1837 5.45297 84.8097 5.45297C84.5199 5.44989 84.2355 5.53082 83.9907 5.68597C83.7558 5.82485 83.5672 6.03013 83.4487 6.27597L83.9687 6.79497C84.1697 6.38897 84.4627 6.18897 84.8477 6.18897C85.1727 6.18897 85.3737 6.35697 85.3737 6.58897C85.3737 6.78397 85.2757 6.94597 84.9017 7.13497L84.6907 7.23797C84.2297 7.47097 83.9097 7.73597 83.7257 8.03797C83.5407 8.33597 83.4487 8.71997 83.4487 9.17997V9.30397H86.1647V8.56397V8.56297ZM85.9197 10.163H82.9537L81.4707 12.733H84.4367L85.9197 15.303L87.4037 12.733L85.9197 10.163Z" fill="white"/>
<path fill-rule="evenodd" clip-rule="evenodd" d="M81.7227 14.4501C80.8136 14.4493 79.9419 14.0879 79.2989 13.4453C78.6559 12.8026 78.294 11.9312 78.2927 11.0221C78.2943 10.1132 78.6563 9.24195 79.2993 8.59952C79.9423 7.95709 80.8138 7.59587 81.7227 7.59508L82.8967 5.13908C82.0263 4.96511 81.1282 4.98642 80.267 5.20147C79.4059 5.41652 78.6032 5.81995 77.9167 6.38268C77.2303 6.94541 76.6773 7.65343 76.2976 8.45569C75.9178 9.25796 75.7208 10.1345 75.7207 11.0221C75.7208 11.8101 75.8762 12.5904 76.1779 13.3183C76.4796 14.0463 76.9218 14.7077 77.4791 15.2648C78.0365 15.8219 78.6981 16.2637 79.4262 16.565C80.1543 16.8664 80.9347 17.0213 81.7227 17.0211C82.9933 17.0232 84.2315 16.6204 85.2577 15.8711L83.9577 13.6191C83.3367 14.1555 82.5433 14.4504 81.7227 14.4501Z" fill="white"/>
<path d="M71.6035 1.18799V21.056" stroke="black" stroke-width="1.085"/>
</g>
<path d="M0.115234 84.041V77.541L46.1152 100.583L92.1152 77.541V84.041L46.1152 106.521L0.115234 84.041Z" fill="#27D3BC"/>
<path d="M0.115234 78.0869V71.5869L46.1152 94.6289L92.1152 71.5869V78.0869L46.1152 100.567L0.115234 78.0869Z" fill="white"/>
<path d="M0.115234 72.1521V65.6521L46.1152 88.6951L92.1152 65.6521V72.1521L46.1152 94.6321L0.115234 72.1521Z" fill="white"/>
<path d="M91.6902 21.056H0.740203M91.5722 83.518L46.1152 105.916L0.658203 83.518V1.06396H91.5722V83.518Z" stroke="black" stroke-width="1.085"/>
</g>
<defs>
<clipPath id="clip0_6383_96480">
<rect width="92" height="106" fill="white" transform="translate(0.115234 0.520996)"/>
</clipPath>
</defs>
</svg>
