<svg width="92" height="107" viewBox="0 0 92 107" fill="none" xmlns="http://www.w3.org/2000/svg">
<g clip-path="url(#clip0_6383_96459)">
<path d="M0 83.7771L46 106.443L92 83.7771V0.443115H0V83.7771Z" fill="white"/>
<path d="M0 83.7771L46 106.443L92 83.7771V0.443115H0V83.7771Z" fill="white"/>
<path d="M16.4648 13.1502V8.25016H19.6048V9.12016L17.4248 9.13016V10.3002H19.2448V11.1802H17.4248V13.1502H16.4648ZM24.4348 13.1502L22.5548 8.25016H23.5148L25.4548 13.1502H24.4348ZM20.5648 13.1502L22.4948 8.25016H23.4548L21.5748 13.1502H20.5648ZM21.4748 12.0702V11.2302H24.5448V12.0702H21.4748ZM26.7348 13.1502V8.25016H27.6948V12.2802H29.8548V13.1502H26.7348ZM31.1948 13.1502V8.25016H32.1548V12.2802H34.3148V13.1502H31.1948ZM37.8448 13.1502V12.4402C37.8448 12.3068 37.8882 12.1602 37.9748 12.0002C38.0548 11.8335 38.1715 11.6702 38.3248 11.5102C38.4715 11.3435 38.6448 11.1902 38.8448 11.0502L39.5948 10.5202C39.6948 10.4468 39.7915 10.3668 39.8848 10.2802C39.9715 10.1935 40.0448 10.0968 40.1048 9.99016C40.1648 9.88349 40.1948 9.78349 40.1948 9.69016C40.1948 9.56349 40.1648 9.45349 40.1048 9.36016C40.0448 9.26016 39.9582 9.18349 39.8448 9.13016C39.7382 9.07016 39.6015 9.04016 39.4348 9.04016C39.2948 9.04016 39.1715 9.07016 39.0648 9.13016C38.9515 9.18349 38.8615 9.25682 38.7948 9.35016C38.7215 9.44349 38.6715 9.54349 38.6448 9.65016L37.6548 9.48016C37.7015 9.24682 37.8015 9.03016 37.9548 8.83016C38.1148 8.63016 38.3182 8.46682 38.5648 8.34016C38.8115 8.22016 39.0948 8.16016 39.4148 8.16016C39.7815 8.16016 40.0948 8.22682 40.3548 8.36016C40.6148 8.48682 40.8148 8.66349 40.9548 8.89016C41.1015 9.11682 41.1748 9.38016 41.1748 9.68016C41.1748 9.98016 41.0915 10.2502 40.9248 10.4902C40.7582 10.7235 40.5315 10.9435 40.2448 11.1502L39.5748 11.6302C39.4415 11.7235 39.3248 11.8268 39.2248 11.9402C39.1248 12.0535 39.0515 12.1768 39.0048 12.3102H41.2348V13.1502H37.8448ZM44.5148 13.2302C44.1148 13.2302 43.7648 13.1235 43.4648 12.9102C43.1582 12.6902 42.9182 12.3902 42.7448 12.0102C42.5715 11.6302 42.4848 11.1935 42.4848 10.7002C42.4848 10.2068 42.5715 9.77016 42.7448 9.39016C42.9182 9.01016 43.1548 8.71016 43.4548 8.49016C43.7548 8.27682 44.1048 8.17016 44.5048 8.17016C44.8982 8.17016 45.2482 8.27682 45.5548 8.49016C45.8615 8.71016 46.1015 9.01016 46.2748 9.39016C46.4482 9.77016 46.5348 10.2068 46.5348 10.7002C46.5348 11.1935 46.4482 11.6302 46.2748 12.0102C46.1015 12.3902 45.8648 12.6902 45.5648 12.9102C45.2582 13.1235 44.9082 13.2302 44.5148 13.2302ZM44.5148 12.3702C44.7215 12.3702 44.9082 12.2968 45.0748 12.1502C45.2415 12.0102 45.3715 11.8135 45.4648 11.5602C45.5582 11.3135 45.6048 11.0268 45.6048 10.7002C45.6048 10.3735 45.5582 10.0835 45.4648 9.83016C45.3715 9.57682 45.2415 9.38016 45.0748 9.24016C44.9082 9.10016 44.7182 9.03016 44.5048 9.03016C44.2915 9.03016 44.1048 9.10016 43.9448 9.24016C43.7782 9.38016 43.6515 9.57682 43.5648 9.83016C43.4715 10.0835 43.4248 10.3735 43.4248 10.7002C43.4248 11.0268 43.4715 11.3135 43.5648 11.5602C43.6515 11.8135 43.7782 12.0102 43.9448 12.1502C44.1115 12.2968 44.3015 12.3702 44.5148 12.3702ZM47.8348 13.1502V12.4402C47.8348 12.3068 47.8782 12.1602 47.9648 12.0002C48.0448 11.8335 48.1615 11.6702 48.3148 11.5102C48.4615 11.3435 48.6348 11.1902 48.8348 11.0502L49.5748 10.5202C49.6815 10.4468 49.7815 10.3668 49.8748 10.2802C49.9615 10.1935 50.0348 10.0968 50.0948 9.99016C50.1548 9.88349 50.1848 9.78349 50.1848 9.69016C50.1848 9.56349 50.1548 9.45349 50.0948 9.36016C50.0348 9.26016 49.9482 9.18349 49.8348 9.13016C49.7282 9.07016 49.5915 9.04016 49.4248 9.04016C49.2848 9.04016 49.1615 9.07016 49.0548 9.13016C48.9415 9.18349 48.8515 9.25682 48.7848 9.35016C48.7115 9.44349 48.6615 9.54349 48.6348 9.65016L47.6448 9.48016C47.6915 9.24682 47.7915 9.03016 47.9448 8.83016C48.0982 8.63016 48.3015 8.46682 48.5548 8.34016C48.8015 8.22016 49.0848 8.16016 49.4048 8.16016C49.7715 8.16016 50.0848 8.22682 50.3448 8.36016C50.6048 8.48682 50.8048 8.66349 50.9448 8.89016C51.0915 9.11682 51.1648 9.38016 51.1648 9.68016C51.1648 9.98016 51.0815 10.2502 50.9148 10.4902C50.7482 10.7235 50.5215 10.9435 50.2348 11.1502L49.5648 11.6302C49.4315 11.7235 49.3148 11.8268 49.2148 11.9402C49.1148 12.0535 49.0415 12.1768 48.9948 12.3102H51.2248V13.1502H47.8348ZM54.2848 13.2302C54.0582 13.2302 53.8282 13.1935 53.5948 13.1202C53.3615 13.0468 53.1482 12.9368 52.9548 12.7902C52.7682 12.6368 52.6315 12.4502 52.5448 12.2302L53.4148 11.9702C53.5148 12.1235 53.6382 12.2335 53.7848 12.3002C53.9248 12.3735 54.0715 12.4102 54.2248 12.4102C54.4715 12.4102 54.6682 12.3368 54.8148 12.1902C54.9682 12.0435 55.0448 11.8468 55.0448 11.6002C55.0448 11.3668 54.9715 11.1735 54.8248 11.0202C54.6782 10.8668 54.4848 10.7902 54.2448 10.7902C54.0982 10.7902 53.9648 10.8235 53.8448 10.8902C53.7248 10.9568 53.6315 11.0335 53.5648 11.1202L52.7048 10.9302L52.9948 8.25016H55.7648V9.12016H53.8148L53.6748 10.2902C53.8015 10.2235 53.9415 10.1668 54.0948 10.1202C54.2482 10.0802 54.4148 10.0602 54.5948 10.0602C54.8615 10.0602 55.1015 10.1268 55.3148 10.2602C55.5348 10.3868 55.7115 10.5602 55.8448 10.7802C55.9715 11.0002 56.0348 11.2568 56.0348 11.5502C56.0348 11.8835 55.9582 12.1768 55.8048 12.4302C55.6582 12.6835 55.4548 12.8802 55.1948 13.0202C54.9348 13.1602 54.6315 13.2302 54.2848 13.2302Z" fill="black"/>
<path d="M24.0051 42.5301C23.4051 42.5301 22.8851 42.4168 22.4451 42.1901C22.0117 41.9635 21.6784 41.6435 21.4451 41.2301C21.2117 40.8101 21.0951 40.3135 21.0951 39.7401V35.4001H22.7051V39.7401C22.7051 40.0068 22.7584 40.2368 22.8651 40.4301C22.9717 40.6235 23.1217 40.7735 23.3151 40.8801C23.5151 40.9868 23.7517 41.0401 24.0251 41.0401C24.2917 41.0401 24.5251 40.9868 24.7251 40.8801C24.9251 40.7735 25.0784 40.6235 25.1851 40.4301C25.2917 40.2368 25.3451 40.0068 25.3451 39.7401V35.4001H26.9551V39.7401C26.9551 40.3135 26.8384 40.8101 26.6051 41.2301C26.3651 41.6435 26.0251 41.9635 25.5851 42.1901C25.1384 42.4168 24.6117 42.5301 24.0051 42.5301ZM29.9251 42.5201C29.5984 42.5201 29.2951 42.4735 29.0151 42.3801C28.7284 42.2801 28.4817 42.1435 28.2751 41.9701C28.0684 41.7901 27.9151 41.5735 27.8151 41.3201L29.0951 40.7801C29.1817 40.9535 29.3017 41.0835 29.4551 41.1701C29.6084 41.2501 29.7651 41.2901 29.9251 41.2901C30.0917 41.2901 30.2217 41.2635 30.3151 41.2101C30.4084 41.1501 30.4551 41.0701 30.4551 40.9701C30.4551 40.8635 30.4084 40.7801 30.3151 40.7201C30.2151 40.6601 30.0751 40.6068 29.8951 40.5601L29.4651 40.4501C28.9984 40.3301 28.6417 40.1335 28.3951 39.8601C28.1417 39.5801 28.0151 39.2568 28.0151 38.8901C28.0151 38.3768 28.1917 37.9801 28.5451 37.7001C28.8984 37.4201 29.3884 37.2801 30.0151 37.2801C30.3684 37.2801 30.6817 37.3268 30.9551 37.4201C31.2217 37.5135 31.4484 37.6468 31.6351 37.8201C31.8151 37.9868 31.9451 38.1835 32.0251 38.4101L30.7851 38.9201C30.7384 38.7868 30.6451 38.6835 30.5051 38.6101C30.3584 38.5435 30.1984 38.5101 30.0251 38.5101C29.8784 38.5101 29.7651 38.5435 29.6851 38.6101C29.6051 38.6701 29.5651 38.7535 29.5651 38.8601C29.5651 38.9401 29.6151 39.0101 29.7151 39.0701C29.8084 39.1235 29.9484 39.1735 30.1351 39.2201L30.6651 39.3501C30.9784 39.4301 31.2417 39.5535 31.4551 39.7201C31.6684 39.8801 31.8284 40.0701 31.9351 40.2901C32.0417 40.5035 32.0951 40.7335 32.0951 40.9801C32.0951 41.2935 32.0051 41.5668 31.8251 41.8001C31.6384 42.0268 31.3817 42.2035 31.0551 42.3301C30.7284 42.4568 30.3517 42.5201 29.9251 42.5201ZM35.2351 42.5201C34.7151 42.5201 34.2551 42.4101 33.8551 42.1901C33.4551 41.9635 33.1417 41.6535 32.9151 41.2601C32.6884 40.8668 32.5751 40.4135 32.5751 39.9001C32.5751 39.3801 32.6917 38.9235 32.9251 38.5301C33.1517 38.1368 33.4651 37.8301 33.8651 37.6101C34.2651 37.3901 34.7284 37.2801 35.2551 37.2801C35.7284 37.2801 36.1551 37.3935 36.5351 37.6201C36.9151 37.8468 37.2184 38.1835 37.4451 38.6301C37.6651 39.0768 37.7751 39.6335 37.7751 40.3001H34.0151L34.1851 40.1101C34.1851 40.3368 34.2317 40.5368 34.3251 40.7101C34.4184 40.8835 34.5484 41.0168 34.7151 41.1101C34.8817 41.1968 35.0684 41.2401 35.2751 41.2401C35.5217 41.2401 35.7317 41.1868 35.9051 41.0801C36.0717 40.9668 36.1884 40.8268 36.2551 40.6601L37.6351 41.1301C37.5017 41.4435 37.3117 41.7035 37.0651 41.9101C36.8251 42.1168 36.5484 42.2701 36.2351 42.3701C35.9217 42.4701 35.5884 42.5201 35.2351 42.5201ZM34.2251 39.4601L34.0651 39.2601H36.3051L36.1651 39.4601C36.1651 39.2135 36.1151 39.0168 36.0151 38.8701C35.9151 38.7235 35.7917 38.6201 35.6451 38.5601C35.4984 38.4935 35.3517 38.4601 35.2051 38.4601C35.0584 38.4601 34.9117 38.4935 34.7651 38.5601C34.6117 38.6201 34.4851 38.7235 34.3851 38.8701C34.2784 39.0168 34.2251 39.2135 34.2251 39.4601ZM39.5851 39.8101C39.5851 39.2701 39.6951 38.8201 39.9151 38.4601C40.1284 38.1001 40.4017 37.8301 40.7351 37.6501C41.0617 37.4701 41.4051 37.3801 41.7651 37.3801V38.9001C41.4584 38.9001 41.1717 38.9335 40.9051 39.0001C40.6317 39.0668 40.4117 39.1701 40.2451 39.3101C40.0784 39.4435 39.9951 39.6168 39.9951 39.8301L39.5851 39.8101ZM38.4351 42.4001V37.4001H39.9951V42.4001H38.4351ZM44.2951 42.5201C43.9684 42.5201 43.6651 42.4735 43.3851 42.3801C43.0984 42.2801 42.8517 42.1435 42.6451 41.9701C42.4384 41.7901 42.2851 41.5735 42.1851 41.3201L43.4651 40.7801C43.5517 40.9535 43.6717 41.0835 43.8251 41.1701C43.9784 41.2501 44.1351 41.2901 44.2951 41.2901C44.4617 41.2901 44.5917 41.2635 44.6851 41.2101C44.7784 41.1501 44.8251 41.0701 44.8251 40.9701C44.8251 40.8635 44.7784 40.7801 44.6851 40.7201C44.5851 40.6601 44.4451 40.6068 44.2651 40.5601L43.8351 40.4501C43.3684 40.3301 43.0084 40.1335 42.7551 39.8601C42.5084 39.5801 42.3851 39.2568 42.3851 38.8901C42.3851 38.3768 42.5617 37.9801 42.9151 37.7001C43.2684 37.4201 43.7584 37.2801 44.3851 37.2801C44.7384 37.2801 45.0517 37.3268 45.3251 37.4201C45.5917 37.5135 45.8184 37.6468 46.0051 37.8201C46.1851 37.9868 46.3151 38.1835 46.3951 38.4101L45.1551 38.9201C45.1084 38.7868 45.0117 38.6835 44.8651 38.6101C44.7251 38.5435 44.5684 38.5101 44.3951 38.5101C44.2484 38.5101 44.1351 38.5435 44.0551 38.6101C43.9751 38.6701 43.9351 38.7535 43.9351 38.8601C43.9351 38.9401 43.9817 39.0101 44.0751 39.0701C44.1751 39.1235 44.3184 39.1735 44.5051 39.2201L45.0351 39.3501C45.3484 39.4301 45.6117 39.5535 45.8251 39.7201C46.0384 39.8801 46.1984 40.0701 46.3051 40.2901C46.4117 40.5035 46.4651 40.7335 46.4651 40.9801C46.4651 41.2935 46.3717 41.5668 46.1851 41.8001C46.0051 42.0268 45.7517 42.2035 45.4251 42.3301C45.0984 42.4568 44.7217 42.5201 44.2951 42.5201ZM49.7151 42.4001V35.4001H51.4851L53.3451 38.1601L55.2151 35.4001H56.9851V42.4001H55.3751V37.9001L53.3551 40.8601L51.3251 37.9001V42.4001H49.7151ZM60.5951 42.5201C60.0684 42.5201 59.6051 42.4101 59.2051 42.1901C58.8051 41.9635 58.4917 41.6535 58.2651 41.2601C58.0317 40.8668 57.9151 40.4135 57.9151 39.9001C57.9151 39.3868 58.0284 38.9335 58.2551 38.5401C58.4751 38.1468 58.7884 37.8401 59.1951 37.6201C59.5951 37.3935 60.0517 37.2801 60.5651 37.2801C61.0917 37.2801 61.5584 37.3901 61.9651 37.6101C62.3651 37.8368 62.6784 38.1468 62.9051 38.5401C63.1251 38.9335 63.2351 39.3868 63.2351 39.9001C63.2351 40.4135 63.1251 40.8668 62.9051 41.2601C62.6784 41.6535 62.3651 41.9635 61.9651 42.1901C61.5651 42.4101 61.1084 42.5201 60.5951 42.5201ZM60.5951 41.0801C60.7951 41.0801 60.9751 41.0301 61.1351 40.9301C61.2884 40.8301 61.4117 40.6935 61.5051 40.5201C61.5917 40.3401 61.6351 40.1335 61.6351 39.9001C61.6351 39.6668 61.5917 39.4635 61.5051 39.2901C61.4117 39.1101 61.2851 38.9701 61.1251 38.8701C60.9651 38.7701 60.7817 38.7201 60.5751 38.7201C60.3684 38.7201 60.1851 38.7701 60.0251 38.8701C59.8651 38.9701 59.7417 39.1101 59.6551 39.2901C59.5617 39.4635 59.5151 39.6668 59.5151 39.9001C59.5151 40.1335 59.5617 40.3401 59.6551 40.5201C59.7417 40.6935 59.8684 40.8301 60.0351 40.9301C60.1951 41.0301 60.3817 41.0801 60.5951 41.0801ZM65.8751 42.5201C65.5484 42.5201 65.2417 42.4735 64.9551 42.3801C64.6751 42.2801 64.4317 42.1435 64.2251 41.9701C64.0184 41.7901 63.8651 41.5735 63.7651 41.3201L65.0451 40.7801C65.1317 40.9535 65.2517 41.0835 65.4051 41.1701C65.5584 41.2501 65.7151 41.2901 65.8751 41.2901C66.0418 41.2901 66.1717 41.2635 66.2651 41.2101C66.3584 41.1501 66.4051 41.0701 66.4051 40.9701C66.4051 40.8635 66.3584 40.7801 66.2651 40.7201C66.1651 40.6601 66.0251 40.6068 65.8451 40.5601L65.4151 40.4501C64.9484 40.3301 64.5917 40.1335 64.3451 39.8601C64.0917 39.5801 63.9651 39.2568 63.9651 38.8901C63.9651 38.3768 64.1417 37.9801 64.4951 37.7001C64.8484 37.4201 65.3384 37.2801 65.9651 37.2801C66.3184 37.2801 66.6317 37.3268 66.9051 37.4201C67.1717 37.5135 67.3951 37.6468 67.5751 37.8201C67.7617 37.9868 67.8951 38.1835 67.9751 38.4101L66.7351 38.9201C66.6884 38.7868 66.5951 38.6835 66.4551 38.6101C66.3084 38.5435 66.1484 38.5101 65.9751 38.5101C65.8284 38.5101 65.7151 38.5435 65.6351 38.6101C65.5551 38.6701 65.5151 38.7535 65.5151 38.8601C65.5151 38.9401 65.5617 39.0101 65.6551 39.0701C65.7551 39.1235 65.8984 39.1735 66.0851 39.2201L66.6151 39.3501C66.9284 39.4301 67.1917 39.5535 67.4051 39.7201C67.6184 39.8801 67.7784 40.0701 67.8851 40.2901C67.9917 40.5035 68.0451 40.7335 68.0451 40.9801C68.0451 41.2935 67.9517 41.5668 67.7651 41.8001C67.5851 42.0268 67.3317 42.2035 67.0051 42.3301C66.6784 42.4568 66.3018 42.5201 65.8751 42.5201ZM70.9351 42.5201C70.3417 42.5201 69.9017 42.3801 69.6151 42.1001C69.3217 41.8135 69.1751 41.4068 69.1751 40.8801V35.8401H70.7351V40.4901C70.7351 40.6901 70.7717 40.8368 70.8451 40.9301C70.9184 41.0235 71.0317 41.0701 71.1851 41.0701C71.2451 41.0701 71.3151 41.0568 71.3951 41.0301C71.4751 40.9968 71.5484 40.9568 71.6151 40.9101L72.1551 42.0501C71.9951 42.1835 71.8051 42.2968 71.5851 42.3901C71.3584 42.4768 71.1417 42.5201 70.9351 42.5201ZM68.3951 38.7101V37.4001H71.8751V38.7101H68.3951ZM26.5751 52.4001V45.4001H28.1851V50.9201H31.1651V52.4001H26.5751ZM31.9451 52.4001V47.4001H33.5051V52.4001H31.9451ZM32.7251 46.7601C32.4917 46.7601 32.2884 46.6735 32.1151 46.5001C31.9351 46.3201 31.8451 46.1135 31.8451 45.8801C31.8451 45.6335 31.9351 45.4268 32.1151 45.2601C32.2884 45.0868 32.4917 45.0001 32.7251 45.0001C32.9651 45.0001 33.1717 45.0868 33.3451 45.2601C33.5184 45.4268 33.6051 45.6335 33.6051 45.8801C33.6051 46.1135 33.5184 46.3201 33.3451 46.5001C33.1717 46.6735 32.9651 46.7601 32.7251 46.7601ZM36.0951 51.2901L35.1751 50.2101L37.6851 47.4001H39.5151L36.0951 51.2901ZM34.6151 52.4001V45.4001H36.1751V52.4001H34.6151ZM37.8351 52.4001L36.2851 50.1901L37.3051 49.1201L39.6451 52.4001H37.8351ZM42.3051 52.5201C41.7851 52.5201 41.3251 52.4101 40.9251 52.1901C40.5251 51.9635 40.2117 51.6535 39.9851 51.2601C39.7584 50.8668 39.6451 50.4135 39.6451 49.9001C39.6451 49.3801 39.7617 48.9235 39.9951 48.5301C40.2217 48.1368 40.5351 47.8301 40.9351 47.6101C41.3351 47.3901 41.7984 47.2801 42.3251 47.2801C42.7984 47.2801 43.2251 47.3935 43.6051 47.6201C43.9851 47.8468 44.2884 48.1835 44.5151 48.6301C44.7351 49.0768 44.8451 49.6335 44.8451 50.3001H41.0851L41.2551 50.1101C41.2551 50.3368 41.3017 50.5368 41.3951 50.7101C41.4884 50.8835 41.6184 51.0168 41.7851 51.1101C41.9517 51.1968 42.1384 51.2401 42.3451 51.2401C42.5917 51.2401 42.8017 51.1868 42.9751 51.0801C43.1417 50.9668 43.2584 50.8268 43.3251 50.6601L44.7051 51.1301C44.5717 51.4435 44.3851 51.7035 44.1451 51.9101C43.8984 52.1168 43.6184 52.2701 43.3051 52.3701C42.9917 52.4701 42.6584 52.5201 42.3051 52.5201ZM41.2951 49.4601L41.1351 49.2601H43.3751L43.2351 49.4601C43.2351 49.2135 43.1851 49.0168 43.0851 48.8701C42.9851 48.7235 42.8617 48.6201 42.7151 48.5601C42.5684 48.4935 42.4217 48.4601 42.2751 48.4601C42.1284 48.4601 41.9817 48.4935 41.8351 48.5601C41.6817 48.6201 41.5551 48.7235 41.4551 48.8701C41.3484 49.0168 41.2951 49.2135 41.2951 49.4601ZM45.5051 52.4001V45.4001H47.0651V52.4001H45.5051ZM49.3451 54.5201C49.1317 54.5201 48.9084 54.4801 48.6751 54.4001C48.4351 54.3201 48.2351 54.2335 48.0751 54.1401L48.6551 52.8701C48.7484 52.9368 48.8417 52.9868 48.9351 53.0201C49.0217 53.0535 49.1017 53.0701 49.1751 53.0701C49.3017 53.0701 49.4151 53.0401 49.5151 52.9801C49.6151 52.9135 49.6951 52.8101 49.7551 52.6701L50.3451 51.2801L51.8151 47.4001H53.5451L51.3351 52.7001C51.1884 53.0601 51.0351 53.3768 50.8751 53.6501C50.7151 53.9235 50.5184 54.1368 50.2851 54.2901C50.0451 54.4435 49.7317 54.5201 49.3451 54.5201ZM49.9351 52.4001L47.5951 47.4001H49.3251L50.8951 51.2801L51.4251 52.4001H49.9351ZM58.1051 52.4001V46.8801H56.0651V45.4001H61.7451V46.8801H59.7051V52.4001H58.1051ZM64.1451 52.5201C63.6184 52.5201 63.1551 52.4101 62.7551 52.1901C62.3551 51.9635 62.0417 51.6535 61.8151 51.2601C61.5817 50.8668 61.4651 50.4135 61.4651 49.9001C61.4651 49.3868 61.5784 48.9335 61.8051 48.5401C62.0251 48.1468 62.3384 47.8401 62.7451 47.6201C63.1451 47.3935 63.6017 47.2801 64.1151 47.2801C64.6417 47.2801 65.1084 47.3935 65.5151 47.6201C65.9151 47.8401 66.2284 48.1468 66.4551 48.5401C66.6751 48.9335 66.7851 49.3868 66.7851 49.9001C66.7851 50.4135 66.6751 50.8668 66.4551 51.2601C66.2284 51.6535 65.9151 51.9635 65.5151 52.1901C65.1151 52.4101 64.6584 52.5201 64.1451 52.5201ZM64.1451 51.0801C64.3451 51.0801 64.5251 51.0301 64.6851 50.9301C64.8384 50.8301 64.9584 50.6935 65.0451 50.5201C65.1384 50.3401 65.1851 50.1335 65.1851 49.9001C65.1851 49.6668 65.1384 49.4635 65.0451 49.2901C64.9584 49.1101 64.8351 48.9701 64.6751 48.8701C64.5151 48.7701 64.3318 48.7201 64.1251 48.7201C63.9184 48.7201 63.7351 48.7701 63.5751 48.8701C63.4151 48.9701 63.2917 49.1101 63.2051 49.2901C63.1117 49.4635 63.0651 49.6668 63.0651 49.9001C63.0651 50.1335 63.1117 50.3401 63.2051 50.5201C63.2917 50.6935 63.4184 50.8301 63.5851 50.9301C63.7451 51.0301 63.9317 51.0801 64.1451 51.0801ZM17.9551 62.4001V55.4001H20.7051C21.2051 55.4001 21.6551 55.5001 22.0551 55.7001C22.4417 55.8935 22.7484 56.1668 22.9751 56.5201C23.2017 56.8668 23.3151 57.2668 23.3151 57.7201C23.3151 58.1735 23.2017 58.5768 22.9751 58.9301C22.7484 59.2835 22.4351 59.5601 22.0351 59.7601C21.6417 59.9535 21.1884 60.0501 20.6751 60.0501H19.5651V62.4001H17.9551ZM21.7551 62.4001L20.1651 59.6201L21.3851 58.7301L23.5951 62.4001H21.7551ZM19.5651 58.5701H20.6551C20.8417 58.5701 21.0084 58.5335 21.1551 58.4601C21.2951 58.3868 21.4084 58.2868 21.4951 58.1601C21.5817 58.0268 21.6251 57.8801 21.6251 57.7201C21.6251 57.4735 21.5317 57.2701 21.3451 57.1101C21.1651 56.9501 20.9217 56.8701 20.6151 56.8701H19.5651V58.5701ZM26.7251 62.5201C26.2051 62.5201 25.7451 62.4101 25.3451 62.1901C24.9451 61.9635 24.6317 61.6535 24.4051 61.2601C24.1784 60.8668 24.0651 60.4135 24.0651 59.9001C24.0651 59.3801 24.1784 58.9235 24.4051 58.5301C24.6317 58.1368 24.9484 57.8301 25.3551 57.6101C25.7551 57.3901 26.2184 57.2801 26.7451 57.2801C27.2184 57.2801 27.6451 57.3935 28.0251 57.6201C28.4051 57.8468 28.7051 58.1835 28.9251 58.6301C29.1517 59.0768 29.2651 59.6335 29.2651 60.3001H25.5051L25.6751 60.1101C25.6751 60.3368 25.7217 60.5368 25.8151 60.7101C25.9084 60.8835 26.0384 61.0168 26.2051 61.1101C26.3717 61.1968 26.5584 61.2401 26.7651 61.2401C27.0117 61.2401 27.2184 61.1868 27.3851 61.0801C27.5517 60.9668 27.6717 60.8268 27.7451 60.6601L29.1251 61.1301C28.9917 61.4435 28.8017 61.7035 28.5551 61.9101C28.3151 62.1168 28.0384 62.2701 27.7251 62.3701C27.4117 62.4701 27.0784 62.5201 26.7251 62.5201ZM25.7051 59.4601L25.5451 59.2601H27.7951L27.6551 59.4601C27.6551 59.2135 27.6017 59.0168 27.4951 58.8701C27.4017 58.7235 27.2817 58.6201 27.1351 58.5601C26.9884 58.4935 26.8417 58.4601 26.6951 58.4601C26.5484 58.4601 26.3984 58.4935 26.2451 58.5601C26.0984 58.6201 25.9717 58.7235 25.8651 58.8701C25.7584 59.0168 25.7051 59.2135 25.7051 59.4601ZM32.4151 62.5201C31.8817 62.5201 31.4051 62.4101 30.9851 62.1901C30.5717 61.9635 30.2484 61.6535 30.0151 61.2601C29.7817 60.8601 29.6651 60.4068 29.6651 59.9001C29.6651 59.3868 29.7817 58.9335 30.0151 58.5401C30.2484 58.1468 30.5684 57.8401 30.9751 57.6201C31.3884 57.3935 31.8584 57.2801 32.3851 57.2801C32.9051 57.2801 33.3784 57.4101 33.8051 57.6701C34.2317 57.9301 34.5384 58.3068 34.7251 58.8001L33.2451 59.3001C33.1717 59.1401 33.0484 59.0101 32.8751 58.9101C32.7084 58.8035 32.5217 58.7501 32.3151 58.7501C32.1017 58.7501 31.9184 58.8001 31.7651 58.9001C31.6117 58.9935 31.4884 59.1268 31.3951 59.3001C31.3084 59.4735 31.2651 59.6735 31.2651 59.9001C31.2651 60.1268 31.3084 60.3268 31.3951 60.5001C31.4884 60.6668 31.6151 60.8001 31.7751 60.9001C31.9417 61.0001 32.1284 61.0501 32.3351 61.0501C32.5351 61.0501 32.7184 60.9968 32.8851 60.8901C33.0517 60.7835 33.1784 60.6435 33.2651 60.4701L34.7451 60.9701C34.5517 61.4701 34.2417 61.8535 33.8151 62.1201C33.3951 62.3868 32.9284 62.5201 32.4151 62.5201ZM37.8251 62.5201C37.2984 62.5201 36.8351 62.4101 36.4351 62.1901C36.0351 61.9635 35.7184 61.6535 35.4851 61.2601C35.2584 60.8668 35.1451 60.4135 35.1451 59.9001C35.1451 59.3868 35.2551 58.9335 35.4751 58.5401C35.7017 58.1468 36.0151 57.8401 36.4151 57.6201C36.8217 57.3935 37.2817 57.2801 37.7951 57.2801C38.3217 57.2801 38.7851 57.3935 39.1851 57.6201C39.5917 57.8401 39.9051 58.1468 40.1251 58.5401C40.3517 58.9335 40.4651 59.3868 40.4651 59.9001C40.4651 60.4135 40.3517 60.8668 40.1251 61.2601C39.9051 61.6535 39.5951 61.9635 39.1951 62.1901C38.7951 62.4101 38.3384 62.5201 37.8251 62.5201ZM37.8251 61.0801C38.0251 61.0801 38.2017 61.0301 38.3551 60.9301C38.5151 60.8301 38.6384 60.6935 38.7251 60.5201C38.8184 60.3401 38.8651 60.1335 38.8651 59.9001C38.8651 59.6668 38.8184 59.4635 38.7251 59.2901C38.6384 59.1101 38.5151 58.9701 38.3551 58.8701C38.1951 58.7701 38.0117 58.7201 37.8051 58.7201C37.5984 58.7201 37.4151 58.7701 37.2551 58.8701C37.0951 58.9701 36.9684 59.1101 36.8751 59.2901C36.7884 59.4635 36.7451 59.6668 36.7451 59.9001C36.7451 60.1335 36.7884 60.3401 36.8751 60.5201C36.9684 60.6935 37.0951 60.8301 37.2551 60.9301C37.4217 61.0301 37.6117 61.0801 37.8251 61.0801ZM41.2251 62.4001V57.4001H42.6851L42.7551 58.0301C42.9151 57.7835 43.1117 57.5968 43.3451 57.4701C43.5851 57.3435 43.8484 57.2801 44.1351 57.2801C44.5484 57.2801 44.8884 57.3668 45.1551 57.5401C45.4284 57.7068 45.6284 57.9635 45.7551 58.3101C45.9084 57.9768 46.1184 57.7235 46.3851 57.5501C46.6517 57.3701 46.9517 57.2801 47.2851 57.2801C47.8851 57.2801 48.3351 57.4635 48.6351 57.8301C48.9417 58.1968 49.0884 58.7668 49.0751 59.5401V62.4001H47.5251V59.8401C47.5251 59.5735 47.4951 59.3635 47.4351 59.2101C47.3817 59.0501 47.2984 58.9335 47.1851 58.8601C47.0851 58.7868 46.9617 58.7468 46.8151 58.7401C46.5284 58.7335 46.3084 58.8168 46.1551 58.9901C46.0084 59.1568 45.9351 59.4135 45.9351 59.7601V62.4001H44.3751L44.3651 59.8401C44.3651 59.5735 44.3384 59.3635 44.2851 59.2101C44.2317 59.0501 44.1517 58.9335 44.0451 58.8601C43.9384 58.7868 43.8117 58.7468 43.6651 58.7401C43.3784 58.7335 43.1584 58.8168 43.0051 58.9901C42.8584 59.1568 42.7851 59.4135 42.7851 59.7601V62.4001H41.2251ZM50.0351 62.4001V57.4001H51.5051L51.5651 58.0301C51.7251 57.7835 51.9217 57.5968 52.1551 57.4701C52.3951 57.3435 52.6584 57.2801 52.9451 57.2801C53.3584 57.2801 53.6984 57.3668 53.9651 57.5401C54.2384 57.7068 54.4384 57.9635 54.5651 58.3101C54.7184 57.9768 54.9284 57.7235 55.1951 57.5501C55.4617 57.3701 55.7617 57.2801 56.0951 57.2801C56.6951 57.2801 57.1451 57.4635 57.4451 57.8301C57.7517 58.1968 57.9017 58.7668 57.8951 59.5401V62.4001H56.3351V59.8401C56.3351 59.5735 56.3051 59.3635 56.2451 59.2101C56.1917 59.0501 56.1117 58.9335 56.0051 58.8601C55.8984 58.7868 55.7717 58.7468 55.6251 58.7401C55.3384 58.7335 55.1184 58.8168 54.9651 58.9901C54.8184 59.1568 54.7451 59.4135 54.7451 59.7601V62.4001H53.1851V59.8401C53.1851 59.5735 53.1551 59.3635 53.0951 59.2101C53.0417 59.0501 52.9617 58.9335 52.8551 58.8601C52.7484 58.7868 52.6217 58.7468 52.4751 58.7401C52.1884 58.7335 51.9684 58.8168 51.8151 58.9901C51.6684 59.1568 51.5951 59.4135 51.5951 59.7601V62.4001H50.0351ZM61.2451 62.5201C60.7251 62.5201 60.2651 62.4101 59.8651 62.1901C59.4651 61.9635 59.1517 61.6535 58.9251 61.2601C58.6984 60.8668 58.5851 60.4135 58.5851 59.9001C58.5851 59.3801 58.6984 58.9235 58.9251 58.5301C59.1584 58.1368 59.4751 57.8301 59.8751 57.6101C60.2751 57.3901 60.7384 57.2801 61.2651 57.2801C61.7384 57.2801 62.1651 57.3935 62.5451 57.6201C62.9251 57.8468 63.2251 58.1835 63.4451 58.6301C63.6717 59.0768 63.7851 59.6335 63.7851 60.3001H60.0251L60.1951 60.1101C60.1951 60.3368 60.2417 60.5368 60.3351 60.7101C60.4284 60.8835 60.5584 61.0168 60.7251 61.1101C60.8917 61.1968 61.0784 61.2401 61.2851 61.2401C61.5317 61.2401 61.7384 61.1868 61.9051 61.0801C62.0784 60.9668 62.1984 60.8268 62.2651 60.6601L63.6451 61.1301C63.5117 61.4435 63.3217 61.7035 63.0751 61.9101C62.8351 62.1168 62.5584 62.2701 62.2451 62.3701C61.9317 62.4701 61.5984 62.5201 61.2451 62.5201ZM60.2351 59.4601L60.0751 59.2601H62.3151L62.1751 59.4601C62.1751 59.2135 62.1251 59.0168 62.0251 58.8701C61.9251 58.7235 61.8017 58.6201 61.6551 58.5601C61.5084 58.4935 61.3617 58.4601 61.2151 58.4601C61.0684 58.4601 60.9184 58.4935 60.7651 58.5601C60.6184 58.6201 60.4917 58.7235 60.3851 58.8701C60.2851 59.0168 60.2351 59.2135 60.2351 59.4601ZM64.4351 62.4001V57.4001H65.9051L66.0051 58.3201V62.4001H64.4351ZM67.6551 62.4001V59.8401H69.2251V62.4001H67.6551ZM67.6551 59.8401C67.6551 59.5735 67.6251 59.3635 67.5651 59.2101C67.5117 59.0501 67.4284 58.9335 67.3151 58.8601C67.2084 58.7868 67.0717 58.7468 66.9051 58.7401C66.6051 58.7335 66.3817 58.8168 66.2351 58.9901C66.0817 59.1568 66.0051 59.4135 66.0051 59.7601H65.5351C65.5351 59.2335 65.6117 58.7868 65.7651 58.4201C65.9317 58.0468 66.1517 57.7635 66.4251 57.5701C66.7051 57.3768 67.0284 57.2801 67.3951 57.2801C67.7884 57.2801 68.1251 57.3635 68.4051 57.5301C68.6784 57.6901 68.8817 57.9368 69.0151 58.2701C69.1551 58.6035 69.2251 59.0301 69.2251 59.5501V59.8401H67.6551ZM73.6551 62.4001L73.5951 61.4701L73.5851 55.4001H75.1451V62.4001H73.6551ZM72.1751 62.5201C71.7084 62.5201 71.3051 62.4168 70.9651 62.2101C70.6251 61.9968 70.3651 61.6935 70.1851 61.3001C69.9984 60.9068 69.9051 60.4401 69.9051 59.9001C69.9051 59.3535 69.9984 58.8868 70.1851 58.5001C70.3651 58.1068 70.6251 57.8068 70.9651 57.6001C71.3051 57.3868 71.7084 57.2801 72.1751 57.2801C72.5817 57.2801 72.9284 57.3868 73.2151 57.6001C73.5017 57.8068 73.7117 58.1068 73.8451 58.5001C73.9917 58.8868 74.0651 59.3535 74.0651 59.9001C74.0651 60.4401 73.9917 60.9068 73.8451 61.3001C73.7117 61.6935 73.5017 61.9968 73.2151 62.2101C72.9284 62.4168 72.5817 62.5201 72.1751 62.5201ZM72.5751 61.0801C72.7684 61.0801 72.9417 61.0301 73.0951 60.9301C73.2484 60.8301 73.3684 60.6935 73.4551 60.5201C73.5484 60.3401 73.5951 60.1335 73.5951 59.9001C73.5951 59.6668 73.5484 59.4635 73.4551 59.2901C73.3684 59.1101 73.2484 58.9701 73.0951 58.8701C72.9417 58.7701 72.7651 58.7201 72.5651 58.7201C72.3651 58.7201 72.1884 58.7701 72.0351 58.8701C71.8884 58.9701 71.7684 59.1101 71.6751 59.2901C71.5817 59.4635 71.5351 59.6668 71.5351 59.9001C71.5351 60.1335 71.5817 60.3401 71.6751 60.5201C71.7684 60.6935 71.8917 60.8301 72.0451 60.9301C72.2051 61.0301 72.3817 61.0801 72.5751 61.0801Z" fill="black"/>
<path d="M26.7852 72.2802V68.4302H27.6052L28.7252 70.0902L29.8452 68.4302H30.6652V72.2802H29.9152V69.6002L28.7252 71.3502L27.5352 69.6102V72.2802H26.7852ZM32.0452 72.2802V68.4302H32.8052V72.2802H32.0452ZM34.1852 72.2802V68.4302H35.4152C35.8085 68.4302 36.1585 68.5102 36.4652 68.6702C36.7652 68.8368 37.0018 69.0635 37.1752 69.3502C37.3418 69.6368 37.4252 69.9702 37.4252 70.3502C37.4252 70.7235 37.3418 71.0568 37.1752 71.3502C37.0018 71.6368 36.7652 71.8635 36.4652 72.0302C36.1585 72.1968 35.8085 72.2802 35.4152 72.2802H34.1852ZM34.9352 71.5702H35.4152C35.5952 71.5702 35.7585 71.5402 35.9052 71.4802C36.0585 71.4135 36.1918 71.3268 36.3052 71.2202C36.4118 71.1068 36.4985 70.9768 36.5652 70.8302C36.6252 70.6835 36.6552 70.5235 36.6552 70.3502C36.6552 70.1768 36.6252 70.0168 36.5652 69.8702C36.4985 69.7235 36.4118 69.5935 36.3052 69.4802C36.1918 69.3735 36.0585 69.2868 35.9052 69.2202C35.7585 69.1602 35.5952 69.1302 35.4152 69.1302H34.9352V71.5702ZM38.4652 70.9502V70.3302H40.1152V70.9502H38.4652ZM41.3852 72.2802V68.4302H42.1952L43.3252 70.0902L44.4452 68.4302H45.2552V72.2802H44.5052V69.6002L43.3252 71.3502L42.1352 69.6102V72.2802H41.3852ZM49.3152 72.2802L47.8352 68.4302H48.5952L50.1052 72.2802H49.3152ZM46.2652 72.2802L47.7852 68.4302H48.5452L47.0652 72.2802H46.2652ZM46.9852 71.4302V70.7602H49.3952V71.4302H46.9852ZM51.1252 72.2802V68.4302H52.5552C52.8218 68.4302 53.0618 68.4802 53.2752 68.5802C53.4818 68.6868 53.6452 68.8335 53.7652 69.0202C53.8785 69.2068 53.9352 69.4235 53.9352 69.6702C53.9352 69.9102 53.8752 70.1235 53.7552 70.3102C53.6285 70.5035 53.4585 70.6502 53.2452 70.7502C53.0385 70.8568 52.7985 70.9102 52.5252 70.9102H51.8752V72.2802H51.1252ZM53.2352 72.2802L52.3452 70.7302L52.9252 70.3202L54.0952 72.2802H53.2352ZM51.8752 70.2202H52.5552C52.6685 70.2202 52.7718 70.1968 52.8652 70.1502C52.9518 70.1035 53.0218 70.0368 53.0752 69.9502C53.1285 69.8702 53.1552 69.7768 53.1552 69.6702C53.1552 69.5035 53.0952 69.3702 52.9752 69.2702C52.8552 69.1635 52.7018 69.1102 52.5152 69.1102H51.8752V70.2202ZM55.6652 71.3002L55.5852 70.3602L57.3852 68.4302H58.3552L55.6652 71.3002ZM55.2152 72.2802V68.4302H55.9652V72.2802H55.2152ZM57.4852 72.2802L55.9552 70.3202L56.4952 69.8702L58.4152 72.2802H57.4852ZM59.4352 72.2802V68.4302H61.8652V69.1102H60.1852V69.9902H61.6352V70.6602H60.1852V71.5902H61.8852V72.2802H59.4352ZM64.0352 72.2802V69.1102H62.8752V68.4302H65.9352V69.1102H64.7852V72.2802H64.0352Z" fill="black"/>
<path d="M71 0.443115H92V21.4431H71V0.443115Z" fill="#FF492C"/>
<mask id="mask0_6383_96459" style="mask-type:luminance" maskUnits="userSpaceOnUse" x="71" y="0" width="21" height="22">
<path d="M71 0.443115H92V21.4431H71V0.443115Z" fill="white"/>
</mask>
<g mask="url(#mask0_6383_96459)">
<path fill-rule="evenodd" clip-rule="evenodd" d="M86.0495 8.48508H84.2555C84.3045 8.20408 84.4775 8.04708 84.8295 7.86908L85.1605 7.70108C85.7515 7.39808 86.0665 7.05708 86.0665 6.50108C86.0725 6.34016 86.0385 6.18024 85.9675 6.03572C85.8964 5.89119 85.7906 5.76658 85.6595 5.67308C85.3935 5.47308 85.0685 5.37508 84.6945 5.37508C84.4047 5.37201 84.1202 5.45294 83.8755 5.60808C83.6406 5.74697 83.452 5.95225 83.3335 6.19808L83.8535 6.71708C84.0545 6.31108 84.3475 6.11108 84.7325 6.11108C85.0575 6.11108 85.2585 6.27908 85.2585 6.51108C85.2585 6.70608 85.1605 6.86808 84.7865 7.05708L84.5755 7.16008C84.1145 7.39308 83.7945 7.65809 83.6105 7.96009C83.4255 8.25809 83.3335 8.64208 83.3335 9.10208V9.22608H86.0495V8.48609V8.48508ZM85.8045 10.0851H82.8385L81.3555 12.6551H84.3215L85.8045 15.2251L87.2885 12.6551L85.8045 10.0851Z" fill="white"/>
<path fill-rule="evenodd" clip-rule="evenodd" d="M81.6075 14.3722C80.6984 14.3714 79.8267 14.0101 79.1837 13.3674C78.5407 12.7248 78.1788 11.8533 78.1775 10.9442C78.1791 10.0353 78.541 9.16407 79.184 8.52164C79.827 7.87921 80.6985 7.51799 81.6075 7.5172L82.7815 5.0612C81.9111 4.88723 81.0129 4.90854 80.1518 5.12359C79.2906 5.33863 78.4879 5.74207 77.8015 6.3048C77.1151 6.86753 76.5621 7.57555 76.1823 8.37781C75.8026 9.18008 75.6056 10.0566 75.6055 10.9442C75.6056 11.7322 75.761 12.5125 76.0627 13.2405C76.3644 13.9684 76.8065 14.6298 77.3639 15.1869C77.9212 15.744 78.5829 16.1858 79.311 16.4871C80.0391 16.7885 80.8195 16.9435 81.6075 16.9432C82.8781 16.9453 84.1163 16.5425 85.1425 15.7932L83.8425 13.5412C83.2214 14.0776 82.4281 14.3726 81.6075 14.3722Z" fill="white"/>
<path d="M71.4883 1.11011V20.9781" stroke="black" stroke-width="1.085"/>
</g>
<path d="M0 83.9631V77.4631L46 100.505L92 77.4631V83.9631L46 106.443L0 83.9631Z" fill="#5746B2"/>
<path d="M0 78.0093V71.5093L46 94.5513L92 71.5093V78.0093L46 100.489L0 78.0093Z" fill="white"/>
<path d="M0 72.0742V65.5742L46 88.6172L92 65.5742V72.0742L46 94.5542L0 72.0742Z" fill="white"/>
<path d="M91.575 20.9783H0.624969M91.457 83.4403L46 105.838L0.542969 83.4403V0.986328H91.457V83.4403Z" stroke="black" stroke-width="1.085"/>
</g>
<defs>
<clipPath id="clip0_6383_96459">
<rect width="92" height="106" fill="white" transform="translate(0 0.443115)"/>
</clipPath>
</defs>
</svg>
