<svg width="62" height="51" viewBox="0 0 62 51" fill="none" xmlns="http://www.w3.org/2000/svg">
<g clip-path="url(#clip0_5812_1175)">
<g clip-path="url(#clip1_5812_1175)">
<path d="M28.394 50C42.1977 50 53.3877 38.8071 53.3877 25C53.3877 11.1929 42.1977 0 28.394 0C14.5904 0 3.40039 11.1929 3.40039 25C3.40039 38.8071 14.5904 50 28.394 50Z" fill="#0B3D91"/>
<path d="M26.9183 5.08221C27.0731 5.08221 27.1985 4.95672 27.1985 4.80194C27.1985 4.64715 27.0731 4.52167 26.9183 4.52167C26.7636 4.52167 26.6381 4.64715 26.6381 4.80194C26.6381 4.95672 26.7636 5.08221 26.9183 5.08221Z" fill="white"/>
<path d="M29.795 5.45586C29.9498 5.45586 30.0752 5.33038 30.0752 5.17559C30.0752 5.02081 29.9498 4.89532 29.795 4.89532C29.6403 4.89532 29.5148 5.02081 29.5148 5.17559C29.5148 5.33038 29.6403 5.45586 29.795 5.45586Z" fill="white"/>
<path d="M33.5683 10.5381C33.7231 10.5381 33.8485 10.4126 33.8485 10.2578C33.8485 10.103 33.7231 9.97754 33.5683 9.97754C33.4136 9.97754 33.2881 10.103 33.2881 10.2578C33.2881 10.4126 33.4136 10.5381 33.5683 10.5381Z" fill="white"/>
<path d="M12.871 36.6965C13.0258 36.6965 13.1512 36.571 13.1512 36.4163C13.1512 36.2615 13.0258 36.136 12.871 36.136C12.7163 36.136 12.5908 36.2615 12.5908 36.4163C12.5908 36.571 12.7163 36.6965 12.871 36.6965Z" fill="white"/>
<path d="M13.5995 38.9387C13.7543 38.9387 13.8797 38.8132 13.8797 38.6584C13.8797 38.5037 13.7543 38.3782 13.5995 38.3782C13.4448 38.3782 13.3193 38.5037 13.3193 38.6584C13.3193 38.8132 13.4448 38.9387 13.5995 38.9387Z" fill="white"/>
<path d="M10.1251 36.9625C10.241 36.9625 10.335 36.8685 10.335 36.7526C10.335 36.6367 10.241 36.5427 10.1251 36.5427C10.0092 36.5427 9.91528 36.6367 9.91528 36.7526C9.91528 36.8685 10.0092 36.9625 10.1251 36.9625Z" fill="white"/>
<path d="M21.5198 41.3677C21.6361 41.3677 21.7303 41.2734 21.7303 41.1572C21.7303 41.0409 21.6361 40.9467 21.5198 40.9467C21.4036 40.9467 21.3094 41.0409 21.3094 41.1572C21.3094 41.2734 21.4036 41.3677 21.5198 41.3677Z" fill="white"/>
<path d="M39.3915 37.6538C39.5074 37.6538 39.6013 37.5598 39.6013 37.4439C39.6013 37.328 39.5074 37.234 39.3915 37.234C39.2756 37.234 39.1816 37.328 39.1816 37.4439C39.1816 37.5598 39.2756 37.6538 39.3915 37.6538Z" fill="white"/>
<path d="M44.5851 32.0117C44.7013 32.0117 44.7956 31.9174 44.7956 31.8011C44.7956 31.6849 44.7013 31.5906 44.5851 31.5906C44.4689 31.5906 44.3746 31.6849 44.3746 31.8011C44.3746 31.9174 44.4689 32.0117 44.5851 32.0117Z" fill="white"/>
<path d="M19.1288 12.107C19.2447 12.107 19.3386 12.013 19.3386 11.8971C19.3386 11.7812 19.2447 11.6872 19.1288 11.6872C19.0129 11.6872 18.9189 11.7812 18.9189 11.8971C18.9189 12.013 19.0129 12.107 19.1288 12.107Z" fill="white"/>
<path d="M24.8448 7.90794C24.9607 7.90794 25.0547 7.81397 25.0547 7.69805C25.0547 7.58213 24.9607 7.48816 24.8448 7.48816C24.729 7.48816 24.635 7.58213 24.635 7.69805C24.635 7.81397 24.729 7.90794 24.8448 7.90794Z" fill="white"/>
<path d="M24.2241 7.49687C24.3399 7.49687 24.4339 7.4029 24.4339 7.28698C24.4339 7.17106 24.3399 7.07709 24.2241 7.07709C24.1082 7.07709 24.0142 7.17106 24.0142 7.28698C24.0142 7.4029 24.1082 7.49687 24.2241 7.49687Z" fill="white"/>
<path d="M23.6636 7.0858C23.7795 7.0858 23.8735 6.99183 23.8735 6.87591C23.8735 6.75999 23.7795 6.66602 23.6636 6.66602C23.5477 6.66602 23.4538 6.75999 23.4538 6.87591C23.4538 6.99183 23.5477 7.0858 23.6636 7.0858Z" fill="white"/>
<path d="M20.0255 13.1913C20.1413 13.1913 20.2353 13.0974 20.2353 12.9814C20.2353 12.8655 20.1413 12.7715 20.0255 12.7715C19.9096 12.7715 19.8156 12.8655 19.8156 12.9814C19.8156 13.0974 19.9096 13.1913 20.0255 13.1913Z" fill="white"/>
<path d="M28.4451 2.26518C28.561 2.26518 28.6549 2.17121 28.6549 2.05529C28.6549 1.93937 28.561 1.8454 28.4451 1.8454C28.3292 1.8454 28.2352 1.93937 28.2352 2.05529C28.2352 2.17121 28.3292 2.26518 28.4451 2.26518Z" fill="white"/>
<path d="M29.828 8.31901C29.9439 8.31901 30.0378 8.22504 30.0378 8.10912C30.0378 7.9932 29.9439 7.89923 29.828 7.89923C29.7121 7.89923 29.6182 7.9932 29.6182 8.10912C29.6182 8.22504 29.7121 8.31901 29.828 8.31901Z" fill="white"/>
<path d="M27.6468 7.13688C27.7627 7.13688 27.8567 7.04291 27.8567 6.92699C27.8567 6.81107 27.7627 6.7171 27.6468 6.7171C27.531 6.7171 27.437 6.81107 27.437 6.92699C27.437 7.04291 27.531 7.13688 27.6468 7.13688Z" fill="white"/>
<path d="M23.9108 8.74437C24.0267 8.74437 24.1207 8.65039 24.1207 8.53448C24.1207 8.41856 24.0267 8.32458 23.9108 8.32458C23.7949 8.32458 23.701 8.41856 23.701 8.53448C23.701 8.65039 23.7949 8.74437 23.9108 8.74437Z" fill="white"/>
<path d="M40.3865 43.1988C40.5024 43.1988 40.5963 43.1048 40.5963 42.9889C40.5963 42.873 40.5024 42.779 40.3865 42.779C40.2706 42.779 40.1766 42.873 40.1766 42.9889C40.1766 43.1048 40.2706 43.1988 40.3865 43.1988Z" fill="white"/>
<path d="M12.5161 38.0468C12.6324 38.0468 12.7266 37.9526 12.7266 37.8363C12.7266 37.72 12.6324 37.6258 12.5161 37.6258C12.3999 37.6258 12.3057 37.72 12.3057 37.8363C12.3057 37.9526 12.3999 38.0468 12.5161 38.0468Z" fill="white"/>
<path d="M27.1238 40.7561C27.24 40.7561 27.3342 40.6619 27.3342 40.5456C27.3342 40.4293 27.24 40.3351 27.1238 40.3351C27.0076 40.3351 26.9133 40.4293 26.9133 40.5456C26.9133 40.6619 27.0076 40.7561 27.1238 40.7561Z" fill="white"/>
<path d="M16.8635 37.8787C16.9798 37.8787 17.074 37.7844 17.074 37.6682C17.074 37.5519 16.9798 37.4576 16.8635 37.4576C16.7473 37.4576 16.6531 37.5519 16.6531 37.6682C16.6531 37.7844 16.7473 37.8787 16.8635 37.8787Z" fill="white"/>
<path d="M18.6805 40.8452C18.7967 40.8452 18.891 40.7509 18.891 40.6346C18.891 40.5184 18.7967 40.4241 18.6805 40.4241C18.5643 40.4241 18.47 40.5184 18.47 40.6346C18.47 40.7509 18.5643 40.8452 18.6805 40.8452Z" fill="white"/>
<path d="M32.0552 38.9761C32.1711 38.9761 32.2651 38.8821 32.2651 38.7662C32.2651 38.6502 32.1711 38.5563 32.0552 38.5563C31.9393 38.5563 31.8454 38.6502 31.8454 38.7662C31.8454 38.8821 31.9393 38.9761 32.0552 38.9761Z" fill="white"/>
<path d="M39.4288 34.8138C39.5447 34.8138 39.6387 34.7198 39.6387 34.6039C39.6387 34.488 39.5447 34.394 39.4288 34.394C39.3129 34.394 39.219 34.488 39.219 34.6039C39.219 34.7198 39.3129 34.8138 39.4288 34.8138Z" fill="white"/>
<path d="M45.0191 37.3686C45.135 37.3686 45.2289 37.2746 45.2289 37.1587C45.2289 37.0428 45.135 36.9488 45.0191 36.9488C44.9032 36.9488 44.8093 37.0428 44.8093 37.1587C44.8093 37.2746 44.9032 37.3686 45.0191 37.3686Z" fill="white"/>
<path d="M46.9244 38.5881C47.0403 38.5881 47.1343 38.4941 47.1343 38.3782C47.1343 38.2622 47.0403 38.1683 46.9244 38.1683C46.8085 38.1683 46.7146 38.2622 46.7146 38.3782C46.7146 38.4941 46.8085 38.5881 46.9244 38.5881Z" fill="white"/>
<path d="M47.2377 35.2622C47.3536 35.2622 47.4475 35.1682 47.4475 35.0523C47.4475 34.9364 47.3536 34.8424 47.2377 34.8424C47.1218 34.8424 47.0278 34.9364 47.0278 35.0523C47.0278 35.1682 47.1218 35.2622 47.2377 35.2622Z" fill="white"/>
<path d="M19.4414 30.5537C19.5573 30.5537 19.6512 30.4597 19.6512 30.3438C19.6512 30.2279 19.5573 30.1339 19.4414 30.1339C19.3255 30.1339 19.2316 30.2279 19.2316 30.3438C19.2316 30.4597 19.3255 30.5537 19.4414 30.5537Z" fill="white"/>
<path d="M19.5211 35.4447C19.6759 35.4447 19.8013 35.3192 19.8013 35.1644C19.8013 35.0096 19.6759 34.8842 19.5211 34.8842C19.3664 34.8842 19.2409 35.0096 19.2409 35.1644C19.2409 35.3192 19.3664 35.4447 19.5211 35.4447Z" fill="white"/>
<path d="M21.2023 38.9947C21.357 38.9947 21.4825 38.8693 21.4825 38.7145C21.4825 38.5597 21.357 38.4342 21.2023 38.4342C21.0475 38.4342 20.9221 38.5597 20.9221 38.7145C20.9221 38.8693 21.0475 38.9947 21.2023 38.9947Z" fill="white"/>
<path d="M41.3392 35.2952C41.4939 35.2952 41.6194 35.1697 41.6194 35.0149C41.6194 34.8602 41.4939 34.7347 41.3392 34.7347C41.1844 34.7347 41.059 34.8602 41.059 35.0149C41.059 35.1697 41.1844 35.2952 41.3392 35.2952Z" fill="white"/>
<path d="M48.587 34.8841C48.7417 34.8841 48.8672 34.7587 48.8672 34.6039C48.8672 34.4491 48.7417 34.3236 48.587 34.3236C48.4322 34.3236 48.3068 34.4491 48.3068 34.6039C48.3068 34.7587 48.4322 34.8841 48.587 34.8841Z" fill="white"/>
<path d="M45.0004 33.352C45.1552 33.352 45.2806 33.2265 45.2806 33.0717C45.2806 32.9169 45.1552 32.7914 45.0004 32.7914C44.8457 32.7914 44.7202 32.9169 44.7202 33.0717C44.7202 33.2265 44.8457 33.352 45.0004 33.352Z" fill="white"/>
<path d="M41.3392 33.5015C41.4939 33.5015 41.6194 33.376 41.6194 33.2212C41.6194 33.0664 41.4939 32.9409 41.3392 32.9409C41.1844 32.9409 41.059 33.0664 41.059 33.2212C41.059 33.376 41.1844 33.5015 41.3392 33.5015Z" fill="white"/>
<path d="M33.7869 4.62626L34.4837 4.55962L33.7882 4.52038C33.7664 4.38585 33.6586 4.2806 33.5229 4.26316L33.4563 3.56934L33.4164 4.26876C33.2907 4.29679 33.1941 4.40205 33.1786 4.53284L32.4662 4.59761L33.1836 4.63623C33.2097 4.75643 33.3068 4.85048 33.4289 4.8729L33.4936 5.5879L33.5316 4.87414C33.6605 4.85235 33.7626 4.75332 33.7869 4.62626Z" fill="white"/>
<path d="M22.0273 12.3854L22.724 12.3187L22.0285 12.2795C22.0073 12.1449 21.899 12.0397 21.7633 12.0223L21.6966 11.3284L21.6574 12.0279C21.531 12.0559 21.4345 12.1611 21.4189 12.2919L20.7066 12.3567L21.4239 12.3953C21.4501 12.5155 21.5472 12.6096 21.6692 12.632L21.734 13.347L21.7726 12.6332C21.9015 12.6121 22.0036 12.5124 22.0273 12.3854Z" fill="white"/>
<path d="M48.0764 32.8998L48.7731 32.8332L48.0776 32.7939C48.0565 32.6594 47.9481 32.5542 47.8124 32.5367L47.7458 31.8429L47.7065 32.5423C47.5808 32.5704 47.4842 32.6756 47.4687 32.8064L46.7563 32.8712L47.4737 32.9098C47.4998 33.03 47.5969 33.124 47.719 33.1465L47.7837 33.8615L47.8223 33.1477C47.95 33.1265 48.0521 33.0275 48.0764 32.8998Z" fill="white"/>
<path d="M19.6736 43.626L20.3704 43.5594L19.6749 43.5202C19.6531 43.3856 19.5454 43.2804 19.4096 43.2629L19.343 42.5697L19.3038 43.2685C19.1774 43.2966 19.0809 43.4018 19.0653 43.5326L18.353 43.5974L19.0703 43.636C19.0964 43.7562 19.1936 43.8509 19.3156 43.8727L19.3804 44.5877L19.419 43.8739C19.5472 43.8527 19.65 43.7531 19.6736 43.626Z" fill="white"/>
<path d="M45.8628 38.3943L46.5595 38.3277L45.864 38.2884C45.8428 38.1539 45.7345 38.0487 45.5988 38.0312L45.5321 37.3374L45.4929 38.0362C45.3671 38.0642 45.2706 38.1695 45.255 38.3003L44.5427 38.3651L45.26 38.4037C45.2862 38.5239 45.3833 38.6179 45.5054 38.6403L45.5701 39.3553L45.6087 38.6416C45.7364 38.621 45.8391 38.5214 45.8628 38.3943Z" fill="white"/>
<path d="M34.3211 19.0116C31.4152 20.1414 28.5808 21.1497 26.1892 21.8983C21.3293 23.4205 8.03234 27.5411 0 32.7354L0.672475 32.997C5.5666 30.2317 8.74778 29.3628 11.8057 28.4006C15.1307 27.3542 25.8797 24.8381 30.7471 23.4678C32.3915 23.0051 34.3174 22.3991 36.3572 21.6617C35.8828 20.9996 35.3821 20.3357 34.8554 19.673C34.6792 19.4494 34.5005 19.2289 34.3211 19.0116ZM37.8716 23.9063C37.1679 24.3815 36.5783 24.7608 36.1655 25C33.7744 26.3826 22.1176 34.3423 19.4657 36.1734C16.8137 38.0045 9.45326 44.9551 7.28639 46.9731L7.21167 47.7946C14.1979 41.5166 16.3897 39.9682 19.1668 37.855C22.6039 35.2392 29.7141 30.3998 32.1306 28.849C34.4407 27.3667 36.5241 26.0034 38.394 24.7558C38.3635 24.7048 38.3329 24.6537 38.3024 24.602C38.1617 24.3709 38.0179 24.1393 37.8716 23.9063ZM48.7924 12.3692C45.389 14.3647 40.0247 16.7732 34.8205 18.8166C34.945 18.9692 35.0689 19.1231 35.1922 19.2781C35.7738 20.0106 36.3224 20.748 36.8386 21.486C40.9294 19.9788 45.4182 17.9559 48.9798 15.5076C47.2831 17.1157 41.6735 21.3092 38.2532 23.6466C38.4295 23.9337 38.6001 24.2208 38.7651 24.5067C43.9469 21.0382 47.4338 18.4853 49.4655 16.7781C52.2675 14.4239 58.656 9.15482 61.0844 2.09204C56.8248 7.5112 51.7887 10.6122 48.7924 12.3692Z" fill="#FC3D21"/>
<path d="M25.178 31.1902C24.6269 30.4964 23.8648 29.5672 23.2926 28.8465C22.5273 27.883 21.8193 26.9096 21.1705 25.9374C20.9588 25.9903 20.7477 26.0432 20.5367 26.0962C21.32 27.3188 22.1898 28.5395 23.1375 29.7328C23.8299 30.6048 24.4594 31.3067 24.782 31.7433C24.8474 31.8317 24.9769 32.0273 25.1518 32.2876C25.3536 32.1506 25.5572 32.0123 25.7627 31.8728C25.564 31.6567 25.3679 31.4294 25.178 31.1902ZM29.2004 34.8424C28.7477 34.4139 27.65 33.6983 26.5074 32.6246C26.2552 32.7977 26.0005 32.9734 25.7452 33.1502C26.4831 34.1903 27.4881 35.4678 28.2751 35.8402C29.4607 36.402 29.7801 35.3918 29.2004 34.8424ZM35.1923 19.2782C28.6593 11.0532 20.6786 6.53464 17.2378 9.26944C14.5653 11.3933 15.6625 17.6003 19.3461 24.1206C19.5367 24.0552 19.7253 23.991 19.9121 23.9275C16.1942 17.5747 15.1768 11.671 17.6973 9.66743C20.8648 7.14999 28.513 11.686 34.8566 19.6724C36.1698 21.3254 37.3243 22.9846 38.3018 24.602C42.0453 30.7991 43.1941 36.4032 40.6076 38.6908C39.8162 39.3909 37.3977 39.6656 34.2296 38.2393C34.1854 38.2947 34.2564 38.4448 34.3118 38.4816C37.0465 39.5815 39.6661 40.0006 40.9886 38.9499C44.1667 36.4238 41.7252 27.5031 35.1923 19.2782Z" fill="white"/>
<path d="M7.17371 20.2541H11.358L14.8698 26.2145C14.8698 26.2145 14.8698 21.8983 14.8698 21.562C14.8698 21.0388 14.2067 20.3569 13.9732 20.2541C14.2534 20.2541 16.7004 20.2541 16.8686 20.2541C16.6911 20.3008 16.1214 20.9921 16.1214 21.562C16.1214 21.8423 16.1214 28.1016 16.1214 28.4006C16.1214 28.821 16.7285 29.4002 17.018 29.6244H12.9831L9.41529 23.636C9.41529 23.636 9.41529 28.1016 9.41529 28.3445C9.41529 28.8116 9.87295 29.2601 10.3493 29.6431H7.26711C7.70608 29.4563 8.12638 28.8677 8.16374 28.4006C8.2011 27.9335 8.16374 21.9077 8.16374 21.6461C8.16374 21.0762 7.61268 20.6091 7.17371 20.2541Z" fill="white"/>
<path d="M45.4487 29.6244H51.0153C50.7071 29.5497 50.3615 29.1853 50.1747 28.6995C49.9879 28.2137 47.0365 20.2541 47.0365 20.2541H44.9201C44.3198 20.6863 43.6766 21.1422 42.9898 21.6224C42.988 21.6399 42.9861 21.6573 42.983 21.6741C42.8908 22.2347 41.2345 28.2349 41.1337 28.5314C40.9936 28.9424 40.2744 29.4002 39.9849 29.6431H42.983C42.6841 29.3068 42.4413 28.9798 42.4973 28.6061C42.5533 28.2324 42.7215 27.485 42.7215 27.485H45.8223C45.9624 27.8587 46.067 28.1944 46.1212 28.5127C46.1866 28.8957 45.7943 29.3255 45.4487 29.6244ZM43.0017 26.2892L44.0477 22.8699L45.43 26.2892H43.0017ZM42.5303 20.5954C42.6841 20.482 42.8385 20.3681 42.9923 20.2541H42.1797C42.2607 20.3288 42.3946 20.4465 42.5303 20.5954Z" fill="white"/>
<path d="M21.2396 28.6061C21.2957 28.2324 21.4638 27.485 21.4638 27.485H24.5646C24.7047 27.8587 24.8093 28.1944 24.8635 28.5127C24.9289 28.8957 24.5366 29.3255 24.191 29.6244H29.092C29.1941 29.5559 29.2956 29.4874 29.3971 29.4195C29.2072 29.2513 29.0322 28.9991 28.917 28.6995C28.7302 28.2137 25.7788 20.2541 25.7788 20.2541H20.9221C21.1556 20.469 21.828 21.0482 21.7253 21.6741C21.6338 22.2347 19.9769 28.2349 19.876 28.5314C19.7359 28.9424 19.0167 29.4002 18.7272 29.6431H21.7253C21.4264 29.3068 21.1836 28.9798 21.2396 28.6061ZM22.79 22.8699L24.1724 26.2892H21.744L22.79 22.8699Z" fill="white"/>
<path d="M38.1692 24.9053C37.2551 25.5144 36.2906 26.1503 35.2745 26.8143C35.7302 27.0354 36.0933 27.3131 36.1281 27.6719C36.1929 28.3458 34.8392 28.6715 33.6157 28.5314C33.371 28.5033 33.1306 28.4392 32.9015 28.3532C32.6474 28.5171 32.3909 28.6821 32.1306 28.849C31.866 29.019 31.5447 29.2283 31.178 29.47V30.4372C31.4208 29.9607 31.9519 29.5341 32.3641 29.5123C32.5416 29.503 33.158 30.0729 35.6985 29.9327C36.9314 29.8648 39.313 28.5501 39.2757 27.0366C39.2533 26.1422 38.7863 25.4447 38.1692 24.9053ZM31.1773 27.2421V28.2274C31.4021 28.0773 31.6238 27.9297 31.8411 27.7859C31.4993 27.5479 31.257 27.3256 31.1773 27.2421ZM37.3006 24.2869C37.064 24.1467 36.8243 24.024 36.5945 23.9157C35.399 23.3551 34.1474 23.2524 33.8859 22.4956C33.7016 21.9619 34.2222 21.468 35.4924 21.4867C36.7626 21.5053 37.9395 22.2621 38.257 22.533V20.1227C38.1636 20.2161 37.7539 20.6863 37.3791 20.6085C36.6599 20.459 35.4364 20.2641 34.0354 20.2722C32.4289 20.2815 31.0466 21.5234 30.9999 23.0935C30.9345 25.289 32.6904 25.8869 33.6804 26.2325C33.7826 26.268 33.899 26.306 34.0254 26.3465C34.975 25.7287 35.7259 25.2529 36.1655 24.9994C36.4606 24.8293 36.8473 24.5852 37.3006 24.2869Z" fill="white"/>
</g>
</g>
<defs>
<clipPath id="clip0_5812_1175">
<rect width="61.08" height="50.0656" fill="white"/>
</clipPath>
<clipPath id="clip1_5812_1175">
<rect width="61.0844" height="50" fill="white"/>
</clipPath>
</defs>
</svg>
