<svg width="93" height="107" viewBox="0 0 93 107" fill="none" xmlns="http://www.w3.org/2000/svg">
<g clip-path="url(#clip0_6109_27169)">
<mask id="mask0_6109_27169" style="mask-type:luminance" maskUnits="userSpaceOnUse" x="0" y="0" width="93" height="107">
<path d="M93 0H0V107H93V0Z" fill="white"/>
</mask>
<g mask="url(#mask0_6109_27169)">
<path d="M-0.0410156 84.1198L46.4588 107L92.9586 84.1198V0H-0.0410156V84.1198Z" fill="white"/>
<path d="M-0.0410156 84.1198L46.4588 107L92.9586 84.1198V0H-0.0410156V84.1198Z" fill="white"/>
<path d="M71.7305 0H92.9586V21.1979H71.7305V0Z" fill="#FF492C"/>
<path fill-rule="evenodd" clip-rule="evenodd" d="M86.9448 8.11771H85.1308C85.1802 7.83386 85.3555 7.67548 85.7118 7.49529L86.0461 7.32601C86.6434 7.02036 86.9612 6.67644 86.9612 6.11399C86.9612 5.75907 86.8243 5.48057 86.5502 5.27868C86.2817 5.07659 85.9529 4.97827 85.5747 4.97827C85.2734 4.97827 84.9993 5.05479 84.7472 5.21307C84.5006 5.36599 84.3143 5.56253 84.1992 5.80823L84.7254 6.33243C84.9281 5.923 85.224 5.72091 85.6131 5.72091C85.942 5.72091 86.1447 5.89019 86.1447 6.12489C86.1447 6.32152 86.0461 6.48525 85.6679 6.67644L85.4542 6.78011C84.9884 7.01491 84.665 7.2824 84.4786 7.58816C84.2924 7.88847 84.1992 8.27599 84.1992 8.74023V8.8658H86.9448V8.11771Z" fill="white"/>
<path fill-rule="evenodd" clip-rule="evenodd" d="M86.6974 9.73254H83.6985L82.1992 12.3264H85.1981L86.6974 14.9203L88.1968 12.3264L86.6974 9.73254Z" fill="white"/>
<path fill-rule="evenodd" clip-rule="evenodd" d="M82.4542 14.0599C80.5423 14.0599 78.987 12.5079 78.987 10.6001C78.987 8.69227 80.5423 7.14036 82.4542 7.14036L83.6411 4.66149C83.2573 4.58548 82.8605 4.54541 82.4542 4.54541C79.1032 4.54541 76.3867 7.25625 76.3867 10.6001C76.3867 13.9439 79.1032 16.6548 82.4542 16.6548C83.7902 16.6548 85.0252 16.2237 86.0275 15.4935L84.7131 13.2216C84.1058 13.7434 83.3165 14.0599 82.4542 14.0599Z" fill="white"/>
<path fill-rule="evenodd" clip-rule="evenodd" d="M71.6777 20.7278V0.673584H72.7743V20.7279L71.6777 20.7278Z" fill="black"/>
<path d="M-0.0410156 84.3074L-0.0408135 77.7461L46.4589 101.006L92.9586 77.7461L92.9584 84.3074L46.4587 107L-0.0410156 84.3074Z" fill="black"/>
<path d="M-0.0410156 78.2972L-0.0408135 71.7358L46.4589 94.9955L92.9586 71.7358L92.9584 78.2972L46.4587 100.99L-0.0410156 78.2972Z" fill="#FF0000"/>
<path d="M-0.0410156 72.3066L-0.0408135 65.7452L46.4589 89.005L92.9586 65.7452L92.9584 72.3066L46.4587 94.9988L-0.0410156 72.3066Z" fill="#FF5900"/>
<path fill-rule="evenodd" clip-rule="evenodd" d="M46.4587 105.779L91.8619 83.4386V1.09503H1.05557V83.4386L46.4587 105.779ZM-0.0410156 84.1198L46.4588 107L92.9586 84.1198V0H-0.0410156V84.1198Z" fill="black"/>
<path fill-rule="evenodd" clip-rule="evenodd" d="M0.589844 20.1798H92.5299V21.2748H0.589844V20.1798Z" fill="black"/>
</g>
<path d="M64.1066 72.1775C63.9028 72.1775 63.7124 72.1525 63.5354 72.1025C63.3585 72.0525 63.2007 71.9832 63.0623 71.8948C62.9238 71.8024 62.8084 71.7005 62.7161 71.5889C62.6276 71.4774 62.5699 71.3601 62.543 71.237L63.3161 71.0062C63.3662 71.137 63.4546 71.2504 63.5816 71.3466C63.7085 71.4389 63.8681 71.487 64.0605 71.4909C64.2644 71.4947 64.4298 71.4505 64.5567 71.3581C64.6875 71.2658 64.7529 71.1466 64.7529 71.0004C64.7529 70.8735 64.7009 70.7677 64.5971 70.6831C64.4971 70.5946 64.3586 70.5273 64.1816 70.4811L63.6566 70.3426C63.4604 70.2926 63.2873 70.2176 63.1373 70.1176C62.9873 70.0137 62.8699 69.8868 62.7853 69.7368C62.7007 69.5867 62.6584 69.4117 62.6584 69.2117C62.6584 68.8309 62.7834 68.5347 63.0334 68.3231C63.2873 68.1077 63.645 68 64.1066 68C64.3644 68 64.5894 68.0385 64.7817 68.1154C64.9779 68.1885 65.1414 68.2943 65.2722 68.4327C65.403 68.5712 65.503 68.7347 65.5722 68.9232L64.8048 69.1598C64.7586 69.029 64.674 68.9174 64.5509 68.8251C64.4278 68.7328 64.272 68.6866 64.0836 68.6866C63.8912 68.6866 63.7393 68.7309 63.6277 68.8193C63.52 68.9078 63.4662 69.0328 63.4662 69.1944C63.4662 69.3213 63.5085 69.4213 63.5931 69.4944C63.6816 69.5675 63.8008 69.6233 63.9508 69.6618L64.4817 69.7945C64.8279 69.8791 65.0972 70.031 65.2895 70.2503C65.4818 70.4696 65.578 70.7138 65.578 70.9831C65.578 71.2216 65.5203 71.4312 65.4049 71.612C65.2895 71.789 65.1222 71.9274 64.9029 72.0275C64.6836 72.1275 64.4182 72.1775 64.1066 72.1775Z" fill="black"/>
<path d="M60.2219 72.1775C60.018 72.1775 59.8276 72.1525 59.6506 72.1025C59.4737 72.0525 59.316 71.9832 59.1775 71.8948C59.039 71.8024 58.9236 71.7005 58.8313 71.5889C58.7428 71.4774 58.6851 71.3601 58.6582 71.237L59.4314 71.0062C59.4814 71.137 59.5699 71.2504 59.6968 71.3466C59.8237 71.4389 59.9834 71.487 60.1757 71.4909C60.3796 71.4947 60.545 71.4505 60.6719 71.3581C60.8027 71.2658 60.8681 71.1466 60.8681 71.0004C60.8681 70.8735 60.8162 70.7677 60.7123 70.6831C60.6123 70.5946 60.4738 70.5273 60.2969 70.4811L59.7718 70.3426C59.5756 70.2926 59.4025 70.2176 59.2525 70.1176C59.1025 70.0137 58.9852 69.8868 58.9005 69.7368C58.8159 69.5867 58.7736 69.4117 58.7736 69.2117C58.7736 68.8309 58.8986 68.5347 59.1487 68.3231C59.4025 68.1077 59.7603 68 60.2219 68C60.4796 68 60.7046 68.0385 60.897 68.1154C61.0931 68.1885 61.2566 68.2943 61.3874 68.4327C61.5182 68.5712 61.6182 68.7347 61.6875 68.9232L60.92 69.1598C60.8739 69.029 60.7893 68.9174 60.6662 68.8251C60.5431 68.7328 60.3873 68.6866 60.1988 68.6866C60.0065 68.6866 59.8545 68.7309 59.743 68.8193C59.6353 68.9078 59.5814 69.0328 59.5814 69.1944C59.5814 69.3213 59.6237 69.4213 59.7083 69.4944C59.7968 69.5675 59.9161 69.6233 60.0661 69.6618L60.5969 69.7945C60.9431 69.8791 61.2124 70.031 61.4047 70.2503C61.5971 70.4696 61.6932 70.7138 61.6932 70.9831C61.6932 71.2216 61.6355 71.4312 61.5201 71.612C61.4047 71.789 61.2374 71.9274 61.0181 72.0275C60.7989 72.1275 60.5335 72.1775 60.2219 72.1775Z" fill="black"/>
<path d="M55.0879 72.1083V68.0693H57.644V68.7906H55.8784V69.708H57.4017V70.412H55.8784V71.3871H57.6671V72.1083H55.0879Z" fill="black"/>
<path d="M50.9883 72.1083V68.0693H52.4885C52.7731 68.0693 53.0251 68.1251 53.2444 68.2367C53.4636 68.3482 53.6348 68.5021 53.7579 68.6983C53.881 68.8906 53.9425 69.1156 53.9425 69.3734C53.9425 69.6272 53.8771 69.8542 53.7463 70.0542C53.6194 70.2504 53.4444 70.4043 53.2213 70.5158C52.9982 70.6235 52.7443 70.6774 52.4596 70.6774H51.7788V72.1083H50.9883ZM53.2097 72.1083L52.275 70.487L52.8808 70.0542L54.1041 72.1083H53.2097ZM51.7788 69.9561H52.4943C52.6135 69.9561 52.7193 69.9311 52.8116 69.8811C52.9078 69.8311 52.9828 69.7619 53.0366 69.6734C53.0943 69.5849 53.1232 69.4849 53.1232 69.3734C53.1232 69.2003 53.0597 69.0599 52.9328 68.9521C52.8097 68.8444 52.65 68.7906 52.4539 68.7906H51.7788V69.9561Z" fill="black"/>
<path d="M47.1309 72.1083V68.0693H48.6311C48.9157 68.0693 49.1677 68.127 49.3869 68.2424C49.6062 68.354 49.7774 68.5117 49.9005 68.7156C50.0236 68.9156 50.0851 69.1483 50.0851 69.4137C50.0851 69.6753 50.0255 69.908 49.9062 70.1119C49.787 70.3158 49.6235 70.4773 49.4158 70.5966C49.2081 70.712 48.9676 70.7697 48.6945 70.7697H47.9213V72.1083H47.1309ZM47.9213 70.0427H48.6772C48.8542 70.0427 48.9984 69.985 49.11 69.8696C49.2254 69.7503 49.2831 69.5984 49.2831 69.4137C49.2831 69.2291 49.2196 69.0791 49.0927 68.9637C48.9696 68.8483 48.8099 68.7906 48.6137 68.7906H47.9213V70.0427Z" fill="black"/>
<path d="M42.709 72.1083V68.0693H44.0015C44.4131 68.0693 44.7766 68.1559 45.092 68.329C45.4113 68.5021 45.6594 68.7406 45.8363 69.0445C46.0171 69.3445 46.1075 69.6926 46.1075 70.0888C46.1075 70.4812 46.0171 70.8293 45.8363 71.1332C45.6594 71.4371 45.4113 71.6756 45.092 71.8487C44.7766 72.0218 44.4131 72.1083 44.0015 72.1083H42.709ZM43.4995 71.3698H44.0015C44.1861 71.3698 44.3573 71.3371 44.515 71.2717C44.6727 71.2063 44.8093 71.1159 44.9247 71.0005C45.0439 70.8851 45.1362 70.7505 45.2016 70.5966C45.267 70.4389 45.2997 70.2696 45.2997 70.0888C45.2997 69.908 45.267 69.7407 45.2016 69.5868C45.1362 69.4291 45.0439 69.2926 44.9247 69.1772C44.8093 69.0618 44.6727 68.9714 44.515 68.906C44.3573 68.8406 44.1861 68.8079 44.0015 68.8079H43.4995V71.3698Z" fill="black"/>
<path d="M38.6094 72.1083V68.0693H40.1096C40.3942 68.0693 40.6462 68.1251 40.8654 68.2367C41.0847 68.3482 41.2559 68.5021 41.379 68.6983C41.5021 68.8906 41.5636 69.1156 41.5636 69.3734C41.5636 69.6272 41.4982 69.8542 41.3674 70.0542C41.2405 70.2504 41.0655 70.4043 40.8424 70.5158C40.6193 70.6235 40.3654 70.6774 40.0807 70.6774H39.3999V72.1083H38.6094ZM40.8308 72.1083L39.8961 70.487L40.5019 70.0542L41.7252 72.1083H40.8308ZM39.3999 69.9561H40.1153C40.2346 69.9561 40.3404 69.9311 40.4327 69.8811C40.5289 69.8311 40.6039 69.7619 40.6577 69.6734C40.7154 69.5849 40.7443 69.4849 40.7443 69.3734C40.7443 69.2003 40.6808 69.0599 40.5539 68.9521C40.4308 68.8444 40.2711 68.7906 40.075 68.7906H39.3999V69.9561Z" fill="black"/>
<path d="M35.5341 72.1776C35.1264 72.1776 34.7648 72.0891 34.4494 71.9121C34.1378 71.7314 33.8935 71.4852 33.7166 71.1736C33.5396 70.8582 33.4512 70.4985 33.4512 70.0946C33.4512 69.683 33.5396 69.3214 33.7166 69.0098C33.8935 68.6944 34.1359 68.4482 34.4436 68.2713C34.7552 68.0943 35.1129 68.0059 35.5168 68.0059C35.9246 68.0059 36.2823 68.0963 36.5901 68.2771C36.9016 68.454 37.1459 68.7002 37.3228 69.0156C37.4998 69.3272 37.5883 69.6869 37.5883 70.0946C37.5883 70.4985 37.4998 70.8582 37.3228 71.1736C37.1497 71.4852 36.9074 71.7314 36.5958 71.9121C36.2881 72.0891 35.9342 72.1776 35.5341 72.1776ZM35.5341 71.4563C35.7803 71.4563 35.9957 71.3986 36.1804 71.2832C36.3689 71.164 36.515 71.0024 36.6189 70.7985C36.7266 70.5947 36.7805 70.36 36.7805 70.0946C36.7805 69.8253 36.7266 69.5888 36.6189 69.3849C36.5112 69.181 36.3631 69.0214 36.1746 68.906C35.9861 68.7867 35.7669 68.7271 35.5168 68.7271C35.2745 68.7271 35.0572 68.7867 34.8648 68.906C34.6763 69.0214 34.5282 69.181 34.4205 69.3849C34.3128 69.5888 34.259 69.8253 34.259 70.0946C34.259 70.36 34.3128 70.5947 34.4205 70.7985C34.5282 71.0024 34.6783 71.164 34.8706 71.2832C35.0629 71.3986 35.2841 71.4563 35.5341 71.4563Z" fill="black"/>
<path d="M30.8578 72.1083L32.0176 68.0693H32.8196L31.6137 72.1083H30.8578ZM28.4229 72.1083L27.2285 68.0693H28.0305L29.1788 72.1083H28.4229ZM28.5268 72.1083L29.6288 68.0693H30.3443L29.248 72.1083H28.5268ZM30.7828 72.1083L29.6981 68.0693H30.4136L31.5387 72.1083H30.7828Z" fill="black"/>
<path d="M64.6191 65.1083V61.0693H66.1193C66.404 61.0693 66.656 61.1251 66.8752 61.2367C67.0945 61.3482 67.2656 61.5021 67.3887 61.6983C67.5118 61.8906 67.5734 62.1156 67.5734 62.3734C67.5734 62.6272 67.508 62.8542 67.3772 63.0542C67.2503 63.2504 67.0752 63.4043 66.8521 63.5158C66.629 63.6235 66.3751 63.6774 66.0905 63.6774H65.4096V65.1083H64.6191ZM66.8406 65.1083L65.9059 63.487L66.5117 63.0542L67.7349 65.1083H66.8406ZM65.4096 62.9561H66.1251C66.2444 62.9561 66.3501 62.9311 66.4425 62.8811C66.5386 62.8311 66.6136 62.7619 66.6675 62.6734C66.7252 62.5849 66.754 62.4849 66.754 62.3734C66.754 62.2003 66.6906 62.0599 66.5636 61.9521C66.4405 61.8444 66.2809 61.7906 66.0847 61.7906H65.4096V62.9561Z" fill="black"/>
<path d="M61.5439 65.1776C61.1362 65.1776 60.7746 65.0891 60.4591 64.9121C60.1476 64.7314 59.9033 64.4852 59.7264 64.1736C59.5494 63.8582 59.4609 63.4985 59.4609 63.0946C59.4609 62.683 59.5494 62.3214 59.7264 62.0098C59.9033 61.6944 60.1456 61.4482 60.4534 61.2713C60.765 61.0943 61.1227 61.0059 61.5266 61.0059C61.9343 61.0059 62.2921 61.0963 62.5998 61.277C62.9114 61.454 63.1557 61.7002 63.3326 62.0156C63.5096 62.3272 63.598 62.6869 63.598 63.0946C63.598 63.4985 63.5096 63.8582 63.3326 64.1736C63.1595 64.4852 62.9172 64.7314 62.6056 64.9121C62.2979 65.0891 61.944 65.1776 61.5439 65.1776ZM61.5439 64.4563C61.7901 64.4563 62.0055 64.3986 62.1901 64.2832C62.3786 64.164 62.5248 64.0024 62.6287 63.7985C62.7364 63.5947 62.7902 63.36 62.7902 63.0946C62.7902 62.8253 62.7364 62.5888 62.6287 62.3849C62.521 62.181 62.3729 62.0214 62.1844 61.906C61.9959 61.7867 61.7766 61.7271 61.5266 61.7271C61.2843 61.7271 61.0669 61.7867 60.8746 61.906C60.6861 62.0214 60.538 62.181 60.4303 62.3849C60.3226 62.5888 60.2687 62.8253 60.2687 63.0946C60.2687 63.36 60.3226 63.5947 60.4303 63.7985C60.538 64.0024 60.688 64.164 60.8804 64.2832C61.0727 64.3986 61.2939 64.4563 61.5439 64.4563Z" fill="black"/>
<path d="M56.1211 65.1083V61.0693H58.7118V61.7906H56.9116V62.7599H58.4118V63.4812H56.9116V65.1083H56.1211Z" fill="black"/>
<path d="M51.5728 65.1775C51.1612 65.1775 50.7957 65.089 50.4765 64.9121C50.161 64.7313 49.9129 64.4851 49.7321 64.1735C49.5513 63.8581 49.4609 63.4965 49.4609 63.0887C49.4609 62.681 49.5513 62.3213 49.7321 62.0098C49.9129 61.6943 50.161 61.4481 50.4765 61.2712C50.7957 61.0904 51.1612 61 51.5728 61C51.8189 61 52.0459 61.0365 52.2536 61.1096C52.4613 61.1827 52.6441 61.2847 52.8018 61.4154C52.9633 61.5424 53.098 61.6886 53.2057 61.854L52.5594 62.2579C52.494 62.154 52.4075 62.0617 52.2998 61.9809C52.1959 61.9001 52.0805 61.8366 51.9536 61.7905C51.8266 61.7443 51.6997 61.7212 51.5728 61.7212C51.3189 61.7212 51.0938 61.7809 50.8977 61.9001C50.7015 62.0155 50.5476 62.1752 50.4361 62.379C50.3245 62.5829 50.2687 62.8195 50.2687 63.0887C50.2687 63.3542 50.3226 63.5907 50.4303 63.7984C50.5419 64.0062 50.6976 64.1697 50.8977 64.2889C51.0977 64.4043 51.3285 64.462 51.5901 64.462C51.7939 64.462 51.9747 64.4216 52.1324 64.3408C52.294 64.2601 52.4209 64.1466 52.5133 64.0004C52.6056 63.8542 52.6517 63.685 52.6517 63.4926L53.4018 63.3772C53.4018 63.7581 53.323 64.0831 53.1653 64.3524C53.0114 64.6216 52.796 64.8274 52.519 64.9698C52.2459 65.1082 51.9305 65.1775 51.5728 65.1775ZM51.7055 63.5619V62.9445H53.4018V63.4349L52.9749 63.5619H51.7055Z" fill="black"/>
<path d="M44.8535 65.1083V61.0693H45.6786L47.652 63.7812V61.0693H48.4367V65.1083H47.652L45.644 62.3445V65.1083H44.8535Z" fill="black"/>
<path d="M42.8047 65.1083V61.0693H43.5952V65.1083H42.8047Z" fill="black"/>
<path d="M39.909 65.1083V61.7906H38.6973V61.0693H41.9054V61.7906H40.6995V65.1083H39.909Z" fill="black"/>
<path d="M36.5246 65.1775C36.3207 65.1775 36.1303 65.1525 35.9534 65.1025C35.7764 65.0525 35.6187 64.9832 35.4802 64.8948C35.3418 64.8024 35.2264 64.7005 35.134 64.5889C35.0456 64.4774 34.9879 64.3601 34.9609 64.237L35.7341 64.0062C35.7841 64.137 35.8726 64.2504 35.9995 64.3466C36.1265 64.4389 36.2861 64.487 36.4784 64.4908C36.6823 64.4947 36.8477 64.4505 36.9747 64.3581C37.1055 64.2658 37.1708 64.1466 37.1708 64.0004C37.1708 63.8735 37.1189 63.7677 37.0151 63.6831C36.915 63.5946 36.7766 63.5273 36.5996 63.4811L36.0745 63.3426C35.8784 63.2926 35.7053 63.2176 35.5552 63.1176C35.4052 63.0137 35.2879 62.8868 35.2033 62.7368C35.1187 62.5868 35.0763 62.4117 35.0763 62.2117C35.0763 61.8309 35.2014 61.5347 35.4514 61.3231C35.7053 61.1077 36.063 61 36.5246 61C36.7823 61 37.0074 61.0385 37.1997 61.1154C37.3959 61.1885 37.5594 61.2943 37.6901 61.4327C37.8209 61.5712 37.9209 61.7347 37.9902 61.9232L37.2228 62.1598C37.1766 62.029 37.092 61.9174 36.9689 61.8251C36.8458 61.7328 36.69 61.6866 36.5015 61.6866C36.3092 61.6866 36.1573 61.7309 36.0457 61.8193C35.938 61.9078 35.8841 62.0328 35.8841 62.1944C35.8841 62.3213 35.9265 62.4213 36.0111 62.4944C36.0996 62.5675 36.2188 62.6233 36.3688 62.6618L36.8997 62.7945C37.2459 62.8791 37.5151 63.031 37.7075 63.2503C37.8998 63.4696 37.996 63.7138 37.996 63.9831C37.996 64.2216 37.9383 64.4312 37.8229 64.612C37.7075 64.789 37.5401 64.9274 37.3209 65.0275C37.1016 65.1275 36.8362 65.1775 36.5246 65.1775Z" fill="black"/>
<path d="M32.0927 65.1776C31.685 65.1776 31.3234 65.0891 31.008 64.9121C30.6964 64.7314 30.4521 64.4852 30.2752 64.1736C30.0982 63.8582 30.0098 63.4985 30.0098 63.0946C30.0098 62.683 30.0982 62.3214 30.2752 62.0098C30.4521 61.6944 30.6945 61.4482 31.0022 61.2713C31.3138 61.0943 31.6715 61.0059 32.0754 61.0059C32.4832 61.0059 32.8409 61.0963 33.1486 61.277C33.4602 61.454 33.7045 61.7002 33.8814 62.0156C34.0584 62.3272 34.1469 62.6869 34.1469 63.0946C34.1469 63.4985 34.0584 63.8582 33.8814 64.1736C33.7083 64.4852 33.466 64.7314 33.1544 64.9121C32.8467 65.0891 32.4928 65.1776 32.0927 65.1776ZM32.0927 64.4563C32.3389 64.4563 32.5543 64.3986 32.739 64.2832C32.9275 64.164 33.0736 64.0024 33.1775 63.7985C33.2852 63.5947 33.3391 63.36 33.3391 63.0946C33.3391 62.8253 33.2852 62.5888 33.1775 62.3849C33.0698 62.181 32.9217 62.0214 32.7332 61.906C32.5447 61.7867 32.3255 61.7271 32.0754 61.7271C31.8331 61.7271 31.6157 61.7867 31.4234 61.906C31.2349 62.0214 31.0868 62.181 30.9791 62.3849C30.8714 62.5888 30.8176 62.8253 30.8176 63.0946C30.8176 63.36 30.8714 63.5947 30.9791 63.7985C31.0868 64.0024 31.2369 64.164 31.4292 64.2832C31.6215 64.3986 31.8427 64.4563 32.0927 64.4563Z" fill="black"/>
<path d="M28.199 65.1082V61.0692H28.9895V65.1082H28.199ZM25.5391 65.1082V61.0635H26.3296V65.1082H25.5391ZM26.1276 63.4061V62.6791H28.5741V63.4061H26.1276Z" fill="black"/>
<path d="M40.6405 51.2642L43.5041 33.8096H46.5723L43.7086 51.2642H40.6405ZM32.8592 47.1051L33.3791 44.0369H47.22L46.7001 47.1051H32.8592ZM34.5041 51.2642L37.3677 33.8096H40.4359L37.5723 51.2642H34.5041ZM33.8564 41.0369L34.3763 37.9687H48.2172L47.6973 41.0369H33.8564ZM57.7562 33.8096V51.2642H53.546V37.7471H53.4437L49.5403 40.1335V36.4858L53.8443 33.8096H57.7562Z" fill="black"/>
<path d="M16.6797 13.375V8.42874H19.8538V9.30695L17.6501 9.31704V10.4981H19.4899V11.3864H17.6501V13.375H16.6797ZM24.7363 13.375L22.8359 8.42874H23.8063L25.7674 13.375H24.7363ZM20.8243 13.375L22.7752 8.42874H23.7457L21.8452 13.375H20.8243ZM21.7441 12.2848V11.4369H24.8475V12.2848H21.7441ZM27.0613 13.375V8.42874H28.0318V12.4968H30.2152V13.375H27.0613ZM31.5698 13.375V8.42874H32.5402V12.4968H34.7237V13.375H31.5698ZM38.2921 13.375V12.6583C38.2921 12.5237 38.3359 12.3756 38.4235 12.2141C38.5044 12.0459 38.6223 11.881 38.7773 11.7195C38.9256 11.5513 39.1008 11.3965 39.3029 11.2552L40.0611 10.7202C40.1622 10.6461 40.2599 10.5654 40.3542 10.4779C40.4419 10.3904 40.516 10.2928 40.5766 10.1852C40.6373 10.0775 40.6676 9.97654 40.6676 9.88232C40.6676 9.75446 40.6373 9.64343 40.5766 9.54921C40.516 9.44827 40.4284 9.37088 40.3138 9.31704C40.206 9.25647 40.0678 9.22619 39.8994 9.22619C39.7578 9.22619 39.6332 9.25647 39.5253 9.31704C39.4108 9.37088 39.3198 9.4449 39.2524 9.53912C39.1783 9.63333 39.1277 9.73427 39.1008 9.84195L38.1 9.67034C38.1472 9.43481 38.2483 9.2161 38.4033 9.01421C38.565 8.81232 38.7706 8.64745 39.0199 8.51959C39.2692 8.39846 39.5557 8.33789 39.8791 8.33789C40.2498 8.33789 40.5665 8.40519 40.8294 8.53978C41.0922 8.66764 41.2944 8.84597 41.4359 9.07478C41.5841 9.30358 41.6583 9.5694 41.6583 9.87223C41.6583 10.1751 41.574 10.4476 41.4056 10.6899C41.2371 10.9254 41.0079 11.1475 40.7182 11.3561L40.0409 11.8406C39.9061 11.9348 39.7882 12.0391 39.6871 12.1536C39.586 12.268 39.5119 12.3924 39.4647 12.527H41.7189V13.375H38.2921ZM45.0346 13.4557C44.6302 13.4557 44.2764 13.348 43.9732 13.1327C43.6632 12.9106 43.4206 12.6078 43.2453 12.2242C43.0701 11.8406 42.9825 11.3998 42.9825 10.9019C42.9825 10.4039 43.0701 9.96308 43.2453 9.57949C43.4206 9.19591 43.6598 8.89308 43.9631 8.671C44.2663 8.45566 44.6201 8.34799 45.0245 8.34799C45.4221 8.34799 45.7759 8.45566 46.0859 8.671C46.3959 8.89308 46.6385 9.19591 46.8137 9.57949C46.9889 9.96308 47.0765 10.4039 47.0765 10.9019C47.0765 11.3998 46.9889 11.8406 46.8137 12.2242C46.6385 12.6078 46.3993 12.9106 46.096 13.1327C45.786 13.348 45.4322 13.4557 45.0346 13.4557ZM45.0346 12.5876C45.2435 12.5876 45.4322 12.5136 45.6007 12.3655C45.7691 12.2242 45.9006 12.0257 45.9949 11.77C46.0893 11.521 46.1364 11.2316 46.1364 10.9019C46.1364 10.5721 46.0893 10.2794 45.9949 10.0236C45.9006 9.76792 45.7691 9.5694 45.6007 9.42808C45.4322 9.28676 45.2401 9.2161 45.0245 9.2161C44.8088 9.2161 44.6201 9.28676 44.4584 9.42808C44.2899 9.5694 44.1619 9.76792 44.0742 10.0236C43.9799 10.2794 43.9327 10.5721 43.9327 10.9019C43.9327 11.2316 43.9799 11.521 44.0742 11.77C44.1619 12.0257 44.2899 12.2242 44.4584 12.3655C44.6269 12.5136 44.8189 12.5876 45.0346 12.5876ZM48.3907 13.375V12.6583C48.3907 12.5237 48.4345 12.3756 48.5221 12.2141C48.6029 12.0459 48.7209 11.881 48.8759 11.7195C49.0241 11.5513 49.1994 11.3965 49.4015 11.2552L50.1496 10.7202C50.2574 10.6461 50.3585 10.5654 50.4528 10.4779C50.5404 10.3904 50.6146 10.2928 50.6752 10.1852C50.7359 10.0775 50.7662 9.97654 50.7662 9.88232C50.7662 9.75446 50.7359 9.64343 50.6752 9.54921C50.6146 9.44827 50.527 9.37088 50.4124 9.31704C50.3046 9.25647 50.1664 9.22619 49.9979 9.22619C49.8564 9.22619 49.7318 9.25647 49.6239 9.31704C49.5094 9.37088 49.4184 9.4449 49.351 9.53912C49.2769 9.63333 49.2263 9.73427 49.1994 9.84195L48.1986 9.67034C48.2458 9.43481 48.3469 9.2161 48.5019 9.01421C48.6569 8.81232 48.8624 8.64745 49.1185 8.51959C49.3678 8.39846 49.6543 8.33789 49.9777 8.33789C50.3484 8.33789 50.6651 8.40519 50.9279 8.53978C51.1908 8.66764 51.3929 8.84597 51.5345 9.07478C51.6827 9.30358 51.7569 9.5694 51.7569 9.87223C51.7569 10.1751 51.6726 10.4476 51.5041 10.6899C51.3357 10.9254 51.1065 11.1475 50.8167 11.3561L50.1395 11.8406C50.0047 11.9348 49.8867 12.0391 49.7857 12.1536C49.6846 12.268 49.6104 12.3924 49.5633 12.527H51.8175V13.375H48.3907ZM54.9108 13.4557C54.6816 13.4557 54.4491 13.4187 54.2133 13.3447C53.9774 13.2707 53.7618 13.1596 53.5663 13.0116C53.3776 12.8568 53.2395 12.6684 53.1519 12.4463L54.0313 12.1838C54.1324 12.3386 54.2571 12.4497 54.4053 12.5169C54.5469 12.591 54.6951 12.628 54.8501 12.628C55.0995 12.628 55.2983 12.554 55.4465 12.4059C55.6015 12.2579 55.679 12.0593 55.679 11.8103C55.679 11.5748 55.6049 11.3797 55.4566 11.2249C55.3084 11.0701 55.1129 10.9927 54.8703 10.9927C54.7221 10.9927 54.5873 11.0263 54.466 11.0936C54.3447 11.1609 54.2503 11.2383 54.1829 11.3258L53.3136 11.134L53.6068 8.42874H56.4069V9.30695H54.4357L54.2941 10.488C54.4222 10.4207 54.5637 10.3635 54.7187 10.3164C54.8737 10.276 55.0422 10.2558 55.2241 10.2558C55.4937 10.2558 55.7363 10.3231 55.952 10.4577C56.1744 10.5856 56.3529 10.7605 56.4877 10.9826C56.6158 11.2047 56.6798 11.4638 56.6798 11.7599C56.6798 12.0963 56.6023 12.3924 56.4473 12.6482C56.299 12.9039 56.0935 13.1024 55.8307 13.2437C55.5678 13.3851 55.2612 13.4557 54.9108 13.4557Z" fill="black"/>
</g>
<defs>
<clipPath id="clip0_6109_27169">
<rect width="93" height="107" fill="white"/>
</clipPath>
</defs>
</svg>
