<svg width="910" height="509" fill="none" xmlns="http://www.w3.org/2000/svg"><g clip-path="url(#a)"><path d="m909.52 498.276-662.016-381.49V64.05h.615v52.368l661.709 381.367-.308.491ZM544.497 559 41.8 264.836H-112V264H42.051l.084.084L545 558.248l-.503.752Z" fill="#2CD4D9"/><path opacity=".2" d="M857.768 64.05V28.26L811.861 1.922v35.791l45.907 26.338Z" fill="#2CD4D9"/><path opacity=".7" d="m881.028 102.114-46.522-26.706V38.941l46.522 26.706v36.467ZM835.122 75.04l45.291 26.03V66.015l-45.291-26.03V75.04Z" fill="#2CD4D9"/><path d="M656.726 239.755c-.124 0-.185 0-.308-.062L295.995 31.82c-.308-.184-.369-.553-.246-.86.184-.307.554-.368.861-.245l360.116 207.689 169.719-104.796c.308-.184.677-.062.861.184.185.307.062.675-.184.859L657.095 239.632c-.123.061-.246.123-.369.123Z" fill="url(#b)"/><path d="M785.685 314c-.063 0-.095 0-.158-.032l-129.37-75.364c-.158-.095-.19-.287-.126-.446.094-.159.284-.191.442-.127l129.37 75.332c.158.096.19.287.126.446-.063.127-.158.191-.284.191Z" fill="url(#c)"/><path d="M701.894 518.351c-.123 0-.246 0-.308-.061L451.13 364.257l-82.767 51.263a.564.564 0 0 1-.616 0L126.768 276.467a.644.644 0 0 1-.308-.553c0-.245.123-.43.308-.552l104.674-59.919-127.812-74.53c-.308-.184-.369-.552-.246-.859.184-.307.553-.369.861-.246l128.736 75.082a.647.647 0 0 1 .308.553c0 .246-.124.43-.308.553l-104.675 59.918L367.993 414.23l82.768-51.262c.184-.123.431-.123.677 0l250.764 154.278c.307.184.369.553.184.86-.123.122-.308.245-.492.245Z" fill="url(#d)"/><path d="M334.763 202.796 201.72 279.413l-86.152-49.911 133.043-76.617 86.152 49.911Z" fill="url(#e)"/><path d="M408.546 20.83 275.565 97.448l-86.153-49.912 133.044-76.617 86.09 49.911ZM219.381 133.301 86.338 209.918.186 160.006l133.043-76.617 86.152 49.912Z" fill="#E1EAF8"/><path d="m696.54 408.828-133.043 76.617-86.152-49.85 133.043-76.679 86.152 49.912Z" fill="#C3D5EC"/><path d="m817.83 478.877-133.043 76.678-86.152-49.912 133.043-76.617 86.152 49.851Z" fill="url(#f)"/><path d="m889.951 294.516-133.043 76.679-86.09-49.912 132.981-76.617 86.152 49.85Z" fill="url(#g)"/><path d="m362.134 339.912-132.982 76.617L143 366.679 276.043 290l86.091 49.912Z" fill="url(#h)"/><path d="m578.204 340.499-132.981 76.617-86.153-49.85 133.044-76.618 86.09 49.851Z" fill="url(#i)"/><path d="m529.59 91.186-133.043 76.679-86.091-49.912 133.043-76.617 86.091 49.85Z" fill="url(#j)"/><path d="m879.195 156.85-133.043 76.618L660 183.617 793.043 107l86.152 49.85Z" fill="#C3D5EC"/><g opacity=".8"><path opacity=".15" d="m202.013 382.541 76.121 46.658 20.369-3.868-84.244-51.262-4.862 3.99-7.384 4.482Z" fill="url(#k)"/></g><path d="m199.859 305.31-8.308-10.99c-.061-.061-.123-.122-.184-.245-.369-.614-.246-1.474.246-2.272v-.061l11.507-17.927 5.416 3.254-10.4 15.839c-.062.123-.185.307-.246.43l5.107 9.086 1.846.553-2.153 4.604c.061-.061-2.154-1.351-2.831-2.271Z" fill="#724C3B"/><path d="m203.859 287.568-4.8 4.788s.984.307.185 1.29c0 0 .861.245.061 1.289-.8 1.105-4.615 4.481-6.277 2.762 0 0-3.323-2.087-2.83-4.911.492-2.824 11.753-18.479 11.753-18.479l4.8 8.165-2.892 5.096Z" fill="#2CD4D9"/><path d="M227.12 381.497c.369.062.554-.184.8.184.123.185.369.614.369 1.228-.062.86-.185 1.228-.738 1.903-.677.798-4.185 3.5-6.4 4.052 0 0-.739.184-1.108.491-.308.307-.985.737-1.477.983l-.431-1.105 7.385-4.666 1.723-1.781-.123-1.289Z" fill="#DFE9F8"/><path d="M215.428 390.276c.431.737 1.784.737 3.077 0 1.292-.737 1.969-1.964 1.538-2.701-.431-.737-1.785-.737-3.077 0-1.292.798-1.969 1.964-1.538 2.701Z" fill="#DFE9F8"/><path d="M227.612 381.866c-.8-1.228-3.507.675-4.369.798-3.138.429-4.554.736-6.277 1.289-1.107.368-1.846 1.35-1.969 2.517 0 0-.061.368-.061.675 0 .43.307 1.351.246 2.026 0 .123 0 .246.061.368.246.43.985.553 1.785.307 1.784-.614 6.092-2.701 7.077-3.376 1.107-.737 2.399-1.78 2.953-2.394.554-.553 1.108-1.474.554-2.21Z" fill="#5333ED"/><path d="M215.551 386.04c.369.614 1.477.614 2.461 0 1.046-.614 1.6-1.534 1.231-2.148-.369-.614-1.477-.614-2.461 0-1.047.552-1.6 1.534-1.231 2.148Z" fill="#724C3B"/><path d="M226.258 382.971s-.061 0-.061-.062c-.677-.675-1.662-.675-1.662-.675-.061 0-.123-.062-.123-.123s.062-.123.123-.123c.062 0 1.108 0 1.846.737.062.061.062.123 0 .184-.061 0-.061.062-.123.062ZM225.397 383.4s-.062 0-.062-.061c-.677-.675-1.661-.675-1.661-.675-.062 0-.123-.062-.123-.123 0-.062.061-.123.123-.123.061 0 1.107 0 1.846.737.061.061.061.123 0 .184-.062 0-.123.061-.123.061ZM224.105 383.646s-.062 0-.062-.062c-.677-.675-1.662-.675-1.662-.675-.061 0-.123-.061-.123-.123 0-.061.062-.122.123-.122.062 0 1.108 0 1.847.736.061.062.061.123 0 .184-.062 0-.123.062-.123.062ZM222.751 383.83s-.062 0-.062-.061c-.677-.676-1.661-.676-1.661-.676a.131.131 0 0 1-.123-.123c0-.061.061-.122.123-.122.061 0 1.107 0 1.846.736.061.062.061.123 0 .185-.062.061-.123.061-.123.061ZM221.335 384.076s-.061 0-.061-.062c-.677-.675-1.662-.675-1.662-.675-.061 0-.123-.062-.123-.123s.062-.123.123-.123c.062 0 1.108 0 1.846.737.062.061.062.123 0 .184-.061.062-.123.062-.123.062Z" fill="#120667"/><path d="M213.582 373.639c.369.062.554-.184.8.184.123.185.369.614.369 1.228-.062.86-.185 1.228-.739 1.903-.676.799-4.184 3.5-6.399 4.052 0 0-.739.185-1.108.491-.308.307-.985.737-1.477.983l-.431-1.105 7.385-4.666 1.723-1.78-.123-1.29Z" fill="#DFE9F8"/><path d="M201.89 382.418c.43.736 1.784.736 3.076 0 1.293-.737 1.97-1.965 1.539-2.701-.431-.737-1.785-.737-3.077 0-1.292.798-1.969 1.964-1.538 2.701Z" fill="#DFE9F8"/><path d="M214.135 374.008c-.799-1.228-3.507.675-4.369.798-3.138.429-4.553.736-6.276 1.289-1.108.368-1.847 1.351-1.97 2.517 0 0-.061.368-.061.675 0 .43.308 1.351.246 2.026 0 .123 0 .246.062.369.246.429.984.552 1.784.307 1.785-.614 6.092-2.702 7.077-3.377 1.108-.737 2.4-1.78 2.954-2.394.492-.553 1.046-1.474.553-2.21Z" fill="#5333ED"/><path d="M202.013 378.182c.369.614 1.477.614 2.461 0 1.046-.614 1.6-1.535 1.231-2.149-.369-.614-1.477-.614-2.462 0-.984.553-1.538 1.535-1.23 2.149Z" fill="#724C3B"/><path d="M212.782 375.112s-.062 0-.062-.061c-.677-.676-1.661-.676-1.661-.676-.062 0-.123-.061-.123-.122 0-.062.061-.123.123-.123.061 0 1.107 0 1.846.737.061.061.061.122 0 .184-.062 0-.123.061-.123.061ZM211.859 375.542s-.062 0-.062-.062c-.677-.675-1.661-.675-1.661-.675a.131.131 0 0 1-.123-.123c0-.061.061-.122.123-.122.061 0 1.107 0 1.846.736.061.062.061.123 0 .184-.062 0-.062.062-.123.062ZM210.566 375.788s-.061-.001-.061-.062c-.677-.675-1.662-.675-1.662-.675-.061 0-.123-.062-.123-.123s.062-.123.123-.123c.062 0 1.108 0 1.846.737.062.061.062.123 0 .184-.061 0-.061.062-.123.062ZM209.213 375.972s-.062 0-.062-.061c-.677-.676-1.662-.676-1.662-.676-.061 0-.123-.061-.123-.123 0-.061.062-.122.123-.122.062 0 1.108 0 1.847.736.061.062.061.123 0 .185-.062.061-.062.061-.123.061ZM207.797 376.217s-.061 0-.061-.061c-.677-.676-1.662-.676-1.662-.676-.061 0-.123-.061-.123-.122 0-.062.062-.123.123-.123.062 0 1.108 0 1.846.737.062.061.062.122 0 .184-.061.061-.061.061-.123.061Z" fill="#120667"/><path d="m202.32 368.544-.369 9.331 3.877-1.534.861-7.122-4.369-.675ZM215.859 376.402l-.431 9.331 3.938-1.534.8-7.122-4.307-.675Z" fill="#724C3B"/><path d="M206.566 369.832c-.307-.245-.615-.491-.984-.675-.123-.061-.185-.123-.308-.123l-2.954-.43-.184 4.544c.369.429.861.798 1.415 1.166.8.491 1.662.737 2.4.737l.615-5.219ZM220.105 377.753c-.185-.307-.493-.553-.8-.86l-3.447-.491-.184 4.543c.246.184.431.307.677.491 1.169.675 2.4.86 3.261.614l.493-4.297Z" fill="#4E2D23"/><path d="M207.859 371.92v-1.289c.061-.983-.8-2.149-2.216-2.947-1.723-.982-3.569-.982-4.123 0-.184.307-.184.614-.123.982h-.061v1.228c0 .921.861 2.149 2.215 2.885 1.723.983 3.569.983 4.123 0a1.12 1.12 0 0 0 .123-.429v-.123c.062-.123.062-.184.062-.307ZM220.658 377.813c0-.982-.861-2.148-2.215-2.946-1.723-.983-3.569-.983-4.123 0a1.695 1.695 0 0 0-.184.798v1.289c-.062.982.8 2.149 2.215 3.008 1.723.982 3.569.982 4.123 0 .123-.184.123-.368.123-.614v-1.535h.061Z" fill="#120667"/><path d="m225.212 309.484-1.169-6.262-18.523-4.911s-2.03 3.499-3.63 12.156c-2.954 15.777.061 57.156.061 57.156-.492.859.308 2.332 1.846 3.192 1.539.859 3.2.859 3.692 0 .124-.184.124-.368.124-.553-.37-22.837 4.369-48.069 4.369-48.069 0 1.105 2.584 53.104 2.584 53.104-.061.859.739 2.025 2.031 2.762 1.6.921 3.261.921 3.815 0 .123-.184.123-.368.123-.614.616-20.075 3.693-46.412 5.046-57.34.185-1.719.308-3.376.247-5.095-.062-1.842-.308-3.684-.616-5.526Z" fill="#120667"/><path d="M211.92 322.131s-1.784-3.683-2.646-8.042c0 0-.369 4.543 2.4 9.393l.246-1.351Z" fill="url(#l)"/><path d="M224.72 281.613c-.062-.062-16.307-9.393-16.307-9.393-.554-.369-1.293-.492-2.216-.369a6.426 6.426 0 0 0-2.338.86c-.8.491-1.477 1.043-1.969 1.657a3.644 3.644 0 0 0-.677 2.395l1.107 21.671h.062c-.308 3.131 2.523 7.183 7.2 9.823 5.538 3.192 11.507 3.192 13.353 0 .37-.614.554-1.351.554-2.149l3.877-20.689c.246-1.105-.8-2.763-2.646-3.806Z" fill="#2CD4D9"/><path fill-rule="evenodd" clip-rule="evenodd" d="m235.735 301.748-10.031-17.865h-.061c0-.061-.062-.123-.062-.184-.615-1.044-2.523-.921-4.369.184-1.846 1.044-2.338 2.763-1.723 3.868.062.061-.123.307-.061.368l8.738 13.875-10.584 7.858c-.739.43-1.108 1.105-.862 1.535.062.061.062.123.123.184.615.675 3.2 3.438 5.846 4.543l1.908.798s.123.921.923 1.166l-.246-1.657-.739-.614 1.293.491v.675s.615.123.676-.368v-.614s.247 0 .247-.245c-.123-.246-.123-.492-.247-.614-.246-.369-1.046-.921-1.046-.921l1.17.245s.492 0 .492-.491c.123-.491-.492-.614-.492-.614l-2.093-1.166c.123 0 .677.123.677.123.616 0 .677-.491.677-.491-.061-.062-1.538-.614-3.2-1.228l9.415-4.666a4.437 4.437 0 0 0 1.231-.553c1.908-.921 2.892-2.578 2.4-3.622Z" fill="#724C3B"/><path fill-rule="evenodd" clip-rule="evenodd" d="m227.304 284.559 8.493 17.129-.062.061c.492 1.044-.123 2.947-1.908 3.929-.43.246-.984.614-1.415.737-3.446 1.412-7.261-1.596-7.754-2.272-.492-.675 1.047-.982 1.047-.982s-.431-1.105.923-.982c0 0-6.093-10.682-7.139-13.261-.061-.061-.307-.614-.307-.675-.493-1.105-.062-3.807 1.784-4.912 1.846-1.043 5.415-.614 6.031.43l.307.798Z" fill="#2CD4D9"/><path d="m215.428 275.35 3.507-2.026a3.145 3.145 0 0 0 1.6-2.762l-1.23-7.797s-5.723.491-5.723.675c0 .184 1.846 11.91 1.846 11.91Z" fill="#724C3B"/><path d="m210.874 270.746 6.092-.798v8.902c0 .184-.061.368-.123.552-.554.921-2.277.921-3.877 0-1.292-.737-2.154-1.903-2.092-2.824v-5.832Z" fill="#724C3B"/><path d="M219.612 258.283c-.123-.614-.677-1.043-1.354-1.043-.676 0-1.292.552-1.353 1.228h-.246c-.247 0-.493 0-.739.061a6.848 6.848 0 0 0-3.692-.86c-3.569.123-6.462 2.947-6.769 6.385 0 1.167.246 2.333.677 3.438v.184c0 .676.369 1.29.861 1.658 0 .123-.061.307-.061.43 0 1.043.8 1.903 1.846 1.964.307.676 1.046 1.167 1.846 1.167h.184c.247.184.739 1.227.924 1.105 1.292-.737 2.523-1.842 3.446-2.824 1.107-.062 1.969-.921 1.969-2.026 0-.184 0-.369-.062-.491l-.061-.307c1.23-.676 2.092-1.842 2.215-3.254v-.123a3.744 3.744 0 0 0 1.231-2.763c0-.306-.062-.613-.123-.92.246-.307.369-.737.369-1.167.062-.859-.431-1.535-1.108-1.842Z" fill="#120667"/><path d="M215.982 268.045c-.062-.369.246-.86.8-1.167.676-.368 1.353-.368 1.538 0v.123l.369 1.842-1.538 2.701c.123 0-1.231-.982-1.169-3.499Z" fill="#724C3B"/><path opacity=".7" fill-rule="evenodd" clip-rule="evenodd" d="m224.781 298.986-3.753-6.875a6.107 6.107 0 0 0 .369 3.315l2.769 6.753.615-3.193Z" fill="url(#m)"/><path opacity=".7" d="m201.89 289.532-.37-7.244-1.353 8.963 1.723-1.719Z" fill="url(#n)"/><g opacity=".8"><path opacity=".15" d="m567.313 360.675 82.275 50.403 24.738-5.526-91.075-55.437 2.831 4.666-18.769 5.894Z" fill="url(#o)"/></g><path d="M566.696 355.488c-.369.062-.554-.184-.8.185a2.208 2.208 0 0 0-.369 1.227c.061.86.184 1.228.8 1.965.677.798 4.307 3.561 6.584 4.113 0 0 .8.185 1.108.491.308.307.985.737 1.538.983l.431-1.105-7.569-4.789-1.723-1.78v-1.29Z" fill="#C2D3EB"/><path d="M578.634 364.513c-.431.737-1.846.737-3.138 0-1.292-.737-2.031-1.965-1.6-2.763.431-.736 1.846-.736 3.2 0 1.292.737 2.03 1.965 1.538 2.763Z" fill="#C2D3EB"/><path d="M566.142 355.857c.8-1.228 3.569.675 4.492.798 3.2.491 4.616.737 6.4 1.35 1.108.369 1.846 1.412 1.969 2.579 0 0 .062.368.062.675 0 .43-.308 1.412-.246 2.026 0 .123 0 .246-.123.369-.246.491-1.046.552-1.846.307-1.785-.614-6.277-2.763-7.262-3.438-1.169-.737-2.461-1.781-3.015-2.456-.369-.491-.923-1.412-.431-2.21Z" fill="#0C022F"/><path d="M578.511 360.093c-.369.614-1.477.614-2.523 0s-1.6-1.596-1.292-2.21c.369-.614 1.477-.614 2.523 0 1.107.675 1.661 1.657 1.292 2.21Z" fill="#724C3B"/><path d="M567.557 356.962s-.061 0-.061-.062c-.062-.061-.062-.122 0-.184.738-.737 1.846-.737 1.907-.737.062 0 .124.062.124.123 0 .062-.062.123-.124.123 0 0-1.046 0-1.723.675-.061.062-.061.062-.123.062ZM568.48 357.391s-.061 0-.061-.061c-.062-.061-.062-.123 0-.184.738-.737 1.846-.737 1.908-.737.061 0 .123.062.123.123s-.062.123-.123.123c0 0-1.047 0-1.723.675-.062.061-.124.061-.124.061ZM569.773 357.637s-.062 0-.062-.061c-.061-.062-.061-.123 0-.185.739-.736 1.785-.736 1.908-.736.061 0 .123.061.123.123 0 .061-.062.122-.123.122 0 0-1.046 0-1.723.676-.062.061-.062.061-.123.061ZM571.188 357.883s-.062 0-.062-.062c-.061-.061-.061-.123 0-.184.739-.737 1.847-.737 1.908-.737.062 0 .123.062.123.123a.131.131 0 0 1-.123.123s-1.046 0-1.723.675c-.061 0-.123.062-.123.062ZM572.604 358.128s-.062 0-.062-.061c-.062-.062-.062-.123 0-.184.738-.737 1.846-.798 1.908-.737.061 0 .123.061.123.123 0 .061-.062.122-.123.122 0 0-1.047 0-1.723.676-.062.061-.062.061-.123.061Z" fill="#120667"/><path d="M580.542 347.446c-.369.061-.554-.184-.8.184a2.209 2.209 0 0 0-.369 1.228c.061.859.184 1.228.8 1.964.677.799 4.307 3.561 6.584 4.114 0 0 .8.184 1.108.491.307.307.984.737 1.538.982l.431-1.105-7.569-4.788-1.723-1.781v-1.289Z" fill="#C2D3EB"/><path d="M592.48 356.47c-.431.737-1.846.737-3.138 0-1.293-.736-2.031-1.964-1.6-2.762.43-.737 1.846-.737 3.138 0 1.354.737 2.031 1.964 1.6 2.762Z" fill="#C2D3EB"/><path d="M579.988 347.814c.8-1.228 3.569.676 4.492.798 3.2.491 4.616.737 6.4 1.351 1.108.368 1.846 1.412 1.969 2.578 0 0 .062.369.062.676 0 .429-.308 1.412-.246 2.026 0 .122 0 .245-.123.368-.247.491-1.047.553-1.847.307-1.784-.614-6.276-2.763-7.261-3.438-1.169-.737-2.461-1.78-3.015-2.456-.369-.491-.985-1.412-.431-2.21Z" fill="#0C022F"/><path d="M592.357 352.05c-.369.614-1.477.614-2.523 0s-1.6-1.596-1.292-2.21c.369-.614 1.476-.614 2.523 0 1.046.676 1.661 1.658 1.292 2.21Z" fill="#724C3B"/><path d="M581.403 348.919s-.061 0-.061-.061c-.062-.061-.062-.123 0-.184.738-.737 1.846-.798 1.907-.737.062 0 .123.061.123.123 0 .061-.061.123-.123.123 0 0-1.046 0-1.723.675-.061.061-.123.061-.123.061ZM582.265 349.349s-.062 0-.062-.061c-.061-.061-.061-.123 0-.184.739-.737 1.846-.798 1.908-.737.061 0 .123.061.123.123 0 .061-.062.123-.123.123 0 0-1.046 0-1.723.675-.062.061-.062.061-.123.061ZM583.619 349.595s-.062 0-.062-.062c-.061-.061-.061-.123 0-.184.739-.737 1.846-.737 1.908-.737.061 0 .123.062.123.123s-.062.123-.123.123c0 0-1.046 0-1.723.675-.062.062-.123.062-.123.062ZM584.972 349.84s-.061 0-.061-.061c-.062-.062-.062-.123 0-.184.738-.737 1.785-.737 1.908-.737.061 0 .123.061.123.123 0 .061-.062.122-.123.122 0 0-1.047 0-1.723.676-.062.061-.062.061-.124.061ZM586.449 350.086s-.061 0-.061-.062c-.062-.061-.062-.122 0-.184.738-.737 1.846-.798 1.907-.737.062 0 .124.062.124.123 0 .062-.062.123-.124.123 0 0-1.046 0-1.723.675-.061.062-.123.062-.123.062Z" fill="#120667"/><path d="m592.049 342.228.369 9.515-3.938-1.535-.861-7.305 4.43-.675ZM578.203 350.27l.431 9.516-4-1.535-.861-7.306 4.43-.675Z" fill="#724C3B"/><path d="M587.68 343.578c.308-.245.616-.491.985-.675.123-.061.184-.123.308-.184l3.076-.43.185 4.666c-.369.43-.862.859-1.477 1.166-.861.491-1.723.737-2.461.737l-.616-5.28ZM573.896 351.682c.184-.307.492-.614.8-.86l3.507-.491.185 4.604c-.246.185-.431.369-.738.492-1.17.675-2.462.921-3.323.614l-.431-4.359Z" fill="#4E2D23"/><path d="M586.388 345.727v-1.289c-.062-.983.861-2.21 2.277-3.07 1.723-.982 3.63-.982 4.246 0 .184.307.184.614.123 1.044h.061v1.228c0 .982-.861 2.148-2.276 2.946-1.723.983-3.631.983-4.246 0a1.145 1.145 0 0 1-.124-.491v-.122c-.061-.062-.061-.185-.061-.246ZM573.28 351.682c0-.982.862-2.21 2.277-3.008 1.723-.982 3.631-.982 4.246 0 .123.246.185.553.185.86v1.35c.062.983-.8 2.21-2.277 3.07-1.723.982-3.631.982-4.246 0-.123-.184-.123-.368-.185-.614v-1.658Z" fill="#120667"/><path d="m568.665 281.818 1.169-6.446 18.954-5.035s2.092 3.623 3.754 12.402c3.015 16.146-.062 58.445-.062 58.445.492.921-.308 2.333-1.908 3.254-1.538.92-3.261.92-3.753 0-.123-.185-.123-.369-.123-.553.43-23.329-4.493-49.175-4.493-49.175 0 1.105-2.646 54.332-2.646 54.332.062.921-.738 2.087-2.092 2.824-1.6.921-3.385.921-3.877 0-.123-.184-.123-.368-.123-.614-.677-20.566-3.815-47.456-5.169-58.629-.185-1.719-.308-3.5-.246-5.219 0-1.78.246-3.683.615-5.586Z" fill="#120667"/><path d="M582.203 294.772s1.847-3.745 2.708-8.227c0 0 .369 4.605-2.461 9.639l-.247-1.412Z" fill="url(#p)"/><path d="M552.419 238.782c.062 1.105.739 2.149 1.723 2.64 2.093.982 3.385 1.166 3.385 1.166.492.062 1.169-.184 1.784-.675.8-.737.554-1.473.124-1.964-.062-.062-.185-.123-.308-.185 0 0-3.2-3.008-3.446-3.131 0 0-2.646-.429-3.2.123 0 0-.185.184-.431.614-.061.43.308.921.369 1.412Z" fill="#4E2D23"/><path d="M559.619 240.133s.369.307.554.491l7.261 6.999 3.077 2.885 17.169-2.394 2.769 7.796-22.215-.306-4.246-4.666-7.63-8.902c-1.108-1.289-.739-3.745-.739-3.745.493-1.105-.061-2.149-.061-2.149-.431-.921-.431-1.903-.246-2.701.246-.798.677-.921.738-.737.185.185.739 3.377 1.354 3.807.738.429 1.538 2.148 1.538 2.148s.308.676.677 1.474Z" fill="#724C3B"/><path d="M568.911 249.096s-3.138-.123-3.692 3.192l2.339 2.763 12.738-5.894-5.046.614-4.8.737-1.539-1.412Z" fill="#2CD4D9"/><path d="M569.157 253.332c.062-.061 16.677-9.577 16.677-9.577.554-.368 1.354-.491 2.277-.368.738.122 1.6.368 2.4.859.861.491 1.538 1.105 1.969 1.719.554.675.738 1.596.738 2.456l-1.107 22.162h-.062c.308 3.193-2.584 7.306-7.323 10.069-5.661 3.253-11.753 3.253-13.661 0a4.476 4.476 0 0 1-.554-2.149l-4-21.18c-.307-1.228.739-2.947 2.646-3.991Z" fill="#2CD4D9"/><path fill-rule="evenodd" clip-rule="evenodd" d="m557.835 273.898 10.276-18.294h.062c0-.062.061-.123.061-.185.616-1.105 2.585-.92 4.493.185 1.907 1.105 2.4 2.824 1.784 3.929-.061.061.123.368.062.368l-8.923 14.182 10.83 8.042c.739.491 1.108 1.166.862 1.596-.062.062-.062.123-.123.184-.616.676-3.262 3.5-6.031 4.666l-1.969.921s-.123.982-.985 1.228l.247-1.658.861-.736-1.354.491v.736s-.615.123-.738-.368v-.614s-.246 0-.246-.245c.123-.246.123-.492.246-.614.246-.369 1.108-.983 1.108-.983l-1.231.246s-.492 0-.492-.491c-.124-.491.492-.614.492-.614l2.154-1.228c-.123 0-.739.123-.739.123-.615 0-.738-.491-.738-.491.061-.062 1.538-.614 3.261-1.228l-9.661-4.789a5.862 5.862 0 0 1-1.292-.552c-1.723-.983-2.708-2.702-2.277-3.807Z" fill="#724C3B"/><path fill-rule="evenodd" clip-rule="evenodd" d="m566.511 256.342-8.676 17.558.061.062c-.492 1.105.123 3.008 1.969 4.052.431.245 1.046.614 1.416.736 3.507 1.474 7.446-1.657 7.938-2.333.492-.675-1.046-.982-1.046-.982s.431-1.105-.923-1.044c0 0 6.276-10.927 7.261-13.506.062-.061.308-.614.308-.675.492-1.167-.062-3.561-1.969-4.666-1.908-1.105-5.416-.982-6.093.123l-.246.675Z" fill="#2CD4D9"/><path d="m578.634 246.886-3.569-2.026c-.984-.553-1.6-1.658-1.6-2.824l1.292-7.981s5.846.552 5.846.675-1.969 12.156-1.969 12.156Z" fill="#724C3B"/><path d="m583.311 242.22-6.215-.859v9.086c0 .184.061.368.123.552.554.921 2.338.921 3.938 0 1.354-.798 2.154-1.964 2.092-2.885v-5.894h.062Z" fill="#724C3B"/><path d="M574.327 229.451a1.387 1.387 0 0 1 1.353-1.106c.739 0 1.293.553 1.416 1.228h.246c.246 0 .492 0 .738.062 1.108-.614 2.4-.983 3.754-.921 3.692.123 6.584 3.008 6.954 6.569a9.565 9.565 0 0 1-.677 3.499v.184c0 .676-.369 1.351-.923 1.719 0 .123.061.307.061.43 0 1.044-.8 1.965-1.907 2.026a2.015 2.015 0 0 1-1.846 1.228h-.185c-.246.184-.739 1.289-.923 1.166-1.354-.736-2.585-1.842-3.508-2.885-1.107-.062-1.969-.921-1.969-2.026 0-.184 0-.368.062-.553l.061-.368a4.454 4.454 0 0 1-2.277-3.377v-.122a3.887 3.887 0 0 1-1.23-2.824c0-.307.061-.614.123-.921-.247-.369-.431-.737-.431-1.228 0-.737.431-1.474 1.108-1.78Z" fill="#120667"/><path d="M578.08 239.458c.062-.369-.307-.86-.861-1.167-.677-.368-1.354-.368-1.6 0v.123l-.369 1.842 1.538 2.762s1.354-.982 1.292-3.56Z" fill="#724C3B"/><path opacity=".7" d="M567.373 254.621s1.415-.921 2.523-1.78c1.108-.798 5.354-3.131 5.354-3.131l-1.539.246-4.307 2.517s-1.785 1.166-2.339 1.841l.308.307Z" fill="#2CD4D9"/><path d="M553.158 237.063s1.231.491 1.538 1.903c0 0-1.046-.245-2.215-.859-1.169-.553-.8-1.535.677-1.658v.614Z" fill="#724C3B"/><path d="M552.973 238.475s1.292.307 1.846 1.596c0 0-1.046-.061-2.338-.429-1.293-.369-1.17-1.167-.308-1.903l.8.736Z" fill="#724C3B"/><path d="M553.404 239.641s1.169.246 1.723 1.412c0 0-.985-.061-2.092-.368-1.17-.307-.862-.798-.123-1.473l.492.429Z" fill="#724C3B"/><path d="M553.896 240.808s1.169.245 1.723 1.412c0 0-.984-.062-2.092-.307-1.108-.246-.862-.798-.123-1.474l.492.369Z" fill="#724C3B"/><path opacity=".7" fill-rule="evenodd" clip-rule="evenodd" d="m569.034 271.135 3.877-7.06c.185 1.167.062 2.333-.431 3.377l-2.83 6.937-.616-3.254Z" fill="#2CD4D9"/><path opacity=".3" d="m238.978 356.689-15.138 8.718-70.337-45.737 15.138-8.718 70.337 45.737Z" fill="url(#q)"/><path d="M160.579 228.073s-.43 2.394-1.292 3.622c-.861 1.289.615 1.412.308 1.965-.308.552.061.307.431.245 2.338-.491 7.63 4.543 5.23 3.991-1.231-.246-1.231 5.586-2.4 5.709-3.446.368-8.738-1.964-11.507-4.911-.308-.307-.677-2.579.184-3.622.923-1.044.739-2.763 1.231-4.236.492-1.474 1.416-3.438 1.969-4.912.554-1.535 2.4-3.683 3.077-5.034s3.816-2.026 4.616 1.351c.738 3.376-1.847 5.832-1.847 5.832Z" fill="#2CD4D9"/><path d="m160.333 243.544-2.523-.676.062-19.768.615 9.086 1.846 11.358Z" fill="url(#r)"/><path d="M158.118 314.452s2.092.122 2.892.061c.185 0 .431 0 1.108-.307s1.046.614.861.859c-.246.307-1.107 1.106-4.8.921v-1.534h-.061Z" fill="#FFC398"/><path d="M161.256 315.372c.185.307.739.307 1.293 0 .553-.307.8-.798.676-1.105-.184-.307-.738-.307-1.292 0s-.861.798-.677 1.105ZM171.102 321.205s2.093.123 2.893.061c.184 0 .43 0 1.107-.307s1.046.614.862.86c-.246.307-1.108 1.105-4.8.921v-1.535h-.062Z" fill="#FFC398"/><path d="M161.256 246.306c-.061.062-.061.123-.123.246l-2.215 4.236c-.923 1.842-1.6 3.745-1.969 5.771-2.585 14.427-3.508 56.542-3.508 56.542-.123.982.739 2.333 2.277 3.254 1.785 1.043 3.692 1.043 4.246 0 .123-.184.123-.43.185-.614-.37-20.873 4.984-46.597 4.984-46.597 0 .983.554 50.096.554 50.096-.246 1.044.677 2.517 2.338 3.438 1.846 1.044 3.816 1.044 4.431 0 .123-.184.185-.43.185-.675.553-18.356 3.753-45.614 4.984-55.56a33.012 33.012 0 0 0 0-7.797l-.677-5.464c-.246-2.271-2.338-4.911-5.538-6.753-2.154-1.228-4.308-1.842-6.215-1.842-1.723-.122-3.2.492-3.939 1.719Z" fill="#0C022F"/><path d="M175.718 226.6c-.062 0-12.369-7.122-12.369-7.122-.431-.307-.985-.368-1.662-.245-.554.061-1.169.307-1.784.614-.616.368-1.108.798-1.477 1.289-.37.491-.554 1.166-.554 1.842l.861 16.453c-.184 2.394 1.908 5.463 5.477 7.489 4.185 2.395 8.738 2.395 10.092 0 .308-.491.431-1.043.431-1.596l2.954-15.716c.246-.982-.554-2.21-1.969-3.008Z" fill="#2CD4D9"/><path d="M182.24 245.877s.308-1.167 0-2.21l.616.306s.307 1.105.123 1.904h-.739Z" fill="url(#s)"/><path d="m164.333 261.9.923 7.121-.246 1.29s-1.661-6.692-1.969-10.314c0 0 .615 1.289 1.292 1.903Z" fill="#120667"/><path d="M174.241 322.187c.184.307.738.307 1.292 0s.8-.798.677-1.105c-.185-.307-.739-.307-1.292 0-.554.307-.862.737-.677 1.105Z" fill="#FFC398"/><path d="m167.841 322.371-.493-45.491v45.123l.493.368ZM154.918 315.679l1.969-43.465-2.461 43.035.492.43Z" fill="#120667"/><path d="M167.533 222.793c-.431.737-1.784.737-3.015 0-1.231-.736-1.969-1.903-1.539-2.64.431-.736 1.785-.736 3.016 0 1.292.737 1.969 1.904 1.538 2.64ZM167.533 218.189c-.431.736-1.784.736-3.015 0-1.231-.737-1.969-1.903-1.539-2.64.431-.737 1.785-.737 3.016 0 1.292.737 1.969 1.903 1.538 2.64Z" fill="#FFC398"/><path d="M167.656 217.821v4.543l-4.8-1.781v-4.604l4.8 1.842Z" fill="#FFC398"/><path d="M173.01 214.505s-.739 2.763-1.108 3.5c-.307.798-2.707.307-2.707.307s.123-4.482 3.815-3.807Z" fill="#EBA87C"/><path d="M161.195 210.515a6.873 6.873 0 0 0 6.892 6.876 6.873 6.873 0 0 0 6.892-6.876 6.873 6.873 0 0 0-6.892-6.876c-3.754 0-6.892 3.07-6.892 6.876Z" fill="#120667"/><path d="M169.748 220.215c-.184 0-.307 0-.492-.062-.308-.061-.554-.245-.738-.491-.431-.736.123-1.78 1.292-2.455a2.927 2.927 0 0 1 1.538-.43c.554 0 .985.184 1.17.552.184.369.184.86-.123 1.29-.247.429-.677.798-1.17 1.105-.43.307-.984.491-1.477.491Zm1.662-2.886c-.369 0-.862.123-1.231.369-.861.491-1.231 1.228-1.046 1.596.062.123.185.184.308.245.431.123 1.046 0 1.6-.368.43-.245.738-.552.923-.921.184-.307.184-.552.123-.675-.123-.123-.369-.246-.677-.246Z" fill="#FFD05A"/><path d="M172.456 252.507c2.277.737 5.785 2.026 5.908 2.149 0 0-.123.43-.616.43 0 0-.554-.123-.615-.123l1.908 1.043s.553.123.43.553c0 .43-.43.43-.43.43l-1.047-.246s.739.553.985.86c.123.122.123.307.185.552 0 .246-.185.246-.185.246v.552c-.123.43-.615.307-.615.307v-.675l-1.17-.43.739.675.184 1.474c-.738-.184-.861-1.044-.861-1.044l-1.723-.736c-2.769-1.167-5.354-4.175-5.354-4.175l2.277-1.842Z" fill="#FFC398"/><path d="M172.825 232.739c.985.491.246-.369.185-.43-.554-.982-.8-2.456.861-3.438 1.723-.982 3.508-.982 4.123 0 0 .061.062.123.062.184h.062l9.23 16.33-.061.062c.43.982-.493 2.455-2.093 3.438-.369.245-.8.368-1.169.491l-11.754 5.832-1.538-2.21 9.6-7.306-7.508-12.953Z" fill="#FFC398"/><path fill-rule="evenodd" clip-rule="evenodd" d="M171.779 254.287c-.738.43-1.477.43-1.723 0-.246-.429.185-1.105.862-1.473.677-.368 1.477-.43 1.723 0s-.123 1.044-.862 1.473Z" fill="#FFC398"/><path d="M176.825 252.998s-1.046.798-1.538.798c-.493 0-2.708.737-3.016-2.394l.923-.921c.8-.798 1.724-1.964 1.724-1.166-.124 2.087.369 2.824 1.907 3.683Z" fill="#1B0971"/><path d="M176.825 252.998s-1.046.798-1.538.798c-.493 0-2.708.737-3.016-2.394l.923-.921c.8-.798 1.724-1.964 1.724-1.166-.124 2.087.369 2.824 1.907 3.683Z" fill="#2CD4D9"/><path d="m175.533 239.983-.308 1.596s-1.846-2.762-2.584-5.648c-.739-2.885-.185-2.701-.185-2.701s1.231 3.806 3.077 6.753Z" fill="url(#t)"/><path d="M176.948 227.521s1.231.184 2.523 2.578c1.293 2.394 1.17 3.254 2.154 5.034 1.046 1.78 2.339 2.824 3.138 4.911.8 2.088 2.647 4.175 2.647 4.175s1.477 1.842.615 2.886c-.8.982-3.877 3.008-5.6 3.744-1.723.737-3.015.799-3.815 1.719-.739.921-3.508 1.105-4-1.289s-.246-2.824 1.231-3.622c1.477-.737 3.753-2.271 3.138-3.315-.615-1.105-1.6-1.105-2.954-3.377-1.354-2.271-2.523-4.972-3.077-6.2-.738-1.719-1.6-6.999 4-7.244Z" fill="#2CD4D9"/><path opacity=".7" d="m626.88 58.955-.431-.246-76.675-44.079v-65.076l.431.246L626.88-6.182v65.137Zm-76.491-44.632 75.876 43.588V-5.752L550.389-49.34v63.663Z" fill="#2CD4D9"/><path opacity=".3" d="m659.987 122.496-.061-56.174-54.707-31.433v56.174l54.768 31.433Z" fill="#2CD4D9"/><path opacity=".7" d="M615.988 407.478v-98.596l.185-.061 95.874-55.008v98.596l-96.059 55.069Zm.677-98.289v97.184l94.767-54.394v-97.183l-94.767 54.393Z" fill="#2CD4D9"/><path opacity=".1" d="M164.982-53.392V34.03L71.015 89.283V1.922l93.967-55.314Z" fill="#2CD4D9"/><path opacity=".15" d="M87.753 63.866v31.126l-33.476 19.707V83.573l33.476-19.707Z" fill="#2CD4D9"/><path opacity=".1" d="M496 228.154 500.8 209l21.292 3.99 61.66 35.731-26.092 15.163-61.66-35.73Z" fill="url(#u)"/><path opacity=".1" d="M558.303 262.919 455.043 203 322 279.617l103.259 59.919 133.044-76.617Z" fill="url(#v)"/><path d="M493.146 219.088v-2.339c0-1.011-.57-1.931-1.451-2.334l-.672-.307a2.837 2.837 0 0 0-3.186.568c-1.355 1.329-3.112 3.322-4.891 5.61-.789 1.017-1.332 1.817-1.805 2.368-.677.789-1.489 2.124-.613 2.646 0 0 1.747 1.045 3.149.25l8.894-5.428c.355-.211.575-.608.575-1.034Z" fill="#0F0446"/><path d="m490.72 211.745-5.574-.897 1.937 4.246c.515.754 1.137 1.646 2.179 2.251 1.152.674 2.4.669 2.784 0a.875.875 0 0 0 .1-.451 4.865 4.865 0 0 0-.521-1.768l-.905-3.381Z" fill="#9E684D"/><path d="M486.146 216.849a5.979 5.979 0 0 1 1.627.22c.764.211 1.273.515 1.373.779" stroke="#5333ED" stroke-opacity=".4" stroke-width="1.582" stroke-miterlimit="10" stroke-linecap="round"/><path d="m526.594 215.005-1.581-1.499a2.397 2.397 0 0 0-2.57-.474l-.665.279a2.894 2.894 0 0 0-1.799 2.615c-.032 1.805.112 4.331.442 7.051.33 2.715-.735 2.379-1.198 3.705-.324.931.415 2.415 1.373 2.131 0 0 2.677-.237 3.704-1.963l2.831-10.661c.09-.379-.25-.91-.537-1.184Z" fill="#0F0446"/><path d="M520.146 220.848c.279-.359.728-.672 1.276-.852.664-.22 1.31-.187 1.724.053" stroke="#5333ED" stroke-opacity=".4" stroke-width="1.582" stroke-miterlimit="10" stroke-linecap="round"/><path d="M526.926 214.848s-.403 2.103-.419 3.573c-.006.438-.06.871-.164 1.298l-1.982 6.647a2.018 2.018 0 0 1-.223.494c-.262.416-.823 1.242-1.394 1.636-.921.627-2.375.882-2.598.838l.517.51s1.367.072 2.386-.388c.844-.388 1.895-1.431 2.33-3.329.371-1.603 1.738-6.846 1.738-6.846l.359.35.67-3.584-1.22-1.199Z" fill="#9B31F7"/><path d="M502.824 187.635s1.681-.497 2.079-2.695c.652-3.637 14.791 2.695 14.791 2.695s1.723.641 1.972 2.182c.493 3.086 2.598 5.681 2.847 9.392 1.034 15.47-30.68 9.832-30.68 9.832 3.276-.323 10.571.063 17.124 1.122 2.704.44 5.137-.159 7.009-.217 3.504-.111 3.456 1.588 3.801 2.706.599 1.937 0 4.595 0 4.595s-1.501 2.436-5.334.689c-4.421-2.018-7.443 1.45-10.846 1.09-4.167-.439-6.007-2.573-9.925-3.134-9.044-1.297-13.529-7.645-7.252-10.796l20.771-6.199s-10.836 8.894-17.765 3.277c-2.349-1.906-3.955-7.592-7.486-10.134 0 0 3.075 1.975 3.653 3.77 1.049 3.272.429 1.97.805 4.315.308 1.959 2.529 2.224 3.388 5.549.467 1.805.239 4.452-.037 6.363a2.914 2.914 0 0 1-2.762 2.494l-.875.037a2.886 2.886 0 0 1-1.452-.317c-1.14-.588-3.319-1.869-4.273-3.511-1.108-1.895-.578-2.451-1.935-5.188-.382-.768-1.024-.604-1.766-2.208-1.431-3.097-.583-4.866-1.352-7.899-1.06-4.167-1.129-7.873.806-10.007 1.294-1.419 4.22-3.012 7.04-2.483 3.282.62 3.712 2.78 5.138 3.399 2.338 1.017 4.368-.037 6.711.593 3.823 1.032 4.841.334 5.843.26" fill="#150673"/><path d="M485.764 209.888s.864-1.477 2.068-1.514c1.203-.038.201.54-.721 1.44-.923.9-1.58 1.016-1.347.074Z" fill="#B7835F"/><path d="M483.458 211.804s.435-1.652 1.585-2.006c1.15-.355.334.466-.313 1.577-.641 1.112-1.246 1.398-1.272.429Z" fill="#B7835F"/><path d="M484.465 211.143s.435-1.652 1.586-2.007c1.15-.355.333.466-.313 1.578-.647 1.112-1.251 1.403-1.273.429Z" fill="#B7835F"/><path d="m522.933 165.584-.101-.095s-13.588-3.648-17.575-4.861c-3.986-1.212-6.229-.338-6.229-.338-4.745 1.228-6.871 6.755-4.167 10.843 0 0 5.917 9.493 7.799 11.97 1.251 2.383 4.315 4.628 8.302 5.734 3.791 1.049 7.406.789 9.734-.439.726-.381 1.325-.853 1.76-1.419.137-.244.286-.519.456-.831 2.157-4.019 6.536-12.94 6.536-12.94.313-4.045-2.762-7.301-6.515-7.624Z" fill="#DFE9F8"/><path d="m511.991 163.62-3.679-7.063-6.579 3.42 5.068 9.609c1.134 2.113 5.688-2.673 5.19-5.966Z" fill="#9E684D"/><path d="m504.866 165.965-1.835-3.457 6.187-4.246.992 1.869c-.075 2.139-.997 4.452-4.167 5.501-.409.143-.79.248-1.177.333Z" fill="#723925"/><path d="M510.336 156.499a1.63 1.63 0 0 0-1.988-1.149c-.031.01-.037.042-.069.053l-.827-1.721c-.678-1.408-1.553-1.726-2.984-2.076-1.14-.28-2.773-.81-3.923-.254-2.598 1.245-3.717 4.305-2.497 6.841l1.882 3.907c1.68 3.5 3.875 3.219 6.213 2.097 2.29-1.096 3.462-3.474 3.175-5.814.764-.291 1.236-1.074 1.018-1.884Z" fill="#B7835F"/><path d="M524.932 182.251s.424-4.58-.748-6.978l-.816 1.244s.498 6.073.064 8.614l1.5-2.88Z" fill="#BDD2EF"/><path d="M507.792 156.102s-.006 1.567-.811 2.16l-1.183-2.997s-.164-.386-.461-.36c-.678.058-1.866 2.451-6.065 2.822-.339.032-.89.021-1.336-.196-.7-.344-.917-1.122-1.039-1.414-.122-.296-.615-3.446 3.966-5.395 0 0 1.823-.54 3.249-.227 0 0 .382-.535 1.204-.493.636.032 3.467.382 3.578 5.311.006-.011-1.012-.037-1.102.789Z" fill="#0C022F"/><path d="M533.134 226.51 400.09 303.128 314 253.277l132.982-76.617 86.152 49.85Z" fill="#C6BCF7"/><path d="M378.306 287.105s-8.061-3.438-13.599-8.472l-2.277 6.323s6.584 5.587 16.122 5.28l-.246-3.131Z" fill="#2CD4D9"/><path d="m377.383 288.394 2.4-1.657 3.508 2.026-4.677 2.394-1.231-2.763Z" fill="#EBA072"/><path d="m377.26 288.394.862-.737s2.031-1.719 2.769-2.026c.431-.184 1.785-.675 1.785-.675h1.599s-.246.798-1.599.982l-.8.553c-.062.307-.185.982-.554 1.78-.246.491-.493.983-.985 1.535 0 0-.861.921-1.292 1.166-1.169.676-1.785-2.578-1.785-2.578Z" fill="#FFC398"/><path opacity=".06" d="m343.846 320.257 31.384-19.155 101.474 58.139-31.384 19.154-101.474-58.138Z" fill="url(#w)"/><path d="m375.229 315.591-10.338 5.586s.739-.859.8-2.578c.062-1.719-1.046-2.763-1.046-2.763l5.169-2.271 5.415.491v1.535Z" fill="#FFC398"/><path d="M353.753 321.975s3.938-1.719 4.8-2.885c.861-1.167 2.031-3.377 2.031-3.377.184-.368.738-.614 1.415-.614.8 0 1.477.369 1.538.86v.982s.308 1.474-1.846 4.298-5.846 3.253-5.846 3.253a3.608 3.608 0 0 1-.861.123c-.985 0-1.785-.491-1.785-1.043v-.799c-.123-.307.123-.614.554-.798Z" fill="#C2D3EB"/><path d="m362.184 312.091-7.077 3.807s.738-.86.8-2.579c.061-1.719-1.046-2.762-1.046-2.762l5.169-2.272 2.092 2.21v1.596h.062Z" fill="#FFC398"/><path d="M351.722 302.883c.677-2.088 1.354-5.526 1.97-7.122.676-1.658.984-1.596.984-1.596l15.077 1.289 7.692-2.824c1.231-.491 4.677 1.535 5.23 3.806.616 2.456 3.385 2.395 4.554 3.193 2.154 1.535 2.523 4.42 1.785 5.893-3.939 8.288.369 9.516-8.431 12.831-4.677 1.781-6.153-.122-8.369-2.271-1.538-1.474-1.846-1.535-3.2-1.903-2.215 1.903-6.892 1.596-11.261-.921-4.985-2.824-7.077-7.244-6.031-10.375Z" fill="#0C022F"/><path d="M354.861 292.2c-1.293 2.21.8 5.71 4.553 7.92 3.754 2.21 7.877 2.21 9.17 0 1.292-2.21-.8-5.71-4.554-7.92-3.816-2.21-7.939-2.21-9.169 0Z" fill="#120667"/><path d="M344.03 316.757s3.939-1.719 4.8-2.885c.862-1.167 2.031-3.377 2.031-3.377.184-.368.738-.614 1.415-.614.8 0 1.477.368 1.539.86v.982s.307 1.473-1.847 4.297c-2.153 2.824-5.846 3.254-5.846 3.254a3.6 3.6 0 0 1-.861.123c-.985 0-1.785-.491-1.785-1.044v-.798c-.123-.307.185-.552.554-.798Z" fill="#C2D3EB"/><path d="M353.076 322.774s.308.737 1.662.737c1.353 0 3.2 0 5.6-2.21 2.399-2.272 3.015-4.85 3.138-5.219v1.167s.061.921-.923 2.64c-.985 1.719-2.4 3.499-5.785 4.481-3.384.983-3.753-.491-3.753-.491 0-.245.061-1.105.061-1.105ZM343.353 317.617s.308.737 1.662.737c1.354 0 3.2-.001 5.6-2.211 2.4-2.271 3.015-4.85 3.138-5.218v1.167s.062.92-.923 2.639c-.985 1.719-2.4 3.5-5.784 4.482-3.385.982-3.754-.491-3.754-.491 0-.246.061-1.105.061-1.105Z" fill="#DFE9F8"/><path d="M376.029 276.362c-.061 0-12.184-7.797-12.861-7.859a6.24 6.24 0 0 0-1.784.246c-.616.246-1.17.552-1.6.921-.493.43-.739.982-.862 1.596 0 0-.861 11.849-4.123 20.935-.738 2.148 1.723 3.499 4.615 6.016 3.447 3.008 9.046 2.026 9.046 2.026 2.339-3.929 3.2-5.525 4.062-6.999 3.2-5.402 4.8-13.813 4.8-13.813.369-.798.246-1.964-1.293-3.069Z" fill="#2CD4D9"/><path d="M361.63 262.18c-.123 4.604-3.139 9.209-4.554 12.708-1.108 2.824-1.046 6.569-.185 9.332 2.339-2.824 8.308-3.5 12.493-7.552 3.692-3.622 3.938-8.717 4.43-9.822.739-1.535 2.831-.676 3.262-3.807.615-4.359-3.2-8.779-7.569-8.779-4.308 0-7.877 3.561-7.877 7.92Z" fill="#4E2D23"/><path d="M403.229 293.244s-3.446 1.228-3.631 1.29c-.184.122-5.354 2.333-5.354 2.333l.862 2.824s3.015.061 5.723-1.351l1.908-.43s.615.369 1.661 0l-1.354-.675-2.4.184 2.708-.982s1.6.184 2.338-.983l-2.215.062-2.338.614 2.153-.921s1.354.491 2.339-.368l-2.523-.492-2.4.737 2.892-1.166s1.231.061 1.662-.798l-2.031.122Z" fill="#FFC398"/><path d="M374.676 289.377c-3.446-4.973-4.862-10.437-2.585-12.033 3.938-2.702 5.415.982 5.415.982.739 3.806 3.016 7.551 5.108 10.437 0 0 5.046 6.446 11.877 7.367 0 0 1.538.859 1.23 2.578 0 0-.246 1.412-1.846 1.596 0 .062-11.63.062-19.199-10.927Z" fill="#2CD4D9"/><path fill-rule="evenodd" clip-rule="evenodd" d="M491.888 190.632s-6.898 11.939-7.566 14.369l3.133 1.122s9.379-9.678 10.482-14.538c1.076-4.744-6.049-.953-6.049-.953Z" fill="#B7835F"/><path d="m484.38 204.863-.551 1.043s-1.273 2.478-1.469 3.272c-.122.493-.143 2.764-.143 2.764l1.585.916s.472-1.419-.631-1.694l.223-1.245c.292-.148 1.066-.333 1.744-.905.44-.371.901-.715 1.368-1.382 0 0 .763-1.08.928-1.593.408-1.282-3.054-1.176-3.054-1.176ZM500.099 168.062l-5.211 4.129c.302 8.17-1.082 12.432-2.842 17.313-2.481 6.867 4.506 5.512 5.657 2.674 7.04-17.387 2.396-24.116 2.396-24.116Z" fill="#B7835F"/><path d="M493.748 168.241s1.516 8.8.546 13.432c0 0 1.691 3.542 6.532 1.679 0 0 1.863-12.799 2.261-16.352l-9.339 1.241Z" fill="#DFE9F8"/><path d="M501.086 181.959s-3.621-4.706-4.39-6.761l-.138-2.006s3.701 6.549 4.687 7.889l-.159.878Z" fill="#BDD2EF"/><path d="M528.372 169.517s-3.849 5.194-3.228 7.169c1.68 5.369.069 14.417-2.529 17.954-6.436 8.783-10.555 13.76-10.555 13.76s1.818 2.652 1.897 2.584c4.91-3.992 10.943-8.916 14.256-13.882 9.76-14.64.159-27.585.159-27.585Z" fill="#B7835F"/><path d="M524.704 186.783s.36-8.514-.674-12.125l3.711-6.596s7.428 5.972 6.108 18.302c0 0-6.081 3.283-8.854.567" fill="#DFE9F8"/><path d="M503.206 213.858s3.213-2.197 3.43-2.313c.217-.122 5.424-3.145 5.424-3.145l1.898 2.583s-1.888 2.642-4.835 4.035l-1.549 1.371s-.063.741-1.049 1.424l.286-1.615 1.755-1.98-2.561 1.716s-.869 1.493-2.333 1.403l1.501-1.885 1.972-1.631-2.19 1.324s-.434 1.509-1.844 1.773l1.208-2.409 2.121-1.662-2.852 1.784s-.721 1.128-1.734.953l1.352-1.726Z" fill="#B7835F"/></g><defs><linearGradient id="b" x1="295.682" y1="135.203" x2="827.387" y2="135.203" gradientUnits="userSpaceOnUse"><stop offset=".123" stop-color="#2CD4D9"/><stop offset=".477" stop-color="#9B31F7"/><stop offset=".664" stop-color="#5333ED"/><stop offset="1" stop-color="#2CD4D9"/></linearGradient><linearGradient id="c" x1="656.002" y1="276.004" x2="786.017" y2="276.004" gradientUnits="userSpaceOnUse"><stop stop-color="#5333ED"/><stop offset="1" stop-color="#9B31F7"/></linearGradient><linearGradient id="d" x1="557.57" y1="613.414" x2="203.158" y2="74.401" gradientUnits="userSpaceOnUse"><stop offset=".123" stop-color="#2CD4D9"/><stop offset=".477" stop-color="#9B31F7"/><stop offset=".664" stop-color="#5333ED"/><stop offset="1" stop-color="#2CD4D9"/></linearGradient><linearGradient id="e" x1="225.166" y1="152.885" x2="225.166" y2="279.413" gradientUnits="userSpaceOnUse"><stop stop-color="#CEE1FF"/><stop offset="1" stop-color="#CEE1FF" stop-opacity="0"/></linearGradient><linearGradient id="f" x1="708.232" y1="429.026" x2="708.232" y2="555.555" gradientUnits="userSpaceOnUse"><stop stop-color="#CEE1FF"/><stop offset="1" stop-color="#CEE1FF" stop-opacity="0"/></linearGradient><linearGradient id="g" x1="780.385" y1="244.666" x2="780.385" y2="371.195" gradientUnits="userSpaceOnUse"><stop stop-color="#CEE1FF"/><stop offset="1" stop-color="#CEE1FF" stop-opacity="0"/></linearGradient><linearGradient id="h" x1="252.567" y1="290" x2="252.567" y2="416.529" gradientUnits="userSpaceOnUse"><stop stop-color="#CEE1FF"/><stop offset="1" stop-color="#CEE1FF" stop-opacity="0"/></linearGradient><linearGradient id="i" x1="468.637" y1="290.648" x2="468.637" y2="417.116" gradientUnits="userSpaceOnUse"><stop stop-color="#CEE1FF"/><stop offset="1" stop-color="#CEE1FF" stop-opacity="0"/></linearGradient><linearGradient id="j" x1="420.023" y1="41.336" x2="420.023" y2="167.865" gradientUnits="userSpaceOnUse"><stop stop-color="#CEE1FF"/><stop offset="1" stop-color="#CEE1FF" stop-opacity="0"/></linearGradient><linearGradient id="k" x1="228.284" y1="365.971" x2="271.433" y2="440.884" gradientUnits="userSpaceOnUse"><stop stop-color="#11055B"/><stop offset=".794" stop-color="#11055B" stop-opacity="0"/></linearGradient><linearGradient id="l" x1="210.616" y1="323.533" x2="210.616" y2="314.12" gradientUnits="userSpaceOnUse"><stop stop-color="#0C022F"/><stop offset=".243" stop-color="#0D0235" stop-opacity=".757"/><stop offset=".579" stop-color="#0F0447" stop-opacity=".421"/><stop offset=".968" stop-color="#120664" stop-opacity=".033"/><stop offset="1" stop-color="#120667" stop-opacity="0"/></linearGradient><linearGradient id="m" x1="224.056" y1="293.191" x2="221.197" y2="301.063" gradientUnits="userSpaceOnUse"><stop stop-color="#120667"/><stop offset="1" stop-color="#120667" stop-opacity="0"/></linearGradient><linearGradient id="n" x1="202.865" y1="282.795" x2="199.833" y2="291.145" gradientUnits="userSpaceOnUse"><stop stop-color="#120667"/><stop offset="1" stop-color="#120667" stop-opacity="0"/></linearGradient><linearGradient id="o" x1="597.118" y1="342.145" x2="643.783" y2="423.162" gradientUnits="userSpaceOnUse"><stop stop-color="#11055B"/><stop offset=".794" stop-color="#11055B" stop-opacity="0"/></linearGradient><linearGradient id="p" x1="583.567" y1="296.205" x2="583.567" y2="286.578" gradientUnits="userSpaceOnUse"><stop stop-color="#0C022F"/><stop offset=".243" stop-color="#0D0235" stop-opacity=".757"/><stop offset=".579" stop-color="#0F0447" stop-opacity=".421"/><stop offset=".968" stop-color="#120664" stop-opacity=".033"/><stop offset="1" stop-color="#120667" stop-opacity="0"/></linearGradient><linearGradient id="q" x1="177.529" y1="305.847" x2="214.834" y2="370.613" gradientUnits="userSpaceOnUse"><stop stop-color="#462AD3"/><stop offset="1" stop-color="#462AD3" stop-opacity="0"/></linearGradient><linearGradient id="r" x1="159.051" y1="243.543" x2="159.051" y2="223.121" gradientUnits="userSpaceOnUse"><stop stop-color="#462AD3"/><stop offset=".386" stop-color="#482CD8" stop-opacity=".614"/><stop offset=".836" stop-color="#4F31E6" stop-opacity=".164"/><stop offset="1" stop-color="#5333ED" stop-opacity="0"/></linearGradient><linearGradient id="s" x1="182.639" y1="245.895" x2="182.639" y2="243.668" gradientUnits="userSpaceOnUse"><stop stop-color="#0C022F"/><stop offset=".25" stop-color="#0D0234" stop-opacity=".75"/><stop offset=".542" stop-color="#0E0342" stop-opacity=".458"/><stop offset=".853" stop-color="#110559" stop-opacity=".147"/><stop offset="1" stop-color="#120667" stop-opacity="0"/></linearGradient><linearGradient id="t" x1="175.558" y1="237.412" x2="172.343" y2="237.412" gradientUnits="userSpaceOnUse"><stop stop-color="#462AD3"/><stop offset=".386" stop-color="#482CD8" stop-opacity=".614"/><stop offset=".836" stop-color="#4F31E6" stop-opacity=".164"/><stop offset="1" stop-color="#5333ED" stop-opacity="0"/></linearGradient><linearGradient id="u" x1="555.387" y1="265.221" x2="517.486" y2="199.419" gradientUnits="userSpaceOnUse"><stop stop-color="#120667" stop-opacity="0"/><stop offset="1" stop-color="#120667" stop-opacity=".857"/></linearGradient><linearGradient id="v" x1="466.08" y1="316.036" x2="414.442" y2="226.386" gradientUnits="userSpaceOnUse"><stop stop-color="#120667" stop-opacity=".252"/><stop offset="1" stop-color="#120667" stop-opacity=".857"/></linearGradient><linearGradient id="w" x1="435.811" y1="383.894" x2="384.897" y2="295.499" gradientUnits="userSpaceOnUse"><stop stop-color="#120667" stop-opacity="0"/><stop offset="1" stop-color="#120667" stop-opacity=".857"/></linearGradient><clipPath id="a"><path fill="#fff" d="M0 0h910v509H0z"/></clipPath></defs></svg>
