<svg width="500" height="1001" viewBox="0 0 500 1001" fill="none" xmlns="http://www.w3.org/2000/svg">
<g clip-path="url(#clip0_1397_10402)">
<mask id="mask0_1397_10402" style="mask-type:alpha" maskUnits="userSpaceOnUse" x="0" y="0" width="500" height="1001">
<rect width="500" height="1001" fill="url(#paint0_linear_1397_10402)"/>
</mask>
<g mask="url(#mask0_1397_10402)">
<g clip-path="url(#clip1_1397_10402)">
<rect x="0.5" y="0.5" width="61.6252" height="61.5" rx="5.5" transform="matrix(-1.21826e-08 1 1 -7.50287e-08 62.5 439.377)" stroke="#EADDD5"/>
<rect x="-0.5" y="0.5" width="61.5" height="61.6252" rx="5.5" transform="matrix(-1 4.43876e-10 8.59063e-08 1 61.5 439.377)" stroke="#EADDD5"/>
<rect x="0.5" y="0.5" width="61.6252" height="61.5" rx="5.5" transform="matrix(4.33425e-08 1 1 -1.30776e-07 187.5 376.752)" stroke="#EADDD5"/>
<rect x="-0.5" y="-0.5" width="61.6252" height="61.5" rx="5.5" transform="matrix(-1.16195e-08 -1 -1 9.89262e-08 186.5 438.377)" stroke="#EADDD5"/>
<rect x="-0.5" y="0.5" width="61.5" height="61.6252" rx="5.5" transform="matrix(-1 4.43876e-10 8.59063e-08 1 124 376.752)" stroke="#EADDD5"/>
<rect x="-0.5" y="0.5" width="61.5" height="61.6252" rx="5.5" transform="matrix(-1 4.43876e-10 8.79427e-08 1 249 314.126)" stroke="#EADDD5"/>
<rect x="-0.5" y="-0.5" width="61.6252" height="61.5" rx="5.5" transform="matrix(4.42472e-08 -1 -1 4.28464e-08 186.5 375.752)" stroke="#EADDD5"/>
<rect x="-0.5" y="-0.5" width="61.6252" height="61.5" rx="5.5" transform="matrix(2.95121e-08 -1 -1 4.42428e-08 61.5 375.752)" stroke="#EADDD5"/>
<rect x="0.5" y="-0.5" width="61.5" height="61.6252" rx="5.5" transform="matrix(1 8.71541e-08 5.88002e-08 -1 125 313.126)" stroke="#EADDD5"/>
<rect x="0.5" y="-0.5" width="61.5" height="61.6252" rx="5.5" transform="matrix(1 8.7154e-08 1.4675e-08 -1 62.5 313.126)" stroke="#EADDD5"/>
<rect x="0.5" y="-0.5" width="61.5" height="61.6252" rx="5.5" transform="matrix(1 2.16404e-07 1.52644e-07 -1 7.63218e-08 313.126)" stroke="#EADDD5"/>
<rect x="-0.5" y="0.5" width="61.5" height="61.6252" rx="5.5" transform="matrix(-1 1.48951e-08 8.69664e-08 1 311.5 188.876)" stroke="#EADDD5"/>
<rect x="0.5" y="-0.5" width="61.5" height="61.6252" rx="5.5" transform="matrix(1 2.16404e-07 1.52644e-07 -1 187.5 250.501)" stroke="#EADDD5"/>
<rect x="-0.5" y="-0.5" width="61.6252" height="61.5" rx="5.5" transform="matrix(-1.16195e-08 -1 -1 7.62671e-08 124 250.501)" stroke="#EADDD5"/>
<rect x="-0.5" y="-0.5" width="61.6252" height="61.5" rx="5.5" transform="matrix(-1.15265e-08 -1 -1 8.62292e-08 499 187.876)" stroke="#EADDD5"/>
<rect x="-0.5" y="-0.5" width="61.6252" height="61.5" rx="5.5" transform="matrix(2.95121e-08 -1 -1 4.42428e-08 374 187.876)" stroke="#EADDD5"/>
<rect x="0.5" y="-0.5" width="61.5" height="61.6252" rx="5.5" transform="matrix(1 7.27029e-08 2.81531e-10 -1 187.5 187.876)" stroke="#EADDD5"/>
<rect x="-0.5" y="0.5" width="61.5" height="61.6252" rx="5.5" transform="matrix(-1 1.7564e-07 2.47069e-07 1 124 126.251)" stroke="#EADDD5"/>
<rect x="-0.5" y="-0.5" width="61.6252" height="61.5" rx="5.5" transform="matrix(-1.16195e-08 -1 -1 8.55394e-08 61.5 187.876)" stroke="#EADDD5"/>
<rect x="0.5" y="-0.5" width="61.5" height="61.6252" rx="5.5" transform="matrix(1 7.27029e-08 2.81531e-10 -1 375 125.251)" stroke="#EADDD5"/>
<rect x="0.5" y="-0.5" width="61.5" height="61.6252" rx="5.5" transform="matrix(1 7.27029e-08 2.81531e-10 -1 312.5 125.251)" stroke="#EADDD5"/>
<rect x="0.5" y="0.5" width="61.6252" height="61.5" rx="5.5" transform="matrix(4.33424e-08 1 1 -1.1739e-07 250 63.6256)" stroke="#EADDD5"/>
<rect x="0.5" y="-0.5" width="61.5" height="61.6252" rx="5.5" transform="matrix(1 7.27029e-08 2.81531e-10 -1 187.5 125.251)" stroke="#EADDD5"/>
<rect x="-0.5" y="-0.5" width="61.6252" height="61.5" rx="5.5" transform="matrix(4.39055e-08 -1 -1 7.20229e-08 186.5 125.251)" stroke="#EADDD5"/>
<rect x="-0.5" y="0.5" width="61.5" height="61.6252" rx="5.5" transform="matrix(-1 4.43874e-10 7.2573e-08 1 61.5 63.6256)" stroke="#EADDD5"/>
<rect x="0.5" y="-0.5" width="61.5" height="61.6252" rx="5.5" transform="matrix(1 7.27029e-08 2.81531e-10 -1 437.5 62.6256)" stroke="#EADDD5"/>
<rect x="-0.5" y="0.5" width="61.5" height="61.6252" rx="5.5" transform="matrix(-1 4.42993e-10 7.27184e-08 1 374 1.00037)" stroke="#EADDD5"/>
<rect x="0.5" y="-0.5" width="61.5" height="61.6252" rx="5.5" transform="matrix(1 -8.80418e-08 -1.59821e-07 -1 187.5 62.6256)" stroke="#EADDD5"/>
<rect x="0.5" y="-0.5" width="61.5" height="61.6252" rx="5.5" transform="matrix(1 7.27029e-08 2.81531e-10 -1 62.5 62.6256)" stroke="#EADDD5"/>
<rect x="0.5" y="-0.5" width="61.5" height="61.6252" rx="5.5" transform="matrix(1 7.27029e-08 2.81531e-10 -1 2.99431e-08 62.6256)" stroke="#EADDD5"/>
</g>
<g clip-path="url(#clip2_1397_10402)">
<rect x="0.5" y="-0.5" width="61.5" height="61.6252" rx="5.5" transform="matrix(1 -8.73376e-08 -1.74551e-07 -1 375 1001)" stroke="#EADDD5"/>
<rect x="0.5" y="0.5" width="61.6252" height="61.5" rx="5.5" transform="matrix(-1.21826e-08 1 1 -7.50287e-08 312.5 939.377)" stroke="#EADDD5"/>
<rect x="-0.5" y="0.5" width="61.5" height="61.6252" rx="5.5" transform="matrix(-1 4.43876e-10 8.59063e-08 1 249 939.377)" stroke="#EADDD5"/>
<rect x="0.5" y="0.5" width="61.6252" height="61.5" rx="5.5" transform="matrix(-1.21826e-08 1 1 -7.50287e-08 62.5 939.377)" stroke="#EADDD5"/>
<rect x="-0.5" y="0.5" width="61.5" height="61.6252" rx="5.5" transform="matrix(-1 4.43876e-10 8.59063e-08 1 61.5 939.377)" stroke="#EADDD5"/>
<rect x="0.5" y="0.5" width="61.6252" height="61.5" rx="5.5" transform="matrix(-1.21826e-08 1 1 -7.50287e-08 437.5 876.752)" stroke="#EADDD5"/>
<rect x="0.5" y="0.5" width="61.6252" height="61.5" rx="5.5" transform="matrix(-1.21826e-08 1 1 -7.50287e-08 312.5 876.752)" stroke="#EADDD5"/>
<rect x="-0.5" y="0.5" width="61.5" height="61.6252" rx="5.5" transform="matrix(-1 4.43876e-10 8.59063e-08 1 311.5 876.752)" stroke="#EADDD5"/>
<rect x="0.5" y="0.5" width="61.6252" height="61.5" rx="5.5" transform="matrix(4.33425e-08 1 1 -1.30776e-07 187.5 876.752)" stroke="#EADDD5"/>
<rect x="-0.5" y="-0.5" width="61.6252" height="61.5" rx="5.5" transform="matrix(-1.16195e-08 -1 -1 9.89262e-08 186.5 938.377)" stroke="#EADDD5"/>
<rect x="-0.5" y="0.5" width="61.5" height="61.6252" rx="5.5" transform="matrix(-1 4.43876e-10 8.59063e-08 1 124 876.752)" stroke="#EADDD5"/>
<rect x="-0.5" y="0.5" width="61.5" height="61.6252" rx="5.5" transform="matrix(-1 4.47457e-10 8.5219e-08 1 499 814.126)" stroke="#EADDD5"/>
<rect x="0.5" y="-0.5" width="61.5" height="61.6252" rx="5.5" transform="matrix(1 -8.73611e-08 -1.74513e-07 -1 312.5 875.752)" stroke="#EADDD5"/>
<rect x="-0.5" y="0.5" width="61.5" height="61.6252" rx="5.5" transform="matrix(-1 4.43876e-10 8.79427e-08 1 249 814.126)" stroke="#EADDD5"/>
<rect x="-0.5" y="-0.5" width="61.6252" height="61.5" rx="5.5" transform="matrix(4.42472e-08 -1 -1 4.28464e-08 186.5 875.752)" stroke="#EADDD5"/>
<rect x="-0.5" y="-0.5" width="61.6252" height="61.5" rx="5.5" transform="matrix(2.95121e-08 -1 -1 4.42428e-08 61.5 875.752)" stroke="#EADDD5"/>
<rect x="0.5" y="-0.5" width="61.5" height="61.6252" rx="5.5" transform="matrix(1 -8.80418e-08 -1.73154e-07 -1 437.5 813.126)" stroke="#EADDD5"/>
<rect x="-0.5" y="0.5" width="61.5" height="61.6252" rx="5.5" transform="matrix(-1 4.43876e-10 8.59063e-08 1 436.5 751.501)" stroke="#EADDD5"/>
<rect x="-0.5" y="-0.5" width="61.6252" height="61.5" rx="5.5" transform="matrix(4.39055e-08 -1 -1 4.31784e-08 374 813.126)" stroke="#EADDD5"/>
<rect x="-0.5" y="0.5" width="61.5" height="61.6252" rx="5.5" transform="matrix(-1 4.43876e-10 6.33377e-08 1 311.5 751.501)" stroke="#EADDD5"/>
<rect x="0.5" y="-0.5" width="61.5" height="61.6252" rx="5.5" transform="matrix(1 8.71541e-08 5.88002e-08 -1 125 813.126)" stroke="#EADDD5"/>
<rect x="0.5" y="-0.5" width="61.5" height="61.6252" rx="5.5" transform="matrix(1 8.7154e-08 1.4675e-08 -1 62.5 813.126)" stroke="#EADDD5"/>
<rect x="0.5" y="-0.5" width="61.5" height="61.6252" rx="5.5" transform="matrix(1 2.16404e-07 1.52644e-07 -1 7.63218e-08 813.126)" stroke="#EADDD5"/>
<rect x="0.5" y="0.5" width="61.6252" height="61.5" rx="5.5" transform="matrix(4.33425e-08 1 1 -1.08117e-07 375 688.876)" stroke="#EADDD5"/>
<rect x="-0.5" y="0.5" width="61.5" height="61.6252" rx="5.5" transform="matrix(-1 1.48951e-08 8.69664e-08 1 311.5 688.876)" stroke="#EADDD5"/>
<rect x="0.5" y="-0.5" width="61.5" height="61.6252" rx="5.5" transform="matrix(1 2.16404e-07 1.52644e-07 -1 187.5 750.501)" stroke="#EADDD5"/>
<rect x="-0.5" y="-0.5" width="61.6252" height="61.5" rx="5.5" transform="matrix(-1.16195e-08 -1 -1 7.62671e-08 124 750.501)" stroke="#EADDD5"/>
<rect x="-0.5" y="0.5" width="61.5" height="61.6252" rx="5.5" transform="matrix(-1 1.7564e-07 2.47069e-07 1 124 626.251)" stroke="#EADDD5"/>
<rect x="-0.5" y="-0.5" width="61.6252" height="61.5" rx="5.5" transform="matrix(-1.16195e-08 -1 -1 8.55394e-08 61.5 687.876)" stroke="#EADDD5"/>
<rect x="-0.5" y="-0.5" width="61.6252" height="61.5" rx="5.5" transform="matrix(4.39055e-08 -1 -1 7.20229e-08 186.5 625.251)" stroke="#EADDD5"/>
<rect x="-0.5" y="0.5" width="61.5" height="61.6252" rx="5.5" transform="matrix(-1 4.43874e-10 7.2573e-08 1 61.5 563.626)" stroke="#EADDD5"/>
<rect x="0.5" y="-0.5" width="61.5" height="61.6252" rx="5.5" transform="matrix(1 7.27029e-08 2.81531e-10 -1 62.5 562.626)" stroke="#EADDD5"/>
<rect x="0.5" y="-0.5" width="61.5" height="61.6252" rx="5.5" transform="matrix(1 7.27029e-08 2.81531e-10 -1 2.99431e-08 562.626)" stroke="#EADDD5"/>
</g>
</g>
</g>
<defs>
<linearGradient id="paint0_linear_1397_10402" x1="250" y1="0" x2="250" y2="1001" gradientUnits="userSpaceOnUse">
<stop offset="0.678619" stop-color="white"/>
<stop offset="0.98126" stop-color="white" stop-opacity="0"/>
</linearGradient>
<clipPath id="clip0_1397_10402">
<rect width="500" height="1001" fill="white"/>
</clipPath>
<clipPath id="clip1_1397_10402">
<rect width="500" height="500" fill="white" transform="matrix(-1 0 0 1 500 1)"/>
</clipPath>
<clipPath id="clip2_1397_10402">
<rect width="500" height="500" fill="white" transform="matrix(-1 0 0 1 500 501)"/>
</clipPath>
</defs>
</svg>
