<svg xmlns="http://www.w3.org/2000/svg" xmlns:xlink="http://www.w3.org/1999/xlink"><defs><style>
    .sprite-symbol-usage {display: none;}
    .sprite-symbol-usage:target {display: inline;}
  </style><symbol fill="none" viewBox="0 0 24 24" id="arrow"><path d="M13.736 5.634a.9.9 0 011.273 0l5.728 5.727a.896.896 0 01.262.687l-.001.019a.898.898 0 01-.298.604l-5.69 5.69a.9.9 0 11-1.274-1.272l4.19-4.189H3.9a.9.9 0 110-1.8h14.03l-4.194-4.193a.9.9 0 010-1.273z" fill="currentColor" /></symbol><symbol fill="none" viewBox="0 0 24 24" id="arrow-left"><path d="M10.264 5.634a.9.9 0 010 1.273L6.07 11.1H20.1a.9.9 0 110 1.8H6.075l4.189 4.189a.9.9 0 11-1.273 1.273l-5.689-5.69A.898.898 0 013 12c0-.23.088-.462.264-.638L8.99 5.634a.9.9 0 011.273 0z" fill="currentColor" /></symbol><symbol fill="none" viewBox="0 0 24 24" id="arrow-left-square-solid"><path fill-rule="evenodd" clip-rule="evenodd" d="M10.86 2h2.28c1.366 0 2.447 0 3.317.071.89.073 1.639.224 2.322.572a5.9 5.9 0 012.578 2.578c.348.683.5 1.432.572 2.322.071.87.071 1.95.071 3.317v2.28c0 1.366 0 2.447-.071 3.317-.073.89-.224 1.639-.572 2.322a5.899 5.899 0 01-2.578 2.578c-.683.348-1.432.5-2.322.572-.87.071-1.95.071-3.317.071h-2.28c-1.366 0-2.447 0-3.317-.071-.89-.073-1.639-.224-2.322-.572a5.9 5.9 0 01-2.578-2.578c-.348-.683-.5-1.432-.572-2.322C2 15.587 2 14.507 2 13.14v-2.28c0-1.366 0-2.447.071-3.317.073-.89.224-1.639.572-2.322a5.9 5.9 0 012.578-2.578c.683-.348 1.432-.5 2.322-.572C8.413 2 9.493 2 10.86 2zm-.787 9.1l2.07-2.07a.9.9 0 00-1.273-1.273l-3.606 3.606a.9.9 0 00.011 1.285l3.595 3.594a.9.9 0 101.273-1.272l-2.07-2.07H16.1a.9.9 0 100-1.8h-6.027z" fill="currentColor" /></symbol><symbol fill="none" viewBox="0 0 24 24" id="arrow-right-small"><path fill="currentColor" d="M11.857 9.03a.9.9 0 011.273-1.272l3.606 3.606a.9.9 0 010 1.272l-3.606 3.607a.9.9 0 11-1.273-1.273l2.07-2.07H7.9a.9.9 0 110-1.8h6.027l-2.07-2.07z" /></symbol><symbol fill="none" viewBox="0 0 24 24" id="arrow-right-small-alt"><path d="M12.63 10a.896.896 0 00-.115.543v.557H7.9a.9.9 0 100 1.8h4.615v.65a.9.9 0 001.35.78l2.684-1.548a.9.9 0 00-.022-1.574L13.86 9.67a.9.9 0 00-1.23.33z" fill="currentColor" /></symbol><symbol fill="none" viewBox="0 0 24 24" id="arrow-right-square-solid"><path fill-rule="evenodd" clip-rule="evenodd" d="M13.14 22h-2.28c-1.366 0-2.447 0-3.317-.071-.89-.073-1.639-.224-2.322-.572a5.9 5.9 0 01-2.578-2.578c-.348-.683-.5-1.432-.572-2.322C2 15.587 2 14.507 2 13.14v-2.28c0-1.366 0-2.447.071-3.317.073-.89.224-1.639.572-2.322a5.9 5.9 0 012.578-2.578c.683-.348 1.432-.5 2.322-.572C8.413 2 9.493 2 10.86 2h2.28c1.366 0 2.447 0 3.317.071.89.073 1.639.224 2.322.572a5.9 5.9 0 012.578 2.578c.348.683.5 1.432.572 2.322.071.87.071 1.95.071 3.317v2.28c0 1.366 0 2.447-.071 3.317-.073.89-.224 1.639-.572 2.322a5.899 5.899 0 01-2.578 2.578c-.683.348-1.432.5-2.322.572-.87.071-1.95.071-3.317.071zm.787-9.1l-2.07 2.07a.9.9 0 001.273 1.273l3.606-3.606A.898.898 0 0017 12.02V12a.897.897 0 00-.275-.648L13.13 7.758a.9.9 0 00-1.273 1.272l2.07 2.07H7.9a.9.9 0 100 1.8h6.027z" fill="currentColor" /></symbol><symbol fill="none" viewBox="0 0 24 24" id="arrow-right-up-small"><path d="M15.58 8.514a.904.904 0 00-.698-.312H9.8a.9.9 0 000 1.8h2.927l-4.262 4.261a.9.9 0 001.273 1.273L14 11.274v2.928a.9.9 0 001.8 0v-5.1a.898.898 0 00-.218-.588z" fill="currentColor" /></symbol><symbol fill="none" viewBox="0 0 24 24" id="arrow-right-up-square"><path d="M15.799 9.1a.899.899 0 00-.921-.9H9.799a.9.9 0 000 1.8h2.927l-4.262 4.262a.9.9 0 001.273 1.273l4.262-4.262V14.2a.9.9 0 001.8 0V9.1z" fill="currentColor" /><path fill-rule="evenodd" clip-rule="evenodd" d="M10.86 2c-1.366 0-2.447 0-3.317.071-.89.073-1.639.224-2.322.572a5.9 5.9 0 00-2.578 2.578c-.348.683-.5 1.432-.572 2.322C2 8.413 2 9.493 2 10.86v2.28c0 1.366 0 2.447.071 3.317.073.89.224 1.639.572 2.322a5.9 5.9 0 002.578 2.578c.683.348 1.432.5 2.322.572.87.07 1.95.07 3.317.07h2.28c1.366 0 2.447 0 3.317-.07.89-.073 1.639-.224 2.322-.572a5.9 5.9 0 002.578-2.578c.348-.683.5-1.432.572-2.322.071-.87.071-1.95.071-3.317v-2.28c0-1.366 0-2.447-.071-3.317-.073-.89-.224-1.639-.572-2.322a5.9 5.9 0 00-2.578-2.578c-.683-.348-1.432-.5-2.322-.572C15.587 2 14.507 2 13.14 2h-2.28zM6.04 4.247c.386-.197.872-.318 1.65-.382.789-.064 1.796-.065 3.211-.065h2.2c1.415 0 2.422 0 3.21.065.779.064 1.265.185 1.651.382a4.1 4.1 0 011.792 1.792c.197.386.318.872.382 1.65.064.789.065 1.796.065 3.21v2.2c0 1.416 0 2.423-.065 3.212-.064.778-.185 1.264-.382 1.65a4.1 4.1 0 01-1.792 1.792c-.386.197-.872.318-1.65.382-.789.064-1.796.065-3.211.065h-2.2c-1.415 0-2.422 0-3.21-.065-.779-.064-1.265-.185-1.651-.382a4.1 4.1 0 01-1.792-1.792c-.197-.386-.318-.872-.382-1.65-.064-.789-.065-1.796-.065-3.211v-2.2c0-1.415 0-2.422.065-3.21.064-.779.185-1.265.382-1.651A4.1 4.1 0 016.04 4.247z" fill="currentColor" /></symbol><symbol viewBox="0 0 32 32" id="buffer"><path d="M16 32C7.163 32 0 24.837 0 16S7.163 0 16 0s16 7.163 16 16-7.163 16-16 16zM6.72 10.515c-.237.117-.281.264-.085.442l8.784 4.186a.98.98 0 00.864-.008l8.869-4.26c.322-.209.412-.303.305-.548 0 0-8.22-3.904-8.787-4.156-.566-.252-.728-.158-.964-.042L6.72 10.515zm0 5.382c-.236.117-.28.264-.084.442l8.783 4.185a.98.98 0 00.864-.008l8.868-4.26c.324-.209.384-.222.277-.466l-1.648-.807a1.25 1.25 0 00-.542-.174c-.218 0-.436.037-.644.11l-6.037 2.969a1.62 1.62 0 01-.57.186 1.213 1.213 0 01-.542-.175l-5.929-2.85a1.76 1.76 0 00-.518-.098 1.118 1.118 0 00-.446.107l-1.832.839zm0 5.382c-.236.117-.28.263-.084.442l8.783 4.185a.98.98 0 00.864-.008l8.868-4.26c.324-.21.384-.222.277-.466l-1.648-.807a1.25 1.25 0 00-.542-.174 1.92 1.92 0 00-.644.11l-6.037 2.969c-.177.097-.37.16-.57.185a1.213 1.213 0 01-.542-.174l-5.929-2.85a1.76 1.76 0 00-.518-.098 1.118 1.118 0 00-.446.107l-1.832.839z" fill="currentColor" /></symbol><symbol fill="none" viewBox="0 0 24 24" id="calendar-alt"><path d="M7 18.1a1.1 1.1 0 110-2.2 1.1 1.1 0 010 2.2zm3.9-1.1a1.1 1.1 0 102.2 0 1.1 1.1 0 00-2.2 0zm1.1-2.9a1.1 1.1 0 110-2.2 1.1 1.1 0 010 2.2zm3.9 2.9a1.1 1.1 0 102.2 0 1.1 1.1 0 00-2.2 0zm1.1-2.9a1.1 1.1 0 110-2.2 1.1 1.1 0 010 2.2z" fill="currentColor" /><path fill-rule="evenodd" clip-rule="evenodd" d="M6.9 2a.9.9 0 01.9.9V4h8.4V2.9a.9.9 0 111.8 0V4h.6A3.4 3.4 0 0122 7.4v11.2a3.4 3.4 0 01-3.4 3.4H5.4A3.4 3.4 0 012 18.6V7.4A3.4 3.4 0 015.4 4H6V2.9a.9.9 0 01.9-.9zm11.7 3.8a1.6 1.6 0 011.6 1.6V8H3.8v-.6a1.6 1.6 0 011.6-1.6h13.2zm-14.8 4h16.4v8.8a1.6 1.6 0 01-1.6 1.6H5.4a1.6 1.6 0 01-1.6-1.6V9.8z" fill="currentColor" /></symbol><symbol fill="none" viewBox="0 0 24 24" id="chat"><path fill="currentColor" d="M8.098 21.773A.9.9 0 016.6 21.1v-3.11A4.9 4.9 0 012 13.187V9.26c0-1.087 0-1.958.057-2.661.06-.723.184-1.349.477-1.925a4.9 4.9 0 012.141-2.14c.576-.294 1.202-.418 1.925-.478C7.303 2 8.174 2 9.26 2h5.479c1.087 0 1.958 0 2.662.057.722.06 1.348.184 1.924.477a4.9 4.9 0 012.14 2.141c.294.576.419 1.202.477 1.925C22 7.303 22 8.174 22 9.26v2.797c0 .965 0 1.606-.129 2.158a4.9 4.9 0 01-3.656 3.656c-.552.13-1.193.13-2.158.129h-.126c-.895 0-1.278.001-1.642.04a7.1 7.1 0 00-3.375 1.283c-.298.213-.585.466-1.254 1.061l-1.562 1.389z" /></symbol><symbol fill="none" viewBox="0 0 24 24" id="chat-alt"><path d="M10.5 10a1.5 1.5 0 113 0 1.5 1.5 0 01-3 0zm6.4-1.5a1.5 1.5 0 100 3 1.5 1.5 0 000-3zM5.6 10a1.5 1.5 0 113 0 1.5 1.5 0 01-3 0z" fill="currentColor" /><path fill-rule="evenodd" clip-rule="evenodd" d="M8.098 21.773A.9.9 0 016.6 21.1v-3.11A4.9 4.9 0 012 13.187V9.26c0-1.087 0-1.958.057-2.661.06-.723.184-1.349.477-1.925a4.9 4.9 0 012.141-2.141c.576-.293 1.202-.417 1.925-.477C7.303 2 8.174 2 9.26 2h5.478c1.087 0 1.958 0 2.662.057.722.06 1.348.184 1.924.477a4.9 4.9 0 012.14 2.141c.294.576.419 1.202.477 1.924C22 7.303 22 8.174 22 9.261v2.796c0 .965 0 1.606-.129 2.158a4.9 4.9 0 01-3.656 3.656c-.552.13-1.193.13-2.158.129h-.126c-.895 0-1.278.001-1.642.04a7.1 7.1 0 00-3.375 1.283c-.298.213-.585.466-1.254 1.061l-1.562 1.389zm.302-2.677L8.506 19c.615-.546.976-.867 1.361-1.142a8.9 8.9 0 014.231-1.609c.47-.05.954-.05 1.776-.05h.057c1.137 0 1.552-.006 1.874-.081a3.1 3.1 0 002.314-2.313c.075-.323.081-.738.081-1.875V9.3c0-1.135 0-1.932-.052-2.554-.05-.611-.143-.974-.286-1.253a3.1 3.1 0 00-1.355-1.355c-.28-.143-.642-.237-1.253-.287-.622-.05-1.419-.051-2.554-.051H9.3c-1.135 0-1.932 0-2.554.051-.611.05-.974.144-1.253.287a3.1 3.1 0 00-1.355 1.355c-.143.28-.237.642-.286 1.253C3.8 7.368 3.8 8.165 3.8 9.3v3.854A3.1 3.1 0 006.99 16.2h.035A1.4 1.4 0 018.4 17.576v1.52z" fill="currentColor" /></symbol><symbol fill="none" viewBox="0 0 24 24" id="check"><path d="M20.586 6.806a.9.9 0 10-1.272-1.272L8.43 16.417l-3.631-5.446a.9.9 0 10-1.498.998l4.23 6.345a.893.893 0 00.294.287.902.902 0 001.115-.148L20.586 6.806z" fill="currentColor" /></symbol><symbol fill="none" viewBox="0 0 24 24" id="check-circle"><path fill="currentColor" fill-rule="evenodd" d="M2 12C2 6.477 6.477 2 12 2s10 4.477 10 10-4.477 10-10 10S2 17.523 2 12zm15.206-3.846a.9.9 0 010 1.272L10.8 15.833a.918.918 0 01-.34.222.902.902 0 01-1.068-.36l-2.71-4.055a.9.9 0 011.496-1l2.111 3.158 5.645-5.644a.9.9 0 011.272 0z" clip-rule="evenodd" /></symbol><symbol fill="none" viewBox="0 0 20 20" id="check-square"><path fill="currentColor" fill-rule="evenodd" d="M9.05 1.667h1.9c1.139 0 2.04 0 2.765.059.74.06 1.365.186 1.934.476a4.917 4.917 0 012.149 2.15c.29.568.416 1.192.476 1.933.06.726.06 1.626.06 2.765v1.9c0 1.138 0 2.039-.06 2.764-.06.741-.186 1.366-.476 1.935a4.917 4.917 0 01-2.149 2.148c-.569.29-1.193.416-1.934.477-.726.06-1.626.06-2.765.06h-1.9c-1.138 0-2.039 0-2.764-.06-.741-.06-1.365-.187-1.934-.477a4.916 4.916 0 01-2.15-2.148c-.289-.57-.415-1.194-.476-1.935-.059-.725-.059-1.626-.059-2.764v-1.9c0-1.139 0-2.04.06-2.765.06-.74.186-1.365.476-1.934a4.917 4.917 0 012.149-2.149c.569-.29 1.193-.416 1.934-.476.725-.06 1.626-.06 2.765-.06zm5.289 5.128a.75.75 0 010 1.06l-5.34 5.34a.755.755 0 01-.282.184.752.752 0 01-.89-.3L5.567 9.7a.75.75 0 011.247-.833l1.76 2.631 4.703-4.703a.75.75 0 011.06 0z" clip-rule="evenodd" /></symbol><symbol fill="none" viewBox="0 0 24 24" id="chevron"><path d="M5.23 9.77a.9.9 0 011.272-1.272l5.092 5.091 5.091-5.091a.9.9 0 011.273 1.273l-5.728 5.727a.897.897 0 01-1.273 0L5.229 9.771z" fill="currentColor" /></symbol><symbol fill="none" viewBox="0 0 24 24" id="chevron-large"><path d="M9.366 5.638a.9.9 0 10-1.272 1.273l5.09 5.091-5.09 5.091a.9.9 0 001.272 1.273l5.728-5.727a.9.9 0 000-1.273L9.366 5.638z" fill="currentColor" /></symbol><symbol fill="none" viewBox="0 0 24 24" id="chevron-right"><path d="M9.366 5.638a.9.9 0 10-1.272 1.273l5.09 5.091-5.09 5.091a.9.9 0 001.272 1.273l5.728-5.727a.9.9 0 000-1.273L9.366 5.638z" fill="currentColor" /></symbol><symbol fill="none" viewBox="0 0 24 24" id="chevron-thin-left"><path d="M13.991 5.264a.9.9 0 011.273 1.272l-5.091 5.092 5.09 5.09a.9.9 0 11-1.272 1.274l-5.727-5.728a.9.9 0 010-1.273l5.727-5.727z" fill="currentColor" /></symbol><symbol fill="none" viewBox="0 0 24 24" id="copy"><path fill-rule="evenodd" clip-rule="evenodd" d="M15.458 22c.962 0 1.738 0 2.367-.051.647-.053 1.217-.165 1.745-.434a4.45 4.45 0 001.945-1.945c.269-.527.38-1.098.433-1.745.052-.629.052-1.405.052-2.366V12.54c0-.96 0-1.737-.052-2.366-.052-.648-.164-1.218-.433-1.745a4.45 4.45 0 00-1.945-1.945c-.491-.25-1.026-.367-1.631-.424-.057-.6-.171-1.135-.424-1.631a4.45 4.45 0 00-1.945-1.945c-.528-.269-1.098-.38-1.745-.434C13.196 2 12.42 2 11.458 2H8.541c-.961 0-1.737 0-2.366.051-.648.053-1.218.165-1.745.434A4.45 4.45 0 002.485 4.43c-.269.527-.38 1.097-.434 1.745C2 6.804 2 7.58 2 8.542v2.917c0 .96 0 1.737.051 2.366.053.648.165 1.218.434 1.745a4.45 4.45 0 001.945 1.945c.496.253 1.03.367 1.631.424.057.604.173 1.139.424 1.631a4.45 4.45 0 001.945 1.945c.527.269 1.097.38 1.745.434.629.051 1.405.051 2.366.051h2.917zM7.88 18c.046.343.115.57.209.753.254.499.66.904 1.158 1.158.231.118.538.2 1.075.244.546.044 1.249.045 2.258.045h2.84c1.009 0 1.711 0 2.258-.045.537-.044.843-.126 1.075-.244a2.65 2.65 0 001.158-1.158c.118-.232.2-.538.243-1.075.045-.547.046-1.25.046-2.258v-2.84c0-1.009 0-1.712-.046-2.258-.043-.537-.125-.843-.243-1.075a2.65 2.65 0 00-1.158-1.158c-.185-.094-.411-.163-.754-.21v3.58c0 .96 0 1.737-.05 2.366-.053.648-.165 1.218-.434 1.745a4.45 4.45 0 01-1.945 1.945c-.528.269-1.098.38-1.745.434-.629.051-1.405.051-2.367.051H7.88zm6.873-2.089c-.232.118-.539.2-1.075.244-.547.044-1.25.045-2.258.045H8.58c-1.01 0-1.712 0-2.258-.045-.537-.044-.844-.126-1.075-.244a2.65 2.65 0 01-1.158-1.158c-.118-.232-.2-.538-.244-1.075-.044-.546-.045-1.25-.045-2.258V8.58c0-1.009 0-1.712.045-2.258.044-.537.126-.843.244-1.075a2.65 2.65 0 011.158-1.158c.231-.118.538-.2 1.075-.244C6.868 3.801 7.57 3.8 8.58 3.8h2.84c1.009 0 1.711 0 2.258.045.536.044.843.126 1.075.244.499.254.904.66 1.158 1.158.118.232.2.538.243 1.075.045.546.046 1.25.046 2.258v2.84c0 1.009 0 1.712-.046 2.258-.043.537-.125.843-.243 1.075a2.65 2.65 0 01-1.158 1.158z" fill="currentColor" /></symbol><symbol fill="none" viewBox="0 0 24 24" id="cross"><path d="M6.909 5.636a.9.9 0 10-1.273 1.273l5.091 5.09-5.091 5.092a.9.9 0 001.273 1.273L12 13.273l5.091 5.09a.9.9 0 101.273-1.272L13.273 12l5.09-5.091a.9.9 0 10-1.272-1.273L12 10.727 6.909 5.636z" fill="currentColor" /></symbol><symbol fill="none" viewBox="0 0 24 24" id="dev"><path d="M6.435 9.42c-.208-.154-.416-.232-.624-.232h-.934v5.583h.934c.208 0 .417-.078.625-.233.207-.155.311-.387.311-.698v-3.722c0-.31-.105-.543-.312-.697zM21.648 0H2.352A2.35 2.35 0 000 2.34V21.6a2.35 2.35 0 002.352 2.34h19.296A2.349 2.349 0 0024 21.6V2.34A2.35 2.35 0 0021.648 0zM8.261 13.85c0 1.006-.622 2.529-2.591 2.525H3.184V7.534h2.538c1.9 0 2.538 1.52 2.538 2.526v3.79zm5.393-4.737H10.8v2.053h1.745v1.58H10.8v2.052h2.855v1.58h-3.331a1.081 1.081 0 01-1.11-1.052V8.641a1.082 1.082 0 011.056-1.106h3.385v1.578zm5.552 6.16c-.707 1.644-1.974 1.317-2.541 0l-2.064-7.737h1.745l1.591 6.077 1.584-6.077h1.746l-2.06 7.738z" fill="currentColor" /></symbol><symbol fill="none" viewBox="0 0 24 24" id="discord"><path d="M20.33 4.556A19.548 19.548 0 0015.38 3a14.38 14.38 0 00-.634 1.317 18.18 18.18 0 00-5.488 0A14.078 14.078 0 008.615 3c-1.738.3-3.401.831-4.955 1.56C.527 9.295-.323 13.913.102 18.465a19.796 19.796 0 006.073 3.111 15.1 15.1 0 001.3-2.142c-.715-.271-1.4-.607-2.048-.996.172-.128.34-.26.502-.398 3.95 1.848 8.24 1.848 12.142 0 .164.137.332.27.502.398-.65.391-1.337.727-2.052.998.376.752.81 1.47 1.3 2.142a19.755 19.755 0 006.077-3.113c.498-5.277-.851-9.853-3.568-13.91zM8.013 15.666c-1.185 0-2.157-1.107-2.157-2.455s.951-2.457 2.157-2.457 2.179 1.107 2.158 2.457c.002 1.348-.952 2.454-2.158 2.454zm7.974 0c-1.186 0-2.158-1.107-2.158-2.455s.951-2.457 2.158-2.457c1.206 0 2.178 1.107 2.157 2.457 0 1.348-.951 2.454-2.157 2.454z" fill="currentColor" /></symbol><symbol fill="none" viewBox="0 0 24 24" id="dollar"><path d="M11.359 19.004v2.252c0 .368.411.39.671.39.238 0 .433-.152.433-.39v-2.252c2.901-.173 4.503-1.905 4.503-4.265 0-2.836-2.62-4.135-4.503-4.915v-3.96c1.018.216 1.862.757 2.468 1.169.195.13.433.065.606-.173l.868-1.256c.151-.238.086-.585-.13-.715-.39-.281-1.884-1.255-3.81-1.407v-.714a.411.411 0 00-.413-.412h-.282a.411.411 0 00-.411.412v.693c-2.965.238-4.287 2.056-4.287 4.113 0 2.858 2.273 4.005 4.287 4.806v4.222c-.953-.152-1.862-.628-2.511-1.17-.433-.367-.693-.324-.866-.042l-.845 1.299c-.195.324-.086.454.109.65.39.367 1.775 1.493 4.113 1.666zm0-9.613c-1.104-.584-1.645-1.06-1.645-1.926 0-.845.562-1.472 1.645-1.602zm1.104 7.253v-3.81c1.17.606 1.667 1.364 1.667 2.208 0 .974-.693 1.494-1.667 1.602z" fill="currentColor" /></symbol><symbol fill="none" viewBox="0 0 24 24" id="email"><path d="M11.085 14.274a2.9 2.9 0 001.83 0c.395-.131.717-.36 1.018-.624.25-.22.528-.502.847-.831l6.114 6.29a3.4 3.4 0 01-.75.52c-.416.212-.856.295-1.329.334-.453.037-1.01.037-1.678.037H6.863c-.669 0-1.225 0-1.678-.037-.473-.039-.913-.122-1.329-.334a3.398 3.398 0 01-.75-.52l6.114-6.29c.32.329.597.611.847.83.301.265.623.494 1.018.625zm-8.942 3.244l5.826-5.994-5.556-5.749a3.414 3.414 0 00-.042.081c-.212.416-.295.856-.334 1.329C2 7.638 2 8.195 2 8.863v6.274c0 .669 0 1.224.037 1.678.02.243.051.477.106.703zm1.52-13.041a3.4 3.4 0 01.193-.106c.416-.212.856-.295 1.329-.334C5.638 4 6.195 4 6.863 4h10.274c.669 0 1.224 0 1.678.037.473.039.913.122 1.329.334.066.033.13.069.194.106l-6.684 6.916c-.412.427-.683.706-.908.903-.216.19-.328.246-.399.27a1.099 1.099 0 01-.694 0c-.071-.024-.183-.08-.4-.27-.224-.197-.495-.476-.907-.902L3.663 4.476zm17.924 1.298l-5.556 5.749 5.826 5.994c.055-.226.086-.46.106-.703.037-.454.037-1.01.037-1.678V8.863c0-.669 0-1.225-.037-1.678-.039-.473-.122-.913-.334-1.329a3.413 3.413 0 00-.042-.08z" fill="currentColor" /></symbol><symbol fill="none" viewBox="0 0 24 24" id="external"><path d="M21.121 2h.018a.9.9 0 01.9.9V8a.9.9 0 11-1.8 0V5.034l-8.703 8.702a.9.9 0 11-1.272-1.272L18.927 3.8h-2.888a.9.9 0 110-1.8h5.082z" fill="currentColor" /><path d="M6.45 7.8a2.65 2.65 0 00-2.65 2.65v7.1a2.65 2.65 0 002.65 2.65h7.1a2.65 2.65 0 002.65-2.65V14a.9.9 0 011.8 0v3.55A4.45 4.45 0 0113.55 22h-7.1A4.45 4.45 0 012 17.55v-7.1A4.45 4.45 0 016.45 6H10a.9.9 0 110 1.8H6.45z" fill="currentColor" /></symbol><symbol fill="none" viewBox="0 0 24 24" id="facebook"><path fill-rule="evenodd" clip-rule="evenodd" d="M12 22c5.523 0 10-4.477 10-10S17.523 2 12 2 2 6.477 2 12s4.477 10 10 10zm4.336-10l-.444 2.89h-2.33v6.988a10.074 10.074 0 01-3.125 0V14.89h-2.54V12h2.54V9.795c0-2.506 1.493-3.89 3.777-3.89 1.094 0 2.239.195 2.239.195v2.46h-1.261c-1.243 0-1.63.772-1.63 1.563v1.875h2.774z" fill="currentColor" /></symbol><symbol fill="none" viewBox="0 0 24 24" id="github"><path d="M12 2C6.478 2 2 6.478 2 12c0 4.418 2.865 8.167 6.84 9.49.498.092.66-.218.66-.482v-1.861c-2.782.605-3.36-1.18-3.36-1.18-.456-1.156-1.112-1.464-1.112-1.464-.907-.62.07-.607.07-.607 1.004.07 1.532 1.03 1.532 1.03.892 1.529 2.34 1.087 2.91.832.09-.646.348-1.088.635-1.337-2.22-.254-4.556-1.112-4.556-4.943a3.87 3.87 0 011.03-2.684c-.103-.252-.446-1.27.098-2.647 0 0 .84-.268 2.75 1.026A9.59 9.59 0 0112 6.836a9.62 9.62 0 012.505.337c1.91-1.294 2.748-1.026 2.748-1.026.544 1.378.201 2.396.098 2.647.642.7 1.029 1.593 1.029 2.684 0 3.841-2.34 4.687-4.566 4.935.358.31.686.918.686 1.851v2.744c0 .266.16.579.668.48A10.003 10.003 0 0022 12c0-5.522-4.477-10-10-10z" fill="currentColor" /></symbol><symbol fill="none" viewBox="0 0 24 24" id="globe"><path d="M12 2C6.49 2 2 6.48 2 12s4.49 10 10 10 10-4.49 10-10S17.51 2 12 2zM3.8 12c0-.44.04-.87.1-1.3.21.35.43.7.6 1.08.44.98 1.62.71 2.14 1.56.46.76-.03 1.72.31 2.52.25.58.85.7 1.26 1.12.41.43.4 1.01.47 1.57.04.34.09.68.15 1.01C5.88 18.32 3.8 15.4 3.8 12zm8.2 8.2c-.47 0-.92-.04-1.37-.11.17-.58.48-1.14.88-1.58.5-.55 1.18-.92 1.6-1.54.41-.61.53-1.43.36-2.14-.25-1.06-1.68-1.41-2.45-1.98-.44-.33-.83-.83-1.41-.87-.27-.02-.5.03-.76-.03-.25-.07-.44-.2-.7-.16-.48.06-.79.58-1.31.51-.49-.07-1-.65-1.12-1.12-.14-.6.34-.8.85-.85.22-.03.46-.05.66.03.27.1.4.36.64.5.46.25.55-.15.48-.56-.1-.6-.22-.85.32-1.27.37-.29.69-.49.63-1.01-.03-.31-.2-.44-.04-.75.11-.23.44-.43.65-.57.54-.35 2.32-.33 1.6-1.32-.22-.29-.61-.81-.99-.88-.47-.09-.68.43-1 .66-.34.24-1 .51-1.34.14-.23-.25-.15-.41.01-.56.73-.39 1.52-.66 2.36-.81.19.17.38.32.66.38.37.07.76-.14.88-.51 1.47.02 2.85.43 4.04 1.13-.13.13-.21.27-.22.41-.04.38.52.44.79.44.17 0 .35-.04.48-.12.07.05.14.12.21.18-.09.09-.15.18-.21.29-.13.24-.28.35-.54.41-.15.04-.32.05-.44.15-.34.27-.14.91.18 1.1.4.24 1.01.13 1.31-.22.21-.24.34-.63.67-.72h.01c.51.64.93 1.35 1.24 2.12a.963.963 0 01-.35-.16c-.35-.25-.56-.6-1-.71-.38-.09-.77.01-1.15.07-.43.08-.94.11-1.26.43-.32.32-.49.74-.82 1.05-.65.61-.92 1.28-.5 2.14.4.83 1.24 1.27 2.15 1.22.9-.06 1.83-.58 1.8.72-.01.46.09.77.23 1.2.13.4.12.78.15 1.18l.03.31a8.205 8.205 0 01-6.9 3.78H12z" fill="currentColor" /></symbol><symbol viewBox="0 0 100 100" id="hackernews"><path fill="currentColor" d="M79 14H21a7 7 0 00-7 7v58a7 7 0 007 7h58a7 7 0 007-7V21a7 7 0 00-7-7zM53.134 52.654V69.83h-5.267V52.714L35.12 29.494h5.925l5.685 11.132c1.556 3.051 2.752 5.505 4.01 8.318h.12c1.137-2.634 2.514-5.268 4.07-8.318l5.805-11.132h5.924l-13.525 23.16z" /></symbol><symbol fill="none" viewBox="0 0 24 24" id="hamburger"><path d="M3.9 8a.9.9 0 100 1.8h16.2a.9.9 0 100-1.8H3.9zm0 6.2a.9.9 0 000 1.8h16.2a.9.9 0 100-1.8H3.9z" fill="currentColor" /></symbol><symbol fill="none" viewBox="0 0 24 24" id="help"><path fill-rule="evenodd" clip-rule="evenodd" d="M12 2C6.477 2 2 6.477 2 12s4.477 10 10 10 10-4.477 10-10S17.523 2 12 2zm-.003 5.4c-.957-.003-1.678.587-1.864 1.526a.9.9 0 01-1.766-.352c.355-1.783 1.818-2.98 3.636-2.974.996.003 1.982.302 2.697.957.744.681 1.105 1.67.941 2.82-.193 1.35-1.28 1.86-1.882 2.143h-.002l-.089.043c-.351.167-.536.267-.653.378-.067.064-.115.128-.115.309V13a.9.9 0 11-1.8 0v-.75c0-.694.264-1.223.674-1.613.35-.334.793-.544 1.097-.688l.023-.012c.738-.351.918-.484.965-.814.086-.6-.097-.984-.375-1.239-.307-.281-.82-.482-1.487-.484zm.003 11a1.35 1.35 0 110-2.7 1.35 1.35 0 010 2.7z" fill="currentColor" /></symbol><symbol fill="none" viewBox="0 0 24 24" id="important"><path fill-rule="evenodd" clip-rule="evenodd" d="M9.581 4.386c1.064-1.848 3.774-1.848 4.838 0l7.218 12.54C22.705 18.783 21.305 21 19.22 21H4.78c-2.086 0-3.486-2.218-2.418-4.073L9.58 4.386zM10.65 8.95v-.027a.894.894 0 01.027-.242 1.35 1.35 0 012.673.243v.026c0 .102-.011.2-.033.296l-.42 3.834a.897.897 0 01-.897.82.9.9 0 01-.897-.82l-.42-3.834a1.357 1.357 0 01-.033-.296zm0 8.1a1.35 1.35 0 112.7 0 1.35 1.35 0 01-2.7 0z" fill="currentColor" /></symbol><symbol fill="none" viewBox="0 0 24 24" id="info"><path fill-rule="evenodd" clip-rule="evenodd" d="M2 12C2 6.477 6.477 2 12 2s10 4.477 10 10-4.477 10-10 10S2 17.523 2 12zm8.65-4.65a1.35 1.35 0 102.7 0 1.35 1.35 0 00-2.7 0zm-.2 3.15a.9.9 0 100 1.8h1.1v3.9h-1.1a.9.9 0 000 1.8h3.1a.9.9 0 000-1.8h-.2v-4.8a.902.902 0 00-.9-.9h-2z" fill="currentColor" /></symbol><symbol viewBox="0 0 24 24" id="instagram"><path fill="currentColor" d="M20.947 8.305a6.53 6.53 0 00-.419-2.216 4.61 4.61 0 00-2.633-2.633 6.606 6.606 0 00-2.186-.42c-.962-.043-1.267-.055-3.709-.055s-2.755 0-3.71.055a6.606 6.606 0 00-2.185.42 4.607 4.607 0 00-2.633 2.633 6.554 6.554 0 00-.419 2.185c-.043.963-.056 1.268-.056 3.71s0 2.754.056 3.71c.015.748.156 1.486.419 2.187a4.61 4.61 0 002.634 2.632 6.584 6.584 0 002.185.45c.963.043 1.268.056 3.71.056s2.755 0 3.71-.056a6.59 6.59 0 002.186-.419 4.615 4.615 0 002.633-2.633c.263-.7.404-1.438.419-2.187.043-.962.056-1.267.056-3.71-.002-2.442-.002-2.752-.058-3.709zm-8.953 8.297c-2.554 0-4.623-2.069-4.623-4.623s2.069-4.623 4.623-4.623a4.623 4.623 0 010 9.246zm4.807-8.339a1.077 1.077 0 01-1.078-1.078 1.077 1.077 0 112.155 0c0 .596-.482 1.078-1.077 1.078z" /><circle fill="currentColor" cx="11.994" cy="11.979" r="3.003" /></symbol><symbol fill="none" viewBox="0 0 120 120" id="kinsta-k"><rect width="120" height="120" fill="currentColor" rx="24" /><path fill="currentColor" d="M45 26h42c5.523 0 10 4.477 10 10v48c0 5.523-4.477 10-10 10H45V26z" /><path fill="currentColor" d="M23 26h17c5.523 0 10 4.477 10 10v48c0 5.523-4.477 10-10 10H23V26z" /><defs></defs></symbol><linearGradient id="kinsta-k_a" x1="97" x2="45" y1="60" y2="60" gradientUnits="userSpaceOnUse"><stop stop-color="currentColor" /><stop offset=".573" stop-color="currentColor" /><stop offset="1" stop-color="currentColor" stop-opacity="0" /></linearGradient><linearGradient id="kinsta-k_b" x1="50" x2="23" y1="60" y2="60" gradientUnits="userSpaceOnUse"><stop stop-color="currentColor" /><stop offset=".573" stop-color="currentColor" /><stop offset="1" stop-color="currentColor" stop-opacity="0" /></linearGradient><symbol viewBox="0 0 16 16" id="language"><path fill="none" stroke="currentColor" stroke-miterlimit="10" d="M8 1v14M0 8h16M9.37.94A12.46 12.46 0 0111.46 8a12.46 12.46 0 01-2.1 7.06M6.63.94A12.46 12.46 0 004.54 8a12.46 12.46 0 002.1 7.06" /><path d="M8 1a7 7 0 11-7 7 7 7 0 017-7m0-1a8 8 0 108 8 8 8 0 00-8-8z" fill="currentColor" /></symbol><symbol fill="none" viewBox="0 0 24 24" id="link"><path d="M20.492 10.786a5.143 5.143 0 000-7.277A5.104 5.104 0 0016.852 2c-.17 0-.33.01-.49.02-.331.04-.661.1-.981.19-.8.24-1.54.67-2.17 1.3L11.7 5.017l-.06.059c-.04.037-.077.072-.11.111l-1.01 1.01s-.01.02-.02.03c.11-.02.23-.02.34-.02.67 0 1.32.09 1.94.28.109-.11.21-.213.308-.31.734-.741 1.143-1.154 1.373-1.42l.02.02c.66-.65 1.51-.979 2.37-.979.86 0 1.72.33 2.37.98a3.365 3.365 0 010 4.737l-3.69 3.688c-.24.25-.52.45-.81.6-.19.1-.4.18-.6.24l-.023.008a.135.135 0 01-.048.012c-.29.08-.59.12-.89.12-.35 0-.7-.05-1.03-.16-.18-.06-.36-.13-.53-.22-.29-.15-.57-.35-.81-.6-.39-.39-.66-.85-.81-1.339-.09.05-.17.12-.24.19-.216.22-.42.425-.613.617-.193.193-.373.372-.538.542.24.45.55.88.93 1.26s.81.69 1.26.93c.63.33 1.301.509 1.991.559.13.02.26.02.39.02.79 0 1.57-.18 2.29-.54.491-.24.951-.56 1.351-.97l3.691-3.687z" fill="currentColor" /><path d="M15.407 10.789l.004-.003v.01l-.004-.007zm0 0a5.182 5.182 0 00-2.187-2.192c-.62-.32-1.29-.51-2-.56-.12-.02-.25-.02-.38-.02-.81 0-1.59.19-2.29.54-.491.24-.951.57-1.351.97l-3.691 3.687a5.143 5.143 0 000 7.277A5.1 5.1 0 007.148 22c1.321 0 2.641-.5 3.642-1.51 1.12-1.119 2.07-2.068 2.72-2.708h-.35c-.66 0-1.31-.09-1.93-.28l-1.71 1.71a3.31 3.31 0 01-2.371.979c-.86 0-1.71-.32-2.37-.98a3.365 3.365 0 010-4.737c.04-.04.85-.85 1.72-1.71.56-.57 1.14-1.149 1.53-1.529.27-.28.44-.45.44-.45.41-.41.92-.71 1.48-.859.28-.08.58-.12.89-.12.36 0 .71.06 1.041.16.5.17.95.44 1.33.82.39.39.66.85.81 1.339a2 2 0 00.24-.19l1.147-1.146z" fill="currentColor" /></symbol><symbol fill="none" viewBox="0 0 24 24" id="linkedin"><path fill-rule="evenodd" clip-rule="evenodd" d="M12 22c5.523 0 10-4.477 10-10S17.523 2 12 2 2 6.477 2 12s4.477 10 10 10zm3.345-5.417h2.07l.002-3.664c0-1.799-.387-3.182-2.486-3.182a2.18 2.18 0 00-1.96 1.08h-.029v-.913h-1.987v6.68h2.07v-3.305c0-.872.165-1.716 1.243-1.716 1.063 0 1.077.998 1.077 1.772v3.248zM8.618 8.991a1.208 1.208 0 01-1.201-1.204c0-.66.542-1.204 1.201-1.204.66 0 1.202.544 1.202 1.204a1.21 1.21 0 01-1.202 1.204zm-1.037 7.592h2.073v-6.68H7.58v6.68z" fill="currentColor" /></symbol><symbol fill="none" viewBox="0 0 325 83" id="logo"><path fill="currentColor" d="M0 80.44h14.22V54.61h25.35c3.16 0 4.74 1.54 4.74 4.62v21.21h14.22V62.08c0-4.74-.83-8.47-2.49-11.2-1.66-2.72-4.34-4.72-8.06-5.98 3.4-1.58 6-4.24 7.82-8 1.82-3.75 2.72-8.31 2.72-13.68v-1.54H44.3v2.72c0 5.92-1.3 10.31-3.91 13.15-2.61 2.84-6.68 4.27-12.2 4.27H14.21V10.9H0v69.54zm76.53-63.38c2.61 0 4.74-.79 6.4-2.37 1.66-1.58 2.49-3.63 2.49-6.16 0-2.53-.81-4.58-2.43-6.16S79.22 0 76.53 0s-4.74.79-6.4 2.37C68.47 3.95 67.64 6 67.64 8.53c0 2.53.83 4.58 2.49 6.16 1.66 1.58 3.79 2.37 6.4 2.37zm228.77 51.3h-22.51c-3.16 0-4.74-1.54-4.74-4.62V38.39c0-3.08 1.58-4.62 4.74-4.62h22.51c3.16 0 4.74 1.54 4.74 4.62v25.35c0 3.08-1.58 4.62-4.74 4.62zM290.96 82.1c4.34 0 8.09-.69 11.26-2.07 3.16-1.38 6.04-3.57 8.65-6.58v6.99h13.39V21.68h-13.39v6.99c-2.61-3-5.49-5.19-8.65-6.58-3.16-1.38-6.91-2.07-11.26-2.07-8.93 0-15.88 2.82-20.85 8.47-4.98 5.65-7.46 13.17-7.46 22.57s2.49 16.92 7.46 22.57c4.98 5.65 11.93 8.47 20.85 8.47zm-42.65-1.66h12.2V67.88h-12.8c-3.16 0-4.74-1.54-4.74-4.62V34.23h17.53V21.67h-17.53V8.99h-13.03v7.7c0 3.32-1.58 4.98-4.74 4.98h-7.94v12.56h11.49v27.01c0 6 1.72 10.7 5.15 14.1 3.44 3.4 8.23 5.09 14.39 5.09m-84.71 0h27.96c16.03 0 24.05-5.73 24.05-17.18 0-5.21-1.56-9.18-4.68-11.91-3.12-2.72-8.27-4.6-15.46-5.63l-11.85-1.78c-3.4-.55-5.61-1.13-6.63-1.72-1.03-.59-1.54-1.64-1.54-3.14V38c0-1.34.36-2.311.07-2.9.71-.59 1.93-.89 3.67-.89h31.51V21.65h-26.06c-8.06 0-14.14 1.48-18.25 4.44-4.112.96-6.16 7.37-6.16 13.21 0 5.06 1.6 8.93 4.8 11.61 3.2 2.69 8.43 4.58 15.7 5.69l11.49 1.66c2.45.32 4.22.63 5.33.95 1.1.32 1.86.75 2.25 1.3.39.55.59 1.34.59 2.37v1.18c0 1.34-.38 2.31-1.13 2.9-.75.59-1.95.89-3.61.89h-33.05v12.58zm-68.12 0h14.22V38.37c0-3.08 1.58-4.62 4.74-4.62h20.73c3.16 0 4.74 1.54 4.74 4.62v42.06h14.22V40.39c0-6.16-2.03-11.1-6.1-14.81-4.07-3.71-9.89-5.57-17.47-5.57-4.58 0-8.75.75-12.5 2.25s-6.81 3.63-9.18 6.4v-6.99H95.47v58.76h-.01zm-26.06 0h14.22V21.68H69.4v58.76-.01z" /></symbol><symbol viewBox="0 0 32 32" id="managewp"><path d="M16 32C7.163 32 0 24.837 0 16S7.163 0 16 0s16 7.163 16 16-7.163 16-16 16zM26.594 8.186l-6.276 6.73-3.12-5.42-4.845 5.863-2.509-3.797-6.23 9.063c1.858 5.039 6.704 8.634 12.388 8.634 7.29 0 13.197-5.91 13.197-13.2 0-2.95-.968-5.674-2.605-7.873z" fill="currentColor" fill-rule="evenodd" /></symbol><symbol fill="none" viewBox="0 0 24 24" id="map-marker"><path fill-rule="evenodd" clip-rule="evenodd" d="M4.504 10.075C3.923 5.63 7.69 2.15 12 2.15c4.31 0 8.077 3.481 7.495 7.925-.148 1.133-.36 2.248-.672 3.166-.724 2.14-2.063 4.242-3.334 5.805-.637.783-1.271 1.449-1.824 1.927a5.766 5.766 0 01-.795.59c-.221.132-.535.287-.87.287-.335 0-.65-.155-.87-.287a5.76 5.76 0 01-.795-.59c-.553-.478-1.188-1.144-1.825-1.927-1.27-1.563-2.609-3.665-3.334-5.805-.31-.918-.523-2.033-.672-3.166zM8.99 9.5a3.01 3.01 0 116.02 0 3.01 3.01 0 01-6.02 0z" fill="currentColor" /></symbol><symbol fill="currentColor" viewBox="0 0 24 24" id="messenger"><path d="M12 3c-4.92 0-8.91 3.729-8.91 8.332 0 2.616 1.291 4.952 3.311 6.479V21l3.041-1.687c.811.228 1.668.35 2.559.35 4.92 0 8.91-3.73 8.91-8.331C20.91 6.729 16.92 3 12 3zm.938 11.172l-2.305-2.394-4.438 2.454 4.865-5.163 2.305 2.395 4.439-2.455-4.866 5.163z" /></symbol><symbol fill="none" viewBox="0 0 24 24" id="minus"><path fill-rule="evenodd" clip-rule="evenodd" d="M3 12a.9.9 0 01.9-.9h16.2a.9.9 0 010 1.8H3.9A.9.9 0 013 12z" fill="currentColor" /></symbol><symbol fill="none" viewBox="0 0 24 24" id="padlock-locked"><path fill-rule="evenodd" clip-rule="evenodd" d="M8.1 6.9a3.9 3.9 0 017.8 0v2.144c.44.042.853.128 1.244.327a3.4 3.4 0 011.485 1.485c.212.416.295.856.334 1.329.037.454.037 1.01.037 1.678v2.274c0 .669 0 1.224-.037 1.678-.039.473-.122.913-.334 1.329a3.4 3.4 0 01-1.485 1.485c-.416.212-.856.295-1.329.334-.453.037-1.01.037-1.678.037H9.863c-.669 0-1.225 0-1.678-.037-.473-.039-.913-.122-1.329-.334a3.4 3.4 0 01-1.485-1.485c-.212-.416-.295-.856-.334-1.329C5 17.362 5 16.805 5 16.137v-2.274c0-.669 0-1.225.037-1.678.039-.473.122-.913.334-1.329a3.4 3.4 0 011.485-1.485c.39-.2.803-.285 1.244-.327V6.9zM9.9 9V6.9a2.1 2.1 0 014.2 0V9H9.9zm3 6.55a1.5 1.5 0 10-1.8 0v.7a.9.9 0 101.8 0v-.7z" fill="currentColor" /></symbol><symbol fill="none" viewBox="0 0 24 24" id="padlock-unlocked"><path fill-rule="evenodd" clip-rule="evenodd" d="M14.1 6.9a3.9 3.9 0 017.8 0v3a.9.9 0 01-1.8 0v-3a2.1 2.1 0 10-4.2 0v2.295c.44.041.853.127 1.244.326a3.4 3.4 0 011.485 1.486c.212.415.295.855.334 1.328.037.454.037 1.01.037 1.678v2.274c0 .669 0 1.225-.037 1.678-.039.473-.122.913-.334 1.329a3.4 3.4 0 01-1.485 1.485c-.416.212-.856.295-1.329.334-.453.037-1.01.037-1.678.037H9.863c-.669 0-1.225 0-1.678-.037-.473-.039-.913-.122-1.329-.334a3.4 3.4 0 01-1.485-1.485c-.212-.416-.295-.856-.334-1.329C5 17.512 5 16.955 5 16.287v-2.274c0-.668 0-1.224.037-1.678.039-.473.122-.913.334-1.329a3.4 3.4 0 011.485-1.485c.416-.212.856-.295 1.329-.334.453-.037 1.01-.037 1.678-.037H14.1V6.9zm-1.2 8.65a1.5 1.5 0 10-1.8 0v.7a.9.9 0 101.8 0v-.7z" fill="currentColor" /></symbol><symbol fill="none" viewBox="0 0 24 24" id="paperplane-alt"><path d="M4.422 3.326a.9.9 0 00-1.233 1.05L4.235 8.41a3.4 3.4 0 002.964 2.53l9.894.958a.173.173 0 01.063.015.018.018 0 01.007.005c.005.006.02.033.02.08a.133.133 0 01-.02.08.018.018 0 01-.007.005.174.174 0 01-.063.014l-9.894.958a3.4 3.4 0 00-2.964 2.53l-1.046 4.036a.9.9 0 001.233 1.05l17.89-7.849a.9.9 0 000-1.648l-17.89-7.85z" fill="currentColor" /></symbol><symbol fill="none" viewBox="0 0 24 24" id="percentage-circle-solid"><path fill-rule="evenodd" clip-rule="evenodd" d="M22 12c0 5.523-4.477 10-10 10S2 17.523 2 12 6.477 2 12 2s10 4.477 10 10zM7.651 16.349a.9.9 0 010-1.273l7.425-7.425a.9.9 0 111.272 1.273L8.924 16.35a.9.9 0 01-1.273 0zm.318-8.38a1.5 1.5 0 102.122 2.122 1.5 1.5 0 00-2.122-2.122zm5.94 5.94a1.5 1.5 0 102.122 2.121 1.5 1.5 0 00-2.122-2.121z" fill="currentColor" /></symbol><symbol fill="none" viewBox="0 0 18 21" id="platform-apple"><path d="M11.94 3.19A4.38 4.38 0 0013 0a4.44 4.44 0 00-3 1.52 4.17 4.17 0 00-1 3.09 3.69 3.69 0 002.94-1.42zm2.52 7.44a4.51 4.51 0 012.16-3.81 4.66 4.66 0 00-3.66-2c-1.56-.16-3 .91-3.83.91-.83 0-2-.89-3.3-.87a4.92 4.92 0 00-4.14 2.53C-.07 10.45 1.24 15 3 17.47c.8 1.21 1.8 2.58 3.12 2.53 1.32-.05 1.75-.82 3.28-.82 1.53 0 2 .82 3.3.79 1.3-.03 2.22-1.24 3.06-2.45a11.004 11.004 0 001.38-2.85 4.41 4.41 0 01-2.68-4.04z" fill="currentColor" /></symbol><symbol fill="none" viewBox="0 0 24 24" id="platform-linux"><path d="M19.551 18.058c-.586-.24-.837-.559-.813-1.034.025-.555-.29-.962-.44-1.123.09-.345.355-1.539 0-2.576-.38-1.11-1.542-2.806-2.74-4.473-.492-.684-.515-1.428-.542-2.29-.025-.821-.054-1.753-.513-2.788C14.005 2.647 13.005 2 11.76 2c-.74 0-1.5.231-2.086.635-1.198.827-1.04 2.63-.935 3.822.015.164.028.318.036.45.07 1.168.006 1.784-.077 1.971-.053.122-.318.47-.597.839-.29.381-.618.813-.887 1.215-.32.485-.58 1.225-.83 1.941-.183.524-.357 1.02-.525 1.315a1.79 1.79 0 00-.174 1.345c-.12.084-.295.249-.443.56-.178.38-.54.585-1.292.73-.345.07-.584.216-.708.432-.181.314-.083.709.007.979.134.396.05.647-.1 1.103-.035.105-.074.224-.114.355a.641.641 0 00.067.56c.284.435 1.113.588 1.966.689.51.06 1.067.264 1.606.46.528.194 1.075.394 1.571.454.076.01.15.014.222.014.75 0 1.089-.497 1.196-.701.27-.055 1.199-.231 2.156-.255.956-.027 1.88.162 2.142.22.083.158.3.518.646.703.19.104.455.164.726.164.29 0 .84-.069 1.277-.527.435-.461 1.521-1.05 2.315-1.479l.488-.267c.445-.247.688-.6.667-.968a.815.815 0 00-.529-.7zm-9.867-.088c-.055-.391-.558-.779-1.14-1.228-.476-.367-1.016-.783-1.165-1.135-.307-.726-.065-2.004.358-2.662.208-.33.379-.83.543-1.313.178-.521.362-1.06.568-1.297.326-.368.628-1.086.68-1.651.306.291.78.661 1.217.661a.716.716 0 00.195-.026c.3-.087.74-.341 1.165-.587.367-.212.82-.474.99-.497.292.419 1.99 4.174 2.162 5.38a5.7 5.7 0 01-.08 2.051 1.508 1.508 0 00-.202-.014c-.473 0-.598.258-.63.412-.084.4-.093 1.68-.094 1.967-.17.217-1.035 1.24-2.276 1.424a9.86 9.86 0 01-1.402.11 4.74 4.74 0 01-.692-.042l-.624-.714c.246-.121.492-.377.427-.84zm.791-11.763a.985.985 0 00-.057.026 1.174 1.174 0 00-.013-.128c-.068-.391-.328-.676-.618-.676a.437.437 0 00-.067.006c-.172.028-.307.158-.381.341.065-.403.293-.7.564-.7.318 0 .586.428.586.935 0 .064-.004.128-.014.196zm2.472.302a.993.993 0 00.044-.298c0-.46-.291-.82-.664-.82-.364 0-.66.368-.66.82 0 .031.001.062.004.093a8.446 8.446 0 00-.056-.022 1.254 1.254 0 01-.063-.394c0-.55.351-.997.783-.997.432 0 .784.447.784.997 0 .229-.063.447-.172.62zm-.32 1.07c-.005.028-.019.04-.165.116a4.465 4.465 0 00-.281.157l-.077.047c-.31.187-1.034.626-1.23.652-.134.018-.217-.034-.403-.16a5.69 5.69 0 00-.134-.09c-.335-.219-.55-.461-.574-.556.109-.084.38-.295.518-.42.281-.262.564-.437.704-.437l.021.001c.165.03.57.191.867.31.138.054.256.102.34.132.262.09.398.205.415.248zM14.986 19.8c.148-.668.319-1.576.291-2.111a10.752 10.752 0 00-.028-.382c-.02-.24-.048-.595-.018-.7a.12.12 0 01.02-.008c0 .306.067.917.556 1.13.145.063.311.095.494.095.489 0 1.032-.24 1.254-.462.13-.13.24-.29.318-.418.017.05.027.114.022.197-.03.452.19 1.05.608 1.271l.06.032c.15.078.544.286.55.384 0 0-.003.012-.025.032-.099.09-.447.268-.784.44-.597.306-1.274.651-1.579.971-.428.45-.912.753-1.204.753a.315.315 0 01-.096-.013c-.318-.099-.58-.557-.439-1.21zM4.158 18.097c-.032-.152-.058-.271-.03-.387.02-.086.444-.178.625-.218.254-.055.518-.112.69-.216.233-.142.359-.402.47-.631.08-.166.164-.338.263-.394a.055.055 0 01.03-.007c.185 0 .574.39.798.738.057.088.163.265.285.469.364.61.863 1.444 1.123 1.724.235.252.615.735.522 1.15-.069.322-.433.584-.519.642a.53.53 0 01-.115.01c-.499 0-1.486-.414-2.017-.637l-.078-.033c-.296-.124-.78-.203-1.248-.278-.372-.06-.881-.143-.966-.218-.068-.076.011-.326.081-.546.05-.159.103-.322.131-.494a1.807 1.807 0 00-.045-.674z" fill="currentColor" /></symbol><symbol fill="none" viewBox="0 0 18 18" id="platform-windows"><path d="M0 2.549l7.195-.967V8.61l-7.188.054L0 2.55zM7.195 9.39v7.105l-7.19-.985V9.39h7.19zm.918-7.935L17.998 0v8.533l-9.885.078V1.456zM18 9.505L17.998 18l-9.885-1.353V9.505H18z" fill="currentColor" /></symbol><symbol fill="none" viewBox="0 0 24 24" id="play"><path d="M20.327 10.828c.897.52.897 1.823 0 2.344L5.442 21.817c-.897.52-2.018-.13-2.018-1.172V3.355c0-1.041 1.121-1.693 2.018-1.172l14.885 8.645z" fill="currentColor" /></symbol><symbol fill="none" viewBox="0 0 44 28" id="quotemark"><path d="M12.998 27.5H6.955c-3.085 0-5.009-3.345-3.457-6.012l11.345-19.5A4 4 0 0118.3 0h.37c2.666 0 4.586 2.558 3.841 5.117l-5.672 19.5a4 4 0 01-3.841 2.883zm20 0h-6.043c-3.085 0-5.009-3.345-3.457-6.012l11.345-19.5A4 4 0 0138.3 0h.37c2.666 0 4.586 2.558 3.841 5.117l-5.672 19.5a4 4 0 01-3.841 2.883z" fill="currentColor" /></symbol><symbol viewBox="0 0 32 32" id="reddit"><path d="M16 32C7.163 32 0 24.837 0 16S7.163 0 16 0s16 7.163 16 16-7.163 16-16 16zm9.458-16.71a2.569 2.569 0 00-.629-1.464 2.644 2.644 0 00-1.324-.83v-.001l-.008-.002-.009-.002a2.641 2.641 0 00-.664-.085 2.56 2.56 0 00-1.43.428 2.67 2.67 0 00-.313.23 3.486 3.486 0 01-.12-.067l-.02-.012h-.002c-1.4-.814-2.995-1.2-4.58-1.304.008-.648.064-1.3.347-1.858v-.001a1.25 1.25 0 01.985-.684c.08-.009.16-.013.24-.013.553 0 1.109.195 1.632.431 0 .028-.003.057-.003.086 0 .585.247 1.127.63 1.533.382.407.902.68 1.46.723.09.012.182.017.272.017.562 0 1.11-.225 1.533-.598a2.24 2.24 0 00.767-1.486v-.006c.01-.085.015-.17.015-.255 0-.46-.146-.906-.395-1.28-.25-.37-.6-.67-1.015-.831l-.006-.002v-.001a2.184 2.184 0 00-.905-.187c-.29 0-.58.05-.854.137l-.004.002-.004.003a2.464 2.464 0 00-1.144.944c-.629-.255-1.302-.418-1.982-.418-.256 0-.513.023-.768.073h-.004l-.002.002c-.67.166-1.233.645-1.557 1.26-.39.74-.487 1.586-.501 2.394-1.612.095-3.265.424-4.687 1.276-.093.036-.176.082-.252.122a3.204 3.204 0 00-.763-.438h-.001l-.002-.002a2.653 2.653 0 00-1.169-.166h-.027c-.649 0-1.254.303-1.697.767a2.58 2.58 0 00-.729 1.758v.008c.02.474.181.923.435 1.306.238.357.558.656.928.867a4.41 4.41 0 00-.039.58c0 .86.242 1.713.684 2.442.82 1.365 2.158 2.296 3.563 2.882l.001.001a11.32 11.32 0 004.259.816c.974 0 1.95-.12 2.894-.352h.002c1.773-.459 3.528-1.367 4.672-2.906a4.845 4.845 0 00.975-2.89 4.65 4.65 0 00-.039-.58c.38-.21.71-.52.948-.89a2.483 2.483 0 00.406-1.475v-.001zm-2.563 2.992c0 .202-.02.403-.061.6v.003a3.703 3.703 0 01-.642 1.454 5.19 5.19 0 01-1.126 1.137v.001c-1.33 1.001-2.976 1.49-4.615 1.628-.274.02-.55.03-.826.03-1.627 0-3.267-.353-4.69-1.157a9.112 9.112 0 01-.33-.197c-.49-.314-.955-.7-1.335-1.151a3.939 3.939 0 01-.823-1.548h-.001a3.04 3.04 0 01-.103-.79c0-.72.245-1.445.663-2.028.825-1.169 2.111-1.923 3.445-2.352a10.647 10.647 0 016.322-.001l.01.003c1.333.423 2.615 1.183 3.442 2.347.414.581.67 1.303.67 2.021zm-2.109-8.246c0-.242.094-.475.248-.663.154-.19.368-.332.596-.392l.003-.001h.002a.879.879 0 01.265-.04c.277 0 .558.126.766.33a1.091 1.091 0 01.34.834v.003c-.01.281-.143.542-.345.734a1.09 1.09 0 01-.74.309c-.018 0-.038 0-.057-.002h-.007a1.075 1.075 0 01-.73-.311 1.083 1.083 0 01-.338-.73v-.005a.69.69 0 01-.003-.066zM9.08 14.34c-.649.568-1.217 1.252-1.58 2.058a1.547 1.547 0 01-.291-.357 1.137 1.137 0 01-.162-.65v-.007c.013-.326.169-.622.405-.842.235-.22.55-.357.86-.366h.01a.823.823 0 01.11-.007c.216 0 .436.07.648.17zm15.109 1.083a1.34 1.34 0 01-.45.977c-.37-.81-.941-1.497-1.592-2.07.205-.103.436-.156.667-.156.257 0 .512.064.73.188.22.124.4.306.516.546v.003l.003.002c.086.162.125.336.126.51zm-5.172 4.13a.682.682 0 00-.337-.091.58.58 0 00-.292.077 6.28 6.28 0 01-2.879.698 5.54 5.54 0 01-2.183-.432l-.003-.002h-.004c-.102-.037-.219-.116-.346-.19a1.327 1.327 0 00-.207-.1.608.608 0 00-.468-.003l-.012.004a.513.513 0 00-.063.96c.971.574 2.114.835 3.262.834 1.034 0 2.075-.21 3.002-.593l.005-.003.004-.002c.122-.063.285-.12.438-.203a.95.95 0 00.213-.155.568.568 0 00.143-.234.425.425 0 00-.039-.332.6.6 0 00-.234-.233zm-6.479-3.784c-.68 0-1.23.547-1.23 1.231 0 .68.546 1.23 1.23 1.23.68 0 1.231-.546 1.231-1.23 0-.68-.546-1.23-1.23-1.23zm6.154 0c-.68 0-1.23.547-1.23 1.231 0 .68.546 1.23 1.23 1.23.68 0 1.231-.546 1.231-1.23 0-.68-.546-1.23-1.23-1.23z" fill="currentColor" /></symbol><symbol fill="none" viewBox="0 0 24 24" id="reply"><path d="M20.88 2.406a1.677 1.677 0 00-1.973.052 3.717 3.717 0 00-.32.308L16.87 4.52l2.62 2.636 1.765-1.764.029-.03c.1-.1.218-.216.301-.334l.003-.003a1.663 1.663 0 000-1.914l-.003-.004a2.828 2.828 0 00-.301-.334l-.029-.029-.029-.029a2.9 2.9 0 00-.334-.301l-.013-.01zm-5.12 3.245l2.618 2.618-6.359 6.36-.078.079c-.138.139-.284.287-.444.398l-.011.008c-.128.085-.27.17-.442.245-.197.095-.412.148-.631.203l-.052.012h-.001l-1.316.334a.79.79 0 01-.954-.986l.333-1.155.015-.056c.05-.185.105-.385.197-.568.068-.155.153-.298.244-.424.097-.141.232-.279.346-.395l.081-.084.007-.007L15.76 5.65z" fill="currentColor" /><path d="M3.8 10.45A2.65 2.65 0 016.45 7.8H10A.9.9 0 1010 6H6.45A4.45 4.45 0 002 10.45v7.1A4.45 4.45 0 006.45 22h7.1A4.45 4.45 0 0018 17.55V14a.9.9 0 10-1.8 0v3.55a2.65 2.65 0 01-2.65 2.65h-7.1a2.65 2.65 0 01-2.65-2.65v-7.1z" fill="currentColor" /></symbol><symbol fill="none" viewBox="0 0 42 11" id="screen-dots"><circle cx="6.282" cy="5.306" r="5.306" fill="currentColor" fill-opacity=".1" /><circle cx="21.138" cy="5.306" r="5.306" fill="currentColor" fill-opacity=".1" /><circle cx="35.993" cy="5.306" r="5.306" fill="currentColor" fill-opacity=".1" /></symbol><symbol fill="none" viewBox="0 0 24 24" id="search"><path fill-rule="evenodd" clip-rule="evenodd" d="M10 2a8 8 0 104.24 14.785l4.687 4.688a1.8 1.8 0 002.546-2.546l-4.688-4.687A8 8 0 0010 2zm-6.2 8a6.2 6.2 0 1112.4 0 6.2 6.2 0 01-12.4 0z" fill="currentColor" /></symbol><symbol fill="none" viewBox="0 0 24 24" id="share"><path fill-rule="evenodd" clip-rule="evenodd" d="M9.174 5.728a.9.9 0 001.272 0l.654-.653V7.8c-.873 0-1.585.002-2.166.05-.623.05-1.175.158-1.686.419a4.3 4.3 0 00-1.88 1.879c-.26.511-.368 1.063-.419 1.686-.05.603-.05 1.348-.05 2.268v1.596c0 .92 0 1.665.05 2.268.051.623.159 1.174.42 1.686a4.3 4.3 0 001.879 1.88c.511.26 1.063.368 1.686.419.603.049 1.348.049 2.268.049h1.596c.92 0 1.665 0 2.268-.05.623-.05 1.174-.158 1.686-.419a4.3 4.3 0 001.88-1.879c.26-.512.368-1.063.419-1.686.049-.603.049-1.348.049-2.268v-1.596c0-.92 0-1.665-.05-2.268-.05-.623-.158-1.175-.419-1.686a4.3 4.3 0 00-1.879-1.88c-.512-.26-1.063-.368-1.686-.419-.581-.047-1.293-.049-2.166-.049V5.07l.658.658a.9.9 0 101.273-1.272l-2.193-2.192A.897.897 0 0012.001 2H12a.898.898 0 00-.672.301L9.174 4.456a.9.9 0 000 1.272zM12.9 7.8h-1.8v7.3a.9.9 0 001.8 0V7.8z" fill="currentColor" /></symbol><symbol fill="none" viewBox="0 0 24 24" id="star"><path d="M12.813 2.414a.9.9 0 00-1.626 0L8.494 8.079l-5.723.83a.9.9 0 00-.47 1.563l4.212 3.754-1.394 6.69a.9.9 0 001.332.963L12 18.665l5.549 3.214a.9.9 0 001.332-.963l-1.394-6.69 4.212-3.754a.9.9 0 00-.47-1.563l-5.723-.83-2.693-5.665z" fill="currentColor" /></symbol><symbol fill="none" viewBox="0 0 24 24" id="twitter"><path fill-rule="evenodd" clip-rule="evenodd" d="M12 22c5.523 0 10-4.477 10-10S17.523 2 12 2 2 6.477 2 12s4.477 10 10 10zm-1.373-9.416L6.338 6.85h3.305l2.81 3.76 3.479-3.76h.97l-4.015 4.34 4.529 6.058h-3.305l-3.052-4.082-3.777 4.082h-.97l4.314-4.663zm-1.342-5.02H7.767l6.703 8.967h1.518L9.285 7.564z" fill="currentColor" /></symbol><symbol fill="none" viewBox="0 0 24 24" id="user"><path d="M7.5 7c0-2.648 1.908-5 4.5-5s4.5 2.352 4.5 5-1.908 5-4.5 5-4.5-2.352-4.5-5zM3.623 18.288C4.999 15.431 8.366 14 12 14c3.634 0 7.001 1.43 8.377 4.288.476.989.225 1.976-.374 2.66-.576.658-1.47 1.052-2.403 1.052H6.4c-.933 0-1.827-.394-2.403-1.051-.6-.685-.85-1.672-.374-2.66z" fill="currentColor" /></symbol><symbol viewBox="0 0 24 24" id="wp"><path fill="currentColor" d="M19.891 7.788a8.966 8.966 0 011.099 4.313 8.986 8.986 0 01-4.47 7.771l2.746-7.939c.513-1.282.684-2.309.684-3.219a7.165 7.165 0 00-.059-.926m-6.651.087a14.14 14.14 0 001.026-.088c.485-.063.428-.775-.056-.749 0 0-1.463.112-2.4.112-.887 0-2.375-.125-2.375-.125-.487-.024-.55.713-.061.738 0 0 .449.052.938.075l1.399 3.838-1.975 5.899-3.274-9.724a17.006 17.006 0 001.028-.083c.487-.063.43-.775-.055-.747 0 0-1.455.115-2.395.115-.167 0-.365-.007-.575-.013C6.093 4.726 8.862 3.113 12 3.113c2.341 0 4.471.894 6.071 2.36-.038-.002-.076-.008-.117-.008-.883 0-1.51.77-1.51 1.596 0 .741.427 1.369.883 2.108.343.601.742 1.37.742 2.481 0 .763-.295 1.662-.685 2.899l-.896 2.987-3.25-9.675.002.014zM12 21.087a8.983 8.983 0 01-2.54-.364l2.697-7.838 2.763 7.572c.021.044.042.085.065.124a9.016 9.016 0 01-2.985.508m-8.99-8.988a8.94 8.94 0 01.778-3.658l4.287 11.749a8.993 8.993 0 01-5.065-8.091m8.99-10c-5.513 0-10 4.487-10 10s4.487 10 10 10 10-4.487 10-10-4.487-10-10-10" /></symbol><symbol fill="none" viewBox="0 0 24 24" id="youtube"><path fill-rule="evenodd" clip-rule="evenodd" d="M12 22c5.523 0 10-4.477 10-10S17.523 2 12 2 2 6.477 2 12s4.477 10 10 10zm6.376-13.148a1.663 1.663 0 00-1.181-1.158c-1.036-.277-5.204-.277-5.204-.277s-4.167.008-5.203.285a1.663 1.663 0 00-1.18 1.159C5.332 9.876 5.332 12 5.332 12s0 2.124.283 3.148a1.663 1.663 0 001.18 1.158c1.036.277 5.204.277 5.204.277s4.168 0 5.203-.277a1.664 1.664 0 001.181-1.158c.283-1.016.283-3.148.283-3.148s-.009-2.124-.291-3.148zm-7.711 5.112L14.122 12l-3.457-1.964v3.928z" fill="currentColor" /></symbol></defs><use id="arrow-usage" xlink:href="#arrow" class="sprite-symbol-usage" /><use id="arrow-left-usage" xlink:href="#arrow-left" class="sprite-symbol-usage" /><use id="arrow-left-square-solid-usage" xlink:href="#arrow-left-square-solid" class="sprite-symbol-usage" /><use id="arrow-right-small-usage" xlink:href="#arrow-right-small" class="sprite-symbol-usage" /><use id="arrow-right-small-alt-usage" xlink:href="#arrow-right-small-alt" class="sprite-symbol-usage" /><use id="arrow-right-square-solid-usage" xlink:href="#arrow-right-square-solid" class="sprite-symbol-usage" /><use id="arrow-right-up-small-usage" xlink:href="#arrow-right-up-small" class="sprite-symbol-usage" /><use id="arrow-right-up-square-usage" xlink:href="#arrow-right-up-square" class="sprite-symbol-usage" /><use id="buffer-usage" xlink:href="#buffer" class="sprite-symbol-usage" /><use id="calendar-alt-usage" xlink:href="#calendar-alt" class="sprite-symbol-usage" /><use id="chat-usage" xlink:href="#chat" class="sprite-symbol-usage" /><use id="chat-alt-usage" xlink:href="#chat-alt" class="sprite-symbol-usage" /><use id="check-usage" xlink:href="#check" class="sprite-symbol-usage" /><use id="check-circle-usage" xlink:href="#check-circle" class="sprite-symbol-usage" /><use id="check-square-usage" xlink:href="#check-square" class="sprite-symbol-usage" /><use id="chevron-usage" xlink:href="#chevron" class="sprite-symbol-usage" /><use id="chevron-large-usage" xlink:href="#chevron-large" class="sprite-symbol-usage" /><use id="chevron-right-usage" xlink:href="#chevron-right" class="sprite-symbol-usage" /><use id="chevron-thin-left-usage" xlink:href="#chevron-thin-left" class="sprite-symbol-usage" /><use id="copy-usage" xlink:href="#copy" class="sprite-symbol-usage" /><use id="cross-usage" xlink:href="#cross" class="sprite-symbol-usage" /><use id="dev-usage" xlink:href="#dev" class="sprite-symbol-usage" /><use id="discord-usage" xlink:href="#discord" class="sprite-symbol-usage" /><use id="dollar-usage" xlink:href="#dollar" class="sprite-symbol-usage" /><use id="email-usage" xlink:href="#email" class="sprite-symbol-usage" /><use id="external-usage" xlink:href="#external" class="sprite-symbol-usage" /><use id="facebook-usage" xlink:href="#facebook" class="sprite-symbol-usage" /><use id="github-usage" xlink:href="#github" class="sprite-symbol-usage" /><use id="globe-usage" xlink:href="#globe" class="sprite-symbol-usage" /><use id="hackernews-usage" xlink:href="#hackernews" class="sprite-symbol-usage" /><use id="hamburger-usage" xlink:href="#hamburger" class="sprite-symbol-usage" /><use id="help-usage" xlink:href="#help" class="sprite-symbol-usage" /><use id="important-usage" xlink:href="#important" class="sprite-symbol-usage" /><use id="info-usage" xlink:href="#info" class="sprite-symbol-usage" /><use id="instagram-usage" xlink:href="#instagram" class="sprite-symbol-usage" /><use id="kinsta-k-usage" xlink:href="#kinsta-k" class="sprite-symbol-usage" /><use id="language-usage" xlink:href="#language" class="sprite-symbol-usage" /><use id="link-usage" xlink:href="#link" class="sprite-symbol-usage" /><use id="linkedin-usage" xlink:href="#linkedin" class="sprite-symbol-usage" /><use id="logo-usage" xlink:href="#logo" class="sprite-symbol-usage" /><use id="managewp-usage" xlink:href="#managewp" class="sprite-symbol-usage" /><use id="map-marker-usage" xlink:href="#map-marker" class="sprite-symbol-usage" /><use id="messenger-usage" xlink:href="#messenger" class="sprite-symbol-usage" /><use id="minus-usage" xlink:href="#minus" class="sprite-symbol-usage" /><use id="padlock-locked-usage" xlink:href="#padlock-locked" class="sprite-symbol-usage" /><use id="padlock-unlocked-usage" xlink:href="#padlock-unlocked" class="sprite-symbol-usage" /><use id="paperplane-alt-usage" xlink:href="#paperplane-alt" class="sprite-symbol-usage" /><use id="percentage-circle-solid-usage" xlink:href="#percentage-circle-solid" class="sprite-symbol-usage" /><use id="platform-apple-usage" xlink:href="#platform-apple" class="sprite-symbol-usage" /><use id="platform-linux-usage" xlink:href="#platform-linux" class="sprite-symbol-usage" /><use id="platform-windows-usage" xlink:href="#platform-windows" class="sprite-symbol-usage" /><use id="play-usage" xlink:href="#play" class="sprite-symbol-usage" /><use id="quotemark-usage" xlink:href="#quotemark" class="sprite-symbol-usage" /><use id="reddit-usage" xlink:href="#reddit" class="sprite-symbol-usage" /><use id="reply-usage" xlink:href="#reply" class="sprite-symbol-usage" /><use id="screen-dots-usage" xlink:href="#screen-dots" class="sprite-symbol-usage" /><use id="search-usage" xlink:href="#search" class="sprite-symbol-usage" /><use id="share-usage" xlink:href="#share" class="sprite-symbol-usage" /><use id="star-usage" xlink:href="#star" class="sprite-symbol-usage" /><use id="twitter-usage" xlink:href="#twitter" class="sprite-symbol-usage" /><use id="user-usage" xlink:href="#user" class="sprite-symbol-usage" /><use id="wp-usage" xlink:href="#wp" class="sprite-symbol-usage" /><use id="youtube-usage" xlink:href="#youtube" class="sprite-symbol-usage" /></svg>