<svg xmlns="http://www.w3.org/2000/svg" width="500" height="500" fill="none"><g clip-path="url(#a)"><g clip-path="url(#b)"><g clip-path="url(#c)"><path fill="url(#d)" d="M2.662 496.105v-61.113a6.853 6.853 0 0 0-6.854-6.853h-5.125a6.853 6.853 0 0 0-6.853 6.853v61.113a6.853 6.853 0 0 0 6.853 6.853h5.125a6.853 6.853 0 0 0 6.854-6.853Z"/><path fill="url(#e)" d="M21.494 496.105v-61.113a6.853 6.853 0 0 0-6.853-6.853H9.515a6.853 6.853 0 0 0-6.853 6.853v61.113a6.853 6.853 0 0 0 6.853 6.853h5.126a6.853 6.853 0 0 0 6.853-6.853Z"/><path fill="url(#f)" d="M40.326 496.105v-61.113a6.853 6.853 0 0 0-6.854-6.853h-5.125a6.853 6.853 0 0 0-6.853 6.853v61.113a6.853 6.853 0 0 0 6.853 6.853h5.125a6.853 6.853 0 0 0 6.854-6.853Z"/><path fill="url(#g)" d="M77.99 496.105v-61.113a6.853 6.853 0 0 0-6.854-6.853h-5.125a6.853 6.853 0 0 0-6.853 6.853v61.113a6.853 6.853 0 0 0 6.853 6.853h5.125a6.853 6.853 0 0 0 6.854-6.853Z"/><path fill="url(#h)" d="M59.158 496.105v-61.113a6.853 6.853 0 0 0-6.854-6.853H47.18a6.853 6.853 0 0 0-6.853 6.853v61.113a6.853 6.853 0 0 0 6.853 6.853h5.125a6.853 6.853 0 0 0 6.854-6.853Z"/><path fill="url(#i)" d="M96.822 496.105v-61.113a6.853 6.853 0 0 0-6.854-6.853h-5.125a6.853 6.853 0 0 0-6.853 6.853v61.113a6.853 6.853 0 0 0 6.853 6.853h5.125a6.853 6.853 0 0 0 6.853-6.853Z"/><path fill="url(#j)" d="M14.248 421.403v-75.246a6.853 6.853 0 0 0-6.853-6.853H5.528a6.853 6.853 0 0 0-6.853 6.853v75.246a6.853 6.853 0 0 0 6.853 6.853h1.867a6.853 6.853 0 0 0 6.853-6.853Z"/><path fill="url(#k)" d="M45.393 421.403v-75.246a6.853 6.853 0 0 0-6.853-6.853h-1.866a6.853 6.853 0 0 0-6.854 6.853v75.246a6.853 6.853 0 0 0 6.854 6.853h1.866a6.853 6.853 0 0 0 6.853-6.853Z"/><path fill="url(#l)" d="M29.82 421.403v-75.246a6.853 6.853 0 0 0-6.853-6.853h-1.866a6.853 6.853 0 0 0-6.853 6.853v75.246a6.853 6.853 0 0 0 6.853 6.853h1.866a6.853 6.853 0 0 0 6.853-6.853Z"/><path fill="url(#m)" d="M60.966 421.403v-75.246a6.853 6.853 0 0 0-6.853-6.853h-1.866a6.853 6.853 0 0 0-6.853 6.853v75.246a6.853 6.853 0 0 0 6.853 6.853h1.866a6.853 6.853 0 0 0 6.853-6.853Z"/><path fill="url(#n)" d="M10.571 333.377v-76.864a6.044 6.044 0 0 0-12.089 0v76.864a6.044 6.044 0 0 0 12.09 0Z"/><path fill="url(#o)" d="M22.66 333.377v-76.864a6.044 6.044 0 0 0-12.089 0v76.864a6.044 6.044 0 0 0 12.09 0Z"/></g></g><g clip-path="url(#p)"><g clip-path="url(#q)"><path fill="url(#r)" d="M2.662 3.811v61.113a6.853 6.853 0 0 1-6.854 6.853h-5.125a6.853 6.853 0 0 1-6.853-6.853V3.811a6.853 6.853 0 0 1 6.853-6.853h5.125a6.853 6.853 0 0 1 6.854 6.853Z"/><path fill="url(#s)" d="M21.494 3.811v61.113a6.853 6.853 0 0 1-6.853 6.853H9.515a6.853 6.853 0 0 1-6.853-6.853V3.811a6.853 6.853 0 0 1 6.853-6.853h5.126a6.853 6.853 0 0 1 6.853 6.853Z"/><path fill="url(#t)" d="M40.326 3.811v61.113a6.853 6.853 0 0 1-6.854 6.853h-5.125a6.853 6.853 0 0 1-6.853-6.853V3.811a6.853 6.853 0 0 1 6.853-6.853h5.125a6.853 6.853 0 0 1 6.854 6.853Z"/><path fill="url(#u)" d="M77.99 3.811v61.113a6.853 6.853 0 0 1-6.854 6.853h-5.125a6.853 6.853 0 0 1-6.853-6.853V3.811a6.853 6.853 0 0 1 6.853-6.853h5.125a6.853 6.853 0 0 1 6.854 6.853Z"/><path fill="url(#v)" d="M59.158 3.811v61.113a6.853 6.853 0 0 1-6.854 6.853H47.18a6.853 6.853 0 0 1-6.853-6.853V3.811a6.853 6.853 0 0 1 6.853-6.853h5.125a6.853 6.853 0 0 1 6.854 6.853Z"/><path fill="url(#w)" d="M96.822 3.811v61.113a6.853 6.853 0 0 1-6.854 6.853h-5.125a6.853 6.853 0 0 1-6.853-6.853V3.811a6.853 6.853 0 0 1 6.853-6.853h5.125a6.853 6.853 0 0 1 6.853 6.853Z"/><path fill="url(#x)" d="M14.248 78.513v75.246a6.853 6.853 0 0 1-6.853 6.853H5.528a6.853 6.853 0 0 1-6.853-6.853V78.513a6.853 6.853 0 0 1 6.853-6.853h1.867a6.853 6.853 0 0 1 6.853 6.853Z"/><path fill="url(#y)" d="M45.393 78.513v75.246a6.853 6.853 0 0 1-6.853 6.853h-1.866a6.853 6.853 0 0 1-6.854-6.853V78.513a6.853 6.853 0 0 1 6.854-6.853h1.866a6.853 6.853 0 0 1 6.853 6.853Z"/><path fill="url(#z)" d="M29.82 78.513v75.246a6.853 6.853 0 0 1-6.853 6.853h-1.866a6.853 6.853 0 0 1-6.853-6.853V78.513A6.853 6.853 0 0 1 21.1 71.66h1.866a6.853 6.853 0 0 1 6.853 6.853Z"/><path fill="url(#A)" d="M60.966 78.513v75.246a6.853 6.853 0 0 1-6.853 6.853h-1.866a6.853 6.853 0 0 1-6.853-6.853V78.513a6.853 6.853 0 0 1 6.853-6.853h1.866a6.853 6.853 0 0 1 6.853 6.853Z"/><path fill="url(#B)" d="M10.571 166.539v76.864a6.044 6.044 0 0 1-12.089 0v-76.864a6.044 6.044 0 0 1 12.09 0Z"/><path fill="url(#C)" d="M22.66 166.539v76.864a6.044 6.044 0 0 1-12.089 0v-76.864a6.044 6.044 0 0 1 12.09 0Z"/></g></g><g clip-path="url(#D)"><g clip-path="url(#E)"><path fill="url(#F)" d="M496.338 3.895v61.113a6.853 6.853 0 0 0 6.853 6.853h5.126a6.853 6.853 0 0 0 6.853-6.853V3.895a6.853 6.853 0 0 0-6.853-6.853h-5.126a6.853 6.853 0 0 0-6.853 6.853Z"/><path fill="url(#G)" d="M477.506 3.895v61.113a6.853 6.853 0 0 0 6.853 6.853h5.126a6.853 6.853 0 0 0 6.853-6.853V3.895a6.853 6.853 0 0 0-6.853-6.853h-5.126a6.853 6.853 0 0 0-6.853 6.853Z"/><path fill="url(#H)" d="M458.674 3.895v61.113a6.854 6.854 0 0 0 6.854 6.853h5.125a6.853 6.853 0 0 0 6.853-6.853V3.895a6.853 6.853 0 0 0-6.853-6.853h-5.125a6.854 6.854 0 0 0-6.854 6.853Z"/><path fill="url(#I)" d="M421.01 3.895v61.113a6.854 6.854 0 0 0 6.854 6.853h5.125a6.853 6.853 0 0 0 6.853-6.853V3.895a6.853 6.853 0 0 0-6.853-6.853h-5.125a6.854 6.854 0 0 0-6.854 6.853Z"/><path fill="url(#J)" d="M439.842 3.895v61.113a6.853 6.853 0 0 0 6.853 6.853h5.126a6.853 6.853 0 0 0 6.853-6.853V3.895a6.853 6.853 0 0 0-6.853-6.853h-5.126a6.853 6.853 0 0 0-6.853 6.853Z"/><path fill="url(#K)" d="M402.178 3.895v61.113a6.854 6.854 0 0 0 6.854 6.853h5.125a6.853 6.853 0 0 0 6.853-6.853V3.895a6.853 6.853 0 0 0-6.853-6.853h-5.125a6.854 6.854 0 0 0-6.854 6.853Z"/><path fill="url(#L)" d="M484.752 78.597v75.246a6.853 6.853 0 0 0 6.853 6.853h1.867a6.853 6.853 0 0 0 6.853-6.853V78.597a6.853 6.853 0 0 0-6.853-6.853h-1.867a6.853 6.853 0 0 0-6.853 6.853Z"/><path fill="url(#M)" d="M453.607 78.597v75.246a6.853 6.853 0 0 0 6.853 6.853h1.866a6.853 6.853 0 0 0 6.853-6.853V78.597a6.853 6.853 0 0 0-6.853-6.853h-1.866a6.853 6.853 0 0 0-6.853 6.853Z"/><path fill="url(#N)" d="M469.18 78.597v75.246a6.853 6.853 0 0 0 6.853 6.853h1.866a6.853 6.853 0 0 0 6.853-6.853V78.597a6.853 6.853 0 0 0-6.853-6.853h-1.866a6.853 6.853 0 0 0-6.853 6.853Z"/><path fill="url(#O)" d="M438.034 78.597v75.246a6.853 6.853 0 0 0 6.853 6.853h1.866a6.853 6.853 0 0 0 6.853-6.853V78.597a6.853 6.853 0 0 0-6.853-6.853h-1.866a6.853 6.853 0 0 0-6.853 6.853Z"/><path fill="url(#P)" d="M488.429 166.623v76.864a6.044 6.044 0 0 0 12.089 0v-76.864a6.045 6.045 0 0 0-12.089 0Z"/><path fill="url(#Q)" d="M476.34 166.623v76.864a6.044 6.044 0 0 0 12.089 0v-76.864a6.045 6.045 0 0 0-12.089 0Z"/></g></g><g clip-path="url(#R)"><g clip-path="url(#S)"><path fill="url(#T)" d="M496.338 496.189v-61.113a6.854 6.854 0 0 1 6.854-6.853h5.125a6.853 6.853 0 0 1 6.853 6.853v61.113a6.853 6.853 0 0 1-6.853 6.853h-5.125a6.854 6.854 0 0 1-6.854-6.853Z"/><path fill="url(#U)" d="M477.506 496.189v-61.113a6.853 6.853 0 0 1 6.853-6.853h5.126a6.853 6.853 0 0 1 6.853 6.853v61.113a6.853 6.853 0 0 1-6.853 6.853h-5.126a6.853 6.853 0 0 1-6.853-6.853Z"/><path fill="url(#V)" d="M458.674 496.189v-61.113a6.854 6.854 0 0 1 6.854-6.853h5.125a6.853 6.853 0 0 1 6.853 6.853v61.113a6.853 6.853 0 0 1-6.853 6.853h-5.125a6.854 6.854 0 0 1-6.854-6.853Z"/><path fill="url(#W)" d="M421.01 496.189v-61.113a6.854 6.854 0 0 1 6.854-6.853h5.125a6.853 6.853 0 0 1 6.853 6.853v61.113a6.853 6.853 0 0 1-6.853 6.853h-5.125a6.854 6.854 0 0 1-6.854-6.853Z"/><path fill="url(#X)" d="M439.842 496.189v-61.113a6.853 6.853 0 0 1 6.853-6.853h5.126a6.853 6.853 0 0 1 6.853 6.853v61.113a6.853 6.853 0 0 1-6.853 6.853h-5.125a6.854 6.854 0 0 1-6.854-6.853Z"/><path fill="url(#Y)" d="m402.179 496.189-.001-61.113a6.854 6.854 0 0 1 6.854-6.853h5.125a6.853 6.853 0 0 1 6.853 6.853v61.113a6.853 6.853 0 0 1-6.853 6.853h-5.125a6.853 6.853 0 0 1-6.853-6.853Z"/><path fill="url(#Z)" d="M484.752 421.487v-75.246a6.853 6.853 0 0 1 6.853-6.853h1.867a6.853 6.853 0 0 1 6.853 6.853v75.246a6.853 6.853 0 0 1-6.853 6.853h-1.867a6.853 6.853 0 0 1-6.853-6.853Z"/><path fill="url(#aa)" d="M453.607 421.487v-75.246a6.853 6.853 0 0 1 6.853-6.853h1.866a6.853 6.853 0 0 1 6.853 6.853v75.246a6.853 6.853 0 0 1-6.853 6.853h-1.866a6.853 6.853 0 0 1-6.853-6.853Z"/><path fill="url(#ab)" d="M469.18 421.487v-75.246a6.853 6.853 0 0 1 6.853-6.853h1.866a6.853 6.853 0 0 1 6.853 6.853v75.246a6.853 6.853 0 0 1-6.853 6.853h-1.866a6.853 6.853 0 0 1-6.853-6.853Z"/><path fill="url(#ac)" d="M438.034 421.487v-75.246a6.853 6.853 0 0 1 6.853-6.853h1.866a6.853 6.853 0 0 1 6.853 6.853v75.246a6.853 6.853 0 0 1-6.853 6.853h-1.866a6.853 6.853 0 0 1-6.853-6.853Z"/><path fill="url(#ad)" d="M488.429 333.461v-76.864a6.044 6.044 0 0 1 12.089 0v76.864a6.045 6.045 0 0 1-12.089 0Z"/><path fill="url(#ae)" d="M476.34 333.461v-76.864a6.044 6.044 0 0 1 12.089 0v76.864a6.045 6.045 0 0 1-12.089 0Z"/></g></g></g><defs><linearGradient id="d" x1="-16.17" x2="2.662" y1="465.551" y2="465.551" gradientUnits="userSpaceOnUse"><stop stop-color="#FFBA00"/><stop offset=".02" stop-color="#FFB900" stop-opacity=".96"/><stop offset=".18" stop-color="#FFB600" stop-opacity=".71"/><stop offset=".34" stop-color="#FFB300" stop-opacity=".49"/><stop offset=".49" stop-color="#FFB100" stop-opacity=".32"/><stop offset=".64" stop-color="#FFAF00" stop-opacity=".18"/><stop offset=".78" stop-color="#FFAE00" stop-opacity=".08"/><stop offset=".9" stop-color="#FFAD00" stop-opacity=".02"/><stop offset="1" stop-color="#FFAD00" stop-opacity="0"/></linearGradient><linearGradient id="e" x1="2.662" x2="21.494" y1="465.551" y2="465.551" gradientUnits="userSpaceOnUse"><stop stop-color="#FFC208"/><stop offset=".01" stop-color="#FFC107" stop-opacity=".97"/><stop offset=".13" stop-color="#FFBC05" stop-opacity=".75"/><stop offset=".25" stop-color="#FFB804" stop-opacity=".55"/><stop offset=".37" stop-color="#FFB403" stop-opacity=".38"/><stop offset=".49" stop-color="#FFB201" stop-opacity=".24"/><stop offset=".62" stop-color="#FFAF01" stop-opacity=".14"/><stop offset=".74" stop-color="#FFAE00" stop-opacity=".06"/><stop offset=".87" stop-color="#FFAD00" stop-opacity=".01"/><stop offset="1" stop-color="#FFAD00" stop-opacity="0"/></linearGradient><linearGradient id="f" x1="21.494" x2="40.326" y1="465.551" y2="465.551" gradientUnits="userSpaceOnUse"><stop stop-color="#FFCB25"/><stop offset=".02" stop-color="#FFC923" stop-opacity=".96"/><stop offset=".14" stop-color="#FFC31B" stop-opacity=".74"/><stop offset=".25" stop-color="#FFBD13" stop-opacity=".54"/><stop offset=".37" stop-color="#FFB80D" stop-opacity=".37"/><stop offset=".49" stop-color="#FFB408" stop-opacity=".24"/><stop offset=".61" stop-color="#FFB104" stop-opacity=".13"/><stop offset=".74" stop-color="#FFAE02" stop-opacity=".06"/><stop offset=".86" stop-color="#FFAD00" stop-opacity=".01"/><stop offset="1" stop-color="#FFAD00" stop-opacity="0"/></linearGradient><linearGradient id="g" x1="59.158" x2="77.99" y1="465.551" y2="465.551" gradientUnits="userSpaceOnUse"><stop stop-color="#FFE16A"/><stop offset=".06" stop-color="#FFD95A" stop-opacity=".86"/><stop offset=".16" stop-color="#FFCF45" stop-opacity=".66"/><stop offset=".26" stop-color="#FFC632" stop-opacity=".48"/><stop offset=".37" stop-color="#FFBE23" stop-opacity=".33"/><stop offset=".48" stop-color="#FFB816" stop-opacity=".21"/><stop offset=".59" stop-color="#FFB30C" stop-opacity=".12"/><stop offset=".71" stop-color="#FFAF05" stop-opacity=".05"/><stop offset=".84" stop-color="#FFAD01" stop-opacity=".01"/><stop offset="1" stop-color="#FFAD00" stop-opacity="0"/></linearGradient><linearGradient id="h" x1="40.326" x2="59.158" y1="465.551" y2="465.551" gradientUnits="userSpaceOnUse"><stop stop-color="#FFD83D"/><stop offset=".06" stop-color="#FFD134" stop-opacity=".86"/><stop offset=".16" stop-color="#FFC928" stop-opacity=".66"/><stop offset=".26" stop-color="#FFC11D" stop-opacity=".48"/><stop offset=".37" stop-color="#FFBB14" stop-opacity=".33"/><stop offset=".48" stop-color="#FFB60C" stop-opacity=".21"/><stop offset=".59" stop-color="#FFB207" stop-opacity=".12"/><stop offset=".71" stop-color="#FFAF03" stop-opacity=".05"/><stop offset=".84" stop-color="#FFAD00" stop-opacity=".01"/><stop offset="1" stop-color="#FFAD00" stop-opacity="0"/></linearGradient><linearGradient id="i" x1="77.99" x2="96.822" y1="465.551" y2="465.551" gradientUnits="userSpaceOnUse"><stop stop-color="#FFE16A"/><stop offset=".06" stop-color="#FFD95A" stop-opacity=".86"/><stop offset=".16" stop-color="#FFCF45" stop-opacity=".66"/><stop offset=".26" stop-color="#FFC632" stop-opacity=".48"/><stop offset=".37" stop-color="#FFBE23" stop-opacity=".33"/><stop offset=".48" stop-color="#FFB816" stop-opacity=".21"/><stop offset=".59" stop-color="#FFB30C" stop-opacity=".12"/><stop offset=".71" stop-color="#FFAF05" stop-opacity=".05"/><stop offset=".84" stop-color="#FFAD01" stop-opacity=".01"/><stop offset="1" stop-color="#FFAD00" stop-opacity="0"/></linearGradient><linearGradient id="j" x1="-1.325" x2="14.248" y1="383.78" y2="383.78" gradientUnits="userSpaceOnUse"><stop stop-color="#FFCB25"/><stop offset=".02" stop-color="#FFC923" stop-opacity=".96"/><stop offset=".14" stop-color="#FFC31B" stop-opacity=".74"/><stop offset=".25" stop-color="#FFBD13" stop-opacity=".54"/><stop offset=".37" stop-color="#FFB80D" stop-opacity=".37"/><stop offset=".49" stop-color="#FFB408" stop-opacity=".24"/><stop offset=".61" stop-color="#FFB104" stop-opacity=".13"/><stop offset=".74" stop-color="#FFAE02" stop-opacity=".06"/><stop offset=".86" stop-color="#FFAD00" stop-opacity=".01"/><stop offset="1" stop-color="#FFAD00" stop-opacity="0"/></linearGradient><linearGradient id="k" x1="29.82" x2="45.393" y1="383.78" y2="383.78" gradientUnits="userSpaceOnUse"><stop stop-color="#FFE16A"/><stop offset=".02" stop-color="#FFDD62" stop-opacity=".93"/><stop offset=".09" stop-color="#FFD34D" stop-opacity=".74"/><stop offset=".17" stop-color="#FFCA3B" stop-opacity=".56"/><stop offset=".25" stop-color="#FFC22B" stop-opacity=".41"/><stop offset=".33" stop-color="#FFBB1D" stop-opacity=".28"/><stop offset=".43" stop-color="#FFB612" stop-opacity=".18"/><stop offset=".53" stop-color="#FFB20A" stop-opacity=".1"/><stop offset=".64" stop-color="#FFAF04" stop-opacity=".04"/><stop offset=".77" stop-color="#FFAD01" stop-opacity="0"/><stop offset="1" stop-color="#FFAD00" stop-opacity="0"/></linearGradient><linearGradient id="l" x1="14.248" x2="29.82" y1="383.78" y2="383.78" gradientUnits="userSpaceOnUse"><stop stop-color="#FFD83D"/><stop offset=".06" stop-color="#FFD134" stop-opacity=".86"/><stop offset=".16" stop-color="#FFC928" stop-opacity=".66"/><stop offset=".26" stop-color="#FFC11D" stop-opacity=".48"/><stop offset=".37" stop-color="#FFBB14" stop-opacity=".33"/><stop offset=".48" stop-color="#FFB60C" stop-opacity=".21"/><stop offset=".59" stop-color="#FFB207" stop-opacity=".12"/><stop offset=".71" stop-color="#FFAF03" stop-opacity=".05"/><stop offset=".84" stop-color="#FFAD00" stop-opacity=".01"/><stop offset="1" stop-color="#FFAD00" stop-opacity="0"/></linearGradient><linearGradient id="m" x1="45.394" x2="60.966" y1="383.78" y2="383.78" gradientUnits="userSpaceOnUse"><stop stop-color="#FFE16A"/><stop offset=".05" stop-color="#FFD756" stop-opacity=".81"/><stop offset=".1" stop-color="#FFCE44" stop-opacity=".64"/><stop offset=".15" stop-color="#FFC633" stop-opacity=".49"/><stop offset=".21" stop-color="#FFBF25" stop-opacity=".36"/><stop offset=".28" stop-color="#FFB919" stop-opacity=".25"/><stop offset=".35" stop-color="#FFB510" stop-opacity=".15"/><stop offset=".44" stop-color="#FFB109" stop-opacity=".08"/><stop offset=".54" stop-color="#FFAE03" stop-opacity=".04"/><stop offset=".68" stop-color="#FFAD00" stop-opacity="0"/><stop offset="1" stop-color="#FFAD00" stop-opacity="0"/></linearGradient><linearGradient id="n" x1="-1.518" x2="10.571" y1="294.945" y2="294.945" gradientUnits="userSpaceOnUse"><stop stop-color="#FFE16A"/><stop offset=".05" stop-color="#FFD756" stop-opacity=".81"/><stop offset=".1" stop-color="#FFCE44" stop-opacity=".64"/><stop offset=".15" stop-color="#FFC633" stop-opacity=".49"/><stop offset=".21" stop-color="#FFBF25" stop-opacity=".36"/><stop offset=".28" stop-color="#FFB919" stop-opacity=".25"/><stop offset=".35" stop-color="#FFB510" stop-opacity=".15"/><stop offset=".44" stop-color="#FFB109" stop-opacity=".08"/><stop offset=".54" stop-color="#FFAE03" stop-opacity=".04"/><stop offset=".68" stop-color="#FFAD00" stop-opacity="0"/><stop offset="1" stop-color="#FFAD00" stop-opacity="0"/></linearGradient><linearGradient id="o" x1="10.571" x2="22.66" y1="294.945" y2="294.945" gradientUnits="userSpaceOnUse"><stop stop-color="#FFDF66" stop-opacity=".96"/><stop offset=".05" stop-color="#FFD553" stop-opacity=".78"/><stop offset=".09" stop-color="#FFCC41" stop-opacity=".61"/><stop offset=".14" stop-color="#FFC531" stop-opacity=".47"/><stop offset=".2" stop-color="#FFBE24" stop-opacity=".34"/><stop offset=".25" stop-color="#FFB918" stop-opacity=".23"/><stop offset=".32" stop-color="#FFB40F" stop-opacity=".15"/><stop offset=".4" stop-color="#FFB108" stop-opacity=".08"/><stop offset=".49" stop-color="#FFAE03" stop-opacity=".03"/><stop offset=".63" stop-color="#FFAD00" stop-opacity="0"/><stop offset="1" stop-color="#FFAD00" stop-opacity="0"/></linearGradient><linearGradient id="r" x1="-16.17" x2="2.662" y1="34.365" y2="34.365" gradientUnits="userSpaceOnUse"><stop stop-color="#FFBA00"/><stop offset=".02" stop-color="#FFB900" stop-opacity=".96"/><stop offset=".18" stop-color="#FFB600" stop-opacity=".71"/><stop offset=".34" stop-color="#FFB300" stop-opacity=".49"/><stop offset=".49" stop-color="#FFB100" stop-opacity=".32"/><stop offset=".64" stop-color="#FFAF00" stop-opacity=".18"/><stop offset=".78" stop-color="#FFAE00" stop-opacity=".08"/><stop offset=".9" stop-color="#FFAD00" stop-opacity=".02"/><stop offset="1" stop-color="#FFAD00" stop-opacity="0"/></linearGradient><linearGradient id="s" x1="2.662" x2="21.494" y1="34.365" y2="34.365" gradientUnits="userSpaceOnUse"><stop stop-color="#FFC208"/><stop offset=".01" stop-color="#FFC107" stop-opacity=".97"/><stop offset=".13" stop-color="#FFBC05" stop-opacity=".75"/><stop offset=".25" stop-color="#FFB804" stop-opacity=".55"/><stop offset=".37" stop-color="#FFB403" stop-opacity=".38"/><stop offset=".49" stop-color="#FFB201" stop-opacity=".24"/><stop offset=".62" stop-color="#FFAF01" stop-opacity=".14"/><stop offset=".74" stop-color="#FFAE00" stop-opacity=".06"/><stop offset=".87" stop-color="#FFAD00" stop-opacity=".01"/><stop offset="1" stop-color="#FFAD00" stop-opacity="0"/></linearGradient><linearGradient id="t" x1="21.494" x2="40.326" y1="34.365" y2="34.365" gradientUnits="userSpaceOnUse"><stop stop-color="#FFCB25"/><stop offset=".02" stop-color="#FFC923" stop-opacity=".96"/><stop offset=".14" stop-color="#FFC31B" stop-opacity=".74"/><stop offset=".25" stop-color="#FFBD13" stop-opacity=".54"/><stop offset=".37" stop-color="#FFB80D" stop-opacity=".37"/><stop offset=".49" stop-color="#FFB408" stop-opacity=".24"/><stop offset=".61" stop-color="#FFB104" stop-opacity=".13"/><stop offset=".74" stop-color="#FFAE02" stop-opacity=".06"/><stop offset=".86" stop-color="#FFAD00" stop-opacity=".01"/><stop offset="1" stop-color="#FFAD00" stop-opacity="0"/></linearGradient><linearGradient id="u" x1="59.158" x2="77.99" y1="34.365" y2="34.365" gradientUnits="userSpaceOnUse"><stop stop-color="#FFE16A"/><stop offset=".06" stop-color="#FFD95A" stop-opacity=".86"/><stop offset=".16" stop-color="#FFCF45" stop-opacity=".66"/><stop offset=".26" stop-color="#FFC632" stop-opacity=".48"/><stop offset=".37" stop-color="#FFBE23" stop-opacity=".33"/><stop offset=".48" stop-color="#FFB816" stop-opacity=".21"/><stop offset=".59" stop-color="#FFB30C" stop-opacity=".12"/><stop offset=".71" stop-color="#FFAF05" stop-opacity=".05"/><stop offset=".84" stop-color="#FFAD01" stop-opacity=".01"/><stop offset="1" stop-color="#FFAD00" stop-opacity="0"/></linearGradient><linearGradient id="v" x1="40.326" x2="59.158" y1="34.365" y2="34.365" gradientUnits="userSpaceOnUse"><stop stop-color="#FFD83D"/><stop offset=".06" stop-color="#FFD134" stop-opacity=".86"/><stop offset=".16" stop-color="#FFC928" stop-opacity=".66"/><stop offset=".26" stop-color="#FFC11D" stop-opacity=".48"/><stop offset=".37" stop-color="#FFBB14" stop-opacity=".33"/><stop offset=".48" stop-color="#FFB60C" stop-opacity=".21"/><stop offset=".59" stop-color="#FFB207" stop-opacity=".12"/><stop offset=".71" stop-color="#FFAF03" stop-opacity=".05"/><stop offset=".84" stop-color="#FFAD00" stop-opacity=".01"/><stop offset="1" stop-color="#FFAD00" stop-opacity="0"/></linearGradient><linearGradient id="w" x1="77.99" x2="96.822" y1="34.365" y2="34.365" gradientUnits="userSpaceOnUse"><stop stop-color="#FFE16A"/><stop offset=".06" stop-color="#FFD95A" stop-opacity=".86"/><stop offset=".16" stop-color="#FFCF45" stop-opacity=".66"/><stop offset=".26" stop-color="#FFC632" stop-opacity=".48"/><stop offset=".37" stop-color="#FFBE23" stop-opacity=".33"/><stop offset=".48" stop-color="#FFB816" stop-opacity=".21"/><stop offset=".59" stop-color="#FFB30C" stop-opacity=".12"/><stop offset=".71" stop-color="#FFAF05" stop-opacity=".05"/><stop offset=".84" stop-color="#FFAD01" stop-opacity=".01"/><stop offset="1" stop-color="#FFAD00" stop-opacity="0"/></linearGradient><linearGradient id="x" x1="-1.325" x2="14.248" y1="116.136" y2="116.136" gradientUnits="userSpaceOnUse"><stop stop-color="#FFCB25"/><stop offset=".02" stop-color="#FFC923" stop-opacity=".96"/><stop offset=".14" stop-color="#FFC31B" stop-opacity=".74"/><stop offset=".25" stop-color="#FFBD13" stop-opacity=".54"/><stop offset=".37" stop-color="#FFB80D" stop-opacity=".37"/><stop offset=".49" stop-color="#FFB408" stop-opacity=".24"/><stop offset=".61" stop-color="#FFB104" stop-opacity=".13"/><stop offset=".74" stop-color="#FFAE02" stop-opacity=".06"/><stop offset=".86" stop-color="#FFAD00" stop-opacity=".01"/><stop offset="1" stop-color="#FFAD00" stop-opacity="0"/></linearGradient><linearGradient id="y" x1="29.82" x2="45.393" y1="116.136" y2="116.136" gradientUnits="userSpaceOnUse"><stop stop-color="#FFE16A"/><stop offset=".02" stop-color="#FFDD62" stop-opacity=".93"/><stop offset=".09" stop-color="#FFD34D" stop-opacity=".74"/><stop offset=".17" stop-color="#FFCA3B" stop-opacity=".56"/><stop offset=".25" stop-color="#FFC22B" stop-opacity=".41"/><stop offset=".33" stop-color="#FFBB1D" stop-opacity=".28"/><stop offset=".43" stop-color="#FFB612" stop-opacity=".18"/><stop offset=".53" stop-color="#FFB20A" stop-opacity=".1"/><stop offset=".64" stop-color="#FFAF04" stop-opacity=".04"/><stop offset=".77" stop-color="#FFAD01" stop-opacity="0"/><stop offset="1" stop-color="#FFAD00" stop-opacity="0"/></linearGradient><linearGradient id="z" x1="14.248" x2="29.82" y1="116.136" y2="116.136" gradientUnits="userSpaceOnUse"><stop stop-color="#FFD83D"/><stop offset=".06" stop-color="#FFD134" stop-opacity=".86"/><stop offset=".16" stop-color="#FFC928" stop-opacity=".66"/><stop offset=".26" stop-color="#FFC11D" stop-opacity=".48"/><stop offset=".37" stop-color="#FFBB14" stop-opacity=".33"/><stop offset=".48" stop-color="#FFB60C" stop-opacity=".21"/><stop offset=".59" stop-color="#FFB207" stop-opacity=".12"/><stop offset=".71" stop-color="#FFAF03" stop-opacity=".05"/><stop offset=".84" stop-color="#FFAD00" stop-opacity=".01"/><stop offset="1" stop-color="#FFAD00" stop-opacity="0"/></linearGradient><linearGradient id="A" x1="45.394" x2="60.966" y1="116.136" y2="116.136" gradientUnits="userSpaceOnUse"><stop stop-color="#FFE16A"/><stop offset=".05" stop-color="#FFD756" stop-opacity=".81"/><stop offset=".1" stop-color="#FFCE44" stop-opacity=".64"/><stop offset=".15" stop-color="#FFC633" stop-opacity=".49"/><stop offset=".21" stop-color="#FFBF25" stop-opacity=".36"/><stop offset=".28" stop-color="#FFB919" stop-opacity=".25"/><stop offset=".35" stop-color="#FFB510" stop-opacity=".15"/><stop offset=".44" stop-color="#FFB109" stop-opacity=".08"/><stop offset=".54" stop-color="#FFAE03" stop-opacity=".04"/><stop offset=".68" stop-color="#FFAD00" stop-opacity="0"/><stop offset="1" stop-color="#FFAD00" stop-opacity="0"/></linearGradient><linearGradient id="B" x1="-1.518" x2="10.571" y1="204.971" y2="204.971" gradientUnits="userSpaceOnUse"><stop stop-color="#FFE16A"/><stop offset=".05" stop-color="#FFD756" stop-opacity=".81"/><stop offset=".1" stop-color="#FFCE44" stop-opacity=".64"/><stop offset=".15" stop-color="#FFC633" stop-opacity=".49"/><stop offset=".21" stop-color="#FFBF25" stop-opacity=".36"/><stop offset=".28" stop-color="#FFB919" stop-opacity=".25"/><stop offset=".35" stop-color="#FFB510" stop-opacity=".15"/><stop offset=".44" stop-color="#FFB109" stop-opacity=".08"/><stop offset=".54" stop-color="#FFAE03" stop-opacity=".04"/><stop offset=".68" stop-color="#FFAD00" stop-opacity="0"/><stop offset="1" stop-color="#FFAD00" stop-opacity="0"/></linearGradient><linearGradient id="C" x1="10.571" x2="22.66" y1="204.971" y2="204.971" gradientUnits="userSpaceOnUse"><stop stop-color="#FFDF66" stop-opacity=".96"/><stop offset=".05" stop-color="#FFD553" stop-opacity=".78"/><stop offset=".09" stop-color="#FFCC41" stop-opacity=".61"/><stop offset=".14" stop-color="#FFC531" stop-opacity=".47"/><stop offset=".2" stop-color="#FFBE24" stop-opacity=".34"/><stop offset=".25" stop-color="#FFB918" stop-opacity=".23"/><stop offset=".32" stop-color="#FFB40F" stop-opacity=".15"/><stop offset=".4" stop-color="#FFB108" stop-opacity=".08"/><stop offset=".49" stop-color="#FFAE03" stop-opacity=".03"/><stop offset=".63" stop-color="#FFAD00" stop-opacity="0"/><stop offset="1" stop-color="#FFAD00" stop-opacity="0"/></linearGradient><linearGradient id="F" x1="515.17" x2="496.338" y1="34.449" y2="34.449" gradientUnits="userSpaceOnUse"><stop stop-color="#FFBA00"/><stop offset=".02" stop-color="#FFB900" stop-opacity=".96"/><stop offset=".18" stop-color="#FFB600" stop-opacity=".71"/><stop offset=".34" stop-color="#FFB300" stop-opacity=".49"/><stop offset=".49" stop-color="#FFB100" stop-opacity=".32"/><stop offset=".64" stop-color="#FFAF00" stop-opacity=".18"/><stop offset=".78" stop-color="#FFAE00" stop-opacity=".08"/><stop offset=".9" stop-color="#FFAD00" stop-opacity=".02"/><stop offset="1" stop-color="#FFAD00" stop-opacity="0"/></linearGradient><linearGradient id="G" x1="496.338" x2="477.506" y1="34.449" y2="34.449" gradientUnits="userSpaceOnUse"><stop stop-color="#FFC208"/><stop offset=".01" stop-color="#FFC107" stop-opacity=".97"/><stop offset=".13" stop-color="#FFBC05" stop-opacity=".75"/><stop offset=".25" stop-color="#FFB804" stop-opacity=".55"/><stop offset=".37" stop-color="#FFB403" stop-opacity=".38"/><stop offset=".49" stop-color="#FFB201" stop-opacity=".24"/><stop offset=".62" stop-color="#FFAF01" stop-opacity=".14"/><stop offset=".74" stop-color="#FFAE00" stop-opacity=".06"/><stop offset=".87" stop-color="#FFAD00" stop-opacity=".01"/><stop offset="1" stop-color="#FFAD00" stop-opacity="0"/></linearGradient><linearGradient id="H" x1="477.506" x2="458.674" y1="34.449" y2="34.449" gradientUnits="userSpaceOnUse"><stop stop-color="#FFCB25"/><stop offset=".02" stop-color="#FFC923" stop-opacity=".96"/><stop offset=".14" stop-color="#FFC31B" stop-opacity=".74"/><stop offset=".25" stop-color="#FFBD13" stop-opacity=".54"/><stop offset=".37" stop-color="#FFB80D" stop-opacity=".37"/><stop offset=".49" stop-color="#FFB408" stop-opacity=".24"/><stop offset=".61" stop-color="#FFB104" stop-opacity=".13"/><stop offset=".74" stop-color="#FFAE02" stop-opacity=".06"/><stop offset=".86" stop-color="#FFAD00" stop-opacity=".01"/><stop offset="1" stop-color="#FFAD00" stop-opacity="0"/></linearGradient><linearGradient id="I" x1="439.842" x2="421.01" y1="34.449" y2="34.449" gradientUnits="userSpaceOnUse"><stop stop-color="#FFE16A"/><stop offset=".06" stop-color="#FFD95A" stop-opacity=".86"/><stop offset=".16" stop-color="#FFCF45" stop-opacity=".66"/><stop offset=".26" stop-color="#FFC632" stop-opacity=".48"/><stop offset=".37" stop-color="#FFBE23" stop-opacity=".33"/><stop offset=".48" stop-color="#FFB816" stop-opacity=".21"/><stop offset=".59" stop-color="#FFB30C" stop-opacity=".12"/><stop offset=".71" stop-color="#FFAF05" stop-opacity=".05"/><stop offset=".84" stop-color="#FFAD01" stop-opacity=".01"/><stop offset="1" stop-color="#FFAD00" stop-opacity="0"/></linearGradient><linearGradient id="J" x1="458.674" x2="439.842" y1="34.449" y2="34.449" gradientUnits="userSpaceOnUse"><stop stop-color="#FFD83D"/><stop offset=".06" stop-color="#FFD134" stop-opacity=".86"/><stop offset=".16" stop-color="#FFC928" stop-opacity=".66"/><stop offset=".26" stop-color="#FFC11D" stop-opacity=".48"/><stop offset=".37" stop-color="#FFBB14" stop-opacity=".33"/><stop offset=".48" stop-color="#FFB60C" stop-opacity=".21"/><stop offset=".59" stop-color="#FFB207" stop-opacity=".12"/><stop offset=".71" stop-color="#FFAF03" stop-opacity=".05"/><stop offset=".84" stop-color="#FFAD00" stop-opacity=".01"/><stop offset="1" stop-color="#FFAD00" stop-opacity="0"/></linearGradient><linearGradient id="K" x1="421.01" x2="402.178" y1="34.449" y2="34.449" gradientUnits="userSpaceOnUse"><stop stop-color="#FFE16A"/><stop offset=".06" stop-color="#FFD95A" stop-opacity=".86"/><stop offset=".16" stop-color="#FFCF45" stop-opacity=".66"/><stop offset=".26" stop-color="#FFC632" stop-opacity=".48"/><stop offset=".37" stop-color="#FFBE23" stop-opacity=".33"/><stop offset=".48" stop-color="#FFB816" stop-opacity=".21"/><stop offset=".59" stop-color="#FFB30C" stop-opacity=".12"/><stop offset=".71" stop-color="#FFAF05" stop-opacity=".05"/><stop offset=".84" stop-color="#FFAD01" stop-opacity=".01"/><stop offset="1" stop-color="#FFAD00" stop-opacity="0"/></linearGradient><linearGradient id="L" x1="500.325" x2="484.752" y1="116.22" y2="116.22" gradientUnits="userSpaceOnUse"><stop stop-color="#FFCB25"/><stop offset=".02" stop-color="#FFC923" stop-opacity=".96"/><stop offset=".14" stop-color="#FFC31B" stop-opacity=".74"/><stop offset=".25" stop-color="#FFBD13" stop-opacity=".54"/><stop offset=".37" stop-color="#FFB80D" stop-opacity=".37"/><stop offset=".49" stop-color="#FFB408" stop-opacity=".24"/><stop offset=".61" stop-color="#FFB104" stop-opacity=".13"/><stop offset=".74" stop-color="#FFAE02" stop-opacity=".06"/><stop offset=".86" stop-color="#FFAD00" stop-opacity=".01"/><stop offset="1" stop-color="#FFAD00" stop-opacity="0"/></linearGradient><linearGradient id="M" x1="469.179" x2="453.607" y1="116.22" y2="116.22" gradientUnits="userSpaceOnUse"><stop stop-color="#FFE16A"/><stop offset=".02" stop-color="#FFDD62" stop-opacity=".93"/><stop offset=".09" stop-color="#FFD34D" stop-opacity=".74"/><stop offset=".17" stop-color="#FFCA3B" stop-opacity=".56"/><stop offset=".25" stop-color="#FFC22B" stop-opacity=".41"/><stop offset=".33" stop-color="#FFBB1D" stop-opacity=".28"/><stop offset=".43" stop-color="#FFB612" stop-opacity=".18"/><stop offset=".53" stop-color="#FFB20A" stop-opacity=".1"/><stop offset=".64" stop-color="#FFAF04" stop-opacity=".04"/><stop offset=".77" stop-color="#FFAD01" stop-opacity="0"/><stop offset="1" stop-color="#FFAD00" stop-opacity="0"/></linearGradient><linearGradient id="N" x1="484.752" x2="469.18" y1="116.22" y2="116.22" gradientUnits="userSpaceOnUse"><stop stop-color="#FFD83D"/><stop offset=".06" stop-color="#FFD134" stop-opacity=".86"/><stop offset=".16" stop-color="#FFC928" stop-opacity=".66"/><stop offset=".26" stop-color="#FFC11D" stop-opacity=".48"/><stop offset=".37" stop-color="#FFBB14" stop-opacity=".33"/><stop offset=".48" stop-color="#FFB60C" stop-opacity=".21"/><stop offset=".59" stop-color="#FFB207" stop-opacity=".12"/><stop offset=".71" stop-color="#FFAF03" stop-opacity=".05"/><stop offset=".84" stop-color="#FFAD00" stop-opacity=".01"/><stop offset="1" stop-color="#FFAD00" stop-opacity="0"/></linearGradient><linearGradient id="O" x1="453.606" x2="438.034" y1="116.22" y2="116.22" gradientUnits="userSpaceOnUse"><stop stop-color="#FFE16A"/><stop offset=".05" stop-color="#FFD756" stop-opacity=".81"/><stop offset=".1" stop-color="#FFCE44" stop-opacity=".64"/><stop offset=".15" stop-color="#FFC633" stop-opacity=".49"/><stop offset=".21" stop-color="#FFBF25" stop-opacity=".36"/><stop offset=".28" stop-color="#FFB919" stop-opacity=".25"/><stop offset=".35" stop-color="#FFB510" stop-opacity=".15"/><stop offset=".44" stop-color="#FFB109" stop-opacity=".08"/><stop offset=".54" stop-color="#FFAE03" stop-opacity=".04"/><stop offset=".68" stop-color="#FFAD00" stop-opacity="0"/><stop offset="1" stop-color="#FFAD00" stop-opacity="0"/></linearGradient><linearGradient id="P" x1="500.518" x2="488.429" y1="205.055" y2="205.055" gradientUnits="userSpaceOnUse"><stop stop-color="#FFE16A"/><stop offset=".05" stop-color="#FFD756" stop-opacity=".81"/><stop offset=".1" stop-color="#FFCE44" stop-opacity=".64"/><stop offset=".15" stop-color="#FFC633" stop-opacity=".49"/><stop offset=".21" stop-color="#FFBF25" stop-opacity=".36"/><stop offset=".28" stop-color="#FFB919" stop-opacity=".25"/><stop offset=".35" stop-color="#FFB510" stop-opacity=".15"/><stop offset=".44" stop-color="#FFB109" stop-opacity=".08"/><stop offset=".54" stop-color="#FFAE03" stop-opacity=".04"/><stop offset=".68" stop-color="#FFAD00" stop-opacity="0"/><stop offset="1" stop-color="#FFAD00" stop-opacity="0"/></linearGradient><linearGradient id="Q" x1="488.429" x2="476.34" y1="205.055" y2="205.055" gradientUnits="userSpaceOnUse"><stop stop-color="#FFDF66" stop-opacity=".96"/><stop offset=".05" stop-color="#FFD553" stop-opacity=".78"/><stop offset=".09" stop-color="#FFCC41" stop-opacity=".61"/><stop offset=".14" stop-color="#FFC531" stop-opacity=".47"/><stop offset=".2" stop-color="#FFBE24" stop-opacity=".34"/><stop offset=".25" stop-color="#FFB918" stop-opacity=".23"/><stop offset=".32" stop-color="#FFB40F" stop-opacity=".15"/><stop offset=".4" stop-color="#FFB108" stop-opacity=".08"/><stop offset=".49" stop-color="#FFAE03" stop-opacity=".03"/><stop offset=".63" stop-color="#FFAD00" stop-opacity="0"/><stop offset="1" stop-color="#FFAD00" stop-opacity="0"/></linearGradient><linearGradient id="T" x1="515.17" x2="496.338" y1="465.635" y2="465.635" gradientUnits="userSpaceOnUse"><stop stop-color="#FFBA00"/><stop offset=".02" stop-color="#FFB900" stop-opacity=".96"/><stop offset=".18" stop-color="#FFB600" stop-opacity=".71"/><stop offset=".34" stop-color="#FFB300" stop-opacity=".49"/><stop offset=".49" stop-color="#FFB100" stop-opacity=".32"/><stop offset=".64" stop-color="#FFAF00" stop-opacity=".18"/><stop offset=".78" stop-color="#FFAE00" stop-opacity=".08"/><stop offset=".9" stop-color="#FFAD00" stop-opacity=".02"/><stop offset="1" stop-color="#FFAD00" stop-opacity="0"/></linearGradient><linearGradient id="U" x1="496.338" x2="477.506" y1="465.635" y2="465.635" gradientUnits="userSpaceOnUse"><stop stop-color="#FFC208"/><stop offset=".01" stop-color="#FFC107" stop-opacity=".97"/><stop offset=".13" stop-color="#FFBC05" stop-opacity=".75"/><stop offset=".25" stop-color="#FFB804" stop-opacity=".55"/><stop offset=".37" stop-color="#FFB403" stop-opacity=".38"/><stop offset=".49" stop-color="#FFB201" stop-opacity=".24"/><stop offset=".62" stop-color="#FFAF01" stop-opacity=".14"/><stop offset=".74" stop-color="#FFAE00" stop-opacity=".06"/><stop offset=".87" stop-color="#FFAD00" stop-opacity=".01"/><stop offset="1" stop-color="#FFAD00" stop-opacity="0"/></linearGradient><linearGradient id="V" x1="477.506" x2="458.674" y1="465.635" y2="465.635" gradientUnits="userSpaceOnUse"><stop stop-color="#FFCB25"/><stop offset=".02" stop-color="#FFC923" stop-opacity=".96"/><stop offset=".14" stop-color="#FFC31B" stop-opacity=".74"/><stop offset=".25" stop-color="#FFBD13" stop-opacity=".54"/><stop offset=".37" stop-color="#FFB80D" stop-opacity=".37"/><stop offset=".49" stop-color="#FFB408" stop-opacity=".24"/><stop offset=".61" stop-color="#FFB104" stop-opacity=".13"/><stop offset=".74" stop-color="#FFAE02" stop-opacity=".06"/><stop offset=".86" stop-color="#FFAD00" stop-opacity=".01"/><stop offset="1" stop-color="#FFAD00" stop-opacity="0"/></linearGradient><linearGradient id="W" x1="439.842" x2="421.01" y1="465.635" y2="465.635" gradientUnits="userSpaceOnUse"><stop stop-color="#FFE16A"/><stop offset=".06" stop-color="#FFD95A" stop-opacity=".86"/><stop offset=".16" stop-color="#FFCF45" stop-opacity=".66"/><stop offset=".26" stop-color="#FFC632" stop-opacity=".48"/><stop offset=".37" stop-color="#FFBE23" stop-opacity=".33"/><stop offset=".48" stop-color="#FFB816" stop-opacity=".21"/><stop offset=".59" stop-color="#FFB30C" stop-opacity=".12"/><stop offset=".71" stop-color="#FFAF05" stop-opacity=".05"/><stop offset=".84" stop-color="#FFAD01" stop-opacity=".01"/><stop offset="1" stop-color="#FFAD00" stop-opacity="0"/></linearGradient><linearGradient id="X" x1="458.674" x2="439.842" y1="465.635" y2="465.635" gradientUnits="userSpaceOnUse"><stop stop-color="#FFD83D"/><stop offset=".06" stop-color="#FFD134" stop-opacity=".86"/><stop offset=".16" stop-color="#FFC928" stop-opacity=".66"/><stop offset=".26" stop-color="#FFC11D" stop-opacity=".48"/><stop offset=".37" stop-color="#FFBB14" stop-opacity=".33"/><stop offset=".48" stop-color="#FFB60C" stop-opacity=".21"/><stop offset=".59" stop-color="#FFB207" stop-opacity=".12"/><stop offset=".71" stop-color="#FFAF03" stop-opacity=".05"/><stop offset=".84" stop-color="#FFAD00" stop-opacity=".01"/><stop offset="1" stop-color="#FFAD00" stop-opacity="0"/></linearGradient><linearGradient id="Y" x1="421.01" x2="402.179" y1="465.635" y2="465.635" gradientUnits="userSpaceOnUse"><stop stop-color="#FFE16A"/><stop offset=".06" stop-color="#FFD95A" stop-opacity=".86"/><stop offset=".16" stop-color="#FFCF45" stop-opacity=".66"/><stop offset=".26" stop-color="#FFC632" stop-opacity=".48"/><stop offset=".37" stop-color="#FFBE23" stop-opacity=".33"/><stop offset=".48" stop-color="#FFB816" stop-opacity=".21"/><stop offset=".59" stop-color="#FFB30C" stop-opacity=".12"/><stop offset=".71" stop-color="#FFAF05" stop-opacity=".05"/><stop offset=".84" stop-color="#FFAD01" stop-opacity=".01"/><stop offset="1" stop-color="#FFAD00" stop-opacity="0"/></linearGradient><linearGradient id="Z" x1="500.325" x2="484.752" y1="383.864" y2="383.864" gradientUnits="userSpaceOnUse"><stop stop-color="#FFCB25"/><stop offset=".02" stop-color="#FFC923" stop-opacity=".96"/><stop offset=".14" stop-color="#FFC31B" stop-opacity=".74"/><stop offset=".25" stop-color="#FFBD13" stop-opacity=".54"/><stop offset=".37" stop-color="#FFB80D" stop-opacity=".37"/><stop offset=".49" stop-color="#FFB408" stop-opacity=".24"/><stop offset=".61" stop-color="#FFB104" stop-opacity=".13"/><stop offset=".74" stop-color="#FFAE02" stop-opacity=".06"/><stop offset=".86" stop-color="#FFAD00" stop-opacity=".01"/><stop offset="1" stop-color="#FFAD00" stop-opacity="0"/></linearGradient><linearGradient id="aa" x1="469.179" x2="453.607" y1="383.864" y2="383.864" gradientUnits="userSpaceOnUse"><stop stop-color="#FFE16A"/><stop offset=".02" stop-color="#FFDD62" stop-opacity=".93"/><stop offset=".09" stop-color="#FFD34D" stop-opacity=".74"/><stop offset=".17" stop-color="#FFCA3B" stop-opacity=".56"/><stop offset=".25" stop-color="#FFC22B" stop-opacity=".41"/><stop offset=".33" stop-color="#FFBB1D" stop-opacity=".28"/><stop offset=".43" stop-color="#FFB612" stop-opacity=".18"/><stop offset=".53" stop-color="#FFB20A" stop-opacity=".1"/><stop offset=".64" stop-color="#FFAF04" stop-opacity=".04"/><stop offset=".77" stop-color="#FFAD01" stop-opacity="0"/><stop offset="1" stop-color="#FFAD00" stop-opacity="0"/></linearGradient><linearGradient id="ab" x1="484.752" x2="469.18" y1="383.864" y2="383.864" gradientUnits="userSpaceOnUse"><stop stop-color="#FFD83D"/><stop offset=".06" stop-color="#FFD134" stop-opacity=".86"/><stop offset=".16" stop-color="#FFC928" stop-opacity=".66"/><stop offset=".26" stop-color="#FFC11D" stop-opacity=".48"/><stop offset=".37" stop-color="#FFBB14" stop-opacity=".33"/><stop offset=".48" stop-color="#FFB60C" stop-opacity=".21"/><stop offset=".59" stop-color="#FFB207" stop-opacity=".12"/><stop offset=".71" stop-color="#FFAF03" stop-opacity=".05"/><stop offset=".84" stop-color="#FFAD00" stop-opacity=".01"/><stop offset="1" stop-color="#FFAD00" stop-opacity="0"/></linearGradient><linearGradient id="ac" x1="453.606" x2="438.034" y1="383.864" y2="383.864" gradientUnits="userSpaceOnUse"><stop stop-color="#FFE16A"/><stop offset=".05" stop-color="#FFD756" stop-opacity=".81"/><stop offset=".1" stop-color="#FFCE44" stop-opacity=".64"/><stop offset=".15" stop-color="#FFC633" stop-opacity=".49"/><stop offset=".21" stop-color="#FFBF25" stop-opacity=".36"/><stop offset=".28" stop-color="#FFB919" stop-opacity=".25"/><stop offset=".35" stop-color="#FFB510" stop-opacity=".15"/><stop offset=".44" stop-color="#FFB109" stop-opacity=".08"/><stop offset=".54" stop-color="#FFAE03" stop-opacity=".04"/><stop offset=".68" stop-color="#FFAD00" stop-opacity="0"/><stop offset="1" stop-color="#FFAD00" stop-opacity="0"/></linearGradient><linearGradient id="ad" x1="500.518" x2="488.429" y1="295.029" y2="295.029" gradientUnits="userSpaceOnUse"><stop stop-color="#FFE16A"/><stop offset=".05" stop-color="#FFD756" stop-opacity=".81"/><stop offset=".1" stop-color="#FFCE44" stop-opacity=".64"/><stop offset=".15" stop-color="#FFC633" stop-opacity=".49"/><stop offset=".21" stop-color="#FFBF25" stop-opacity=".36"/><stop offset=".28" stop-color="#FFB919" stop-opacity=".25"/><stop offset=".35" stop-color="#FFB510" stop-opacity=".15"/><stop offset=".44" stop-color="#FFB109" stop-opacity=".08"/><stop offset=".54" stop-color="#FFAE03" stop-opacity=".04"/><stop offset=".68" stop-color="#FFAD00" stop-opacity="0"/><stop offset="1" stop-color="#FFAD00" stop-opacity="0"/></linearGradient><linearGradient id="ae" x1="488.429" x2="476.34" y1="295.029" y2="295.029" gradientUnits="userSpaceOnUse"><stop stop-color="#FFDF66" stop-opacity=".96"/><stop offset=".05" stop-color="#FFD553" stop-opacity=".78"/><stop offset=".09" stop-color="#FFCC41" stop-opacity=".61"/><stop offset=".14" stop-color="#FFC531" stop-opacity=".47"/><stop offset=".2" stop-color="#FFBE24" stop-opacity=".34"/><stop offset=".25" stop-color="#FFB918" stop-opacity=".23"/><stop offset=".32" stop-color="#FFB40F" stop-opacity=".15"/><stop offset=".4" stop-color="#FFB108" stop-opacity=".08"/><stop offset=".49" stop-color="#FFAE03" stop-opacity=".03"/><stop offset=".63" stop-color="#FFAD00" stop-opacity="0"/><stop offset="1" stop-color="#FFAD00" stop-opacity="0"/></linearGradient><clipPath id="a"><path fill="#fff" d="M0 0h500v500H0z"/></clipPath><clipPath id="b"><path fill="#fff" d="M147 250h-506v506h506z"/></clipPath><clipPath id="c"><path fill="#fff" d="M320.82 250v506h-506V250z"/></clipPath><clipPath id="p"><path fill="#fff" d="M147-256h-506v506h506z"/></clipPath><clipPath id="q"><path fill="#fff" d="M320.82-256v506h-506v-506z"/></clipPath><clipPath id="D"><path fill="#fff" d="M352 250h506v-506H352z"/></clipPath><clipPath id="E"><path fill="#fff" d="M178.18 250v-506h506v506z"/></clipPath><clipPath id="R"><path fill="#fff" d="M352 756h506V250H352z"/></clipPath><clipPath id="S"><path fill="#fff" d="M178.18 756V250h506v506z"/></clipPath></defs></svg>
