<svg xmlns="http://www.w3.org/2000/svg" width="275" height="50" fill="none"><g clip-path="url(#a)"><path fill="#000" d="M273.815 36.65a1.485 1.485 0 0 0-1.456 1.771 1.477 1.477 0 0 0 1.166 1.165 1.487 1.487 0 0 0 1.524-.63 1.482 1.482 0 0 0-1.234-2.307Zm0 2.732a1.254 1.254 0 0 1-1.157-.772 1.25 1.25 0 0 1 1.636-1.633 1.255 1.255 0 0 1 .772 1.155 1.247 1.247 0 0 1-1.251 1.25Zm.482-1.502c0-.27-.193-.43-.475-.43h-.475v1.35h.234v-.49h.253l.245.49h.251l-.265-.54a.386.386 0 0 0 .175-.154.384.384 0 0 0 .057-.226Zm-.485.224h-.23v-.448h.23c.156 0 .251.079.251.224 0 .144-.095.226-.251.226v-.002ZM22.167 28.28a5.802 5.802 0 0 1-3.59 5.367 5.825 5.825 0 0 1-6.34-1.26 5.806 5.806 0 0 1 4.114-9.915 5.82 5.82 0 0 1 4.112 1.7 5.804 5.804 0 0 1 1.704 4.108Zm32.79 0a5.803 5.803 0 0 1-3.59 5.367 5.823 5.823 0 0 1-6.339-1.26 5.805 5.805 0 0 1 4.113-9.915 5.82 5.82 0 0 1 4.113 1.7 5.804 5.804 0 0 1 1.704 4.108ZM53.63 10.417C47.684 6.365 40.508 4 32.746 4a36.822 36.822 0 0 0-20.844 6.417H0l5.355 5.818A16.303 16.303 0 0 0 .017 28.313c0 9.025 7.326 16.342 16.364 16.342a16.315 16.315 0 0 0 11.12-4.355l5.246 5.7 5.245-5.7a16.315 16.315 0 0 0 11.119 4.353c9.037 0 16.37-7.317 16.37-16.342a16.282 16.282 0 0 0-5.337-12.078l5.354-5.819-11.868.003ZM16.381 39.372c-6.116 0-11.074-4.95-11.074-11.059 0-6.108 4.958-11.06 11.074-11.06s11.075 4.952 11.075 11.06c0 6.108-4.958 11.06-11.075 11.06ZM32.75 27.994c0-7.278-5.3-13.52-12.292-16.193a31.995 31.995 0 0 1 24.58 0C38.05 14.473 32.75 20.717 32.75 27.994Zm27.436.319c0 6.108-4.959 11.06-11.075 11.06s-11.075-4.952-11.075-11.06c0-6.108 4.959-11.06 11.075-11.06 6.117 0 11.075 4.952 11.075 11.06Zm38.843-10.286h2.576v5.09H98.59c-2.321 0-3.81 1.138-3.81 3.457v12.798h-5.51V18.027h5.51v3.587c.482-2.537 2.234-3.587 4.25-3.587h-.002Zm11.067-5.076a3.324 3.324 0 0 1-3.329 3.325 3.33 3.33 0 0 1-3.329-3.325c0-1.88 1.445-3.368 3.329-3.368 1.883 0 3.329 1.487 3.329 3.368Zm-6.077 5.076h5.493v21.345h-5.495l.002-21.345Zm20.627-.36a10.639 10.639 0 0 0-6.486 2.165v-1.805h-5.494v27.61h5.494v-8.07a10.64 10.64 0 0 0 6.486 2.166c6.102 0 11.046-4.94 11.046-11.033 0-6.094-4.943-11.034-11.045-11.034h-.001Zm-.484 17.026a6.006 6.006 0 0 1-5.545-3.7 5.993 5.993 0 0 1-.342-3.463 5.998 5.998 0 0 1 4.716-4.709 6.01 6.01 0 0 1 6.162 2.549 5.991 5.991 0 0 1-4.99 9.323h-.001Zm112.27-2.063c0 4.115-3.536 7.103-8.407 7.103-5.055 0-8.585-3.058-8.585-7.438v-.119h5.377v.12c0 1.827 1.306 3.055 3.253 3.055 1.865 0 3.119-.91 3.119-2.262 0-1.281-.867-1.998-3.2-2.642l-3.071-.837c-3.227-.872-5.077-2.972-5.077-5.76 0-3.583 3.385-6.184 8.05-6.184 4.71 0 7.874 2.603 7.874 6.477v.121h-5.066v-.121c0-1.316-1.233-2.346-2.808-2.346-1.653 0-2.807.758-2.807 1.844 0 1.113.822 1.759 2.931 2.308l3.207.878c4.306 1.147 5.211 3.789 5.211 5.803h-.001Zm-81.237-12.798a10.641 10.641 0 0 0-6.489-2.166c-6.103 0-11.049 4.94-11.049 11.034 0 6.093 4.947 11.033 11.049 11.033 2.341.011 4.622-.75 6.486-2.166v1.805h5.494V18.027h-5.494l.003 1.805Zm0 8.868a6 6 0 0 1-7.174 5.878 6.008 6.008 0 0 1-3.073-1.64 5.989 5.989 0 0 1 .91-9.222 6.01 6.01 0 0 1 7.577.746 5.987 5.987 0 0 1 1.758 4.238h.002Zm25.341-8.868a10.643 10.643 0 0 0-6.486-2.166c-6.102 0-11.049 4.94-11.049 11.034 0 6.093 4.947 11.033 11.049 11.033 2.341.011 4.621-.75 6.486-2.166v1.805h5.494V10.43h-5.494v9.403Zm-6.002 14.861a6.006 6.006 0 0 1-5.545-3.7 5.99 5.99 0 0 1 4.373-8.173 6.01 6.01 0 0 1 6.162 2.55 5.985 5.985 0 0 1-.747 7.569 6.012 6.012 0 0 1-4.246 1.754h.003ZM211.55 18.03h5.495v21.343h-5.495V18.03Zm6.077-5.075a3.33 3.33 0 0 1-6.659 0c0-1.882 1.446-3.369 3.329-3.369 1.884 0 3.327 1.485 3.327 3.366l.003.003Zm31.515 4.715c-6.101 0-11.048 4.94-11.048 11.033 0 6.093 4.947 11.033 11.048 11.033 6.102 0 11.046-4.94 11.046-11.033 0-6.093-4.948-11.036-11.049-11.036l.003.003Zm0 17.027a6.006 6.006 0 0 1-5.545-3.7 5.985 5.985 0 0 1 1.301-6.532 6.007 6.007 0 0 1 9.235.908 5.991 5.991 0 0 1-.748 7.568 6.009 6.009 0 0 1-4.246 1.753l.003.003ZM91.966 15.326h-7.804v24.046h-5.476V15.326h-7.804v-4.897h21.082l.002 4.897Zm111.509 2.7h5.773l-7.376 21.346h-6.61l-7.336-21.345h5.772l4.889 15.5 4.888-15.5Zm69.016 0h2.575v5.091h-3.013c-2.322 0-3.812 1.138-3.812 3.457v12.798h-5.509V18.027h5.509v3.587c.483-2.537 2.235-3.587 4.25-3.587Z"/></g><defs><clipPath id="a"><path fill="#fff" d="M0 0h275v50H0z"/></clipPath></defs></svg>